<svg width="1579" height="585" viewBox="0 0 1579 585" fill="none" xmlns="http://www.w3.org/2000/svg">
<path d="M114 189C118.028 189.731 121.091 190.896 124.727 192.809C125.831 193.386 126.935 193.963 128.073 194.557C129.257 195.184 130.441 195.811 131.625 196.438C132.85 197.08 134.076 197.723 135.302 198.365C138.872 200.236 142.436 202.118 146 204C147.731 204.911 149.463 205.821 151.195 206.73C154.202 208.31 157.207 209.892 160.211 211.477C165.929 214.49 171.65 217.499 177.375 220.5C178.357 221.017 179.339 221.534 180.351 222.067C181.735 222.792 181.735 222.792 183.148 223.531C183.965 223.96 184.781 224.388 185.623 224.83C188.012 226.052 188.012 226.052 190.656 227.011C193.886 228.374 195.417 230.365 197.625 233.062C198.38 233.961 199.136 234.859 199.914 235.785C205.463 244.338 205.43 252.9 205.411 262.723C205.406 265.211 205.42 267.698 205.439 270.186C205.476 275.478 205.489 280.77 205.5 286.062C205.512 292.18 205.534 298.297 205.58 304.414C205.593 306.836 205.589 309.257 205.585 311.678C205.63 324.432 206.367 337.932 212.687 349.312C213.033 349.969 213.379 350.625 213.736 351.301C216.962 357.261 220.772 362.706 225 368C225.443 368.607 225.887 369.214 226.344 369.84C237.495 384.289 255.355 392.792 272 399C272.33 398.34 272.66 397.68 273 397C273.66 397.33 274.32 397.66 275 398C286.985 378.211 286.985 378.211 292 356C292.66 356 293.32 356 294 356C296.172 349.975 297.411 344.023 298.187 337.688C298.271 337.006 298.355 336.325 298.441 335.623C298.848 332.065 299.09 328.58 299 325C298.67 325 298.34 325 298 325C298 298.6 298 272.2 298 245C298.66 245 299.32 245 300 245C300 264.8 300 284.6 300 305C300.21 285.524 300.21 285.524 300.388 266.048C300.42 263.603 300.454 261.157 300.488 258.711C300.494 257.446 300.501 256.181 300.507 254.878C300.527 253.661 300.547 252.443 300.568 251.189C300.584 249.61 300.584 249.61 300.601 247.999C301.427 241.789 304.632 237.582 309.322 233.701C315.091 230.037 321.767 228.315 328.25 226.312C329.833 225.808 331.415 225.302 332.997 224.794C335.462 224.003 337.928 223.213 340.396 222.432C346.345 220.547 352.26 218.577 358.164 216.559C359.808 215.999 361.452 215.439 363.097 214.88C365.471 214.071 367.844 213.261 370.215 212.443C372.409 211.688 374.606 210.944 376.805 210.203C378.052 209.777 379.3 209.35 380.585 208.911C383.898 208.027 386.593 207.816 390 208C391.293 210.586 391.118 212.432 391.109 215.328C391.107 216.452 391.105 217.576 391.104 218.734C391.093 220.585 391.093 220.585 391.082 222.473C391.076 224.406 391.076 224.406 391.069 226.378C391.057 229.87 391.037 233.362 391.014 236.854C391 238.97 390.988 241.087 390.976 243.204C390.93 251.082 390.86 258.96 390.764 266.837C390.719 270.518 390.68 274.199 390.654 277.881C390.49 300.016 390.317 322.064 382.678 343.114C381.996 345.012 381.361 346.921 380.73 348.836C375.248 364.971 366.689 379.775 356 393C354.687 394.75 353.375 396.5 352.062 398.25C350.41 400.453 350.41 400.453 349 402C348.34 402 347.68 402 347 402C346.727 402.597 346.453 403.194 346.172 403.809C340.041 415.272 323.867 424.657 313 431C311.378 431.969 311.378 431.969 309.723 432.957C299.372 438.923 288.392 442.524 277 446C277 446.99 277 447.98 277 449C266.167 451.193 255.627 452.3 244.562 452.312C243.498 452.318 242.435 452.323 241.338 452.328C234.062 452.265 227.138 451.394 220 450C220.33 449.01 220.66 448.02 221 447C220.04 446.897 219.079 446.794 218.09 446.688C194.193 443.233 173.082 428.121 156 412C155.263 411.327 154.525 410.654 153.766 409.961C139.983 396.912 129.547 379.712 123 362C122.633 361.034 122.633 361.034 122.258 360.049C114.175 338.582 113.56 317.431 113.696 294.712C113.715 290.982 113.716 287.251 113.72 283.521C113.729 276.492 113.754 269.462 113.784 262.433C113.818 254.416 113.834 246.399 113.849 238.381C113.88 221.921 113.933 205.46 114 189ZM361 238C361 243.61 361 249.22 361 255C367.93 255 374.86 255 382 255C382 249.39 382 243.78 382 238C375.07 238 368.14 238 361 238ZM271 447C271.33 447.66 271.66 448.32 272 449C272.33 448.34 272.66 447.68 273 447C272.34 447 271.68 447 271 447ZM222 448C228.624 452.416 238.045 451.155 245.75 451.125C247.272 451.131 247.272 451.131 248.824 451.137C250.296 451.135 250.296 451.135 251.797 451.133C252.677 451.132 253.557 451.131 254.464 451.129C257.062 450.997 259.465 450.573 262 450C262 449.67 262 449.34 262 449C260.928 449.008 260.928 449.008 259.835 449.016C233.616 449.183 233.616 449.183 222 448ZM264 448C263.67 448.66 263.34 449.32 263 450C264.98 449.67 266.96 449.34 269 449C269 448.67 269 448.34 269 448C267.35 448 265.7 448 264 448Z" fill="white"/>
<path d="M390 208C391.293 210.586 391.118 212.432 391.109 215.328C391.107 216.452 391.106 217.576 391.104 218.735C391.097 219.968 391.089 221.202 391.082 222.473C391.078 223.761 391.074 225.05 391.069 226.378C391.057 229.87 391.037 233.362 391.014 236.854C391 238.971 390.988 241.087 390.976 243.204C390.93 251.082 390.86 258.96 390.764 266.837C390.719 270.518 390.68 274.199 390.654 277.881C390.49 300.016 390.317 322.064 382.678 343.114C381.996 345.012 381.361 346.921 380.73 348.836C375.249 364.971 366.689 379.775 356 393C354.687 394.75 353.375 396.5 352.062 398.25C350.41 400.453 350.41 400.453 349 402C348.34 402 347.68 402 347 402C346.727 402.597 346.453 403.194 346.172 403.809C340.041 415.272 323.867 424.657 313 431C311.378 431.969 311.378 431.969 309.723 432.957C299.372 438.923 288.392 442.524 277 446C277 446.99 277 447.98 277 449C266.167 451.193 255.627 452.3 244.562 452.313C243.499 452.318 242.435 452.323 241.338 452.328C234.062 452.265 227.138 451.394 220 450C220.33 449.01 220.66 448.02 221 447C219.559 446.845 219.559 446.845 218.09 446.688C200.731 444.178 183.478 434.951 170 424C170.66 423.67 171.32 423.34 172 423C176.512 424.994 180.726 427.547 185 430C186.326 430.68 187.656 431.355 189 432C189 432.66 189 433.32 189 434C192.198 435.706 195.44 436.913 198.875 438.063C199.883 438.404 200.891 438.746 201.93 439.098C215.25 443.013 227.927 438.83 240 433C242.424 431.563 244.712 430.073 246.973 428.395C249 427 249 427 251.875 425.672C255.471 423.748 258.122 421.33 260.938 418.438C261.456 417.913 261.975 417.389 262.509 416.849C266.921 412.288 270.622 407.376 274 402C272.02 401.01 272.02 401.01 270 400C271.114 399.918 272.227 399.835 273.375 399.75C275.169 399.379 275.169 399.379 277 399C278.376 397.082 278.376 397.082 279 395C279.66 394.67 280.32 394.34 281 394C281.666 391.766 281.666 391.766 282.188 389C283.634 382.727 285.914 377.065 288.575 371.229C290.825 366.106 291.594 361.586 292 356C292.66 356 293.32 356 294 356C296.172 349.975 297.411 344.023 298.188 337.688C298.271 337.006 298.355 336.325 298.441 335.623C298.848 332.066 299.09 328.58 299 325C298.67 325 298.34 325 298 325C298 298.6 298 272.2 298 245C298.66 245 299.32 245 300 245C300 264.8 300 284.6 300 305C300.21 285.524 300.21 285.524 300.388 266.048C300.42 263.603 300.454 261.157 300.488 258.711C300.495 257.446 300.501 256.181 300.507 254.878C300.527 253.661 300.547 252.443 300.568 251.189C300.584 249.61 300.584 249.61 300.601 247.999C301.427 241.789 304.632 237.583 309.322 233.701C315.091 230.037 321.767 228.315 328.25 226.313C329.833 225.808 331.415 225.302 332.997 224.794C335.462 224.003 337.928 223.213 340.396 222.432C346.345 220.547 352.26 218.577 358.164 216.559C359.808 215.999 361.452 215.439 363.097 214.88C365.471 214.071 367.844 213.261 370.215 212.443C372.409 211.688 374.606 210.944 376.805 210.203C378.052 209.777 379.3 209.35 380.585 208.911C383.898 208.027 386.593 207.816 390 208ZM361 238C361 243.61 361 249.22 361 255C367.93 255 374.86 255 382 255C382 249.39 382 243.78 382 238C375.07 238 368.14 238 361 238ZM271 447C271.33 447.66 271.66 448.32 272 449C272.33 448.34 272.66 447.68 273 447C272.34 447 271.68 447 271 447ZM222 448C228.624 452.416 238.045 451.155 245.75 451.125C247.272 451.131 247.272 451.131 248.824 451.137C250.296 451.135 250.296 451.135 251.797 451.133C252.677 451.132 253.557 451.131 254.464 451.129C257.062 450.997 259.465 450.573 262 450C262 449.67 262 449.34 262 449C260.929 449.008 260.929 449.008 259.835 449.016C233.616 449.183 233.616 449.183 222 448ZM264 448C263.67 448.66 263.34 449.32 263 450C264.98 449.67 266.96 449.34 269 449C269 448.67 269 448.34 269 448C267.35 448 265.7 448 264 448Z" fill="#9D9CE5"/>
<path d="M1057 289C1063.66 292.452 1066.45 298.657 1069.54 305.202C1072.14 310.194 1075.75 314.427 1079.25 318.813C1080.6 320.563 1081.94 322.316 1083.27 324.074C1083.91 324.906 1084.54 325.738 1085.19 326.595C1089.96 332.938 1094.6 339.395 1099 346C1099.33 327.19 1099.66 308.38 1100 289C1108.25 289 1116.5 289 1125 289C1125.05 299.979 1125.08 310.958 1125.1 321.937C1125.11 327.035 1125.13 332.133 1125.15 337.232C1125.17 342.153 1125.18 347.074 1125.19 351.995C1125.19 353.872 1125.2 355.748 1125.21 357.624C1125.23 360.255 1125.23 362.885 1125.23 365.516C1125.23 366.289 1125.24 367.063 1125.25 367.859C1125.23 372.269 1124.86 375.975 1123 380C1111.57 384.798 1094.1 384.685 1082 382C1075.63 378.341 1072.62 372.056 1069.42 365.677C1067.08 361.276 1064.09 357.524 1061.06 353.563C1057.57 348.829 1057.57 348.829 1054 344C1049.05 337.4 1044.1 330.8 1039 324C1038.67 343.14 1038.34 362.28 1038 382C1029.75 382 1021.5 382 1013 382C1012.93 370.743 1012.88 359.486 1012.84 348.229C1012.83 343.002 1012.81 337.775 1012.77 332.548C1012.74 327.503 1012.72 322.459 1012.72 317.414C1012.71 315.49 1012.7 313.565 1012.68 311.641C1012.66 308.945 1012.66 306.25 1012.66 303.554C1012.65 302.759 1012.64 301.963 1012.63 301.143C1012.65 296.588 1013.15 293.61 1016 290C1025.92 285.041 1046.41 286.517 1057 289Z" fill="white"/>
<path d="M1259 299C1268.5 308.479 1270.2 322.219 1270.25 335.062C1270.24 348.637 1268.17 361.342 1258.87 371.75C1246.18 383.649 1226.75 383.236 1210.5 383.25C1209.79 383.251 1209.08 383.251 1208.34 383.252C1192.02 383.227 1173.14 383.02 1160.5 371.187C1149.79 359.365 1149.36 343.419 1149.86 328.266C1150.54 317.335 1153.61 305.585 1162 298C1184.58 281.267 1237.13 280.307 1259 299ZM1191 310C1182.76 320.121 1184.08 334.689 1185 347C1186.03 352.631 1187.63 357.117 1191.87 361.062C1197.82 364.748 1203.06 365.341 1209.87 365.312C1210.64 365.329 1211.4 365.345 1212.19 365.361C1218.43 365.367 1224.2 364.44 1229.02 360.238C1229.47 359.603 1229.92 358.967 1230.37 358.312C1230.84 357.69 1231.3 357.067 1231.77 356.426C1235.15 349.752 1235.34 342.948 1235.31 335.625C1235.33 334.743 1235.34 333.862 1235.36 332.953C1235.37 324.477 1233.97 315.759 1227.92 309.406C1218.53 302.535 1200.16 302.673 1191 310Z" fill="white"/>
<path d="M117 325C120.394 328.285 123.619 331.707 126.813 335.188C127.998 336.477 127.998 336.477 129.207 337.793C131 340 131 340 131 342C131.826 342.34 131.826 342.34 132.668 342.688C135.689 344.388 137.829 346.582 140.313 349C160.854 368.242 190.583 382.059 218.984 382.035C240.268 382.037 240.268 382.037 247.363 388.734C250.845 391.726 254.59 393.432 258.75 395.312C259.816 395.8 259.816 395.8 260.903 396.297C265.242 398.259 269.618 400.136 274 402C272.539 406.737 269.726 409.858 266.375 413.375C265.564 414.235 265.564 414.235 264.737 415.113C258.071 422.118 251.662 427.621 243 432C242.047 432.507 241.095 433.013 240.113 433.535C228.006 439.844 216.331 443.967 202.75 440.312C197.719 438.726 193.383 436.922 189 434C189 433.34 189 432.68 189 432C187.928 431.732 186.855 431.464 185.75 431.188C182.272 430.086 180.79 429.15 178 427C175.795 425.777 173.562 424.625 171.316 423.477C168.454 421.652 166.361 419.436 164 417C162.088 415.286 160.172 413.578 158.25 411.875C152.534 406.724 147.706 401.091 143 395C142.292 394.144 141.585 393.288 140.856 392.406C137.965 388.658 136.486 384.459 135 380C134.34 380 133.68 380 133 380C127.225 367.889 122.319 356.01 119 343C118.755 342.096 118.51 341.193 118.258 340.262C116.956 335.097 116.831 330.321 117 325Z" fill="white"/>
<path d="M801.102 287.739C803.667 287.75 806.231 287.739 808.795 287.727C817.324 287.718 825.778 288.002 834.27 288.828C835.03 288.897 835.791 288.966 836.575 289.038C842.774 289.715 848.757 290.958 853.484 295.262C856.233 300.227 855.223 305.493 855 311C854.125 310.788 853.25 310.576 852.348 310.357C840.881 307.868 829.751 307.538 818.042 307.609C814.845 307.625 811.65 307.609 808.453 307.59C806.404 307.592 804.354 307.596 802.305 307.602C801.358 307.596 800.411 307.589 799.435 307.583C794.226 307.639 790.484 308.034 786 311C784.74 313.521 785.081 314.854 785.438 317.625C785.539 318.442 785.641 319.26 785.746 320.102C785.83 320.728 785.914 321.355 786 322C791.821 323.993 797.051 324.294 803.176 324.309C805.158 324.334 807.141 324.359 809.123 324.385C812.217 324.413 815.31 324.438 818.404 324.456C821.412 324.478 824.419 324.518 827.426 324.559C828.337 324.559 829.247 324.559 830.186 324.559C837.257 324.666 844.609 325.5 850.438 329.797C850.953 330.441 851.469 331.086 852 331.75C852.536 332.384 853.073 333.018 853.625 333.672C856.808 339.061 857.364 344.731 857.313 350.875C857.307 351.577 857.301 352.279 857.295 353.002C857.106 361.111 855.479 367.439 849.859 373.434C835.935 385.164 814.96 383.213 797.875 383.188C797.111 383.187 796.346 383.186 795.558 383.186C786.479 383.166 777.423 383.081 768.375 382.25C767.261 382.158 767.261 382.158 766.125 382.063C760.706 381.457 755.69 379.82 751 377C748.546 373.319 748.772 370.556 748.875 366.313C748.884 365.611 748.893 364.909 748.902 364.186C748.926 362.457 748.962 360.728 749 359C749.871 359.205 750.743 359.41 751.641 359.621C752.832 359.891 754.023 360.16 755.25 360.438C756.41 360.704 757.57 360.971 758.766 361.246C768.883 363.227 779.239 363.187 789.51 363.185C791.695 363.188 793.88 363.206 796.064 363.225C808.064 363.832 808.064 363.832 818.704 359.577C820.524 357.362 820.4 355.768 820.375 352.938C820.383 352.06 820.39 351.182 820.398 350.277C820.201 349.15 820.201 349.15 820 348C816.376 345.584 814.553 345.709 810.234 345.621C809.564 345.604 808.893 345.587 808.203 345.57C806.052 345.517 803.901 345.476 801.75 345.438C798.953 345.378 796.156 345.314 793.359 345.246C792.321 345.221 792.321 345.221 791.263 345.195C763.1 344.446 763.1 344.446 753.594 335.914C748.434 329.717 748.634 320.586 749.246 312.918C750.508 304.757 753.687 299.492 760.105 294.316C771.383 286.48 787.95 287.675 801.102 287.739Z" fill="white"/>
<path d="M499.539 288.902C500.841 288.906 502.143 288.909 503.484 288.912C504.865 288.92 506.245 288.929 507.625 288.938C509.013 288.943 510.401 288.947 511.789 288.951C515.193 288.963 518.596 288.979 522 289C522.006 290.157 522.006 290.157 522.011 291.338C522.049 298.635 522.106 305.931 522.184 313.228C522.223 316.979 522.256 320.729 522.271 324.48C522.286 328.105 522.321 331.729 522.368 335.354C522.383 336.731 522.391 338.109 522.392 339.487C522.402 347.345 522.56 353.361 527 360C531.752 362.645 537.112 362.333 542.438 362.312C543.258 362.329 544.079 362.345 544.924 362.361C551.085 362.366 555.652 361.309 560.813 357.75C565.237 351.229 564.346 342.701 564.414 335.191C564.433 333.856 564.452 332.521 564.473 331.186C564.524 327.692 564.564 324.199 564.601 320.706C564.641 317.132 564.692 313.559 564.742 309.986C564.839 302.991 564.923 295.996 565 289C569.562 288.913 574.125 288.86 578.688 288.812C579.981 288.787 581.275 288.762 582.607 288.736C583.855 288.727 585.102 288.717 586.387 288.707C587.534 288.691 588.681 288.676 589.862 288.659C593.371 289.04 595.233 289.832 598 292C599.41 297.415 599.161 303.135 599.168 308.711C599.173 310.101 599.173 310.101 599.178 311.518C599.183 313.476 599.186 315.435 599.185 317.393C599.188 320.331 599.206 323.269 599.225 326.207C599.332 361.213 599.332 361.213 590.504 371.793C579.083 382.885 560.079 382.347 545.187 382.261C543.002 382.25 540.818 382.261 538.633 382.273C523.515 382.289 506.204 382.039 494.656 370.988C487.195 362.032 487.835 350.823 487.797 339.805C487.791 338.539 487.786 337.273 487.78 335.97C487.77 333.302 487.763 330.634 487.76 327.966C487.754 324.556 487.73 321.145 487.702 317.735C487.679 314.466 487.677 311.198 487.672 307.93C487.66 306.709 487.647 305.488 487.635 304.23C487.639 302.523 487.639 302.523 487.644 300.781C487.64 299.783 487.636 298.784 487.633 297.756C488.065 294.513 489.085 292.63 491 290C493.87 288.565 496.335 288.888 499.539 288.902Z" fill="white"/>
<path d="M1468.41 293.646C1471.44 296.401 1473.04 299.295 1474.76 302.938C1475.09 303.633 1475.43 304.328 1475.78 305.045C1480.15 314.212 1484 323.613 1487.88 333C1488.67 334.907 1489.46 336.814 1490.25 338.721C1491.8 342.451 1493.34 346.182 1494.89 349.914C1496.7 354.295 1498.54 358.666 1500.39 363.031C1500.86 364.152 1501.34 365.272 1501.82 366.426C1502.67 368.414 1503.51 370.401 1504.36 372.387C1504.72 373.239 1505.08 374.091 1505.45 374.969C1505.75 375.685 1506.05 376.401 1506.37 377.139C1507 379 1507 379 1507 382C1495.12 382 1483.24 382 1471 382C1463 364.667 1463 364.667 1463 361C1449.14 361 1435.28 361 1421 361C1420.67 362.65 1420.34 364.3 1420 366C1419.56 367.341 1419.09 368.671 1418.59 369.988C1418.35 370.626 1418.11 371.263 1417.86 371.919C1417.4 373.104 1417.4 373.104 1416.94 374.313C1415.97 376.849 1415 379.386 1414 382C1405.42 382 1396.84 382 1388 382C1389.13 375.25 1389.13 375.25 1390.54 371.895C1390.86 371.14 1391.17 370.385 1391.5 369.607C1391.84 368.802 1392.19 367.997 1392.54 367.168C1393.08 365.882 1393.08 365.882 1393.64 364.57C1394.81 361.773 1396 358.98 1397.19 356.188C1398.01 354.256 1398.82 352.324 1399.64 350.392C1400.88 347.453 1402.13 344.515 1403.37 341.579C1405.65 336.206 1407.91 330.825 1410.13 325.428C1411.37 322.403 1412.62 319.382 1413.88 316.361C1414.45 314.968 1415.02 313.574 1415.59 312.178C1422.85 294.3 1422.85 294.3 1431.06 290.625C1431.69 290.329 1432.32 290.032 1432.97 289.727C1444.34 285.653 1458.42 286.833 1468.41 293.646ZM1441 316C1437.57 319.033 1436.03 321.74 1434.42 326.008C1433.98 327.159 1433.55 328.31 1433.09 329.496C1432.65 330.694 1432.21 331.891 1431.75 333.125C1431.29 334.33 1430.83 335.536 1430.36 336.777C1428 342.243 1428 342.243 1427 348C1436.57 348 1446.14 348 1456 348C1453.77 341.311 1451.5 334.674 1449.06 328.063C1448.73 327.118 1448.39 326.174 1448.05 325.201C1447.55 323.851 1447.55 323.851 1447.04 322.473C1446.74 321.661 1446.44 320.849 1446.14 320.012C1444.77 317.592 1443.56 316.984 1441 316Z" fill="white"/>
<path d="M951 292C957.316 296.961 960.185 302.815 963.188 310.125C963.65 311.212 964.112 312.299 964.588 313.418C966.078 316.938 967.541 320.468 969 324C969.996 326.392 970.992 328.784 971.988 331.176C973.999 336.015 975.995 340.859 977.984 345.707C980.021 350.658 982.094 355.591 984.203 360.512C984.715 361.708 985.227 362.904 985.754 364.137C986.731 366.415 987.713 368.692 988.699 370.967C989.351 372.487 989.351 372.487 990.016 374.039C990.4 374.928 990.785 375.817 991.181 376.733C992 379 992 379 992 382C980.12 382 968.24 382 956 382C951 372 951 372 947 362C926.705 361.505 926.705 361.505 906 361C905.01 364.3 904.02 367.6 903 371C902.324 372.866 901.624 374.725 900.875 376.563C900.542 377.389 900.21 378.215 899.867 379.066C899 381 899 381 898 382C896.073 382.088 894.143 382.107 892.215 382.098C890.46 382.093 890.46 382.093 888.67 382.088C886.822 382.075 886.822 382.075 884.938 382.063C883.084 382.056 883.084 382.056 881.193 382.049C878.129 382.037 875.064 382.021 872 382C876.555 369.49 881.58 357.204 886.75 344.938C887.346 343.522 887.346 343.522 887.954 342.078C889.549 338.291 891.145 334.505 892.745 330.72C894.904 325.612 897.04 320.495 899.152 315.367C899.997 313.349 900.842 311.33 901.688 309.313C902.21 308.018 902.21 308.018 902.743 306.697C905.6 299.975 909.729 293.168 916.625 290.063C927.442 286.657 940.996 285.915 951 292ZM925 316C922.403 319.137 920.97 322.212 919.52 326.008C919.078 327.159 918.637 328.31 918.182 329.496C917.73 330.694 917.278 331.891 916.812 333.125C916.349 334.33 915.886 335.536 915.408 336.777C913.017 342.241 913.017 342.241 912 348C921.57 348 931.14 348 941 348C936.668 335.415 936.668 335.415 931.875 323C931.419 321.866 930.962 320.731 930.492 319.563C929.262 316.846 929.262 316.846 926.82 316.125C926.22 316.084 925.619 316.043 925 316Z" fill="white"/>
<path d="M1282 289C1294.21 289 1306.42 289 1319 289C1321.99 296.173 1324.93 303.294 1327.63 310.57C1328.1 311.841 1328.1 311.841 1328.59 313.137C1329.58 315.799 1330.57 318.462 1331.56 321.125C1333.49 326.294 1335.41 331.461 1337.36 336.622C1338.34 339.218 1339.29 341.817 1340.21 344.433C1340.71 345.792 1340.71 345.792 1341.21 347.18C1341.47 347.917 1341.73 348.654 1342 349.413C1342.89 351.215 1342.89 351.215 1345.06 351.599C1346.02 351.797 1346.02 351.797 1347 352C1347.24 351.371 1347.48 350.741 1347.73 350.093C1350.26 343.506 1352.79 336.919 1355.33 330.332C1356.27 327.879 1357.21 325.425 1358.15 322.971C1359.51 319.431 1360.87 315.891 1362.23 312.351C1362.65 311.266 1363.07 310.18 1363.5 309.061C1365.39 304.131 1367.3 299.205 1369.24 294.29C1369.55 293.485 1369.87 292.68 1370.19 291.851C1371 290 1371 290 1372 289C1373.85 288.913 1375.71 288.893 1377.57 288.902C1378.69 288.905 1379.82 288.909 1380.97 288.912C1382.16 288.92 1383.34 288.929 1384.56 288.937C1385.75 288.942 1386.94 288.946 1388.16 288.951C1391.11 288.963 1394.05 288.979 1397 289C1394.65 296.628 1391.57 303.876 1388.39 311.184C1386.72 315.016 1385.07 318.853 1383.42 322.691C1383.07 323.507 1382.72 324.323 1382.35 325.163C1377.1 337.384 1372.01 349.673 1366.9 361.956C1366.17 363.717 1365.44 365.478 1364.7 367.238C1364.37 368.037 1364.04 368.835 1363.7 369.658C1361.95 373.858 1360.09 377.954 1358 382C1353.85 382.088 1349.71 382.141 1345.56 382.187C1344.4 382.213 1343.23 382.238 1342.03 382.264C1334.01 382.331 1326.78 382.267 1320.49 376.834C1317.76 373.731 1315.94 370.553 1314.17 366.855C1313.83 366.16 1313.49 365.464 1313.14 364.748C1309.15 356.423 1305.7 347.875 1302.25 339.312C1301.56 337.61 1300.87 335.907 1300.18 334.205C1299.13 331.629 1298.08 329.054 1297.04 326.477C1294.82 320.991 1292.57 315.516 1290.3 310.051C1290.01 309.367 1289.73 308.683 1289.44 307.979C1288.36 305.399 1287.29 302.82 1286.21 300.241C1285.5 298.518 1284.78 296.794 1284.06 295.07C1283.46 293.628 1283.46 293.628 1282.85 292.157C1282 290 1282 290 1282 289Z" fill="white"/>
<path d="M116 191C118.94 192.371 121.877 193.747 124.812 195.125C126.034 195.693 126.034 195.693 127.279 196.273C132.645 198.798 137.857 201.523 143.048 204.389C149.153 207.72 155.357 210.864 161.541 214.046C172.837 219.863 172.837 219.863 177.18 222.391C179.585 223.763 181.357 224.39 184 225C184.33 225.66 184.66 226.32 185 227C186.763 227.773 186.763 227.773 188.562 228.562C194.436 231.377 199.115 236.328 202.087 242.117C203.286 245.903 203.284 249.51 203.271 253.439C203.276 254.278 203.282 255.116 203.287 255.979C203.297 257.796 203.303 259.612 203.305 261.429C203.309 264.314 203.325 267.2 203.346 270.085C203.401 278.289 203.432 286.493 203.456 294.696C203.472 299.721 203.503 304.745 203.541 309.769C203.553 311.673 203.559 313.577 203.559 315.481C203.301 334.96 203.301 334.96 211.012 352.414C212 354 212 354 212 357C212.66 357 213.32 357 214 357C216 360 216 360 216 363C216.66 363 217.32 363 218 363C218.33 363.99 218.66 364.98 219 366C217.68 366 216.36 366 215 366C213.062 363.812 213.062 363.812 211 361C210.216 360.216 209.433 359.433 208.625 358.625C206.566 356.566 204.609 354.496 202.688 352.312C202.176 351.731 201.664 351.15 201.137 350.551C200 349 200 349 200 347C199.34 347 198.68 347 198 347C198 346.01 198 345.02 198 344C197.34 344 196.68 344 196 344C195.602 343.169 195.602 343.169 195.195 342.32C194.842 341.596 194.489 340.871 194.125 340.125C193.777 339.406 193.429 338.686 193.07 337.945C192.034 335.849 192.034 335.849 190 334C178.494 317.08 171.652 297.34 164.199 278.434C160.052 268.019 155.215 257.963 150.266 247.91C149.716 246.786 149.165 245.662 148.598 244.504C148.098 243.491 147.598 242.479 147.082 241.436C146 239 146 239 146 237C145.34 237 144.68 237 144 237C144 236.01 144 235.02 144 234C143.34 234 142.68 234 142 234C141.35 232.422 141.35 232.422 140.688 230.812C139.684 228.453 138.641 226.401 137.312 224.188C136 222 136 222 136 220C135.34 220 134.68 220 134 220C131 214.25 131 214.25 131 212C130.01 211.67 129.02 211.34 128 211C125 205.778 125 205.778 125 203C124.34 203 123.68 203 123 203C121.02 199.535 121.02 199.535 119 196C118.67 196 118.34 196 118 196C117.67 199.3 117.34 202.6 117 206C116.67 206 116.34 206 116 206C116 201.05 116 196.1 116 191Z" fill="white"/>
<path d="M619 289C655.63 289 692.26 289 730 289C730 294.94 730 300.88 730 307C717.46 307 704.92 307 692 307C692.023 311.695 692.046 316.39 692.07 321.227C692.081 324.207 692.09 327.187 692.098 330.168C692.11 334.895 692.124 339.622 692.151 344.349C692.173 348.162 692.185 351.974 692.19 355.787C692.193 357.239 692.201 358.691 692.211 360.143C692.226 362.182 692.228 364.221 692.227 366.26C692.231 367.419 692.236 368.579 692.241 369.773C691.908 374.236 691.214 377.786 688 381C678.293 383.427 668.006 382 658 382C658 357.25 658 332.5 658 307C645.13 307 632.26 307 619 307C619 301.06 619 295.12 619 289Z" fill="white"/>
<path d="M364 379C364 382.875 362.746 384.049 360.438 387.125C359.349 388.577 359.349 388.577 358.238 390.059C357.5 391.029 356.761 392 356 393C355 394.348 355 394.348 353.98 395.723C350.449 400.414 350.449 400.414 349 402C348.34 402 347.68 402 347 402C346.727 402.597 346.453 403.194 346.172 403.809C340.041 415.272 323.867 424.657 313 431C311.918 431.646 310.837 432.292 309.723 432.957C299.372 438.923 288.392 442.524 277 446C277 446.99 277 447.98 277 449C266.167 451.193 255.627 452.3 244.562 452.312C243.499 452.318 242.435 452.323 241.338 452.328C234.062 452.265 227.138 451.394 220 450C220.495 448.515 220.495 448.515 221 447C220.04 446.897 219.079 446.794 218.09 446.688C200.731 444.178 183.478 434.951 170 424C170.99 423.505 170.99 423.505 172 423C176.512 424.994 180.726 427.547 185 430C186.326 430.68 187.656 431.355 189 432C189 432.66 189 433.32 189 434C192.198 435.706 195.44 436.913 198.875 438.062C199.883 438.404 200.891 438.746 201.93 439.098C215.25 443.012 227.927 438.83 240 433C242.424 431.563 244.712 430.073 246.973 428.395C249 427 249 427 251.875 425.672C255.471 423.748 258.122 421.33 260.938 418.438C261.456 417.913 261.975 417.389 262.509 416.849C266.921 412.288 270.622 407.376 274 402C274.918 402.205 275.836 402.41 276.781 402.621C278.622 403.025 278.622 403.025 280.5 403.438C281.707 403.704 282.913 403.971 284.156 404.246C307.376 408.8 329.067 405.208 349.336 392.999C350.834 392.1 352.365 391.257 353.898 390.422C356.801 388.458 357.005 386.27 358 383C358.99 382.67 359.98 382.34 361 382C362.667 380.5 362.667 380.5 364 379ZM271 447C271.33 447.66 271.66 448.32 272 449C272.33 448.34 272.66 447.68 273 447C272.34 447 271.68 447 271 447ZM222 448C228.624 452.416 238.045 451.155 245.75 451.125C247.272 451.131 247.272 451.131 248.824 451.137C250.296 451.135 250.296 451.135 251.797 451.133C252.677 451.132 253.557 451.131 254.464 451.129C257.062 450.997 259.465 450.573 262 450C262 449.67 262 449.34 262 449C260.929 449.008 260.929 449.008 259.835 449.016C233.616 449.183 233.616 449.183 222 448ZM264 448C263.67 448.66 263.34 449.32 263 450C264.98 449.67 266.96 449.34 269 449C269 448.67 269 448.34 269 448C267.35 448 265.7 448 264 448Z" fill="white"/>
<path d="M114 189C118.028 189.731 121.091 190.896 124.727 192.809C125.831 193.386 126.936 193.963 128.074 194.558C129.258 195.184 130.441 195.811 131.625 196.438C132.847 197.079 134.07 197.72 135.293 198.36C137.735 199.641 140.176 200.925 142.614 202.212C145.519 203.746 148.427 205.275 151.336 206.801C155.117 208.785 158.894 210.776 162.67 212.771C167.007 215.059 171.348 217.342 175.687 219.625C177.296 220.471 178.904 221.318 180.512 222.164C181.663 222.77 182.814 223.376 184 224C181.34 225.038 180.235 225.089 177.521 224.063C176.602 223.57 175.684 223.078 174.738 222.57C173.71 222.027 172.682 221.483 171.623 220.923C169.985 220.033 169.985 220.033 168.312 219.125C167.186 218.526 166.06 217.927 164.9 217.309C162.634 216.103 160.371 214.891 158.111 213.674C154.794 211.889 151.465 210.127 148.132 208.371C146.139 207.32 144.149 206.264 142.16 205.207C137.3 202.626 132.432 200.063 127.562 197.5C126.738 197.066 125.914 196.632 125.065 196.185C124.302 195.784 123.54 195.382 122.754 194.969C122.077 194.612 121.399 194.256 120.701 193.889C119.474 193.247 118.239 192.619 117 192C116.953 208.821 116.918 225.642 116.896 242.464C116.886 250.276 116.872 258.087 116.849 265.899C116.829 272.715 116.816 279.53 116.812 286.345C116.809 289.948 116.803 293.551 116.788 297.153C116.552 317.674 116.552 317.674 119 338C119.171 338.884 119.343 339.768 119.519 340.679C119.966 342.851 120.49 344.982 121.062 347.125C121.366 348.283 121.366 348.283 121.676 349.465C124.262 358.724 128.234 367.435 132.253 376.147C133 378 133 378 133 380C133.66 380 134.32 380 135 380C137.011 382.702 138.711 385.207 139.867 388.383C141.202 391.466 142.961 393.624 145.125 396.188C149 400.786 149 400.786 149 403C149.99 403.33 150.98 403.66 152 404C153.378 405.647 154.754 407.297 156.113 408.961C159.018 412.101 162.404 414.558 165.828 417.105C167.98 418.983 168.953 420.376 170 423C164.43 420.566 160.383 416.104 156 412C155.252 411.318 154.505 410.636 153.734 409.934C139.969 396.886 129.543 379.699 123 362C122.633 361.034 122.633 361.034 122.258 360.049C114.175 338.582 113.56 317.431 113.696 294.712C113.715 290.982 113.716 287.251 113.72 283.521C113.729 276.492 113.754 269.462 113.784 262.433C113.818 254.416 113.834 246.399 113.849 238.381C113.88 221.921 113.933 205.46 114 189Z" fill="white"/>
<path d="M421 181C428.26 181 435.52 181 443 181C443 188.26 443 195.52 443 203C435.74 203 428.48 203 421 203C421 195.74 421 188.48 421 181Z" fill="white"/>
<path d="M371 173C378.26 173 385.52 173 393 173C393 180.26 393 187.52 393 195C385.74 195 378.48 195 371 195C371 187.74 371 180.48 371 173Z" fill="white"/>
<path d="M184 225C193.462 228.154 193.462 228.154 197.5 233C198.66 234.361 198.66 234.361 199.844 235.75C205.497 244.272 205.43 252.883 205.411 262.723C205.406 265.211 205.42 267.698 205.439 270.186C205.476 275.478 205.49 280.77 205.5 286.062C205.512 292.18 205.534 298.297 205.58 304.414C205.593 306.836 205.589 309.257 205.585 311.678C205.63 324.432 206.367 337.932 212.688 349.312C213.033 349.969 213.379 350.625 213.736 351.301C216.962 357.261 220.772 362.706 225 368C225.443 368.607 225.887 369.214 226.344 369.84C237.495 384.289 255.355 392.792 272 399C272.33 398.34 272.66 397.68 273 397C273.66 397.33 274.32 397.66 275 398C277.31 394.04 279.62 390.08 282 386C283.073 390.294 282.797 391.195 281 395C280.34 395 279.68 395 279 395C278.856 395.639 278.711 396.279 278.562 396.938C278 399 278 399 277 400C266.69 402.315 256.496 395.999 248.026 390.785C237.57 383.971 227.671 375.891 220 366C220 365.34 220 364.68 220 364C219.072 363.814 219.072 363.814 218.125 363.625C216 363 216 363 214 361C214 359.68 214 358.36 214 357C213.34 357 212.68 357 212 357C209.059 351.421 206.511 346.159 205 340C204.659 338.958 204.318 337.915 203.966 336.842C202.876 332.506 202.714 328.666 202.729 324.222C202.724 323.373 202.718 322.523 202.713 321.648C202.703 319.814 202.697 317.98 202.695 316.146C202.691 313.241 202.675 310.336 202.654 307.432C202.599 299.176 202.568 290.921 202.544 282.666C202.528 277.607 202.498 272.548 202.459 267.489C202.447 265.565 202.441 263.641 202.441 261.718C202.441 259.028 202.423 256.338 202.401 253.648C202.405 252.858 202.41 252.068 202.415 251.253C202.32 244.036 199.541 239.036 194.828 233.68C191.635 230.746 187.883 228.872 184 227C184 226.34 184 225.68 184 225Z" fill="white"/>
<path d="M402 152.867C402.804 152.866 403.609 152.865 404.438 152.863C405.283 152.867 406.129 152.871 407 152.875C408.268 152.869 408.268 152.869 409.562 152.863C410.367 152.865 411.171 152.866 412 152.867C412.743 152.868 413.485 152.869 414.25 152.871C416 153 416 153 417 154C417.098 155.33 417.131 156.666 417.133 158C417.135 159.207 417.135 159.207 417.137 160.438C417.133 161.283 417.129 162.129 417.125 163C417.131 164.268 417.131 164.268 417.137 165.563C417.135 166.367 417.134 167.171 417.133 168C417.132 168.743 417.131 169.485 417.129 170.25C417 172 417 172 416 173C414.584 173.087 413.164 173.107 411.746 173.098C410.892 173.094 410.038 173.091 409.158 173.088C408.26 173.08 407.363 173.071 406.438 173.063C405.536 173.058 404.634 173.053 403.705 173.049C401.47 173.037 399.235 173.021 397 173C396.971 169.854 396.953 166.708 396.938 163.563C396.929 162.665 396.921 161.767 396.912 160.842C396.909 159.988 396.906 159.134 396.902 158.254C396.894 157.068 396.894 157.068 396.886 155.858C397.101 152.35 398.955 152.872 402 152.867Z" fill="white"/>
<path d="M341 186C347.27 186 353.54 186 360 186C360 192.6 360 199.2 360 206C353.73 206 347.46 206 341 206C341 199.4 341 192.8 341 186Z" fill="white"/>
<path d="M393 205C398.94 205 404.88 205 411 205C411 209.62 411 214.24 411 219C405.06 219 399.12 219 393 219C393.005 221.644 393.01 224.287 393.016 227.011C393.032 235.772 393.044 244.533 393.052 253.294C393.057 258.603 393.064 263.912 393.075 269.221C393.086 274.349 393.092 279.478 393.095 284.607C393.097 286.558 393.1 288.509 393.106 290.46C393.113 293.205 393.114 295.95 393.114 298.695C393.117 299.491 393.121 300.287 393.124 301.108C393.114 306.788 392.651 312.359 392 318C390 316 390 316 389.77 313.941C389.784 313.156 389.798 312.371 389.812 311.562C389.819 310.78 389.825 309.998 389.832 309.191C390 307 390 307 391 304C391.116 300.994 391.175 298.009 391.189 295.002C391.198 294.082 391.206 293.161 391.215 292.212C391.232 290.212 391.247 288.212 391.26 286.211C391.281 283.047 391.308 279.883 391.337 276.718C391.397 270 391.449 263.281 391.5 256.562C391.559 248.782 391.622 241.001 391.692 233.22C391.718 230.1 391.739 226.98 391.76 223.86C391.776 221.949 391.793 220.038 391.811 218.127C391.815 217.258 391.819 216.389 391.823 215.493C391.832 214.693 391.84 213.892 391.849 213.067C391.854 212.374 391.859 211.681 391.864 210.967C392 209 392 209 393 205Z" fill="white"/>
<path d="M398 228C404.27 228 410.54 228 417 228C417 234.27 417 240.54 417 247C410.73 247 404.46 247 398 247C398 240.73 398 234.46 398 228Z" fill="white"/>
<path d="M114 189C118.354 189.871 120.894 190.792 124.727 192.809C125.831 193.386 126.936 193.963 128.074 194.558C129.258 195.184 130.441 195.811 131.625 196.438C132.847 197.079 134.07 197.72 135.293 198.36C137.735 199.641 140.176 200.925 142.614 202.212C145.519 203.746 148.427 205.275 151.336 206.801C155.117 208.785 158.894 210.776 162.67 212.771C167.007 215.059 171.348 217.342 175.688 219.625C177.296 220.471 178.904 221.318 180.512 222.164C181.663 222.77 182.814 223.376 184 224C181.34 225.038 180.235 225.089 177.521 224.063C176.603 223.57 175.684 223.078 174.738 222.57C173.71 222.027 172.683 221.483 171.624 220.923C169.985 220.033 169.985 220.033 168.312 219.125C167.186 218.526 166.06 217.927 164.9 217.309C162.634 216.103 160.371 214.891 158.111 213.674C154.794 211.889 151.465 210.127 148.132 208.371C146.137 207.319 144.144 206.262 142.152 205.203C137.336 202.646 132.512 200.103 127.688 197.562C126.88 197.137 126.073 196.711 125.241 196.273C124.485 195.875 123.728 195.477 122.949 195.066C122.282 194.715 121.616 194.364 120.928 194.002C118.963 192.981 116.981 191.991 115 191C115 234.89 115 278.78 115 324C114.67 324 114.34 324 114 324C114 279.45 114 234.9 114 189Z" fill="white"/>
<path d="M419 133C424.28 133 429.56 133 435 133C435 138.28 435 143.56 435 149C429.72 149 424.44 149 419 149C419 143.72 419 138.44 419 133Z" fill="white"/>
<path d="M309 431C309.99 431.495 309.99 431.495 311 432C299.974 437.919 288.965 442.344 277 446C277 446.99 277 447.98 277 449C266.167 451.193 255.627 452.3 244.562 452.312C243.499 452.318 242.435 452.323 241.338 452.328C234.062 452.265 227.138 451.394 220 450C220.33 449.01 220.66 448.02 221 447C220.031 446.897 219.061 446.794 218.062 446.688C213.514 446.054 209.306 444.552 205 443C209.011 441.391 212.428 442.702 216.375 443.875C245.089 452.169 277.481 446.904 303.796 433.453C305.506 432.585 307.251 431.785 309 431ZM271 447C271.33 447.66 271.66 448.32 272 449C272.33 448.34 272.66 447.68 273 447C272.34 447 271.68 447 271 447ZM222 448C228.624 452.416 238.045 451.155 245.75 451.125C247.272 451.131 247.272 451.131 248.824 451.137C250.296 451.135 250.296 451.135 251.797 451.133C252.677 451.132 253.557 451.131 254.464 451.129C257.062 450.997 259.465 450.573 262 450C262 449.67 262 449.34 262 449C260.929 449.008 260.929 449.008 259.835 449.016C233.616 449.183 233.616 449.183 222 448ZM264 448C263.67 448.66 263.34 449.32 263 450C264.98 449.67 266.96 449.34 269 449C269 448.67 269 448.34 269 448C267.35 448 265.7 448 264 448Z" fill="white"/>
<path d="M298 245C298.66 245 299.32 245 300 245C299.998 245.749 299.996 246.499 299.993 247.271C299.973 254.32 299.958 261.369 299.948 268.417C299.943 272.041 299.936 275.666 299.925 279.29C299.914 282.785 299.908 286.279 299.905 289.774C299.902 291.762 299.895 293.751 299.887 295.739C299.887 296.94 299.887 298.141 299.886 299.379C299.884 300.442 299.882 301.506 299.88 302.602C299.729 304.952 299.729 304.952 301 306C301.1 307.941 301.131 309.885 301.133 311.828C301.134 313.021 301.135 314.213 301.137 315.441C301.133 316.698 301.129 317.955 301.125 319.25C301.129 320.491 301.133 321.733 301.137 323.012C301.135 324.209 301.134 325.407 301.133 326.641C301.131 328.289 301.131 328.289 301.129 329.97C301.01 332.762 300.635 335.284 300 338C299.67 338 299.34 338 299 338C299 333.71 299 329.42 299 325C298.67 325 298.34 325 298 325C298 298.6 298 272.2 298 245Z" fill="white"/>
<path d="M390 208C391.287 210.574 391.121 212.397 391.115 215.28C391.115 216.397 391.114 217.514 391.113 218.665C391.104 220.507 391.104 220.507 391.094 222.387C391.09 223.671 391.087 224.955 391.083 226.278C391.029 241.691 390.783 257.103 390.536 272.513C390.474 276.424 390.415 280.334 390.355 284.244C390.239 291.829 390.121 299.415 390 307C389.67 307 389.34 307 389 307C389 274.99 389 242.98 389 210C384.38 211.32 379.76 212.64 375 214C374.34 213.67 373.68 213.34 373 213C372.67 213.66 372.34 214.32 372 215C371.34 214.67 370.68 214.34 370 214C369.67 214.66 369.34 215.32 369 216C368.01 215.34 367.02 214.68 366 214C368.871 212.989 371.746 211.991 374.625 211C375.433 210.714 376.241 210.428 377.074 210.133C381.531 208.611 385.22 207.629 390 208Z" fill="white"/>
<path d="M111 191C111.33 191 111.66 191 112 191C112.33 237.2 112.66 283.4 113 331C112.67 331 112.34 331 112 331C111.111 322.949 110.861 315.005 110.886 306.909C110.886 305.65 110.886 304.39 110.886 303.092C110.886 299.673 110.892 296.254 110.899 292.836C110.905 289.25 110.905 285.664 110.907 282.078C110.91 275.303 110.918 268.528 110.928 261.753C110.939 254.034 110.945 246.314 110.95 238.595C110.96 222.73 110.978 206.865 111 191Z" fill="white"/>
<path d="M221 364C223.61 366.536 225.989 368.987 228.266 371.84C231.027 375.175 234.142 377.8 237.562 380.438C238.177 380.913 238.792 381.389 239.426 381.88C249.523 389.559 260.192 394.596 272 399C272.495 398.01 272.495 398.01 273 397C273.99 397.495 273.99 397.495 275 398C278.465 392.06 278.465 392.06 282 386C283.073 390.294 282.797 391.195 281 395C280.34 395 279.68 395 279 395C278.856 395.639 278.711 396.279 278.562 396.938C278 399 278 399 277 400C266.69 402.315 256.496 395.999 248.026 390.785C238.124 384.332 227.911 376.675 221 367C221 366.01 221 365.02 221 364Z" fill="white"/>
<path d="M116 190C119.866 190.603 122.836 191.765 126.289 193.59C127.303 194.122 128.318 194.654 129.363 195.202C130.439 195.775 131.516 196.347 132.625 196.938C133.741 197.525 134.858 198.113 136.008 198.718C139.342 200.473 142.671 202.237 146 204C147.734 204.912 149.468 205.824 151.203 206.734C155.017 208.736 158.828 210.744 162.638 212.754C166.986 215.048 171.337 217.336 175.688 219.625C177.296 220.471 178.904 221.318 180.512 222.164C181.663 222.77 182.814 223.376 184 224C181.34 225.038 180.235 225.089 177.521 224.063C176.603 223.57 175.684 223.078 174.738 222.57C173.196 221.755 173.196 221.755 171.624 220.923C169.985 220.033 169.985 220.033 168.312 219.125C167.186 218.526 166.06 217.927 164.9 217.309C162.634 216.103 160.371 214.891 158.111 213.674C154.794 211.889 151.465 210.127 148.132 208.371C146.137 207.319 144.147 206.26 142.156 205.199C139.063 203.555 135.956 201.939 132.844 200.332C131.975 199.881 131.106 199.43 130.21 198.966C128.527 198.093 126.841 197.224 125.153 196.361C124.393 195.966 123.634 195.571 122.852 195.164C121.843 194.645 121.843 194.645 120.815 194.116C118.909 192.944 117.513 191.64 116 190Z" fill="white"/>
<path d="M392 209C392.33 209 392.66 209 393 209C393.023 221.735 393.041 234.471 393.052 247.206C393.057 253.12 393.064 259.034 393.075 264.948C393.086 270.661 393.092 276.373 393.095 282.085C393.097 284.26 393.1 286.434 393.106 288.608C393.113 291.664 393.114 294.721 393.114 297.777C393.117 298.667 393.121 299.556 393.124 300.473C393.115 306.369 392.688 312.145 392 318C390 316 390 316 389.77 313.941C389.784 313.156 389.798 312.371 389.812 311.562C389.819 310.78 389.825 309.998 389.832 309.191C390 307 390 307 391 304C391.121 300.973 391.185 297.967 391.205 294.939C391.215 294.012 391.225 293.085 391.235 292.13C391.267 289.062 391.292 285.994 391.316 282.926C391.337 280.8 391.358 278.675 391.379 276.549C391.435 270.951 391.484 265.353 391.532 259.756C391.582 254.045 391.638 248.334 391.693 242.623C391.801 231.415 391.902 220.208 392 209Z" fill="white"/>
<path d="M205 325C205.33 325 205.66 325 206 325C206.124 325.969 206.247 326.939 206.375 327.938C208.134 339.912 212.245 350.397 219.316 360.273C219.872 361.173 220.428 362.073 221 363C220.67 363.99 220.34 364.98 220 366C220 365.34 220 364.68 220 364C219.072 363.814 219.072 363.814 218.125 363.625C216 363 216 363 214 361C214 359.68 214 358.36 214 357C213.34 357 212.68 357 212 357C209.059 351.421 206.511 346.159 205 340C204.629 338.804 204.257 337.607 203.875 336.375C203.089 333.342 202.656 331.096 203 328C203.66 327.01 204.32 326.02 205 325Z" fill="white"/>
<path d="M206 243C206.33 243 206.66 243 207 243C207.827 248.067 208.16 252.999 208.189 258.135C208.198 258.916 208.206 259.698 208.215 260.503C208.232 262.188 208.247 263.873 208.26 265.558C208.282 268.227 208.309 270.897 208.337 273.566C208.407 280.193 208.466 286.82 208.526 293.448C208.577 299.057 208.632 304.667 208.692 310.277C208.718 312.901 208.739 315.526 208.76 318.15C208.776 319.765 208.793 321.38 208.811 322.994C208.815 323.719 208.819 324.444 208.823 325.191C208.873 329.224 209.227 333.042 210 337C209.01 337.495 209.01 337.495 208 338C207.083 333.308 206.838 328.744 206.811 323.979C206.802 323.197 206.794 322.416 206.785 321.611C206.768 319.923 206.753 318.236 206.74 316.548C206.718 313.874 206.691 311.201 206.663 308.527C206.593 301.888 206.534 295.25 206.474 288.611C206.423 282.995 206.368 277.378 206.308 271.762C206.282 269.133 206.261 266.505 206.24 263.876C206.223 262.258 206.207 260.64 206.189 259.021C206.185 258.295 206.181 257.569 206.177 256.82C206.138 253.679 205.953 250.724 205.426 247.624C205 245 205 245 206 243Z" fill="white"/>
<path d="M297 350C298.618 356.474 298.337 360.16 295 366C294.34 366 293.68 366 293 366C292.887 366.71 292.773 367.421 292.656 368.152C291.951 371.214 290.855 373.731 289.5 376.562C288.004 379.697 286.706 382.592 286 386C285.01 386 284.02 386 283 386C284.493 381.347 286.224 376.835 288.062 372.312C290.14 367.198 290.14 367.198 292 362C292.66 362 293.32 362 294 362C294.99 358.04 295.98 354.08 297 350Z" fill="white"/>
<path d="M170 423C174.085 424.235 177.383 425.761 181 428C183.648 429.371 186.321 430.69 189 432C189 432.66 189 433.32 189 434C192.307 435.782 195.682 436.962 199.25 438.125C200.328 438.478 201.405 438.831 202.516 439.195C203.335 439.461 204.155 439.726 205 440C205 440.66 205 441.32 205 442C199.939 441.444 195.855 439.739 191.375 437.438C190.681 437.085 189.987 436.733 189.271 436.371C172.289 427.578 172.289 427.578 170 423Z" fill="white"/>
<path d="M364 379C364 382.922 362.644 384.196 360.312 387.312C359.587 388.284 358.861 389.256 358.113 390.258C355.813 393.243 353.465 396.15 351 399C350.01 398.67 349.02 398.34 348 398C348 397.34 348 396.68 348 396C347.34 395.67 346.68 395.34 346 395C346.699 394.636 347.397 394.273 348.117 393.898C353.92 390.909 353.92 390.909 357.438 385.688C357.623 384.801 357.809 383.914 358 383C358.99 382.67 359.98 382.34 361 382C362.667 380.5 362.667 380.5 364 379Z" fill="white"/>
<path d="M116 323C116.33 323 116.66 323 117 323C117.086 323.862 117.173 324.725 117.262 325.613C118.424 335.707 120.705 345.267 123.459 355.04C124.005 357.019 124.51 359.006 125 361C124.01 361.495 124.01 361.495 123 362C119.649 352.989 116.647 344.218 115.563 334.625C115.482 333.919 115.402 333.212 115.319 332.485C115.001 329.119 114.87 326.217 116 323Z" fill="white"/>
<path d="M387 210C387.33 210 387.66 210 388 210C388 228.81 388 247.62 388 267C387.67 267 387.34 267 387 267C386.67 249.84 386.34 232.68 386 215C385.01 215.66 384.02 216.32 383 217C384.074 214.085 384.778 212.222 387 210Z" fill="white"/>
<path d="M309 431C309.66 431.33 310.32 431.66 311 432C299.974 437.919 288.965 442.344 277 446C277 446.99 277 447.98 277 449C275.35 449 273.7 449 272 449C272 447.68 272 446.36 272 445C273.87 444.49 273.87 444.49 275.777 443.969C285.559 441.212 294.73 438.091 303.793 433.453C305.504 432.586 307.25 431.786 309 431Z" fill="white"/>
<path d="M298 305C298.99 305.33 299.98 305.66 301 306C301.029 310.396 301.047 314.792 301.062 319.188C301.071 320.433 301.079 321.679 301.088 322.963C301.091 324.165 301.094 325.367 301.098 326.605C301.103 327.71 301.108 328.815 301.114 329.954C301.009 332.758 300.641 335.274 300 338C299.67 338 299.34 338 299 338C299 333.71 299 329.42 299 325C298.67 325 298.34 325 298 325C298 318.4 298 311.8 298 305Z" fill="white"/>
<path d="M184 225C193.398 228.133 193.398 228.133 197.562 233.312C198.348 234.278 199.133 235.244 199.941 236.238C203.138 240.527 203.138 240.527 204 243C203.625 245.25 203.625 245.25 203 247C202.464 245.824 201.928 244.649 201.375 243.438C197.244 235.29 192.197 230.953 184 227C184 226.34 184 225.68 184 225Z" fill="white"/>
<path d="M390 208C390 208.66 390 209.32 390 210C387.544 210.696 385.086 211.382 382.625 212.062C381.926 212.262 381.228 212.461 380.508 212.666C375.227 214.113 375.227 214.113 373 213C372.67 213.66 372.34 214.32 372 215C371.34 214.67 370.68 214.34 370 214C369.67 214.66 369.34 215.32 369 216C368.01 215.34 367.02 214.68 366 214C368.871 212.989 371.746 211.991 374.625 211C375.433 210.714 376.241 210.428 377.074 210.133C381.531 208.611 385.22 207.629 390 208Z" fill="white"/>
<path d="M282 386C283.073 390.294 282.797 391.195 281 395C280.34 395 279.68 395 279 395C278.856 395.639 278.711 396.279 278.562 396.938C278 399 278 399 277 400C274.667 400.041 272.333 400.042 270 400C270.66 399.67 271.32 399.34 272 399C272.33 398.34 272.66 397.68 273 397C273.66 397.33 274.32 397.66 275 398C277.31 394.04 279.62 390.08 282 386Z" fill="white"/>
<path d="M388 310C388.33 310 388.66 310 389 310C388.613 319.013 387.524 327.331 385 336C384.67 336 384.34 336 384 336C383.973 334.583 383.953 333.167 383.938 331.75C383.926 330.961 383.914 330.172 383.902 329.359C383.996 327.093 384.368 325.171 385 323C385.66 323 386.32 323 387 323C386.988 322.145 386.977 321.291 386.965 320.41C386.951 318.753 386.951 318.753 386.938 317.062C386.926 315.96 386.914 314.858 386.902 313.723C387 311 387 311 388 310Z" fill="white"/>
<path d="M153 407C157.03 409.952 161.022 412.945 164.875 416.125C165.429 416.581 165.984 417.038 166.555 417.508C168.19 419.196 169.054 420.861 170 423C166.374 421.444 163.831 419.221 160.938 416.562C160.08 415.78 159.223 414.998 158.34 414.191C157.568 413.468 156.796 412.745 156 412C155.403 411.452 154.806 410.904 154.191 410.34C153 409 153 409 153 407Z" fill="white"/>
<path d="M319 232C318.408 232.291 317.817 232.583 317.207 232.883C311.878 235.647 308.546 238.164 305 243C304.34 243.66 303.68 244.32 303 245C302.73 242.766 302.73 242.766 303 240C304.863 237.797 304.863 237.797 307.312 235.75C308.513 234.721 308.513 234.721 309.738 233.672C313.13 231.164 315.063 230.778 319 232Z" fill="white"/>
<path d="M297 350C298.618 356.474 298.337 360.16 295 366C294.34 366 293.68 366 293 366C292.67 366.66 292.34 367.32 292 368C292 366.02 292 364.04 292 362C292.66 362 293.32 362 294 362C294.99 358.04 295.98 354.08 297 350Z" fill="white"/>
<path d="M218 364C218.66 364 219.32 364 220 364C221.727 365.969 221.727 365.969 223.625 368.5C224.257 369.335 224.888 370.171 225.539 371.031C226.021 371.681 226.503 372.331 227 373C226.34 373.66 225.68 374.32 225 375C224.443 374.402 223.886 373.804 223.312 373.188C221.014 371.014 218.756 369.531 216 368C216.66 366.68 217.32 365.36 218 364Z" fill="white"/>
<path d="M221 364C223.663 366.587 226.092 369.113 228.438 372C231.103 375.12 233.792 377.463 237 380C236.34 380.33 235.68 380.66 235 381C224.322 372.084 224.322 372.084 221 367C221 366.01 221 365.02 221 364Z" fill="white"/>
<path d="M364 379C364 382.802 362.8 384.112 360.625 387.188C359.999 388.089 359.372 388.99 358.727 389.918C357.872 390.949 357.872 390.949 357 392C356.34 392 355.68 392 355 392C355.423 390.516 355.864 389.038 356.312 387.562C356.678 386.327 356.678 386.327 357.051 385.066C357.364 384.384 357.677 383.703 358 383C358.99 382.67 359.98 382.34 361 382C362.667 380.5 362.667 380.5 364 379Z" fill="white"/>
<path d="M142 392C143.938 392.812 143.938 392.812 146 394C146.33 394.99 146.66 395.98 147 397C148.325 397.684 149.659 398.35 151 399C151.99 400.485 151.99 400.485 153 402C151.68 402.33 150.36 402.66 149 403C147.828 401.546 146.662 400.087 145.5 398.625C144.525 397.407 144.525 397.407 143.531 396.164C142 394 142 394 142 392Z" fill="white"/>
<path d="M205 441C209.29 441 213.58 441 218 441C217.67 441.99 217.34 442.98 217 444C217.66 444.33 218.32 444.66 219 445C214.131 444.404 209.672 443.43 205 442C205 441.67 205 441.34 205 441Z" fill="white"/>
<path d="M341 224C340.34 224 339.68 224 339 224C339 224.66 339 225.32 339 226C337.567 226.532 336.128 227.05 334.688 227.562C333.487 227.997 333.487 227.997 332.262 228.441C330 229 330 229 327 228C327.66 228 328.32 228 329 228C329 227.34 329 226.68 329 226C330.433 225.468 331.872 224.95 333.312 224.437C334.513 224.002 334.513 224.002 335.738 223.559C338 223 338 223 341 224Z" fill="white"/>
<path d="M347 400C347.33 400.66 347.66 401.32 348 402C346.879 403.316 345.753 404.628 344.625 405.938C343.999 406.668 343.372 407.399 342.727 408.152C341 410 341 410 339 411C339.57 407.374 340.924 405.745 343.562 403.25C344.203 402.636 344.844 402.023 345.504 401.391C345.998 400.932 346.491 400.473 347 400Z" fill="white"/>
<path d="M116 190C120.86 190.607 124.741 192.728 129 195C128.01 195.66 127.02 196.32 126 197C124.331 196.025 122.665 195.045 121 194.062C120.072 193.517 119.144 192.972 118.188 192.41C117.466 191.945 116.744 191.479 116 191C116 190.67 116 190.34 116 190Z" fill="white"/>
<path d="M387 210C387.33 210 387.66 210 388 210C388 214.29 388 218.58 388 223C387.67 223 387.34 223 387 223C386.67 220.36 386.34 217.72 386 215C385.01 215.66 384.02 216.32 383 217C384.074 214.085 384.778 212.222 387 210Z" fill="white"/>
<path d="M272 446C272 447.32 272 448.64 272 450C268.801 450.089 266.073 449.91 263 449C263 448.34 263 447.68 263 447C266.073 446.089 268.801 445.911 272 446Z" fill="white"/>
<path d="M170 423C174.053 424.225 177.444 425.699 181 428C180.01 428.495 180.01 428.495 179 429C172.438 426.656 172.438 426.656 170 423Z" fill="white"/>
<path d="M309 236C307.473 239.436 305.401 242.119 303 245C302.75 242.75 302.75 242.75 303 240C306.243 236 306.243 236 309 236Z" fill="white"/>
<path d="M134 380C138 384.5 138 384.5 138 389C135.477 387.026 135.007 386.033 134.312 382.812C134.209 381.884 134.106 380.956 134 380Z" fill="white"/>
<path d="M297 328C297.33 328 297.66 328 298 328C298.097 334.115 297.77 339.933 297 346C296.67 346 296.34 346 296 346C295.887 339.889 296.104 334.048 297 328Z" fill="white"/>
<path d="M118 350C119.963 353.505 120.959 357.134 122 361C121.01 361.495 121.01 361.495 120 362C119.01 358.37 118.02 354.74 117 351C117.33 350.67 117.66 350.34 118 350Z" fill="white"/>
<path d="M142 392C144.622 393.049 145.794 393.649 147.25 396.125C147.498 396.744 147.745 397.363 148 398C147.01 398 146.02 398 145 398C142 394.667 142 394.667 142 392Z" fill="white"/>
<path d="M389 317C389.33 317 389.66 317 390 317C390.185 327.558 390.185 327.558 389 332C388.67 332 388.34 332 388 332C388.33 327.05 388.66 322.1 389 317Z" fill="white"/>
<path d="M285 446C281.912 447.765 280.767 448 277 448C277 447.34 277 446.68 277 446C280.053 445.019 281.947 445.019 285 446Z" fill="white"/>
<path d="M113 332C113.66 332 114.32 332 115 332C115 334.31 115 336.62 115 339C114.34 339 113.68 339 113 339C113 336.69 113 334.38 113 332Z" fill="white"/>
<path d="M115 339C115.33 339 115.66 339 116 339C116.389 340.455 116.761 341.914 117.125 343.375C117.334 344.187 117.543 344.999 117.758 345.836C117.838 346.55 117.918 347.264 118 348C117.34 348.66 116.68 349.32 116 350C114.824 346.326 114.926 342.831 115 339Z" fill="white"/>
<path d="M294 345C294.33 345 294.66 345 295 345C295.177 349.602 295.108 351.784 293 356C293.33 352.37 293.66 348.74 294 345Z" fill="white"/>
<path d="M208 445C210.938 445.375 210.938 445.375 214 446C214.33 446.66 214.66 447.32 215 448C210.25 447.25 210.25 447.25 208 445Z" fill="white"/>
<path d="M308 434C308.66 434.66 309.32 435.32 310 436C307.69 436.66 305.38 437.32 303 438C304.634 436.292 305.869 435.065 308 434Z" fill="white"/>
<path d="M132 385C132.99 385.33 133.98 385.66 135 386C136.188 388.562 136.188 388.562 137 391C136.34 391 135.68 391 135 391C134.01 389.02 133.02 387.04 132 385Z" fill="white"/>
<path d="M327 422C327.33 422.66 327.66 423.32 328 424C326.68 424.99 325.36 425.98 324 427C323.34 426.67 322.68 426.34 322 426C323.65 424.68 325.3 423.36 327 422Z" fill="white"/>
<path d="M149 406C149.99 406.495 149.99 406.495 151 407C151 407.66 151 408.32 151 409C151.99 409.33 152.98 409.66 154 410C153.67 410.66 153.34 411.32 153 412C151.624 410.71 150.292 409.373 149 408C149 407.34 149 406.68 149 406Z" fill="white"/>
<path d="M381 349C381.931 351.606 382.149 352.642 381.063 355.25C380.537 356.116 380.537 356.116 380 357C379.069 354.394 378.851 353.358 379.938 350.75C380.288 350.173 380.639 349.595 381 349Z" fill="white"/>
<path d="M290 360C290.931 362.606 291.149 363.642 290.062 366.25C289.537 367.116 289.537 367.116 289 368C289.33 365.36 289.66 362.72 290 360Z" fill="white"/>
<path d="M378 356C378.66 356.33 379.32 356.66 380 357C379.34 358.65 378.68 360.3 378 362C377 359 377 359 378 356Z" fill="white"/>
<path d="M386 332C386.66 332 387.32 332 388 332C388 333.65 388 335.3 388 337C387.34 336.67 386.68 336.34 386 336C386 334.68 386 333.36 386 332Z" fill="white"/>
<path d="M137 391C138.32 392.32 139.64 393.64 141 395C140.01 395 139.02 395 138 395C137.67 393.68 137.34 392.36 137 391Z" fill="white"/>
<path d="M187 437C189.475 437.495 189.475 437.495 192 438C191.01 438.33 190.02 438.66 189 439C188.34 438.34 187.68 437.68 187 437Z" fill="white"/>
<path d="M143 400C143.99 400.33 144.98 400.66 146 401C145.67 401.66 145.34 402.32 145 403C144.34 402.67 143.68 402.34 143 402C143 401.34 143 400.68 143 400Z" fill="white"/>
<path d="M275 393C275.33 393.99 275.66 394.98 276 396C275.34 396.66 274.68 397.32 274 398C274.33 396.35 274.66 394.7 275 393Z" fill="white"/>
<path d="M365 382C365 382.99 365 383.98 365 385C364.01 385.495 364.01 385.495 363 386C363.66 384.68 364.32 383.36 365 382Z" fill="white"/>
<path d="M130 380C130.66 380.66 131.32 381.32 132 382C131.67 382.99 131.34 383.98 131 385C130.67 383.35 130.34 381.7 130 380Z" fill="white"/>
<path d="M239 380C240.98 380.99 240.98 380.99 243 382C242.01 382 241.02 382 240 382C239.67 381.34 239.34 380.68 239 380Z" fill="white"/>
<path d="M384 341C384.33 341 384.66 341 385 341C385 342.65 385 344.3 385 346C384.34 344.68 383.68 343.36 383 342C383.33 341.67 383.66 341.34 384 341Z" fill="white"/>
<path d="M195 230C196.98 230.99 196.98 230.99 199 232C198.01 232 197.02 232 196 232C195.67 231.34 195.34 230.68 195 230Z" fill="white"/>
<path d="M215 448C216.65 448 218.3 448 220 448C220 448.33 220 448.66 220 449C218.35 449 216.7 449 215 449C215 448.67 215 448.34 215 448Z" fill="white"/>
<path d="M184 434C184.99 434.99 185.98 435.98 187 437C186.01 436.67 185.02 436.34 184 436C184 435.34 184 434.68 184 434Z" fill="white"/>
<path d="M155 413C155.99 413.33 156.98 413.66 158 414C157.67 414.66 157.34 415.32 157 416C156.34 415.01 155.68 414.02 155 413Z" fill="white"/>
<path d="M146 403C146.99 403.99 147.98 404.98 149 406C148.01 405.67 147.02 405.34 146 405C146 404.34 146 403.68 146 403Z" fill="white"/>
<path d="M358 391C358.33 391.99 358.66 392.98 359 394C358.01 394.495 358.01 394.495 357 395C357.33 393.68 357.66 392.36 358 391Z" fill="white"/>
<path d="M243 383C243.99 383.33 244.98 383.66 246 384C245.67 384.66 245.34 385.32 245 386C244.34 385.01 243.68 384.02 243 383Z" fill="white"/>
<path d="M283 377C283.99 377.495 283.99 377.495 285 378C285 378.66 285 379.32 285 380C284.34 380 283.68 380 283 380C283 379.01 283 378.02 283 377Z" fill="white"/>
<path d="M210 337C210.33 337 210.66 337 211 337C211 338.65 211 340.3 211 342C210.67 342 210.34 342 210 342C210 340.35 210 338.7 210 337Z" fill="white"/>
<path d="M155 208C156.32 208.33 157.64 208.66 159 209C158.01 209.495 158.01 209.495 157 210C156.34 209.34 155.68 208.68 155 208Z" fill="white"/>
<path d="M384 206C385.65 206 387.3 206 389 206C389 206.33 389 206.66 389 207C387.35 207 385.7 207 384 207C384 206.67 384 206.34 384 206Z" fill="white"/>
<path d="M151 206C152.32 206.33 153.64 206.66 155 207C154.01 207.495 154.01 207.495 153 208C152.34 207.34 151.68 206.68 151 206Z" fill="white"/>
<path d="M166 423C166.99 423.33 167.98 423.66 169 424C168.01 424 167.02 424 166 424C166 423.67 166 423.34 166 423Z" fill="white"/>
<path d="M341 410C341.66 410.33 342.32 410.66 343 411C342.01 411 341.02 411 340 411C340.33 410.67 340.66 410.34 341 410Z" fill="white"/>
<path d="M236 378C236.99 378.33 237.98 378.66 239 379C238.01 379 237.02 379 236 379C236 378.67 236 378.34 236 378Z" fill="white"/>
<path d="M128 378C128.66 378 129.32 378 130 378C130 378.66 130 379.32 130 380C129.34 380 128.68 380 128 380C128 379.34 128 378.68 128 378Z" fill="white"/>
<path d="M286 370C287 374 287 374 287 374L286 370Z" fill="white"/>
<path d="M124 369C124.66 369.66 125.32 370.32 126 371C125.01 371.495 125.01 371.495 124 372C124 371.01 124 370.02 124 369Z" fill="white"/>
<path d="M122 362C123 366 123 366 123 366L122 362Z" fill="white"/>
<path d="M382 345C383 349 383 349 383 349L382 345Z" fill="white"/>
<path d="M211 342C212 346 212 346 212 346L211 342Z" fill="white"/>
<path d="M385 337C386 341 386 341 386 341L385 337Z" fill="white"/>
<path d="M300 241C301 245 301 245 301 245L300 241Z" fill="white"/>
<path d="M167 214C167.99 214.33 168.98 214.66 170 215C169.01 215 168.02 215 167 215C167 214.67 167 214.34 167 214Z" fill="white"/>
<path d="M285 444C288 445 288 445 288 445L285 444Z" fill="white"/>
<path d="M204 444C207 445 207 445 207 445L204 444Z" fill="white"/>
<path d="M288 443C291 444 291 444 291 444L288 443Z" fill="white"/>
<path d="M199 442C202 443 202 443 202 443L199 442Z" fill="white"/>
<path d="M293 441C296 442 296 442 296 442L293 441Z" fill="white"/>
<path d="M196 441C199 442 199 442 199 442L196 441Z" fill="white"/>
<path d="M298 439C301 440 301 440 301 440L298 439Z" fill="white"/>
<path d="M164 421C164.66 421 165.32 421 166 421C165.67 421.66 165.34 422.32 165 423C164.67 422.34 164.34 421.68 164 421Z" fill="white"/>
<path d="M161 418C161.66 418.66 162.32 419.32 163 420C162.34 420 161.68 420 161 420C161 419.34 161 418.68 161 418Z" fill="white"/>
<path d="M336 414C336.99 414.495 336.99 414.495 338 415C337.01 415.495 337.01 415.495 336 416C336 415.34 336 414.68 336 414Z" fill="white"/>
<path d="M339 412C339.33 412.66 339.66 413.32 340 414C339.34 413.67 338.68 413.34 338 413C338.33 412.67 338.66 412.34 339 412Z" fill="white"/>
<path d="M351 399C351.99 399.495 351.99 399.495 353 400C352.01 400.495 352.01 400.495 351 401C351 400.34 351 399.68 351 399Z" fill="white"/>
<path d="M262 394C265 395 265 395 265 395L262 394Z" fill="white"/>
<path d="M360 388C360.66 388 361.32 388 362 388C361.67 388.66 361.34 389.32 361 390C360.67 389.34 360.34 388.68 360 388Z" fill="white"/>
<path d="M279 386C279.99 386.495 279.99 386.495 281 387C280.01 387.495 280.01 387.495 279 388C279 387.34 279 386.68 279 386Z" fill="white"/>
<path d="M230 372C230.66 372.66 231.32 373.32 232 374C231.34 374 230.68 374 230 374C230 373.34 230 372.68 230 372Z" fill="white"/>
<path d="M371 371C371.99 371.495 371.99 371.495 373 372C372.01 372.495 372.01 372.495 371 373C371 372.34 371 371.68 371 371Z" fill="white"/>
<path d="M227 369C227.66 369 228.32 369 229 369C228.67 369.66 228.34 370.32 228 371C227.67 370.34 227.34 369.68 227 369Z" fill="white"/>
<path d="M224 366C224.66 366 225.32 366 226 366C225.67 366.66 225.34 367.32 225 368C224.67 367.34 224.34 366.68 224 366Z" fill="white"/>
<path d="M216 354C216.66 354 217.32 354 218 354C217.67 354.66 217.34 355.32 217 356C216.67 355.34 216.34 354.68 216 354Z" fill="white"/>
<path d="M212 347C212.66 347 213.32 347 214 347C213.67 347.66 213.34 348.32 213 349C212.67 348.34 212.34 347.68 212 347Z" fill="white"/>
<path d="M202 236C202.33 236.66 202.66 237.32 203 238C202.34 237.67 201.68 237.34 201 237C201.33 236.67 201.66 236.34 202 236Z" fill="white"/>
<path d="M332 223C335 224 335 224 335 224L332 223Z" fill="white"/>
<path d="M335 222C338 223 338 223 338 223L335 222Z" fill="white"/>
<path d="M339 221C342 222 342 222 342 222L339 221Z" fill="white"/>
<path d="M342 220C345 221 345 221 345 221L342 220Z" fill="white"/>
<path d="M345 219C348 220 348 220 348 220L345 219Z" fill="white"/>
<path d="M348 218C351 219 351 219 351 219L348 218Z" fill="white"/>
<path d="M351 217C354 218 354 218 354 218L351 217Z" fill="white"/>
<path d="M354 216C357 217 357 217 357 217L354 216Z" fill="white"/>
<path d="M375 209C378 210 378 210 378 210L375 209Z" fill="white"/>
<path d="M378 208C381 209 381 209 381 209L378 208Z" fill="white"/>
<path d="M381 207C384 208 384 208 384 208L381 207Z" fill="white"/>
<path d="M202 443C204 444 204 444 204 444L202 443Z" fill="white"/>
<path d="M291 442C293 443 293 443 293 443L291 442Z" fill="white"/>
<path d="M296 440C298 441 298 441 298 441L296 440Z" fill="white"/>
<path d="M194 440C196 441 196 441 196 441L194 440Z" fill="white"/>
<path d="M192 439C194 440 194 440 194 440L192 439Z" fill="white"/>
<path d="M301 438C303 439 303 439 303 439L301 438Z" fill="white"/>
<path d="M310 433C312 434 312 434 312 434L310 433Z" fill="white"/>
<path d="M181 433C183 434 183 434 183 434L181 433Z" fill="white"/>
<path d="M313 431C315 432 315 432 315 432L313 431Z" fill="white"/>
<path d="M178 431C180 432 180 432 180 432L178 431Z" fill="white"/>
<path d="M315 430C317 431 317 431 317 431L315 430Z" fill="white"/>
<path d="M176 430C178 431 178 431 178 431L176 430Z" fill="white"/>
<path d="M318 428C320 429 320 429 320 429L318 428Z" fill="white"/>
<path d="M173 428C175 429 175 429 175 429L173 428Z" fill="white"/>
<path d="M320 427C322 428 322 428 322 428L320 427Z" fill="white"/>
<path d="M170 426C172 427 172 427 172 427L170 426Z" fill="white"/>
<path d="M329 420C331 421 331 421 331 421L329 420Z" fill="white"/>
<path d="M333 417C335 418 335 418 335 418L333 417Z" fill="white"/>
<path d="M158 416C160 417 160 417 160 417L158 416Z" fill="white"/>
<path d="M260 393C262 394 262 394 262 394L260 393Z" fill="white"/>
<path d="M258 392C260 393 260 393 260 393L258 392Z" fill="white"/>
<path d="M256 391C258 392 258 392 258 392L256 391Z" fill="white"/>
<path d="M253 390C255 391 255 391 255 391L253 390Z" fill="white"/>
<path d="M250 388C252 389 252 389 252 389L250 388Z" fill="white"/>
<path d="M248 387C250 388 250 388 250 388L248 387Z" fill="white"/>
<path d="M367 378C369 379 369 379 369 379L367 378Z" fill="white"/>
<path d="M313 230C315 231 315 231 315 231L313 230Z" fill="white"/>
<path d="M315 229C317 230 317 230 317 230L315 229Z" fill="white"/>
<path d="M318 228C320 229 320 229 320 229L318 228Z" fill="white"/>
<path d="M186 224C188 225 188 225 188 225L186 224Z" fill="white"/>
<path d="M184 223C186 224 186 224 186 224L184 223Z" fill="white"/>
<path d="M182 222C184 223 184 223 184 223L182 222Z" fill="white"/>
<path d="M180 221C182 222 182 222 182 222L180 221Z" fill="white"/>
<path d="M178 220C180 221 180 221 180 221L178 220Z" fill="white"/>
<path d="M176 219C178 220 178 220 178 220L176 219Z" fill="white"/>
<path d="M174 218C176 219 176 219 176 219L174 218Z" fill="white"/>
<path d="M172 217C174 218 174 218 174 218L172 217Z" fill="white"/>
<path d="M170 216C172 217 172 217 172 217L170 216Z" fill="white"/>
<path d="M358 215C360 216 360 216 360 216L358 215Z" fill="white"/>
<path d="M163 212C165 213 165 213 165 213L163 212Z" fill="white"/>
<path d="M159 210C161 211 161 211 161 211L159 210Z" fill="white"/>
<path d="M147 204C149 205 149 205 149 205L147 204Z" fill="white"/>
<path d="M137 198C139 199 139 199 139 199L137 198Z" fill="white"/>
<path d="M135 197C137 198 137 198 137 198L135 197Z" fill="white"/>
<path d="M133 196C135 197 135 197 135 197L133 196Z" fill="white"/>
<path d="M131 195C133 196 133 196 133 196L131 195Z" fill="white"/>
</svg>
