<?xml version="1.0" encoding="UTF-8"?>
<svg version="1.1" xmlns="http://www.w3.org/2000/svg" width="1536" height="1024">
<path d="M0 0 C506.88 0 1013.76 0 1536 0 C1536 337.92 1536 675.84 1536 1024 C1029.12 1024 522.24 1024 0 1024 C0 686.08 0 348.16 0 0 Z " fill="#FBFBFC" transform="translate(0,0)"/>
<path d="M0 0 C1.09745041 0.46119232 1.09745041 0.46119232 2.21707153 0.93170166 C4.57205158 1.92411546 6.9207464 2.93052303 9.26953125 3.9375 C10.89116157 4.62421985 12.51315259 5.31008854 14.13549805 5.99511719 C18.08358592 7.66503025 22.02670534 9.34626909 25.96765137 11.03295898 C28.93381342 12.30189616 31.90259645 13.56466234 34.87109375 14.828125 C38.95713791 16.57106259 43.03856667 18.32427004 47.11572266 20.08789062 C50.10153668 21.37801141 53.09179647 22.65766372 56.08203125 23.9375 C56.08203125 25.2575 56.08203125 26.5775 56.08203125 27.9375 C55.53377686 28.15365967 54.98552246 28.36981934 54.4206543 28.5925293 C40.85434333 33.95138572 40.85434333 33.95138572 27.51953125 39.85546875 C23.99519481 41.41995784 20.38333245 42.69419732 16.75 43.98046875 C14.2542996 44.87570535 11.79221915 45.82435842 9.33203125 46.8125 C8.52378906 47.13347656 7.71554687 47.45445312 6.8828125 47.78515625 C4.71983462 48.67508439 2.57452885 49.60803965 0.4375 50.55859375 C-0.86847341 51.12243329 -2.17446298 51.68623541 -3.48046875 52.25 C-4.67800781 52.78238281 -5.87554687 53.31476563 -7.109375 53.86328125 C-16.18043481 56.4217853 -23.94058207 52.74055343 -32.39501953 49.32714844 C-34.30479802 48.55773421 -36.22183032 47.80910511 -38.140625 47.0625 C-48.34228981 43.0078532 -48.34228981 43.0078532 -50.91796875 39.9375 C-45.35887947 37.91857399 -39.68403574 36.64056191 -33.91796875 35.375 C-32.39224243 35.04012573 -32.39224243 35.04012573 -30.83569336 34.69848633 C-23.17838484 33.07737453 -15.75840781 32.08697111 -7.91796875 31.9375 C-8.90796875 28.9675 -8.90796875 28.9675 -9.91796875 25.9375 C-12.29226171 25.68680087 -12.29226171 25.68680087 -14.91796875 25.9375 C-15.30952148 26.39495605 -15.70107422 26.85241211 -16.10449219 27.32373047 C-18.85458877 29.77097581 -22.11320012 30.19198528 -25.62109375 30.9453125 C-26.37710876 31.11626434 -27.13312378 31.28721619 -27.91204834 31.46334839 C-30.32851355 32.00672157 -32.74811745 32.53443617 -35.16796875 33.0625 C-36.78146345 33.42483204 -38.39474755 33.78810328 -40.0078125 34.15234375 C-41.56621568 34.50085325 -43.12480402 34.84853602 -44.68359375 35.1953125 C-45.40363586 35.35573029 -46.12367798 35.51614807 -46.86553955 35.681427 C-48.87950486 36.12010757 -50.89671349 36.53389104 -52.91796875 36.9375 C-54.12042236 37.18153564 -55.32287598 37.42557129 -56.56176758 37.67700195 C-60.36193683 37.97195944 -62.38254749 37.36652228 -65.8515625 35.84765625 C-66.91181641 35.39326172 -67.97207031 34.93886719 -69.06445312 34.47070312 C-70.15048828 33.98537109 -71.23652344 33.50003906 -72.35546875 33 C-73.46857422 32.51853516 -74.58167969 32.03707031 -75.72851562 31.54101562 C-78.46524743 30.35470699 -81.19424472 29.15330633 -83.91796875 27.9375 C-83.68847656 25.57836914 -83.68847656 25.57836914 -82.91796875 22.9375 C-81.06152344 21.64233398 -81.06152344 21.64233398 -78.58984375 20.68359375 C-77.65897949 20.31000732 -76.72811523 19.9364209 -75.76904297 19.55151367 C-74.74568848 19.16326416 -73.72233398 18.77501465 -72.66796875 18.375 C-70.47757186 17.50594577 -68.28748121 16.63611936 -66.09765625 15.765625 C-64.93331055 15.30994141 -63.76896484 14.85425781 -62.56933594 14.38476562 C-58.81551435 12.8968909 -55.08674008 11.35866509 -51.36328125 9.796875 C-50.73204346 9.53258194 -50.10080566 9.26828888 -49.45043945 8.99598694 C-46.3815054 7.71065711 -43.31324478 6.42372853 -40.24511719 5.13647461 C-36.81264659 3.71063814 -33.36965592 2.31612668 -29.91796875 0.9375 C-28.69754883 0.4420166 -27.47712891 -0.0534668 -26.21972656 -0.56396484 C-25.00897461 -1.03141113 -23.79822266 -1.49885742 -22.55078125 -1.98046875 C-21.46941895 -2.40481201 -20.38805664 -2.82915527 -19.27392578 -3.26635742 C-12.23257234 -4.93679635 -6.39958926 -2.77241879 0 0 Z " fill="#224478" transform="translate(424.91796875,411.0625)"/>
<path d="M0 0 C28.38 0 56.76 0 86 0 C86 13.53 86 27.06 86 41 C71.26678671 48.36660664 59.11516863 49.19896028 42.9855957 49.24023438 C40.70161494 49.24994002 38.41853675 49.28107083 36.13476562 49.3125 C23.57323438 49.40363566 11.42287031 48.76606023 1 41 C0.67 40.67 0.34 40.34 0 40 C0 26.8 0 13.6 0 0 Z " fill="#204174" transform="translate(369,545)"/>
<path d="M0 0 C6.98319317 4.96145493 9.83639842 10.7943515 12.49609375 18.7734375 C13.24317813 30.24914344 13.02677165 39.91345764 5.99609375 49.5234375 C0.02475038 55.76149099 -7.35378906 58.98565142 -15.90917969 59.43603516 C-25.06194122 59.53871682 -31.61611318 57.87645402 -38.7421875 51.89453125 C-45.46379746 45.22207383 -48.51965689 36.56188318 -48.94140625 27.1484375 C-48.42957257 17.56479307 -45.38903354 9.23104443 -38.31640625 2.6484375 C-26.94454688 -6.42993763 -12.58221587 -7.27275978 0 0 Z " fill="#F9F9FA" transform="translate(602.50390625,530.2265625)"/>
<path d="M0 0 C0.08719631 4.56237931 0.14045922 9.12454386 0.1875 13.6875 C0.21263672 14.98107422 0.23777344 16.27464844 0.26367188 17.60742188 C0.27333984 18.85458984 0.28300781 20.10175781 0.29296875 21.38671875 C0.3086792 22.53358154 0.32438965 23.68044434 0.34057617 24.86206055 C-0.03849428 28.35467166 -0.93372882 30.19077861 -3 33 C-14.86935593 41.95663055 -29.98316549 44.39110097 -44.4375 44.25 C-45.44449951 44.24323242 -46.45149902 44.23646484 -47.48901367 44.22949219 C-58.60082346 44.07492435 -70.2983269 43.28212093 -79.765625 36.7890625 C-81.67038268 34.0283694 -81.28542733 31.60938692 -81.1875 28.3125 C-81.16042969 27.13300781 -81.13335937 25.95351563 -81.10546875 24.73828125 C-81.07066406 23.83464844 -81.03585937 22.93101562 -81 22 C-81.99 21.67 -82.98 21.34 -84 21 C-84 15.39 -84 9.78 -84 4 C-79.8001077 4.83997846 -76.57913588 5.87796711 -72.66796875 7.50390625 C-71.45689453 7.99697266 -70.24582031 8.49003906 -68.99804688 8.99804688 C-67.09328695 9.77763423 -65.19054902 10.56122503 -63.29174805 11.35522461 C-51.45926345 16.43515074 -51.45926345 16.43515074 -39.10546875 14.7421875 C-37.73288656 14.17119867 -36.36455184 13.58992234 -35 13 C-33.43484271 12.37447002 -31.86837514 11.75221102 -30.30078125 11.1328125 C-28.63781352 10.46405695 -26.975059 9.79477102 -25.3125 9.125 C-19.340891 6.73061341 -13.36868188 4.33867186 -7.375 2 C-6.37210937 1.608125 -5.36921875 1.21625 -4.3359375 0.8125 C-2 0 -2 0 0 0 Z " fill="#1F3F70" transform="translate(457,453)"/>
<path d="M0 0 C6.3805218 -0.32097137 10.20639898 0.93553388 15.6875 4.18359375 C15.6875 4.84359375 15.6875 5.50359375 15.6875 6.18359375 C16.3475 6.18359375 17.0075 6.18359375 17.6875 6.18359375 C17.6875 4.53359375 17.6875 2.88359375 17.6875 1.18359375 C20.9875 1.18359375 24.2875 1.18359375 27.6875 1.18359375 C27.78680568 7.99710906 27.85917586 14.81019766 27.90722656 21.62426758 C27.92727 23.93944646 27.95451225 26.25457517 27.98925781 28.56958008 C28.03809542 31.90849226 28.06054225 35.24673174 28.078125 38.5859375 C28.09877014 39.61130112 28.11941528 40.63666473 28.14068604 41.69309998 C28.14316194 49.72696997 26.44644899 55.75354906 21.375 62.05859375 C15.30625182 66.85713882 9.83103937 67.71069795 2.3125 67.62109375 C1.47485107 67.61787109 0.63720215 67.61464844 -0.22583008 67.61132812 C-6.43429602 67.47092808 -10.93073679 66.43296022 -16.3125 63.18359375 C-15.9825 60.21359375 -15.6525 57.24359375 -15.3125 54.18359375 C-14.64605469 54.40015625 -13.97960937 54.61671875 -13.29296875 54.83984375 C-5.36242779 57.23564354 2.17021071 58.71624547 10.1875 55.99609375 C13.08000519 53.89902749 14.33342845 52.49354642 15.6875 49.18359375 C15.93849867 45.47465467 15.93849867 45.47465467 15.6875 42.18359375 C14.759375 42.82296875 13.83125 43.46234375 12.875 44.12109375 C6.80505461 48.04870547 0.73424927 47.88492898 -6.3125 47.18359375 C-12.34973097 45.27504977 -16.25157372 40.7739678 -19.2421875 35.33203125 C-21.79312077 27.82819105 -21.94951762 17.82993223 -18.8125 10.49609375 C-15.69198801 5.58294722 -10.97912851 1.99517634 -5.4375 0.30859375 C-3.62353401 0.23603511 -1.80972214 0.14367726 0 0 Z " fill="#253754" transform="translate(788.3125,451.81640625)"/>
<path d="M0 0 C4.04938423 1.76462607 8.17106284 3.35613031 12.27783203 4.98144531 C13.96184043 5.64967213 15.64544933 6.3189068 17.32861328 6.98925781 C18.05346924 7.27687988 18.7783252 7.56450195 19.52514648 7.86083984 C22.68892857 9.1516756 25.82462893 10.5104297 28.96533203 11.85644531 C28.96533203 18.45644531 28.96533203 25.05644531 28.96533203 31.85644531 C0.58533203 31.85644531 -27.79466797 31.85644531 -57.03466797 31.85644531 C-57.03466797 25.25644531 -57.03466797 18.65644531 -57.03466797 11.85644531 C-53.0879629 10.22013213 -49.14110025 8.58420931 -45.19384766 6.94921875 C-43.85554092 6.39474985 -42.51732229 5.84006824 -41.17919922 5.28515625 C-36.80024594 3.46933281 -32.41818422 1.66122636 -28.03466797 -0.14355469 C-27.03129395 -0.56048584 -26.02791992 -0.97741699 -24.99414062 -1.40698242 C-24.1154834 -1.76735596 -23.23682617 -2.12772949 -22.33154297 -2.49902344 C-21.21150879 -2.96151489 -21.21150879 -2.96151489 -20.06884766 -3.43334961 C-12.51517014 -6.07060932 -6.87833979 -3.09379357 0 0 Z " fill="#214376" transform="translate(426.03466796875,510.1435546875)"/>
<path d="M0 0 C6.08347282 4.02792439 9.47580726 8.79950324 11 16 C11.89822731 24.03271855 10.81502346 30.39091732 6 37 C-0.77226318 43.59476435 -7.54648161 45.50813143 -16.83154297 45.49755859 C-24.62029206 45.25066324 -29.60492315 42.61411407 -34.9375 36.9375 C-40.23708884 29.67510048 -40.04453643 21.55786868 -39 13 C-37.35714838 6.9356465 -31.99435455 2.52487966 -27 -1 C-18.92399664 -5.0313273 -7.92154754 -4.13096327 0 0 Z " fill="#243652" transform="translate(654,455)"/>
<path d="M0 0 C1.53125 1.16796875 1.53125 1.16796875 2.53125 4.16796875 C3.19125 4.16796875 3.85125 4.16796875 4.53125 4.16796875 C4.53125 2.51796875 4.53125 0.86796875 4.53125 -0.83203125 C6.84125 -0.83203125 9.15125 -0.83203125 11.53125 -0.83203125 C11.60746035 5.75155198 11.65991715 12.33502097 11.69604492 18.91894531 C11.71110964 21.15759533 11.73156533 23.39621594 11.75756836 25.63476562 C11.79405283 28.85684477 11.81099983 32.07853286 11.82421875 35.30078125 C11.83970261 36.29788116 11.85518646 37.29498108 11.87113953 38.32229614 C11.87243516 43.7000939 11.60975534 47.54907976 8.53125 52.16796875 C2.4024191 58.03032874 -2.42203547 59.53898234 -10.78125 59.48046875 C-11.53656006 59.47917969 -12.29187012 59.47789062 -13.07006836 59.4765625 C-18.44952907 59.38350231 -22.62571429 58.64100826 -27.46875 56.16796875 C-27.13875 53.85796875 -26.80875 51.54796875 -26.46875 49.16796875 C-25.24865234 49.65136719 -25.24865234 49.65136719 -24.00390625 50.14453125 C-19.85528497 51.34556857 -16.19721328 51.53547362 -11.90625 51.54296875 C-11.16439453 51.56746094 -10.42253906 51.59195313 -9.65820312 51.6171875 C-5.78164783 51.63789928 -3.88142194 51.42351001 -0.50390625 49.33203125 C2.32780618 46.32095892 2.65892537 43.95616615 2.59375 39.98046875 C2.573125 38.72234375 2.5525 37.46421875 2.53125 36.16796875 C1.974375 36.62171875 1.4175 37.07546875 0.84375 37.54296875 C-4.34234564 41.18725217 -9.2406217 42.10267995 -15.46875 41.16796875 C-22.09677254 39.05054699 -26.28057757 36.15985712 -29.62890625 30.03515625 C-32.23213714 24.24750805 -32.21199052 18.39703213 -31.46875 12.16796875 C-29.03593687 5.83760378 -25.54335899 1.20527324 -19.46875 -1.83203125 C-12.44388994 -3.92515282 -6.47756646 -3.35445406 0 0 Z " fill="#474E5A" transform="translate(684.46875,546.83203125)"/>
<path d="M0 0 C0.66 0.66 1.32 1.32 2 2 C1.96712417 4.72869407 1.43602229 7.2966618 1 10 C-0.5625 10.6875 -0.5625 10.6875 -3 11 C-5.3570226 10.05719096 -7.69034152 9.05352843 -10 8 C-17.44260775 5.84556091 -24.65147908 6.49653197 -31.69921875 9.609375 C-36.74353235 12.65823008 -39.71189102 17.3034259 -41.4375 22.875 C-42.82860894 30.11444446 -41.76287234 38.6003704 -38 45 C-33.46482481 50.28712134 -28.65976756 52.48846462 -21.72265625 53.25 C-14.80470888 53.59972246 -9.32366644 51.61995498 -3 49 C-2.01 48.67 -1.02 48.34 0 48 C3.02544404 54.2929236 3.02544404 54.2929236 2.92578125 57.0625 C1.08082169 60.92368119 -3.11111821 61.65602666 -6.91796875 63.01171875 C-16.46290924 65.65453192 -28.97390305 65.81181221 -37.93359375 61.30859375 C-47.05153245 55.53447378 -51.58900227 48.2329932 -55 38 C-56.16672304 26.05434702 -55.11650464 16.96048532 -48 7 C-45.25245809 4.08790477 -42.44801955 2.01331279 -39 0 C-38.3709375 -0.42925781 -37.741875 -0.85851562 -37.09375 -1.30078125 C-26.87442138 -7.20122694 -9.98159575 -5.52516613 0 0 Z " fill="#233552" transform="translate(607,436)"/>
<path d="M0 0 C5.97262489 2.65052019 9.47240154 6.14231833 12.04296875 12.15625 C13.04296875 16.15625 13.04296875 16.15625 13.04296875 26.15625 C1.82296875 26.15625 -9.39703125 26.15625 -20.95703125 26.15625 C-18.79843057 33.59071931 -18.79843057 33.59071931 -15.95703125 36.15625 C-7.24671463 39.05968887 1.51038147 36.65795098 10.04296875 34.15625 C10.04296875 37.12625 10.04296875 40.09625 10.04296875 43.15625 C1.0279194 47.66377468 -8.68438755 49.00726926 -18.55078125 46.49609375 C-24.73619945 43.74834067 -29.13386284 38.53046482 -31.83203125 32.40625 C-34.07784532 25.5083925 -33.9737809 17.68263954 -31.06640625 11.00390625 C-24.2479697 -0.35215181 -12.46805926 -3.55759683 0 0 Z " fill="#253653" transform="translate(979.95703125,452.84375)"/>
<path d="M0 0 C5.4950599 3.30885327 8.96777582 8.37110329 10.5 14.5 C10.5 18.13 10.5 21.76 10.5 25.5 C-0.72 25.5 -11.94 25.5 -23.5 25.5 C-20.79187428 32.48144231 -20.79187428 32.48144231 -15.5 36.5 C-7.5630005 37.82109952 0.06452732 36.31977294 7.5 33.5 C7.78778183 36.55048737 7.93741927 39.45966604 7.5 42.5 C1.20860984 48.09234681 -8.62355311 47.03055754 -16.54345703 46.67480469 C-22.48562878 46.14390938 -25.99524378 43.28524143 -29.875 39 C-35.7859402 31.7351573 -35.37703766 23.48795371 -34.5 14.5 C-32.98328457 8.26057784 -28.80015518 3.95997656 -23.5 0.5 C-16.65533556 -2.89905105 -7.02725651 -3.07187615 0 0 Z " fill="#243652" transform="translate(859.5,453.5)"/>
<path d="M0 0 C5.27643011 3.15451091 8.59598746 8.85046239 10.5 14.5625 C10.5 18.1925 10.5 21.8225 10.5 25.5625 C-0.72 25.5625 -11.94 25.5625 -23.5 25.5625 C-21.39349309 33.08940792 -21.39349309 33.08940792 -18.25 35.54296875 C-14.85367626 36.80211718 -12.11890166 36.92569582 -8.5 36.875 C-6.705625 36.86919922 -6.705625 36.86919922 -4.875 36.86328125 C-1.63578655 36.57460135 0.55094526 35.84759156 3.5 34.5625 C4.49 34.5625 5.48 34.5625 6.5 34.5625 C6.995 38.5225 6.995 38.5225 7.5 42.5625 C-1.19883408 47.62363983 -11.39592841 48.32289311 -21.1640625 45.90234375 C-26.76172105 43.40609061 -30.85098629 38.91030897 -33.53515625 33.4609375 C-35.97778361 27.03057897 -36.81637575 20.52332836 -34.62109375 13.91796875 C-31.63484717 7.34428403 -27.71827518 2.64648603 -21.20703125 -0.5703125 C-14.72931516 -2.64542501 -6.3193174 -2.67684818 0 0 Z " fill="#243653" transform="translate(751.5,453.4375)"/>
<path d="M0 0 C14.19 0 28.38 0 43 0 C43 3.3 43 6.6 43 10 C32.44 10 21.88 10 11 10 C11 16.27 11 22.54 11 29 C20.57 29 30.14 29 40 29 C40 32.3 40 35.6 40 39 C30.76 39 21.52 39 12 39 C12 47.91 12 56.82 12 66 C8.04 66 4.08 66 0 66 C0 44.22 0 22.44 0 0 Z " fill="#20314F" transform="translate(901,433)"/>
<path d="M0 0 C6.98319317 4.96145493 9.83639842 10.7943515 12.49609375 18.7734375 C13.24317813 30.24914344 13.02677165 39.91345764 5.99609375 49.5234375 C0.02475038 55.76149099 -7.35378906 58.98565142 -15.90917969 59.43603516 C-25.06194122 59.53871682 -31.61611318 57.87645402 -38.7421875 51.89453125 C-45.46379746 45.22207383 -48.51965689 36.56188318 -48.94140625 27.1484375 C-48.42957257 17.56479307 -45.38903354 9.23104443 -38.31640625 2.6484375 C-26.94454688 -6.42993763 -12.58221587 -7.27275978 0 0 Z M-35.50390625 10.7734375 C-40.24275811 17.3097849 -40.17010263 24.96942271 -39.50390625 32.7734375 C-38.04938255 39.53784892 -35.82763438 44.40730936 -30.28515625 48.65234375 C-23.97854824 52.62163432 -18.03417094 52.79744583 -10.7734375 51.15625 C-4.3403951 48.9567529 -0.74083819 45.72667597 2.49609375 39.7734375 C5.7320396 32.27192665 5.94235213 22.46759501 2.93359375 14.8359375 C-0.21222075 8.76741591 -5.04893777 4.89614761 -11.50390625 2.7734375 C-21.29651919 1.66129709 -28.40880877 4.00084445 -35.50390625 10.7734375 Z " fill="#484F5A" transform="translate(602.50390625,530.2265625)"/>
<path d="M0 0 C2.96157082 2.58695685 4.74624538 5.23873615 6 9 C6.0845387 11.4410776 6.11605786 13.85259213 6.09765625 16.29296875 C6.0962413 16.99899734 6.09482635 17.70502594 6.09336853 18.43244934 C6.08777764 20.68417626 6.07522688 22.93580321 6.0625 25.1875 C6.05748382 26.71549335 6.05292112 28.24348827 6.04882812 29.77148438 C6.0378112 33.51436135 6.02055287 37.25716373 6 41 C3.36 41 0.72 41 -2 41 C-2.33 40.01 -2.66 39.02 -3 38 C-3.886875 38.66 -4.77375 39.32 -5.6875 40 C-11.09452718 43.07242481 -16.98002255 42.88595895 -23 42 C-27.37608483 40.1392446 -30.20774018 37.42309993 -32 33 C-32.8382746 28.14683127 -32.49228037 24.84610688 -30 20.5625 C-24.21494527 15.62109908 -17.27509323 15.71108975 -10 15.875 C-8.83791016 15.88853516 -8.83791016 15.88853516 -7.65234375 15.90234375 C-5.76809157 15.92560612 -3.88400168 15.9614636 -2 16 C-2.33 13.03 -2.66 10.06 -3 7 C-11.1495681 3.47586244 -19.72185693 4.50093794 -28 7 C-28 4.69 -28 2.38 -28 0 C-18.72701527 -3.76295033 -9.14478864 -4.87000579 0 0 Z " fill="#4D5460" transform="translate(738,547)"/>
<path d="M0 0 C3.32803884 2.95127972 5.59008109 5.77024328 7 10 C7 13.96 7 17.92 7 22 C-3.56 22 -14.12 22 -25 22 C-22.99780447 30.39404931 -22.99780447 30.39404931 -19.8125 33.04296875 C-16.17326171 34.28132067 -12.7962969 34.40005297 -9 34.3125 C-7.95199219 34.31733398 -7.95199219 34.31733398 -6.8828125 34.32226562 C-2.82659317 34.28017278 0.3512141 33.78876027 4 32 C4.495 35.465 4.495 35.465 5 39 C-3.15346848 42.09206028 -11.8596001 43.74734853 -20.4296875 41.30859375 C-25.87610446 38.85256799 -29.41751452 35.15378732 -32.10546875 29.796875 C-34.1456698 23.41790578 -34.28478526 14.6473036 -32.0546875 8.31640625 C-25.0249504 -3.37771615 -11.90423556 -6.40997299 0 0 Z " fill="#4A515D" transform="translate(899,547)"/>
<path d="M0 0 C0.70382812 0.00580078 1.40765625 0.01160156 2.1328125 0.01757812 C7.43043979 0.15001881 11.41640101 1.02070051 16.125 3.375 C16.25 9.125 16.25 9.125 15.125 11.375 C14.0525 11.21 12.98 11.045 11.875 10.875 C6.32444788 10.17744408 0.70950764 10.07120278 -4.875 10.375 C-6.17133621 11.44145115 -6.17133621 11.44145115 -5.9375 13.9375 C-5.916875 14.741875 -5.89625 15.54625 -5.875 16.375 C-4.6375 16.766875 -3.4 17.15875 -2.125 17.5625 C1.76266872 18.87481924 5.61323544 20.26252532 9.4375 21.75 C10.42363281 22.12898438 11.40976563 22.50796875 12.42578125 22.8984375 C15.62428852 24.64812744 17.17500107 26.3048854 19.125 29.375 C20.04619909 33.38380431 20.03961654 37.50684707 18.20703125 41.25 C15.13890986 45.22167817 11.09940008 47.93170688 6.09863281 48.67700195 C3.82775918 48.81403743 1.58727162 48.84098806 -0.6875 48.8125 C-1.88028564 48.80766602 -1.88028564 48.80766602 -3.09716797 48.80273438 C-9.18938934 48.65794895 -13.57635556 47.51493745 -18.875 44.375 C-18.545 41.405 -18.215 38.435 -17.875 35.375 C-17.215 35.375 -16.555 35.375 -15.875 35.375 C-15.875 36.035 -15.875 36.695 -15.875 37.375 C-14.946875 37.519375 -14.01875 37.66375 -13.0625 37.8125 C-9.875 38.375 -9.875 38.375 -6.875 39.375 C-5.23220783 39.49292999 -3.58447306 39.55011674 -1.9375 39.5625 C-0.65552734 39.58376953 -0.65552734 39.58376953 0.65234375 39.60546875 C3.26409303 39.36203556 4.88000652 38.6928268 7.125 37.375 C7.125 35.395 7.125 33.415 7.125 31.375 C6.36316406 31.20484375 5.60132813 31.0346875 4.81640625 30.859375 C-13.30846448 26.60534791 -13.30846448 26.60534791 -17.875 19.375 C-19.49318178 16.13863644 -19.44830409 12.8734579 -18.875 9.375 C-14.17261354 2.04480934 -8.47339781 -0.16850507 0 0 Z " fill="#273854" transform="translate(1017.875,451.625)"/>
<path d="M0 0 C3.63 0 7.26 0 11 0 C11 4.29 11 8.58 11 13 C15.29 13 19.58 13 24 13 C24 15.97 24 18.94 24 22 C19.71 22 15.42 22 11 22 C11.11360633 26.10477592 11.24036599 30.20840664 11.375 34.3125 C11.4059375 35.47974609 11.436875 36.64699219 11.46875 37.84960938 C11.50742188 38.96787109 11.54609375 40.08613281 11.5859375 41.23828125 C11.63306885 42.7857605 11.63306885 42.7857605 11.68115234 44.36450195 C11.82674629 47.22843236 11.82674629 47.22843236 14 50 C16.42521494 50.58189266 16.42521494 50.58189266 19.125 50.6875 C20.49011719 50.78611328 20.49011719 50.78611328 21.8828125 50.88671875 C22.58148437 50.92410156 23.28015625 50.96148437 24 51 C24 53.64 24 56.28 24 59 C18.96845133 61.51577433 11.6759611 60.53870178 6.5 58.875 C3.40630089 56.55472567 1.89941093 54.37137994 0 51 C-0.45410156 47.65673828 -0.45410156 47.65673828 -0.390625 44.0703125 C-0.37128906 42.13671875 -0.37128906 42.13671875 -0.3515625 40.1640625 C-0.31814906 38.81769732 -0.28428937 37.47134315 -0.25 36.125 C-0.22991356 34.75523431 -0.21166655 33.38544034 -0.1953125 32.015625 C-0.1482806 28.67636014 -0.08255864 25.33854438 0 22 C-2.97 22 -5.94 22 -9 22 C-9 19.03 -9 16.06 -9 13 C-6.03 13 -3.06 13 0 13 C0 8.71 0 4.42 0 0 Z " fill="#233551" transform="translate(1048,440)"/>
<path d="M0 0 C3.96 0 7.92 0 12 0 C12 22.77 12 45.54 12 69 C8.04 69 4.08 69 0 69 C0 46.23 0 23.46 0 0 Z " fill="#2F405B" transform="translate(696,430)"/>
<path d="M0 0 C6.05514648 0.49498958 10.71043505 1.86406565 16.1875 4.4375 C17.55573158 5.0617637 18.92421535 5.68547502 20.29296875 6.30859375 C20.8861792 6.58501709 21.47938965 6.86144043 22.09057617 7.14624023 C24.36538964 8.1633765 26.6863705 9.0745482 29 10 C29 16.6 29 23.2 29 30 C15.14 29.67 1.28 29.34 -13 29 C-13.33 28.34 -13.66 27.68 -14 27 C-12.68 27 -11.36 27 -10 27 C-6.23209029 23.78349171 -2.35117462 20.19249652 -1.78515625 15.046875 C-1.72745461 11.58477659 -1.90119125 8.29642625 -3 5 C-2.34 4.67 -1.68 4.34 -1 4 C-0.34786708 1.97536745 -0.34786708 1.97536745 0 0 Z " fill="#1D3E71" transform="translate(426,512)"/>
<path d="M0 0 C3.32335658 1.87169085 5.09485997 4.65846994 6.76171875 7.9921875 C6.84830444 10.54581354 6.87734391 13.0717317 6.859375 15.625 C6.85796005 16.37683563 6.8565451 17.12867126 6.85508728 17.90328979 C6.8494834 20.3079626 6.83693032 22.71254277 6.82421875 25.1171875 C6.81920425 26.74609241 6.81464125 28.37499877 6.81054688 30.00390625 C6.79951272 34.00003577 6.78224554 37.99609592 6.76171875 41.9921875 C4.45171875 41.9921875 2.14171875 41.9921875 -0.23828125 41.9921875 C-0.25286377 41.10958252 -0.26744629 40.22697754 -0.2824707 39.31762695 C-0.34370192 36.02780107 -0.41788455 32.7387882 -0.50073242 29.44946289 C-0.53388682 28.02867548 -0.56194817 26.60775937 -0.5847168 25.18676758 C-0.61843972 23.1382793 -0.6707587 21.0909603 -0.7265625 19.04296875 C-0.75274658 17.81231689 -0.77893066 16.58166504 -0.8059082 15.3137207 C-1.27010112 11.74774403 -2.03649746 9.81414635 -4.23828125 6.9921875 C-8.30077082 5.63802431 -11.99050729 5.44945659 -16.23828125 5.9921875 C-20.51231982 8.21657469 -20.51231982 8.21657469 -23.23828125 11.9921875 C-23.39323888 14.24192911 -23.48839053 16.49590286 -23.5546875 18.75 C-23.5754686 19.41305145 -23.59624969 20.07610291 -23.61766052 20.75924683 C-23.68307356 22.87845444 -23.7420023 24.9977865 -23.80078125 27.1171875 C-23.84397434 28.55339831 -23.88758889 29.98959652 -23.93164062 31.42578125 C-24.03874624 34.94778344 -24.140037 38.46992575 -24.23828125 41.9921875 C-26.87828125 41.9921875 -29.51828125 41.9921875 -32.23828125 41.9921875 C-32.23828125 27.8021875 -32.23828125 13.6121875 -32.23828125 -1.0078125 C-29.59828125 -1.0078125 -26.95828125 -1.0078125 -24.23828125 -1.0078125 C-23.90828125 0.6421875 -23.57828125 2.2921875 -23.23828125 3.9921875 C-22.31015625 3.1878125 -21.38203125 2.3834375 -20.42578125 1.5546875 C-14.42567248 -3.64540677 -6.95332072 -2.86875707 0 0 Z " fill="#4B525E" transform="translate(788.23828125,546.0078125)"/>
<path d="M0 0 C3.63 0 7.26 0 11 0 C11 22.44 11 44.88 11 68 C7.37 68 3.74 68 0 68 C0 45.56 0 23.12 0 0 Z " fill="#243652" transform="translate(674,431)"/>
<path d="M0 0 C1.20785156 0.07863281 2.41570313 0.15726563 3.66015625 0.23828125 C6.60387327 0.64177047 8.43352997 1.157643 10.9375 2.6875 C10.9375 4.9975 10.9375 7.3075 10.9375 9.6875 C10.050625 9.3575 9.16375 9.0275 8.25 8.6875 C2.67920358 7.08274383 -3.32612305 7.14194247 -9.0625 7.6875 C-9.7225 8.3475 -10.3825 9.0075 -11.0625 9.6875 C-10.74051034 12.78676819 -10.74051034 12.78676819 -10.0625 15.6875 C-8.97710938 16.00203125 -7.89171875 16.3165625 -6.7734375 16.640625 C-5.32796723 17.07238885 -3.88266343 17.50471025 -2.4375 17.9375 C-1.72464844 18.14246094 -1.01179687 18.34742188 -0.27734375 18.55859375 C5.5943689 20.33626822 10.42284146 22.41551218 13.9375 27.6875 C14.51098634 32.65771497 13.73043332 35.84401513 11.3984375 40.109375 C8.19545863 43.5692773 4.69658005 44.60873483 0.09765625 45.0859375 C-1.26822882 45.09381004 -2.63429025 45.08575712 -4 45.0625 C-4.67740234 45.07410156 -5.35480469 45.08570313 -6.05273438 45.09765625 C-11.14567537 45.06835841 -14.58754021 43.89289088 -19.0625 41.6875 C-19.0625 39.3775 -19.0625 37.0675 -19.0625 34.6875 C-18.37285156 34.9040625 -17.68320312 35.120625 -16.97265625 35.34375 C-6.71159011 38.47091575 -6.71159011 38.47091575 3.5 36.5 C5.37980765 34.12980775 5.04855934 32.63781547 4.9375 29.6875 C4.25945313 29.45675781 3.58140625 29.22601562 2.8828125 28.98828125 C-15.66635763 22.48836429 -15.66635763 22.48836429 -19.0625 16.6875 C-19.84765081 13.23966382 -19.82903646 10.13963229 -19.0625 6.6875 C-16.61879367 3.27178723 -13.79473487 1.19420816 -9.765625 0.015625 C-6.4395596 -0.38811704 -3.34141571 -0.23943835 0 0 Z " fill="#4F5662" transform="translate(964.0625,544.3125)"/>
<path d="M0 0 C11.22 0 22.44 0 34 0 C34 7 34 7 32.34765625 9.484375 C31.59355469 10.23203125 30.83945312 10.9796875 30.0625 11.75 C26.67527206 15.25421227 23.44963127 18.77874551 20.375 22.5625 C19.70210937 23.38878906 19.02921875 24.21507812 18.3359375 25.06640625 C15.18988871 29.01738056 12.10072352 33.01335547 9 37 C17.58 37 26.16 37 35 37 C35 38.98 35 40.96 35 43 C23.12 43 11.24 43 -1 43 C-1 35.74269431 -0.25203065 34.18909911 4.3125 29.375 C5.4108162 28.15814742 6.50845614 26.94068417 7.60546875 25.72265625 C8.44924072 24.80250732 8.44924072 24.80250732 9.31005859 23.86376953 C11.98911698 20.909142 14.55613904 17.86283245 17.125 14.8125 C17.58559814 14.27222168 18.04619629 13.73194336 18.52075195 13.17529297 C20.49823297 10.84600386 22.30218232 8.54672652 24 6 C16.08 6 8.16 6 0 6 C0 4.02 0 2.04 0 0 Z " fill="#4C5360" transform="translate(825,545)"/>
<path d="M0 0 C4.06444444 1.68631206 6.37021123 3.82256883 8.4375 7.6875 C9.46056621 13.71222321 10.05980658 18.84113475 7.3125 24.4375 C3.29457394 28.88979644 0.53708356 30.19236562 -5.4375 30.5 C-9.14561016 30.39505349 -11.60869957 30.11879246 -14.5625 27.8125 C-18.95563739 22.74349531 -19.44328768 18.18662451 -19.3203125 11.66015625 C-18.76528328 7.05070625 -16.55133008 4.39385165 -13.19140625 1.375 C-9.11584496 -1.18221493 -4.62839852 -0.69295232 0 0 Z " fill="#F6F6F7" transform="translate(680,551)"/>
<path d="M0 0 C2.4375 0.3125 2.4375 0.3125 4.4375 2.3125 C4.5625 4.9375 4.5625 4.9375 4.4375 7.3125 C1.61655524 8.72297238 -1.04559639 8.73725118 -4.1875 9.0625 C-16.77994929 10.48590392 -29.27607558 13.2408939 -41.5625 16.3125 C-41.5625 23.5725 -41.5625 30.8325 -41.5625 38.3125 C-39.9125 38.6425 -38.2625 38.9725 -36.5625 39.3125 C-35.63872783 48.66391678 -35.04692922 57.98185552 -36.5625 67.3125 C-38.5625 69.3125 -38.5625 69.3125 -41.12890625 69.54296875 C-42.11761719 69.52878906 -43.10632813 69.51460938 -44.125 69.5 C-45.11628906 69.49355469 -46.10757812 69.48710937 -47.12890625 69.48046875 C-49.5625 69.3125 -49.5625 69.3125 -50.5625 68.3125 C-50.6889848 66.06518875 -50.73832553 63.81333761 -50.75 61.5625 C-50.76417969 60.33015625 -50.77835937 59.0978125 -50.79296875 57.828125 C-50.5719268 54.45629868 -49.87229756 52.37214568 -48.5625 49.3125 C-48.39572923 47.16909466 -48.39572923 47.16909466 -48.5625 45.125 C-48.5625 41.3125 -48.5625 41.3125 -46.5625 39.3125 C-46.19042646 36.59634136 -46.19042646 36.59634136 -46.1484375 33.4296875 C-46.10976563 32.26308594 -46.07109375 31.09648437 -46.03125 29.89453125 C-46.0003125 28.67121094 -45.969375 27.44789063 -45.9375 26.1875 C-45.87949219 24.34091797 -45.87949219 24.34091797 -45.8203125 22.45703125 C-45.7258001 19.40900624 -45.64024506 16.36099138 -45.5625 13.3125 C-36.53971146 10.38749329 -27.31738424 8.36967539 -18.05688477 6.36474609 C-16.05772756 5.93009507 -14.06203809 5.48177034 -12.06640625 5.03125 C-10.88892822 4.77279297 -9.7114502 4.51433594 -8.49829102 4.24804688 C-4.92993141 3.11091972 -3.58308016 0.43696099 0 0 Z " fill="#E7B84D" transform="translate(412.5625,435.6875)"/>
<path d="M0 0 C3.74579341 2.04958507 5.36615824 2.99767014 7.3125 6.8125 C8.0672144 12.28223424 8.2368053 17.82603167 5.75 22.875 C2.17626391 27.18181016 -1.28698664 28.46956952 -6.75 29.25 C-11.84801461 28.49072123 -14.71838972 25.90912479 -18.0625 22.125 C-20.81924501 16.50548132 -20.30539369 11.90647305 -18.5625 6 C-14.05600352 -1.66104401 -8.07762436 -2.60126886 0 0 Z " fill="#F5F6F7" transform="translate(645.6875,462.1875)"/>
<path d="M0 0 C3.05312235 2.05908251 4.07011256 3.53124848 5.6875 6.8125 C6.51284539 12.33710923 6.3890139 17.27456568 4.0625 22.375 C0.39234063 26.14174251 -2.59610549 27.59795069 -7.8125 28.25 C-12.07756 27.7168675 -14.06843838 26.61418958 -17.3125 23.8125 C-20.84747954 18.86352865 -21.17378681 13.69795986 -20.3125 7.8125 C-16.01467243 -0.94233394 -8.95264483 -3.20943871 0 0 Z " fill="#F6F6F8" transform="translate(799.3125,462.1875)"/>
<path d="M0 0 C2.46637704 0.59533239 4.38255121 0.0449872 6.8125 -0.5625 C6.4825 0.7575 6.1525 2.0775 5.8125 3.4375 C5.1525 3.4375 4.4925 3.4375 3.8125 3.4375 C4.1425 3.9325 4.4725 4.4275 4.8125 4.9375 C6.21355187 8.44012967 6.28437674 11.74358992 5.8125 15.4375 C4.03496532 19.55389609 1.70212212 22.20303623 -2.1875 24.4375 C-7.09718929 25.23825657 -10.88450276 25.2247275 -15.1875 22.625 C-19.12977402 18.31313779 -19.68153037 15.60371575 -19.57421875 9.94921875 C-18.84424409 5.20807018 -16.13095817 2.91184758 -12.375 0.0625 C-8.3411887 -1.09001752 -4.05716244 -1.04327034 0 0 Z " fill="#EFF2F6" transform="translate(419.1875,513.5625)"/>
<path d="M0 0 C2.64 0 5.28 0 8 0 C8.33 1.65 8.66 3.3 9 5 C9.804375 4.175 10.60875 3.35 11.4375 2.5 C14.92918765 -0.47253985 17.79502351 -0.43263066 22.2421875 -0.17578125 C22.82226562 -0.11777344 23.40234375 -0.05976562 24 0 C24 1.98 24 3.96 24 6 C23.33613281 6.07476563 22.67226563 6.14953125 21.98828125 6.2265625 C20.66376953 6.42378906 20.66376953 6.42378906 19.3125 6.625 C18.44238281 6.74101563 17.57226562 6.85703125 16.67578125 6.9765625 C13.7847747 8.08231975 11.8722872 9.29989091 9.97973633 11.77978516 C7.64829359 17.06314929 8.2100282 23.19243295 8.1875 28.875 C8.16433469 30.24483111 8.13896512 31.61462681 8.11132812 32.984375 C8.05254585 36.3232084 8.0161977 39.6607331 8 43 C5.36 43 2.72 43 0 43 C0 28.81 0 14.62 0 0 Z " fill="#4F5662" transform="translate(916,545)"/>
<path d="M0 0 C0 1.98 0 3.96 0 6 C-0.59167969 6.08636719 -1.18335938 6.17273438 -1.79296875 6.26171875 C-7.34144055 7.24831488 -10.34749222 8.43436527 -14 13 C-15.39560045 15.79120091 -15.21808288 18.20205692 -15.31640625 21.3203125 C-15.35830078 22.57714844 -15.40019531 23.83398438 -15.44335938 25.12890625 C-15.48267578 26.44761719 -15.52199219 27.76632812 -15.5625 29.125 C-15.60569512 30.46485751 -15.64930973 31.80470156 -15.69335938 33.14453125 C-15.79970981 36.42957815 -15.90173808 39.71470281 -16 43 C-18.31 43 -20.62 43 -23 43 C-23 29.14 -23 15.28 -23 1 C-20.69 1 -18.38 1 -16 1 C-15.67 2.65 -15.34 4.3 -15 6 C-14.21625 5.195625 -13.4325 4.39125 -12.625 3.5625 C-8.32182266 -0.63822074 -5.79413828 -0.09345384 0 0 Z " fill="#404955" transform="translate(649,545)"/>
<path d="M0 0 C1.423125 0.79470703 1.423125 0.79470703 2.875 1.60546875 C3.57625 2.06566406 4.2775 2.52585937 5 3 C5 3.66 5 4.32 5 5 C-0.59403007 8.33261366 -5.77426727 11.02919823 -12.4140625 10.68359375 C-20.00106618 8.67796589 -26.61937941 2.34434706 -31 -4 C-31 -4.66 -31 -5.32 -31 -6 C-18.68201903 -8.71720168 -10.58776576 -6.71805246 0 0 Z " fill="#719CCE" transform="translate(357,588)"/>
<path d="M0 0 C3.5 0.25 3.5 0.25 5.5 2.25 C5.67488254 4.68744897 5.73177405 7.0093608 5.6953125 9.4453125 C5.6924826 10.15275604 5.68965271 10.86019958 5.68673706 11.58908081 C5.67553137 13.8512251 5.65042679 16.11297515 5.625 18.375 C5.61497067 19.90754637 5.60584474 21.44009894 5.59765625 22.97265625 C5.57559086 26.73192301 5.54105896 30.49089464 5.5 34.25 C3.85425434 34.27688151 2.20838587 34.29634123 0.5625 34.3125 C-0.35402344 34.32410156 -1.27054687 34.33570313 -2.21484375 34.34765625 C-4.5 34.25 -4.5 34.25 -5.5 33.25 C-5.71832989 28.85001055 -5.68579146 24.44465188 -5.68530273 20.03979492 C-5.68748751 17.82516218 -5.70563531 15.61102877 -5.72460938 13.39648438 C-5.72754356 11.99479338 -5.72952819 10.5931 -5.73046875 9.19140625 C-5.73457764 7.90951416 -5.73868652 6.62762207 -5.74291992 5.30688477 C-5.38526181 0.80614383 -4.46147694 0.31867692 0 0 Z " fill="#E7EAF0" transform="translate(387.5,551.75)"/>
<path d="M0 0 C3.0625 0.3125 3.0625 0.3125 4.7355957 1.38989258 C6.76707808 4.33339281 6.39878095 6.8495554 6.35546875 10.38671875 C6.35122391 11.0705513 6.34697906 11.75438385 6.34260559 12.4589386 C6.32583353 14.63969561 6.28818657 16.81952309 6.25 19 C6.23495114 20.47980435 6.22126308 21.9596232 6.20898438 23.43945312 C6.17593569 27.06410336 6.12416446 30.68821094 6.0625 34.3125 C2.4325 34.3125 -1.1975 34.3125 -4.9375 34.3125 C-4.986877 29.79184572 -5.02320823 25.27134783 -5.04736328 20.75048828 C-5.05743118 19.21204902 -5.07108646 17.67362893 -5.08837891 16.13525391 C-5.11259317 13.92605867 -5.12397491 11.71711605 -5.1328125 9.5078125 C-5.14313507 8.81817413 -5.15345764 8.12853577 -5.16409302 7.41799927 C-5.16449478 5.71449094 -5.05941026 4.01164057 -4.9375 2.3125 C-2.9375 0.3125 -2.9375 0.3125 0 0 Z " fill="#ECEFF4" transform="translate(411.9375,551.6875)"/>
<path d="M0 0 C0.70125 0.31839844 1.4025 0.63679687 2.125 0.96484375 C-0.47732071 7.11953876 -6.51668653 12.12921446 -12.5 14.96484375 C-17.4586216 16.43406497 -20.78326283 17.02298059 -25.5390625 14.6171875 C-28.03429484 13.13059133 -30.46909314 11.59137233 -32.875 9.96484375 C-24.41877908 0.79886807 -12.18400658 -4.38690454 0 0 Z " fill="#759ECF" transform="translate(494.875,582.03515625)"/>
<path d="M0 0 C3 0.25 3 0.25 5 2.25 C5.17488254 4.68744897 5.23177405 7.0093608 5.1953125 9.4453125 C5.1924826 10.15275604 5.18965271 10.86019958 5.18673706 11.58908081 C5.17553137 13.8512251 5.15042679 16.11297515 5.125 18.375 C5.11497067 19.90754637 5.10584474 21.44009894 5.09765625 22.97265625 C5.07559086 26.73192301 5.04105896 30.49089464 5 34.25 C1.7 34.25 -1.6 34.25 -5 34.25 C-5.049377 29.72934572 -5.08570823 25.20884783 -5.10986328 20.68798828 C-5.11993118 19.14954902 -5.13358646 17.61112893 -5.15087891 16.07275391 C-5.17509317 13.86355867 -5.18647491 11.65461605 -5.1953125 9.4453125 C-5.20563507 8.75567413 -5.21595764 8.06603577 -5.22659302 7.35549927 C-5.22699478 5.65199094 -5.12191026 3.94914057 -5 2.25 C-3 0.25 -3 0.25 0 0 Z " fill="#F7F7FA" transform="translate(437,551.75)"/>
<path d="M0 0 C11.08483025 -0.46186793 17.67874395 1.39063848 26 9 C31 14.12790698 31 14.12790698 31 17 C26.50770592 19.24614704 20.86119237 18.57552048 16 18 C9.38994818 15.35792914 4.476931 10.13429969 1 4 C0.34375 1.7578125 0.34375 1.7578125 0 0 Z " fill="#739CCC" transform="translate(307,557)"/>
<path d="M0 0 C-2.62087948 7.05432983 -6.82859992 13.30320719 -13.43359375 17.16796875 C-19.03344107 18.98344437 -25.18779419 18.34055893 -31 18 C-28.19286985 11.47573598 -21.72669815 3.65478741 -15.0625 0.8125 C-10.1747515 -0.55245646 -5.02406534 -0.24935618 0 0 Z " fill="#729CCE" transform="translate(516,557)"/>
<path d="M0 0 C-1.92374857 8.23499389 -4.66117149 14.87200735 -11.6875 19.9375 C-16.39864694 21.4486226 -21.07748887 21.74599142 -26 22 C-22.10993384 12.02951512 -18.02573807 5.68014851 -8.375 0.625 C-5.51501373 -0.12762796 -2.9440994 -0.13693486 0 0 Z " fill="#759FCF" transform="translate(526,530)"/>
<path d="M0 0 C6.67429256 -0.72546658 11.40935364 1.39650515 17 5 C21.24646102 8.6589652 23.9244491 13.85170616 26 19 C26 19.66 26 20.32 26 21 C19.44962236 21.5458648 14.36658506 21.01927784 9 17 C4.11203099 12.10097224 1.74573638 6.61542207 0 0 Z " fill="#739CCB" transform="translate(297,531)"/>
<path d="M0 0 C2.31 0 4.62 0 7 0 C7 13.86 7 27.72 7 42 C4.69 42 2.38 42 0 42 C0 28.14 0 14.28 0 0 Z " fill="#434B57" transform="translate(808,546)"/>
<path d="M0 0 C6.30284817 1.35775641 12.21116589 4.2240336 15.9375 9.625 C18.60367996 14.42412393 19.33602012 19.60887975 20 25 C13.87009106 24.49959927 8.68039878 23.03271924 4.484375 18.28515625 C1.19510556 13.81439635 -0.13555819 10.43798093 -0.0625 4.8125 C-0.05347656 3.91144531 -0.04445313 3.01039063 -0.03515625 2.08203125 C-0.02355469 1.39496094 -0.01195312 0.70789063 0 0 Z " fill="#78A0CE" transform="translate(294,503)"/>
<path d="M0 0 C1.18239258 0.02707031 1.18239258 0.02707031 2.38867188 0.0546875 C4.32214261 0.10155952 6.25498285 0.1732959 8.1875 0.25 C8.97029267 8.23448519 8.97029267 8.23448519 5.875 12.25 C1.02340061 15.86049257 -3.95800934 15.92072724 -9.8125 15.25 C-12.4375 13.6875 -12.4375 13.6875 -13.8125 11.25 C-14.375 7.75 -14.375 7.75 -13.8125 4.25 C-9.62038383 -0.40423921 -5.84099006 -0.25459471 0 0 Z " fill="#F4F5F6" transform="translate(727.8125,567.75)"/>
<path d="M0 0 C6.44337708 1.75728466 10.57919286 6.6625431 13.9375 12.1875 C15.41529195 17.49016523 15.24241377 22.53222284 15 28 C4.39069359 23.29587357 4.39069359 23.29587357 0.25 19.4375 C-1.96097286 13.35732463 -2.05244803 6.15734408 0 0 Z " fill="#779FCE" transform="translate(349,560)"/>
<path d="M0 0 C0.63249919 8.73200277 -0.66689903 12.92620993 -6.25 19.75 C-10.35055866 23.10500254 -14.66933004 25 -20 25 C-17.97250773 14.64750158 -15.89119798 7.22383859 -7 1 C-4.53593673 0.39560712 -2.51971065 0 0 0 Z " fill="#729CCE" transform="translate(529,503)"/>
<path d="M0 0 C5.76760765 1.57298391 9.88073549 5.92119878 13.19921875 10.7421875 C14.37207259 14.0490632 14.21001035 17.29073288 14.125 20.75 C14.11597656 21.44738281 14.10695313 22.14476562 14.09765625 22.86328125 C14.07419888 24.57566958 14.03833104 26.28788004 14 28 C8.73254711 26.32399226 4.85951146 24.96189284 1.80078125 20.08984375 C-1.04768975 14.42288566 -1.69207648 9.28541587 -1 3 C-0.67 2.01 -0.34 1.02 0 0 Z " fill="#759DCD" transform="translate(296,475)"/>
<path d="M0 0 C0.495 2.475 0.495 2.475 1 5 C-11.95342439 10.62016325 -22.68516314 14.48986134 -37 14 C-38.125 9.25 -38.125 9.25 -37 7 C-35.20922852 6.56103516 -35.20922852 6.56103516 -32.87890625 6.2890625 C-32.02989746 6.18062012 -31.18088867 6.07217773 -30.30615234 5.96044922 C-29.40074707 5.84975098 -28.4953418 5.73905273 -27.5625 5.625 C-20.23773654 4.64119263 -13.63471556 3.42536478 -7 0 C-4.3333581 -1.33332095 -2.83319697 -0.67102033 0 0 Z " fill="#769ECD" transform="translate(454,594)"/>
<path d="M0 0 C3 1 3 1 4 3 C4.5072965 8.55531248 4.76260422 13.41830236 2.3125 18.5 C-2.18692843 23.36424695 -5.63934417 25.5033751 -12 27 C-11.84957459 17.26337363 -11.28764166 10.51292965 -4.44140625 3.375 C-2.875 1.9375 -2.875 1.9375 0 0 Z " fill="#759FCE" transform="translate(472,560)"/>
<path d="M0 0 C0.0816082 2.37570543 0.14077222 4.74855841 0.1875 7.125 C0.21263672 7.79015625 0.23777344 8.4553125 0.26367188 9.140625 C0.3439881 14.60212825 -0.82746512 18.50099129 -4.4296875 22.64453125 C-7.64104435 25.23965476 -9.97027475 26.36480602 -14 27 C-14.75489859 11.88105878 -14.75489859 11.88105878 -10 6 C-3.82677165 0 -3.82677165 0 0 0 Z " fill="#739ECE" transform="translate(527,475)"/>
<path d="M0 0 C2.4375 0.3125 2.4375 0.3125 4.4375 2.3125 C4.5625 4.9375 4.5625 4.9375 4.4375 7.3125 C1.61655524 8.72297238 -1.04559639 8.73725118 -4.1875 9.0625 C-16.77994929 10.48590392 -29.27607558 13.2408939 -41.5625 16.3125 C-41.5625 20.2725 -41.5625 24.2325 -41.5625 28.3125 C-42.2225 28.3125 -42.8825 28.3125 -43.5625 28.3125 C-43.8925 29.3025 -44.2225 30.2925 -44.5625 31.3125 C-44.8925 25.3725 -45.2225 19.4325 -45.5625 13.3125 C-36.51727665 10.44044457 -27.32401259 8.37111045 -18.05688477 6.36474609 C-16.05772756 5.93009507 -14.06203809 5.48177034 -12.06640625 5.03125 C-10.88892822 4.77279297 -9.7114502 4.51433594 -8.49829102 4.24804688 C-4.92993141 3.11091972 -3.58308016 0.43696099 0 0 Z " fill="#D0A433" transform="translate(412.5625,435.6875)"/>
<path d="M0 0 C3.84478875 1.45836815 5.1822915 3.36458299 7 7 C9.31089365 14.76141524 7.93026075 21.62202204 5 29 C-0.20465779 25.09650666 -4.34446143 21.21417653 -5.3828125 14.5390625 C-5.64545923 8.70830513 -4.76384177 5.44817664 -1 1 C-0.67 0.67 -0.34 0.34 0 0 Z " fill="#719BCC" transform="translate(337,542)"/>
<path d="M0 0 C3.65432762 1.58917188 5.36115801 3.34525727 7.2265625 6.94921875 C8.65569399 10.73858255 8.88166907 14.04564841 8 18 C5.61741969 22.92656122 3.16990633 26.85336498 -2 29 C-5.08529696 20.03794693 -6.46290842 13.81521958 -2.5 5 C-1.68125393 3.32611915 -0.85276819 1.65680676 0 0 Z " fill="#769FCD" transform="translate(484,541)"/>
<path d="M0 0 C2.82477912 1.87795501 4.62965183 3.89267543 6 7 C6 8.65 6 10.3 6 12 C-2.25 12 -10.5 12 -19 12 C-18 5 -18 5 -15.6875 2.0625 C-11.06547234 -1.28371373 -5.39178598 -1.17116663 0 0 Z " fill="#F6F6F7" transform="translate(893,551)"/>
<path d="M0 0 C3.48667696 0.60691713 6.53889853 1.5449383 9.8125 2.875 C17.02358846 5.57302629 24.44123233 6.71287796 32 8 C33.66808263 8.32617364 35.3354675 8.656168 37 9 C37.042721 10.66611905 37.04063832 12.33382885 37 14 C35.37298805 15.62701195 33.62646295 15.24940591 31.375 15.3125 C19.56357651 15.1744444 8.92635188 11.19107186 -1 5 C-0.67 3.35 -0.34 1.7 0 0 Z " fill="#729CCC" transform="translate(370,593)"/>
<path d="M0 0 C4.76995355 0.79499226 8.03603919 1.66304737 12.39453125 3.46875 C14.19954102 4.20158203 14.19954102 4.20158203 16.04101562 4.94921875 C17.92506342 5.72182269 19.80751675 6.49792781 21.68774414 7.27978516 C33.38338574 12.38191306 33.38338574 12.38191306 45.875 12.375 C46.926875 12.189375 46.926875 12.189375 48 12 C49.6328125 13.4765625 49.6328125 13.4765625 51 15 C43.25521976 18.31919153 36.98933498 19.14359173 29.06225586 16.01794434 C28.04143921 15.59140564 28.04143921 15.59140564 27 15.15625 C26.2788501 14.86770142 25.5577002 14.57915283 24.81469727 14.28186035 C22.53770712 13.36738016 20.26899309 12.43412107 18 11.5 C16.44712445 10.87243481 14.89374283 10.2461203 13.33984375 9.62109375 C9.55274231 8.09736137 5.77744676 6.54841286 2 5 C2 10.61 2 16.22 2 22 C1.34 22 0.68 22 0 22 C0 14.74 0 7.48 0 0 Z " fill="#E4E9F0" transform="translate(371,452)"/>
<path d="M0 0 C3.86617163 1.10462047 6.56755095 2.82221801 9.046875 6.0390625 C11.4441533 10.97116785 10.7895084 16.64841703 9.08984375 21.7109375 C8.14175613 23.86537316 7.13882935 25.94095586 6 28 C5.34 28 4.68 28 4 28 C-1.10017949 22.02776909 -2.74336921 16.47136276 -2.34375 8.71875 C-1.95174978 5.61838463 -1.27111531 2.86000944 0 0 Z " fill="#779ECE" transform="translate(492,521)"/>
<path d="M0 0 C2.3737867 6.38433761 2.9649578 12.24529539 2 19 C0.40045956 22.38507395 -1.55010922 25.1782508 -4 28 C-8.28709166 23.88102959 -10.18589727 19.97556474 -10.4375 14 C-10.2888897 9.29400709 -9.16071965 6.5997085 -6 3 C-2.6 0 -2.6 0 0 0 Z " fill="#729DCE" transform="translate(331,521)"/>
<path d="M0 0 C1.20539731 15.59363182 1.20539731 15.59363182 -3.25 21.3125 C-5.61425856 23.88388377 -8.16695757 25.96296728 -11 28 C-13.09395149 22.11076143 -14.184385 16.21579494 -13 10 C-10.24568406 5.33652809 -5.86404165 0 0 0 Z " fill="#78A2D0" transform="translate(328,498)"/>
<path d="M0 0 C0.66 0 1.32 0 2 0 C7.01960784 12.39215686 7.01960784 12.39215686 6 18 C4.30393792 21.55694525 2.44075168 24.90006721 0 28 C-0.99 28.33 -1.98 28.66 -3 29 C-5.33407107 22.47015833 -7.39500341 15.95304847 -6 9 C-4.38304664 5.67214186 -2.5278594 2.71122744 0 0 Z " fill="#76A0CE" transform="translate(514,450)"/>
<path d="M0 0 C3.62494133 1.58400798 5.36489034 3.31374366 7.23828125 6.8828125 C9.82130121 14.06228337 7.7584113 21.20248643 5 28 C1.25017417 26.29410439 -0.60478508 24.38633833 -3 21 C-5.61780197 13.1465941 -3.30929351 7.20953229 0 0 Z " fill="#77A0CD" transform="translate(307,450)"/>
<path d="M0 0 C5.11793364 0.6806233 7.35430159 2.44462078 10.61328125 6.33984375 C13.7762342 12.40736758 12.91267444 20.56066271 11 27 C7.63512219 25.59127675 5.94290543 24.00344528 3.8125 21.0625 C3.04873047 20.02802734 3.04873047 20.02802734 2.26953125 18.97265625 C-0.31012699 14.96426421 -0.10514411 11.46070766 -0.0625 6.8125 C-0.05347656 5.54019531 -0.04445313 4.26789063 -0.03515625 2.95703125 C-0.02355469 1.98121094 -0.01195312 1.00539063 0 0 Z " fill="#749DCD" transform="translate(496,499)"/>
<path d="M0 0 C-0.51153339 8.92537568 -1.7981698 14.16441112 -8.5625 20.375 C-12.69662921 24 -12.69662921 24 -15 24 C-15.62272262 12.34124872 -15.62272262 12.34124872 -13.375 7.5 C-5.92611904 -0.34092732 -5.92611904 -0.34092732 0 0 Z " fill="#739CCA" transform="translate(328,477)"/>
<path d="M0 0 C3.125 1.5625 3.125 1.5625 5 4 C5.33 6.31 5.66 8.62 6 11 C-1.92 11 -9.84 11 -18 11 C-14.61505401 0.84516204 -10.37696875 -1.65158962 0 0 Z " fill="#F0F1F4" transform="translate(976,461)"/>
<path d="M0 0 C6.6055504 1.64059422 10.1352157 3.32359806 14 9 C15.50156874 12.00313748 15.09281204 14.79067522 15.0625 18.125 C15.05347656 19.40632813 15.04445313 20.68765625 15.03515625 22.0078125 C15.02355469 22.99523437 15.01195312 23.98265625 15 25 C8.31406239 20.27765086 3.07080648 15.83055653 0 8 C-0.23146924 5.27654282 -0.14181949 2.74184339 0 0 Z " fill="#77A1D0" transform="translate(495,477)"/>
<path d="M0 0 C2.90151808 1.35327721 3.87515565 2.42781999 6 5 C6 6.98 6 8.96 6 11 C-1.59 11 -9.18 11 -17 11 C-15.79726169 3.78357012 -15.79726169 3.78357012 -11.94140625 0.921875 C-8.03730089 -0.93198589 -4.17632401 -0.83796792 0 0 Z " fill="#F4F5F7" transform="translate(853,461)"/>
<path d="M0 0 C2.90151808 1.35327721 3.87515565 2.42781999 6 5 C6 6.98 6 8.96 6 11 C-1.59 11 -9.18 11 -17 11 C-15.79726169 3.78357012 -15.79726169 3.78357012 -11.94140625 0.921875 C-8.03730089 -0.93198589 -4.17632401 -0.83796792 0 0 Z " fill="#F3F4F6" transform="translate(745,461)"/>
<path d="M0 0 C5.6131052 1.36075278 8.61031425 5.62621194 12 10 C13.17635297 12.35270593 13.13359359 13.820752 13.125 16.4375 C13.12757813 17.21996094 13.13015625 18.00242187 13.1328125 18.80859375 C13 21 13 21 12 24 C7.81181221 22.68228785 6.06508824 21.27273352 3.75 17.5625 C3.24984375 16.78003906 2.7496875 15.99757813 2.234375 15.19140625 C0.21508154 11.60652135 -0.11496952 8.85265274 -0.0625 4.8125 C-0.05347656 3.91144531 -0.04445313 3.01039063 -0.03515625 2.08203125 C-0.02355469 1.39496094 -0.01195312 0.70789063 0 0 Z " fill="#779ECC" transform="translate(492,433)"/>
<path d="M0 0 C3.91796508 -0.47975083 7.46318029 -0.79036442 11.05078125 1.0546875 C15.46297405 4.55042912 17.83047056 8.49764244 19 14 C19 15.32 19 16.64 19 18 C13.90082369 17.52195222 9.89130459 15.20737832 6 12 C3.01092854 8.29854542 0.98719101 4.66577644 0 0 Z " fill="#779FCC" transform="translate(487,457)"/>
<path d="M0 0 C0.47725463 7.2118477 0.42601942 13.03566895 -4 19 C-5.9100926 20.99780094 -7.70629985 22.40438251 -10 24 C-10.66 24 -11.32 24 -12 24 C-12.62272262 12.34124872 -12.62272262 12.34124872 -10.375 7.5 C-3.25 0 -3.25 0 0 0 Z " fill="#749ECC" transform="translate(330,433)"/>
<path d="M0 0 C-0.33676607 5.38825707 -3.27332866 9.31052099 -7 13 C-14.84855769 18 -14.84855769 18 -19 18 C-17.83681141 11.11269912 -16.33903291 5.78252742 -10.75 1.125 C-6.98016023 -0.41720718 -4.05652128 -0.20626379 0 0 Z " fill="#78A1CF" transform="translate(335,457)"/>
<path d="M0 0 C2.31 0.33 4.62 0.66 7 1 C6.67 2.32 6.34 3.64 6 5 C6.99 5 7.98 5 9 5 C7.51131293 9.60139641 5.25370145 12.50227094 2 16 C1.34 16 0.68 16 0 16 C0 10.72 0 5.44 0 0 Z " fill="#55709E" transform="translate(411,517)"/>
<path d="M0 0 C2.5 0.25 2.5 0.25 4.5 2.25 C4.625 4.875 4.625 4.875 4.5 7.25 C2.09454362 8.45272819 0.55003047 8.35071472 -2.125 8.3125 C-3.35089844 8.29896484 -3.35089844 8.29896484 -4.6015625 8.28515625 C-5.54128906 8.26775391 -5.54128906 8.26775391 -6.5 8.25 C-6.5 7.59 -6.5 6.93 -6.5 6.25 C-7.49 5.59 -8.48 4.93 -9.5 4.25 C-8.324375 3.816875 -8.324375 3.816875 -7.125 3.375 C-4.1863477 2.11557758 -3.18270259 0.31827026 0 0 Z " fill="#DCB661" transform="translate(412.5,435.75)"/>
<path d="M0 0 C2.5 0.25 2.5 0.25 4.5 2.25 C4.75 4.75 4.75 4.75 4.5 7.25 C2.5 9.25 2.5 9.25 0 9.5 C-2.5 9.25 -2.5 9.25 -4.5 7.25 C-4.75 4.75 -4.75 4.75 -4.5 2.25 C-2.5 0.25 -2.5 0.25 0 0 Z " fill="#505763" transform="translate(811.5,525.75)"/>
<path d="M0 0 C6 1 6 1 9 3 C6.35261084 4.4606285 5.10551666 5 2 5 C2 10.61 2 16.22 2 22 C1.34 22 0.68 22 0 22 C0 14.74 0 7.48 0 0 Z " fill="#EEEAD7" transform="translate(371,452)"/>
<path d="M0 0 C0.33 0 0.66 0 1 0 C1 4.62 1 9.24 1 14 C0.34 14 -0.32 14 -1 14 C-1.33 14.99 -1.66 15.98 -2 17 C-2.05383848 14.54137599 -2.09359038 12.0839245 -2.125 9.625 C-2.14175781 8.92632812 -2.15851563 8.22765625 -2.17578125 7.5078125 C-2.19344267 5.67102514 -2.10303261 3.83398037 -2 2 C-1.34 1.34 -0.68 0.68 0 0 Z " fill="#EEB03B" transform="translate(370,450)"/>
<path d="M0 0 C0.33 0 0.66 0 1 0 C1.33 1.65 1.66 3.3 2 5 C3.65 4.67 5.3 4.34 7 4 C5.63055898 6.94956528 4.12169591 9.52468811 2 12 C1.34 12 0.68 12 0 12 C0 8.04 0 4.08 0 0 Z " fill="#2C4B7C" transform="translate(411,521)"/>
<path d="M0 0 C0.66 0.66 1.32 1.32 2 2 C0.56342755 2.33730842 -0.87430093 2.66969591 -2.3125 3 C-3.51326172 3.2784375 -3.51326172 3.2784375 -4.73828125 3.5625 C-7 4 -7 4 -10 4 C-10.33 3.01 -10.66 2.02 -11 1 C-6.94214651 -1.02892674 -4.3831949 -1.16885197 0 0 Z " fill="#D6B249" transform="translate(378,448)"/>
<path d="M0 0 C-0.99 0.495 -0.99 0.495 -2 1 C-2 1.66 -2 2.32 -2 3 C-4.76250036 4.38125018 -6.94731099 4.19079306 -10 4 C-10.66 3.34 -11.32 2.68 -12 2 C-7.8794254 0.00214565 -4.54805635 -0.17835515 0 0 Z " fill="#DFB035" transform="translate(388,445)"/>
<path d="M0 0 C2.31 0 4.62 0 7 0 C7 0.99 7 1.98 7 3 C2.545 3.495 2.545 3.495 -2 4 C-1.34 2.68 -0.68 1.36 0 0 Z " fill="#DFB035" transform="translate(399,441)"/>
<path d="M0 0 C0 3.54404336 -0.60989485 4.10267905 -2.875 6.6875 C-3.40867187 7.31011719 -3.94234375 7.93273437 -4.4921875 8.57421875 C-6 10 -6 10 -8 10 C-6.5682479 4.98886765 -4.01554307 3.05530451 0 0 Z " fill="#2F425F" transform="translate(835,455)"/>
<path d="M0 0 C0.33 0 0.66 0 1 0 C1.33 3.96 1.66 7.92 2 12 C1.34 12 0.68 12 0 12 C0 12.99 0 13.98 0 15 C-0.66 14.67 -1.32 14.34 -2 14 C-1.34 9.38 -0.68 4.76 0 0 Z " fill="#DEE7F3" transform="translate(507,461)"/>
<path d="M0 0 C1 2 1 2 1 5 C1.66 5.66 2.32 6.32 3 7 C1.02 7 -0.96 7 -3 7 C-3 6.34 -3 5.68 -3 5 C-3.99 4.34 -4.98 3.68 -6 3 C-5.195625 2.690625 -4.39125 2.38125 -3.5625 2.0625 C-1.10919595 1.23664655 -1.10919595 1.23664655 0 0 Z " fill="#D4B04E" transform="translate(409,437)"/>
<path d="M0 0 C0.66 0 1.32 0 2 0 C2 2.97 2 5.94 2 9 C1.01 8.67 0.02 8.34 -1 8 C-0.67 5.36 -0.34 2.72 0 0 Z " fill="#ECBC4E" transform="translate(369,464)"/>
<path d="M0 0 C1.65 0.33 3.3 0.66 5 1 C4.01 2.485 4.01 2.485 3 4 C1.35 3.67 -0.3 3.34 -2 3 C-1.34 2.67 -0.68 2.34 0 2 C0 1.34 0 0.68 0 0 Z " fill="#ECF0F5" transform="translate(382,456)"/>
</svg>
