<?xml version="1.0" encoding="UTF-8"?>
<svg version="1.1" xmlns="http://www.w3.org/2000/svg" width="1536" height="1024">
<path d="M0 0 C506.88 0 1013.76 0 1536 0 C1536 337.92 1536 675.84 1536 1024 C1029.12 1024 522.24 1024 0 1024 C0 686.08 0 348.16 0 0 Z " fill="#FBFBFC" transform="translate(0,0)"/>
<path d="M0 0 C14.4634454 4.78550227 26.022095 21.10981076 32.6875 34.04296875 C42.1573624 55.37834327 43.01337218 80.25049552 35.05078125 102.28515625 C34.70402344 103.18105469 34.35726562 104.07695313 34 105 C33.58814453 106.08087891 33.58814453 106.08087891 33.16796875 107.18359375 C28.06162545 119.51809424 21.30023327 130.43949901 12 140 C10.95449462 141.30944423 9.91269176 142.6218551 8.875 143.9375 C-3.12011404 157.58711253 -21.5798132 166.78072214 -39 171 C-39.71945801 171.17515137 -40.43891602 171.35030273 -41.18017578 171.53076172 C-63.67106363 176.5661692 -85.54237223 172.99035362 -105.10351562 161.20556641 C-123.23148116 149.68189316 -133.93493377 132.75796794 -138.8125 112.0625 C-142.52270442 91.69853709 -141.56111547 65.8304084 -130 48 C-127.74474655 49.07335592 -125.49624452 50.15807558 -123.25 51.25 C-122.61578125 51.55035156 -121.9815625 51.85070312 -121.328125 52.16015625 C-117.60271295 53.9840559 -114.62243505 55.75349179 -112 59 C-112.0852009 62.15243317 -113.14011317 64.31068572 -114.4375 67.1875 C-120.66979466 81.2633655 -122.14006952 105.36347916 -117 120 C-110.98974245 134.91174686 -102.52023986 144.70771389 -87.83203125 151.44140625 C-81.61416635 154.06676165 -75.88721511 155.34601027 -69.125 155.25 C-68.06357788 155.23767334 -68.06357788 155.23767334 -66.98071289 155.22509766 C-44.96599794 154.75470857 -24.45276347 141.76753435 -9.41601562 126.49316406 C-3.11755173 119.87937783 1.65807038 112.73197746 6.03198242 104.73535156 C6.98816481 103.02121678 8.01934931 101.34962492 9.05078125 99.6796875 C11.51758416 95.36489336 12.82129525 90.75510225 14.1875 86 C14.44724609 85.13632812 14.70699219 84.27265625 14.97460938 83.3828125 C21.77356773 60.26284044 18.39280527 35.50327229 8 14 C6.44971282 11.53492196 4.78251086 9.30677875 3 7 C3 6.01 3 5.02 3 4 C2.01 3.67 1.02 3.34 0 3 C0 2.01 0 1.02 0 0 Z " fill="#4D7EC3" transform="translate(579,435)"/>
<path d="M0 0 C1.48165769 0.30998273 2.95617179 0.65765476 4.41796875 1.05078125 C5.44921875 1.26734375 6.48046875 1.48390625 7.54296875 1.70703125 C21.78391835 5.88644037 34.50624681 12.99238865 45.41796875 23.05078125 C46.47177734 23.96730469 46.47177734 23.96730469 47.546875 24.90234375 C61.22300879 37.48117522 71.3882591 58.03866297 72.31640625 76.50390625 C72.34992188 77.674375 72.3834375 78.84484375 72.41796875 80.05078125 C72.45438477 80.81455078 72.49080078 81.57832031 72.52832031 82.36523438 C73.3838614 101.10086525 69.28327485 114.69978441 60.41796875 131.05078125 C54.76883812 129.39370293 50.15496238 127.57316113 45.41796875 124.05078125 C46.01682656 119.5389321 47.20753468 115.69972793 48.91796875 111.48828125 C54.83195555 96.89242429 54.84170051 77.8973115 48.9609375 63.26953125 C39.67554295 43.899493 26.16915898 30.71447727 5.94140625 23.12109375 C-11.40255426 17.03040528 -30.91173648 18.77946935 -47.3503418 26.63427734 C-69.85698864 38.11521537 -80.06376029 58.9327103 -87.58203125 82.05078125 C-89.13642107 87.27752669 -88.80678809 92.64243362 -88.83203125 98.05078125 C-88.85265625 99.12457031 -88.87328125 100.19835937 -88.89453125 101.3046875 C-88.9447209 111.73158743 -86.96534821 120.98813248 -82.25390625 130.30859375 C-82.0321875 130.88351562 -81.81046875 131.4584375 -81.58203125 132.05078125 C-81.91203125 132.71078125 -82.24203125 133.37078125 -82.58203125 134.05078125 C-87.54674576 128.01555017 -90.85688743 121.70763292 -93.89453125 114.55078125 C-94.23162109 113.76856201 -94.56871094 112.98634277 -94.91601562 112.18041992 C-102.19234901 94.50591213 -102.65083241 71.72811547 -95.41210938 53.96240234 C-85.27040632 30.60665678 -67.74566571 13.52595384 -44.203125 3.828125 C-41.4126817 3.00055687 -39.47580919 2.7792997 -36.58203125 3.05078125 C-34.72924805 4.3359375 -34.72924805 4.3359375 -33.03125 6.11328125 C-32.41572266 6.74492187 -31.80019531 7.3765625 -31.16601562 8.02734375 C-30.54017578 8.69507813 -29.91433594 9.3628125 -29.26953125 10.05078125 C-28.62435547 10.71851563 -27.97917969 11.38625 -27.31445312 12.07421875 C-25.72514198 13.72239328 -24.14865223 15.38107223 -22.58203125 17.05078125 C-19.41550173 15.68071833 -17.61557733 14.20468021 -15.4453125 11.5390625 C-14.86716797 10.86423828 -14.28902344 10.18941406 -13.69335938 9.49414062 C-12.49640351 8.07624829 -11.316479 6.64379759 -10.15429688 5.19726562 C-6.9576791 1.52838017 -5.04309943 -0.50843237 0 0 Z " fill="#E8B963" transform="translate(439.58203125,452.94921875)"/>
<path d="M0 0 C0.64735611 -0.00832352 1.29471222 -0.01664703 1.96168518 -0.02522278 C4.10684177 -0.04936505 6.25169452 -0.05810008 8.39697266 -0.06469727 C9.88668918 -0.07366094 11.37640476 -0.08278273 12.86611938 -0.09205627 C15.99166046 -0.10856066 19.11709424 -0.1162489 22.24267578 -0.11914062 C26.24687799 -0.12452385 30.25007103 -0.16219331 34.25398827 -0.20788479 C37.33209914 -0.23763726 40.40996659 -0.24486378 43.48820877 -0.24586678 C44.96422571 -0.25007335 46.44024309 -0.26252542 47.91611862 -0.28338432 C49.98259207 -0.31026299 52.0467219 -0.30548734 54.11328125 -0.29296875 C55.2886142 -0.2980394 56.46394714 -0.30311005 57.67489624 -0.30833435 C60.68603516 0.30639648 60.68603516 0.30639648 63.01870728 2.63682556 C64.78410412 5.46341542 65.79241427 8.10425496 66.68603516 11.30639648 C67.34603516 11.30639648 68.00603516 11.30639648 68.68603516 11.30639648 C69.36537622 12.52860385 70.02895038 13.75958099 70.68603516 14.99389648 C71.05728516 15.67838867 71.42853516 16.36288086 71.81103516 17.06811523 C72.86533216 19.76504461 73.01356355 21.42307718 72.68603516 24.30639648 C71.05297852 26.49121094 71.05297852 26.49121094 68.77587891 28.66967773 C67.95023437 29.47469727 67.12458984 30.2797168 66.27392578 31.10913086 C65.39929688 31.93735352 64.52466797 32.76557617 63.62353516 33.61889648 C61.92194975 35.25837079 60.22269758 36.90027045 58.52587891 38.54467773 C57.70071777 39.34341309 56.87555664 40.14214844 56.02539062 40.96508789 C53.27653354 43.71624 50.73310216 46.59807074 48.20776367 49.55322266 C46.14855478 51.92562423 43.93599998 54.11564126 41.68603516 56.30639648 C37.93532977 59.98869994 34.50525216 63.7774422 31.25634766 67.90795898 C29.68603516 69.30639648 29.68603516 69.30639648 25.68603516 69.30639648 C23.96134949 68.06945801 23.96134949 68.06945801 22.22192383 66.31225586 C21.56411423 65.65737183 20.90630463 65.00248779 20.2285614 64.32775879 C19.52745743 63.60914673 18.82635345 62.89053467 18.10400391 62.15014648 C17.37159988 61.41445435 16.63919586 60.67876221 15.88459778 59.92077637 C13.53809846 57.5584992 11.2060761 55.18244871 8.87353516 52.80639648 C7.31385382 51.2352243 5.75331634 49.66490151 4.19189453 48.09545898 C2.68266182 46.57278347 1.17417482 45.04936842 -0.33349609 43.52514648 C-1.02852737 42.82272827 -1.72355865 42.12031006 -2.43965149 41.39660645 C-6.38324841 37.37715223 -10.16359556 33.26481622 -13.81913757 28.9810791 C-15.40108597 27.1397206 -15.40108597 27.1397206 -17.81396484 25.11889648 C-19.31396484 23.30639648 -19.31396484 23.30639648 -19.21630859 21.20483398 C-17.93055879 17.07484977 -15.71087124 13.73673528 -13.37646484 10.11889648 C-12.92078125 9.39508789 -12.46509766 8.6712793 -11.99560547 7.92553711 C-7.00044266 0.06345801 -7.00044266 0.06345801 0 0 Z " fill="#6799DD" transform="translate(390.31396484375,400.693603515625)"/>
<path d="M0 0 C4.29 0 8.58 0 13 0 C17.12967564 11.01246838 21.15410843 22.20804216 23.46484375 33.76171875 C24.62348142 38.60769967 26.3613995 43.29896654 28 48 C30.1233906 44.81491411 30.91850194 42.29096034 32 38.625 C34.54900317 30.17417676 37.42257504 21.83860594 40.3125 13.5 C40.65825073 12.50169159 40.65825073 12.50169159 41.01098633 11.48321533 C42.33755828 7.65439646 43.66739702 3.82672366 45 0 C48.63 0 52.26 0 56 0 C59.46648986 10.29547488 62.85653213 20.60036046 66 31 C66.70687769 33.31294537 67.4152053 35.62544813 68.125 37.9375 C68.59292969 39.46697266 68.59292969 39.46697266 69.0703125 41.02734375 C70.00982086 44.03140198 70.99534826 47.01716231 72 50 C74.97991736 41.51512628 77.20514725 32.85609454 79.44506836 24.15283203 C81.56718199 15.92849008 83.95684382 7.93807631 87 0 C91.29 0 95.58 0 100 0 C97.25918415 12.08450626 93.56766281 23.77055825 89.72314453 35.53735352 C89.28536238 36.87772794 88.84769798 38.21814083 88.41015625 39.55859375 C88.19794434 40.20870926 87.98573242 40.85882477 87.76708984 41.52864075 C85.34547587 48.97281087 83.13163719 56.46821526 81 64 C80.62534128 65.31259746 80.25034666 66.62509909 79.875 67.9375 C79.58625 68.948125 79.2975 69.95875 79 71 C74.71 71 70.42 71 66 71 C64.02177997 65.87589998 62.30227902 60.79221139 60.8125 55.5 C57.57936541 44.21453021 53.76624949 33.11626155 50 22 C47.10340647 30.46791385 44.37795382 38.95668884 41.88720703 47.55224609 C39.70439874 55.07042453 37.36072209 62.53609996 35 70 C30.38 70 25.76 70 21 70 C10.74363448 39.58937836 10.74363448 39.58937836 7.16015625 26.9765625 C6.28844747 23.9306453 5.34316556 20.91382107 4.37109375 17.8984375 C4.09168945 17.03114014 3.81228516 16.16384277 3.52441406 15.27026367 C2.98050832 13.59174008 2.43193584 11.91471898 1.87792969 10.23950195 C1.63333008 9.4837085 1.38873047 8.72791504 1.13671875 7.94921875 C0.91717529 7.28237061 0.69763184 6.61552246 0.47143555 5.9284668 C0 4 0 4 0 0 Z " fill="#17315E" transform="translate(657,450)"/>
<path d="M0 0 C1.91297122 1.2037056 3.69770163 2.44291421 5.44140625 3.87890625 C6.10140625 2.55890625 6.76140625 1.23890625 7.44140625 -0.12109375 C11.07140625 -0.12109375 14.70140625 -0.12109375 18.44140625 -0.12109375 C18.51591592 7.10137715 18.5701786 14.32362112 18.60620117 21.54638672 C18.62122849 24.00020244 18.64165605 26.45399158 18.66772461 28.90771484 C18.70437445 32.44765817 18.7211938 35.98724439 18.734375 39.52734375 C18.74985886 40.61316742 18.76534271 41.69899109 18.78129578 42.81771851 C18.78302299 50.74763218 18.09980154 58.80596843 13.12890625 65.31640625 C5.83238025 72.27355895 -2.67806518 73.24408284 -12.328125 73.06640625 C-17.83529952 72.74676371 -22.48640127 72.13185985 -27.24609375 69.25390625 C-28.81310535 66.41836145 -28.54878355 65.68691667 -27.80859375 62.62890625 C-27.18984375 60.77265625 -27.18984375 60.77265625 -26.55859375 58.87890625 C-25.58148437 59.20246094 -24.604375 59.52601563 -23.59765625 59.859375 C-19.35169879 61.06777406 -15.32635466 61.2108089 -10.93359375 61.19140625 C-9.82757812 61.21557617 -9.82757812 61.21557617 -8.69921875 61.24023438 C-4.13214847 61.24432673 -1.17502475 60.71989759 2.44140625 57.87890625 C4.96051083 53.68039862 4.60245416 49.62981948 4.44140625 44.87890625 C3.51328125 45.51828125 2.58515625 46.15765625 1.62890625 46.81640625 C-4.86599419 51.01898888 -12.09008094 50.68799514 -19.55859375 49.87890625 C-25.64808056 47.34162008 -28.86184208 42.70388986 -31.55859375 36.87890625 C-34.08229357 29.25630271 -33.87801807 18.56109537 -30.55859375 11.25390625 C-24.50381636 1.0364694 -11.40312035 -4.99648174 0 0 Z " fill="#193360" transform="translate(1048.55859375,470.12109375)"/>
<path d="M0 0 C4.29 0 8.58 0 13 0 C13 24.75 13 49.5 13 75 C9.7 75 6.4 75 3 75 C2 74 2 74 1.9375 70.9375 C1.958125 69.968125 1.97875 68.99875 2 68 C1.49210938 68.40992188 0.98421875 68.81984375 0.4609375 69.2421875 C-5.69209418 74.05860556 -10.7693875 76.53516036 -18.69921875 76.30859375 C-25.1006247 75.4500011 -29.85627887 71.9915328 -33.74609375 66.95703125 C-38.7835577 59.09482116 -39.03792794 50.1041108 -38 41 C-35.94736377 34.56840647 -31.6917066 29.5730633 -26 26 C-20.05897825 23.07927422 -13.56601327 21.93524109 -7 23 C-5.02 23.99 -3.04 24.98 -1 26 C-0.67 17.42 -0.34 8.84 0 0 Z " fill="#183261" transform="translate(850,446)"/>
<path d="M0 0 C4.29 0 8.58 0 13 0 C13 24.75 13 49.5 13 75 C9.37 75 5.74 75 2 75 C1.34 72.69 0.68 70.38 0 68 C-0.66 68.763125 -1.32 69.52625 -2 70.3125 C-6.16148918 74.43882167 -11.26349793 76.11651735 -17.0625 76.375 C-22.62038077 75.84567802 -26.35907223 74.33563888 -30.6875 70.8125 C-37.81953689 62.13840108 -38.94859406 52.93089197 -38 42 C-35.90474295 34.5686911 -31.31337754 29.31898421 -25 25 C-21.17214707 23.72404902 -17.5503343 23.81584831 -13.5625 23.8125 C-12.79873047 23.80025391 -12.03496094 23.78800781 -11.24804688 23.77539062 C-10.13719727 23.77249023 -10.13719727 23.77249023 -9.00390625 23.76953125 C-8.33174072 23.76542236 -7.6595752 23.76131348 -6.96704102 23.75708008 C-5 24 -5 24 -1 26 C-0.67 17.42 -0.34 8.84 0 0 Z " fill="#16305D" transform="translate(910,446)"/>
<path d="M0 0 C0.33 0 0.66 0 1 0 C1.08636719 0.969375 1.17273438 1.93875 1.26171875 2.9375 C3.29380836 23.16672293 9.63706569 42.79757953 25.75 56.3125 C41.40817099 67.88174769 58.24580611 72.90959926 77.609375 70.5625 C85.51414686 69.25050467 92.05676418 66.9715637 99.07763672 63.16186523 C103.46772152 60.8619238 103.46772152 60.8619238 105.97265625 61.51171875 C106.64167969 62.00285156 107.31070313 62.49398437 108 63 C109.14830952 63.72569553 110.29968305 64.44655263 111.453125 65.1640625 C112.72008687 65.98230871 113.98567978 66.80267791 115.25 67.625 C115.8996875 68.04523438 116.549375 68.46546875 117.21875 68.8984375 C118.81368881 69.93045673 120.40700669 70.96498028 122 72 C108.87364953 85.49650785 88.73941228 89.01455494 70.625 89.375 C51.89109999 89.34114228 34.19138308 82.04852466 20 70 C19.19820313 69.33484375 18.39640625 68.6696875 17.5703125 67.984375 C6.39921594 57.8569449 -1.15875393 42.3345168 -2.18212891 27.32958984 C-2.5687216 17.94477367 -2.65016942 9.06357941 0 0 Z " fill="#214682" transform="translate(356,533)"/>
<path d="M0 0 C2.65599603 2.04620696 4.89964951 4.43175737 7.1875 6.875 C8.13012695 7.85146484 8.13012695 7.85146484 9.09179688 8.84765625 C10.25603722 10.05547778 11.41506964 11.26835647 12.56713867 12.48779297 C13.69312944 13.67613627 14.84241307 14.84241307 16 16 C14.88625 16.1959375 13.7725 16.391875 12.625 16.59375 C-8.2149911 20.55944053 -25.65734811 29.94076043 -37.91015625 47.78125 C-46.80380117 62.32382543 -52.56478831 78.32492079 -52.375 95.4375 C-52.38660156 96.47970703 -52.39820313 97.52191406 -52.41015625 98.59570312 C-52.37202609 108.84636123 -50.30132303 118.09955661 -45.671875 127.2578125 C-45.45015625 127.83273437 -45.2284375 128.40765625 -45 129 C-45.33 129.66 -45.66 130.32 -46 131 C-50.96471451 124.96476892 -54.27485618 118.65685167 -57.3125 111.5 C-57.64958984 110.71778076 -57.98667969 109.93556152 -58.33398438 109.12963867 C-65.61031776 91.45513088 -66.06880116 68.67733422 -58.83007812 50.91162109 C-48.68837507 27.55587553 -31.16363446 10.47517259 -7.62109375 0.77734375 C-2.92103031 -0.61656478 -2.92103031 -0.61656478 0 0 Z " fill="#E5B35B" transform="translate(403,456)"/>
<path d="M0 0 C35.30512249 0 35.30512249 0 42.05859375 5.75390625 C47.15026718 11.38649649 47.40155077 15.92306446 47.34765625 23.4375 C46.73263616 29.73972836 43.96356149 33.13461658 39.5 37.375 C32.48887891 41.93222871 25.2372615 42.15117146 17.125 42.0625 C13.103125 42.0315625 13.103125 42.0315625 9 42 C9 50.25 9 58.5 9 67 C6.03 67 3.06 67 0 67 C0 44.89 0 22.78 0 0 Z " fill="#4B7ABC" transform="translate(668,546)"/>
<path d="M0 0 C1.010625 0.721875 2.02125 1.44375 3.0625 2.1875 C9.02549228 7.33809551 13.50163072 15.00326144 17 22 C16.505 22.99 16.505 22.99 16 24 C15.23429688 23.23816406 15.23429688 23.23816406 14.453125 22.4609375 C5.61555527 14.09345127 -4.17955861 9.59662155 -16 7 C-16.99 6.773125 -17.98 6.54625 -19 6.3125 C-36.62747167 4.47630503 -53.38702309 10.06401335 -67.3984375 20.8515625 C-73.54989249 25.9315929 -79.45125371 31.2662955 -85 37 C-88.98712321 35.16753428 -92.58084504 32.76144225 -96.25 30.375 C-97.22453125 29.74464844 -97.22453125 29.74464844 -98.21875 29.1015625 C-99.81368881 28.06954327 -101.40700669 27.03501972 -103 26 C-97.5783673 12.81982396 -79.82791405 1.82059836 -67.34936523 -3.7421875 C-46.63170661 -12.23164128 -18.61752614 -14.73497672 0 0 Z " fill="#29518F" transform="translate(569,431)"/>
<path d="M0 0 C4.5152174 3.78280245 7.98105222 8.11274619 9 14 C9 17.96 9 21.92 9 26 C-2.88 26 -14.76 26 -27 26 C-24.21322717 33.44993275 -24.21322717 33.44993275 -18.375 37.1875 C-10.05495361 39.19047413 -3.05138781 37.52828626 5 35 C5.495 39.95 5.495 39.95 6 45 C-4.0480074 49.43294444 -16.64482301 49.58328637 -26.953125 45.89453125 C-33.80132286 42.90171196 -36.23399685 37.63840756 -39 31 C-41.47961737 22.80648174 -39.78090036 14.97277774 -36.375 7.375 C-33.07571077 2.03503929 -27.97119411 -1.69962474 -21.9375 -3.375 C-13.75704694 -4.67348461 -7.37600701 -3.87754847 0 0 Z " fill="#173262" transform="translate(797,473)"/>
<path d="M0 0 C4.51366083 2.59367078 7.05696313 5.47494883 9.59375 10.078125 C10.11999492 13.20185734 10.06168088 16.25376022 9.984375 19.4140625 C9.97871521 20.29341461 9.97305542 21.17276672 9.96722412 22.07876587 C9.94494084 24.87078682 9.89476063 27.66149592 9.84375 30.453125 C9.82367454 32.35284597 9.80542561 34.25258718 9.7890625 36.15234375 C9.74510256 40.79477166 9.67613182 45.43622637 9.59375 50.078125 C5.63375 50.078125 1.67375 50.078125 -2.40625 50.078125 C-2.41035889 49.07434814 -2.41446777 48.07057129 -2.41870117 47.03637695 C-2.44053312 43.29920656 -2.49486294 39.56308299 -2.55883789 35.82641602 C-2.58198286 34.21160951 -2.59640543 32.59665279 -2.60180664 30.98168945 C-2.61112274 28.65481352 -2.65216368 26.33028824 -2.69921875 24.00390625 C-2.6952861 23.28600418 -2.69135345 22.56810211 -2.68730164 21.82844543 C-2.80078679 17.89794934 -3.29852207 16.21082189 -5.80786133 13.11987305 C-9.24879626 10.41607348 -11.0509048 10.46698951 -15.25390625 10.71875 C-18.23118584 11.21586383 -20.10741178 12.1275956 -22.40625 14.078125 C-24.79853796 17.65120139 -24.74954559 21.30701408 -24.8203125 25.46875 C-24.83967865 26.17336365 -24.8590448 26.87797729 -24.8789978 27.60394287 C-24.93857735 29.84521539 -24.98509123 32.08653989 -25.03125 34.328125 C-25.06944979 35.85158438 -25.10850269 37.37502262 -25.1484375 38.8984375 C-25.24426018 42.62480606 -25.32837107 46.35133335 -25.40625 50.078125 C-29.36625 50.078125 -33.32625 50.078125 -37.40625 50.078125 C-37.40625 33.908125 -37.40625 17.738125 -37.40625 1.078125 C-34.10625 1.078125 -30.80625 1.078125 -27.40625 1.078125 C-27.07625 3.388125 -26.74625 5.698125 -26.40625 8.078125 C-25.74625 8.078125 -25.08625 8.078125 -24.40625 8.078125 C-24.14585937 7.47484375 -23.88546875 6.8715625 -23.6171875 6.25 C-19.03892204 -1.96134064 -8.14077098 -3.11886681 0 0 Z " fill="#122C5B" transform="translate(997.40625,469.921875)"/>
<path d="M0 0 C3.90074633 3.8901176 5.93820963 7.0159311 6.11352539 12.64526367 C6.11336735 14.1528413 6.10773545 15.6604248 6.09765625 17.16796875 C6.0962413 17.96278152 6.09482635 18.7575943 6.09336853 19.57649231 C6.08777378 22.11353325 6.07522228 24.65048575 6.0625 27.1875 C6.05748432 28.90820185 6.05292153 30.62890508 6.04882812 32.34960938 C6.03780607 36.5664403 6.02054506 40.78320516 6 45 C3.36 45 0.72 45 -2 45 C-2.495 43.02 -2.495 43.02 -3 41 C-4.010625 41.66 -5.02125 42.32 -6.0625 43 C-12.22815607 46.08834293 -19.29032727 45.99402559 -26 45 C-30.79622641 42.33293952 -33.18601267 40.24040784 -35 35 C-35.70108016 30.67234467 -35.34762717 27.7531922 -33.5 23.75 C-29.82322245 19.70554469 -25.88030556 17.35117819 -20.38085938 16.68066406 C-17.57670111 16.6081256 -14.80314737 16.64947334 -12 16.75 C-10.55173828 16.77707031 -10.55173828 16.77707031 -9.07421875 16.8046875 C-6.71507967 16.85140313 -4.35808925 16.91687863 -2 17 C-2.26072046 15.54169479 -2.53879394 14.08648438 -2.82421875 12.6328125 C-2.97721436 11.82215332 -3.13020996 11.01149414 -3.2878418 10.17626953 C-3.87822244 7.6716966 -3.87822244 7.6716966 -6.8125 5.875 C-14.074572 3.58653193 -22.69134525 5.72510684 -30 7 C-30.33 5.02 -30.66 3.04 -31 1 C-21.55749992 -2.74443969 -9.03168235 -6.45120168 0 0 Z " fill="#4B7ABC" transform="translate(783,568)"/>
<path d="M0 0 C6.92542192 3.76537755 9.61754705 8.07802141 11.82421875 15.43359375 C12.17258047 18.91721092 12.07421875 22.43260183 12.07421875 25.93359375 C0.19421875 25.93359375 -11.68578125 25.93359375 -23.92578125 25.93359375 C-20.16436447 35.03337465 -20.16436447 35.03337465 -12.92578125 39.93359375 C-6.89938045 40.60896625 -1.78046113 39.54091256 3.91015625 37.58984375 C6.07421875 36.93359375 6.07421875 36.93359375 9.07421875 36.93359375 C9.07421875 39.24359375 9.07421875 41.55359375 9.07421875 43.93359375 C0.1180982 47.91409177 -11.14222858 48.85511511 -20.65625 46.16015625 C-22.84434044 44.96665237 -24.2538876 43.7785875 -25.92578125 41.93359375 C-26.51875 41.29808594 -27.11171875 40.66257812 -27.72265625 40.0078125 C-33.12956602 32.82753553 -33.06586629 24.52201321 -32.23730469 15.90039062 C-31.35784366 10.34793138 -28.40715285 7.33899758 -24.48828125 3.62109375 C-23.21984375 2.78578125 -23.21984375 2.78578125 -21.92578125 1.93359375 C-21.10078125 1.35609375 -20.27578125 0.77859375 -19.42578125 0.18359375 C-13.05182236 -2.09282014 -6.40577513 -2.33481523 0 0 Z " fill="#4C7CBD" transform="translate(946.92578125,566.06640625)"/>
<path d="M0 0 C1.5 1.375 1.5 1.375 3 3 C3 3.66 3 4.32 3 5 C3.66 5 4.32 5 5 5 C5.67934107 6.22220737 6.34291523 7.45318451 7 8.6875 C7.37125 9.37199219 7.7425 10.05648438 8.125 10.76171875 C9.179297 13.45864813 9.32752839 15.11668069 9 18 C7.36694336 20.18481445 7.36694336 20.18481445 5.08984375 22.36328125 C4.26419922 23.16830078 3.43855469 23.97332031 2.58789062 24.80273438 C1.71326172 25.63095703 0.83863281 26.45917969 -0.0625 27.3125 C-1.76408541 28.95197431 -3.46333758 30.59387397 -5.16015625 32.23828125 C-5.98531738 33.0370166 -6.81047852 33.83575195 -7.66064453 34.65869141 C-10.40950162 37.40984351 -12.95293299 40.29167426 -15.47827148 43.24682617 C-17.53748037 45.61922775 -19.75003518 47.80924478 -22 50 C-25.75070538 53.68230346 -29.18078299 57.47104571 -32.4296875 61.6015625 C-34 63 -34 63 -38 63 C-39.72468567 61.76306152 -39.72468567 61.76306152 -41.46411133 60.00585938 C-42.12192093 59.35097534 -42.77973053 58.69609131 -43.45747375 58.0213623 C-44.15857773 57.30275024 -44.8596817 56.58413818 -45.58203125 55.84375 C-46.31443527 55.10805786 -47.04683929 54.37236572 -47.80143738 53.61437988 C-50.14793669 51.25210271 -52.47995905 48.87605222 -54.8125 46.5 C-56.37218133 44.92882781 -57.93271882 43.35850503 -59.49414062 41.7890625 C-61.00337333 40.26638699 -62.51186034 38.74297193 -64.01953125 37.21875 C-64.71456253 36.51633179 -65.40959381 35.81391357 -66.12568665 35.09020996 C-70.04706782 31.09339883 -73.8127527 27.00611911 -77.4563446 22.75402832 C-78.91234132 21.099605 -80.42381989 19.53943962 -82 18 C-81.67 17.34 -81.34 16.68 -81 16 C-79.68 16.99 -78.36 17.98 -77 19 C-76.34 18.67 -75.68 18.34 -75 18 C-67.93589348 23.91229356 -61.47957912 30.40451222 -55 36.9375 C-53.92862113 38.01390654 -52.85700818 39.09008014 -51.78515625 40.16601562 C-49.18740362 42.77466745 -46.59282038 45.38644471 -44 48 C-46.19563706 41.07270375 -48.84197142 34.4360008 -51.74609375 27.77929688 C-52.55382882 25.8758368 -53.28389854 23.93979249 -54 22 C-53 20 -53 20 -50 18 C-46.77252823 22.95928588 -44.77058554 28.28747148 -42.60546875 33.76171875 C-41.00466194 37.74610573 -39.24742825 41.32737335 -37 45 C-37 45.66 -37 46.32 -37 47 C-33.54074837 45.7508258 -30.85306797 44.32472205 -28 42 C-28.33 44.31 -28.66 46.62 -29 49 C-22.10228176 42.26117144 -22.10228176 42.26117144 -15.625 35.125 C-12.45871305 31.43479506 -9.10394822 27.95693946 -5.6875 24.5 C-4.89496826 23.68813232 -4.89496826 23.68813232 -4.08642578 22.85986328 C-2.7632162 21.53323565 -1.38548837 20.26144617 0 19 C0.66 19 1.32 19 2 19 C2.42083339 12.79270757 2.05644707 10.84156586 -2 6 C-1.70731707 1.70731707 -1.70731707 1.70731707 0 0 Z " fill="#4576BD" transform="translate(454,407)"/>
<path d="M0 0 C5.03359633 2.3843351 8.49996787 5.99993573 11 11 C11.08675538 13.69893181 11.11557897 16.37169231 11.09765625 19.0703125 C11.0962413 19.86654022 11.09482635 20.66276794 11.09336853 21.48312378 C11.08776345 24.0304538 11.07521014 26.57769647 11.0625 29.125 C11.05748565 30.85025915 11.05292263 32.57551967 11.04882812 34.30078125 C11.03779237 38.53388791 11.02052436 42.76692914 11 47 C8.36 47 5.72 47 3 47 C2.99589111 46.02651611 2.99178223 45.05303223 2.98754883 44.05004883 C2.96571215 40.42467921 2.91137784 36.80038798 2.84741211 33.17553711 C2.82427118 31.60923631 2.80984552 30.04278078 2.80444336 28.47631836 C2.79512412 26.21891297 2.75407767 23.96392779 2.70703125 21.70703125 C2.7109639 21.01100296 2.71489655 20.31497467 2.71894836 19.59785461 C2.60473859 15.75866713 2.07708989 14.09657688 -0.34692383 11.05981445 C-4.47400551 7.85560095 -7.90522988 8.31727076 -12.953125 8.5 C-15.90918051 8.98509629 -17.16051199 9.3100942 -19.25 11.375 C-21.97637653 15.46456479 -22.19987418 18.38663537 -22.31640625 23.1953125 C-22.33718735 23.90275604 -22.35796844 24.61019958 -22.37937927 25.33908081 C-22.44481078 27.60095425 -22.50372974 29.86294462 -22.5625 32.125 C-22.60569133 33.65756422 -22.64930582 35.19011657 -22.69335938 36.72265625 C-22.80048555 40.48165073 -22.9017709 44.24076292 -23 48 C-25.97 48 -28.94 48 -32 48 C-32 32.49 -32 16.98 -32 1 C-29.03 1 -26.06 1 -23 1 C-22.67 2.65 -22.34 4.3 -22 6 C-21.50113281 5.566875 -21.00226562 5.13375 -20.48828125 4.6875 C-13.91395184 -0.41144131 -8.18657428 -1.2636269 0 0 Z " fill="#4474B8" transform="translate(892,565)"/>
<path d="M0 0 C4.10334114 2.43302198 6.44659853 4.70061572 8.5390625 9.05859375 C8.94075754 11.99790397 8.8889743 14.89746592 8.83203125 17.859375 C8.82778641 18.69574997 8.82354156 19.53212494 8.81916809 20.3938446 C8.80243614 23.0532614 8.76479476 25.71190775 8.7265625 28.37109375 C8.71150854 30.17902548 8.69782138 31.98696914 8.68554688 33.79492188 C8.65255066 38.21644064 8.60080678 42.63738677 8.5390625 47.05859375 C5.8990625 47.05859375 3.2590625 47.05859375 0.5390625 47.05859375 C0.53495361 46.05481689 0.53084473 45.05104004 0.52661133 44.0168457 C0.50477938 40.27967531 0.45044956 36.54355174 0.38647461 32.80688477 C0.36332964 31.19207826 0.34890707 29.57712154 0.34350586 27.9621582 C0.33418976 25.63528227 0.29314882 23.31075699 0.24609375 20.984375 C0.2500264 20.26647293 0.25395905 19.54857086 0.25801086 18.80891418 C0.14534524 14.90680212 -0.35664563 13.18897476 -2.82373047 10.10473633 C-6.76836762 7.04419162 -9.74040344 7.36825251 -14.5703125 7.55859375 C-18.89893639 8.30732869 -20.5848736 9.79387256 -23.4609375 13.05859375 C-24.93299763 16.00271402 -24.69900942 19.0214529 -24.77734375 22.25390625 C-24.79812485 22.96134979 -24.81890594 23.66879333 -24.84031677 24.39767456 C-24.90574828 26.659548 -24.96466724 28.92153837 -25.0234375 31.18359375 C-25.06662883 32.71615797 -25.11024332 34.24871032 -25.15429688 35.78125 C-25.26142305 39.54024448 -25.3627084 43.29935667 -25.4609375 47.05859375 C-28.1009375 47.05859375 -30.7409375 47.05859375 -33.4609375 47.05859375 C-33.4609375 31.54859375 -33.4609375 16.03859375 -33.4609375 0.05859375 C-30.8209375 0.05859375 -28.1809375 0.05859375 -25.4609375 0.05859375 C-25.1309375 1.70859375 -24.8009375 3.35859375 -24.4609375 5.05859375 C-23.99042969 4.70925781 -23.51992188 4.35992188 -23.03515625 4 C-22.41253906 3.54496094 -21.78992188 3.08992187 -21.1484375 2.62109375 C-20.53355469 2.16863281 -19.91867187 1.71617187 -19.28515625 1.25 C-13.9394305 -2.24131982 -5.84282221 -2.23511135 0 0 Z " fill="#4778BC" transform="translate(837.4609375,565.94140625)"/>
<path d="M0 0 C-0.33 2.31 -0.66 4.62 -1 7 C-2.258125 6.67 -3.51625 6.34 -4.8125 6 C-10.15882249 4.81381117 -15.54443618 4.39183879 -21 5 C-21.99 5.66 -22.98 6.32 -24 7 C-24.66680368 9.95720628 -24.66680368 9.95720628 -24 13 C-20.4327998 15.63121923 -16.80359467 16.77357178 -12.5625 17.9375 C-6.22378855 19.81616787 -1.77065088 21.34402367 2 27 C2.59382093 31.11818669 2.39344293 34.89344177 1 38.8125 C-2.94579229 43.12821031 -7.9140095 45.18907598 -13.7265625 45.49609375 C-15.35949129 45.49740219 -16.99256469 45.47766309 -18.625 45.4375 C-19.44484375 45.44458984 -20.2646875 45.45167969 -21.109375 45.45898438 C-26.14981939 45.40631092 -29.59238795 44.68878599 -34 42 C-33.67 39.69 -33.34 37.38 -33 35 C-32.40574219 35.2165625 -31.81148437 35.433125 -31.19921875 35.65625 C-24.33982649 37.96049374 -16.76502451 39.72752607 -9.7265625 37.17578125 C-7.63853247 36.03704806 -7.63853247 36.03704806 -7.25 32.875 C-7.1675 31.92625 -7.085 30.9775 -7 30 C-11.02677776 26.39050491 -15.88850993 25.4117933 -20.98046875 24.0703125 C-26.0597588 22.61635377 -29.22218692 20.7316013 -33 17 C-34.24838856 13.25483433 -34.62512609 9.88313621 -34 6 C-31.09441103 1.03238014 -28.10648522 -0.98768414 -22.59375 -2.53125 C-14.46459241 -4.00037486 -7.48510659 -3.45466458 0 0 Z " fill="#4E7EBF" transform="translate(1037,568)"/>
<path d="M0 0 C1.23105469 0.01546875 2.46210937 0.0309375 3.73046875 0.046875 C6.8125 0.25 6.8125 0.25 8.8125 1.25 C8.92893304 5.14558088 8.99982909 9.04071258 9.0625 12.9375 C9.11277344 14.59168945 9.11277344 14.59168945 9.1640625 16.27929688 C9.26335927 24.49610418 9.26335927 24.49610418 6.90625 28.4375 C2.97529992 31.84041201 0.19008043 32.7279681 -5.16015625 32.55859375 C-8.6610718 32.02569909 -10.59667311 30.59981974 -13.1875 28.25 C-16.67134927 22.55971286 -17.0575049 16.82337034 -16.1875 10.25 C-14.94029465 6.54861637 -13.13774811 3.9736765 -9.9921875 1.578125 C-6.47442106 -0.0876697 -3.87651172 -0.08169677 0 0 Z " fill="#F6F6F9" transform="translate(841.1875,479.75)"/>
<path d="M0 0 C3.196875 -0.04125 6.39375 -0.0825 9.6875 -0.125 C10.68612061 -0.14320801 11.68474121 -0.16141602 12.71362305 -0.18017578 C18.58068451 -0.21682644 22.71970684 0.02785457 27.3125 4 C29.74836555 8.33042764 29.65674894 12.13845598 29 17 C27.28192304 21.24997984 25.08343928 23.0080784 21 25 C18.23025647 25.83241523 15.77700324 26.11952275 12.890625 26.09765625 C12.21032227 26.09515869 11.53001953 26.09266113 10.82910156 26.09008789 C9.97799805 26.08098389 9.12689453 26.07187988 8.25 26.0625 C5.5275 26.041875 2.805 26.02125 0 26 C0 17.42 0 8.84 0 0 Z " fill="#FAFAFC" transform="translate(677,554)"/>
<path d="M0 0 C1.85625 0.00966797 1.85625 0.00966797 3.75 0.01953125 C7 0.1875 7 0.1875 10 1.1875 C10.14592789 4.89541544 10.23427895 8.60258726 10.3125 12.3125 C10.35439453 13.35921875 10.39628906 14.4059375 10.43945312 15.484375 C10.57759689 24.21506089 10.57759689 24.21506089 7.60546875 27.8671875 C3.33645769 31.66897546 0.27694037 31.52372524 -5.296875 31.47265625 C-8.94474364 31.08783774 -10.62320018 29.94765463 -13 27.1875 C-16.39259347 21.86839809 -15.68693792 15.22568428 -15 9.1875 C-11.98290742 2.05091562 -7.43220499 -0.08516068 0 0 Z " fill="#F7F7F9" transform="translate(900,479.8125)"/>
<path d="M0 0 C1.21945312 0.02449219 2.43890625 0.04898437 3.6953125 0.07421875 C6.875 0.3125 6.875 0.3125 9.875 1.3125 C10.02101614 4.85372827 10.1093056 8.39417644 10.1875 11.9375 C10.22939453 12.93652344 10.27128906 13.93554688 10.31445312 14.96484375 C10.45258478 23.30799547 10.45258478 23.30799547 7.46875 26.9375 C3.23694041 30.81240999 0.7326228 31.74492024 -5.1640625 31.55859375 C-8.16080677 31.18250831 -9.83901456 30.27191609 -12.125 28.3125 C-16.12741611 22.92994041 -15.76861977 16.73106432 -15.125 10.3125 C-12.50998388 2.60508406 -8.00693772 -0.24649808 0 0 Z " fill="#F7F7F9" transform="translate(1044.125,479.6875)"/>
<path d="M0 0 C4.29 0 8.58 0 13 0 C13 16.83 13 33.66 13 51 C8.71 51 4.42 51 0 51 C0 34.17 0 17.34 0 0 Z " fill="#122C5C" transform="translate(935,470)"/>
<path d="M0 0 C2.97 0 5.94 0 9 0 C9 23.43 9 46.86 9 71 C6.03 71 3.06 71 0 71 C0 47.57 0 24.14 0 0 Z " fill="#5180C1" transform="translate(727,542)"/>
<path d="M0 0 C0 2.64 0 5.28 0 8 C-0.99580078 8.03867187 -0.99580078 8.03867187 -2.01171875 8.078125 C-7.49971167 8.43063841 -11.10862645 8.74381018 -15 13 C-17.3528328 16.61443617 -17.30962004 19.92454827 -17.4140625 24.171875 C-17.43342865 24.8542926 -17.4527948 25.53671021 -17.4727478 26.23980713 C-17.53231098 28.40974608 -17.57883446 30.57973877 -17.625 32.75 C-17.66320131 34.22528297 -17.7022543 35.70054415 -17.7421875 37.17578125 C-17.83799235 40.78365418 -17.92210916 44.39169083 -18 48 C-20.64 48 -23.28 48 -26 48 C-26 32.49 -26 16.98 -26 1 C-23.36 1 -20.72 1 -18 1 C-17.67 2.65 -17.34 4.3 -17 6 C-16.443125 5.566875 -15.88625 5.13375 -15.3125 4.6875 C-9.89628625 0.73512781 -6.70190868 -0.73111731 0 0 Z " fill="#4B7ABD" transform="translate(997,565)"/>
<path d="M0 0 C8.58 0 17.16 0 26 0 C23.3125 6.6875 23.3125 6.6875 22.41992188 8.8996582 C21.09363269 12.20138898 19.80059094 15.50804572 18.59375 18.85546875 C18.1709375 20.01691406 17.748125 21.17835938 17.3125 22.375 C16.93738281 23.43460937 16.56226563 24.49421875 16.17578125 25.5859375 C15.78777344 26.38257813 15.39976562 27.17921875 15 28 C14.01 28.33 13.02 28.66 12 29 C0 5.78640777 0 5.78640777 0 0 Z " fill="#F7F8FA" transform="translate(405,425)"/>
<path d="M0 0 C0.88365234 0.01804687 1.76730469 0.03609375 2.67773438 0.0546875 C4.84812543 0.10161487 7.01795519 0.17335269 9.1875 0.25 C9.46272246 7.66571626 9.46272246 7.66571626 8.234375 10.2734375 C4.85309498 13.79730162 2.42280777 15.96729931 -2.46875 16.5859375 C-10.02465507 16.6897274 -10.02465507 16.6897274 -13.5 14.75 C-15.05891565 11.78063686 -15.33144417 9.56179922 -15.44140625 6.25 C-13.17765682 -0.94900439 -6.15697049 -0.23874904 0 0 Z " fill="#F6F8FB" transform="translate(771.8125,590.75)"/>
<path d="M0 0 C5.94 0 11.88 0 18 0 C27.95744681 22.91489362 27.95744681 22.91489362 31 32 C30.34 32 29.68 32 29 32 C27.67553711 30.64990234 27.67553711 30.64990234 26.08984375 28.7109375 C23.04871405 25.13285957 19.84715949 21.77066782 16.50390625 18.4765625 C16.02174652 18.00007263 15.53958679 17.52358276 15.04281616 17.03265381 C13.03762757 15.05449468 11.02825002 13.08068411 9.01489258 11.11083984 C7.52775618 9.65371557 6.04674995 8.19058243 4.56640625 6.7265625 C3.68927979 5.86627441 2.81215332 5.00598633 1.90844727 4.11962891 C0 2 0 2 0 0 Z " fill="#F5F7FA" transform="translate(381,425)"/>
<path d="M0 0 C5.94 0 11.88 0 18 0 C13.77894234 5.15907048 9.20842167 9.83448164 4.46923828 14.5090332 C0.97713224 17.97121312 -2.2799875 21.56032313 -5.46484375 25.30859375 C-7.76310685 27.84077676 -10.30729614 29.89837748 -13 32 C-12.39339095 28.47138731 -11.45930748 25.412209 -10.0390625 22.12890625 C-9.64976562 21.22462891 -9.26046875 20.32035156 -8.859375 19.38867188 C-8.45203125 18.45603516 -8.0446875 17.52339844 -7.625 16.5625 C-7.02558594 15.1693457 -7.02558594 15.1693457 -6.4140625 13.74804688 C-4.39480469 9.08183434 -2.27778031 4.55556062 0 0 Z " fill="#F3F5F9" transform="translate(437,425)"/>
<path d="M0 0 C3.50240982 2.6766384 3.50240982 2.6766384 4.859375 4.90625 C4.859375 7.21625 4.859375 9.52625 4.859375 11.90625 C-4.050625 11.90625 -12.960625 11.90625 -22.140625 11.90625 C-19.7866427 3.66731195 -19.7866427 3.66731195 -15.140625 -0.09375 C-10.20502504 -1.67110669 -4.73140851 -2.417508 0 0 Z " fill="#F8F9FB" transform="translate(945.140625,573.09375)"/>
<path d="M0 0 C3.63467079 1.62400184 4.77408696 2.66113044 7 6 C7 7.98 7 9.96 7 12 C-0.92 12 -8.84 12 -17 12 C-17 6.53287126 -16.63055645 5.73140524 -13 2 C-8.76985702 -0.55404859 -4.82043841 -0.5681231 0 0 Z " fill="#EEF0F4" transform="translate(787,479)"/>
<path d="M0 0 C0.78375 0.515625 1.5675 1.03125 2.375 1.5625 C3.24125 2.036875 4.1075 2.51125 5 3 C5.66 2.67 6.32 2.34 7 2 C14.06410652 7.91229356 20.52042088 14.40451222 27 20.9375 C28.07137887 22.01390654 29.14299182 23.09008014 30.21484375 24.16601562 C32.81259638 26.77466745 35.40717962 29.38644471 38 32 C37.34 32.66 36.68 33.32 36 34 C28.98957441 34 23.38812789 26.51120923 18.76098633 21.8996582 C18.17986084 21.314021 17.59873535 20.72838379 17 20.125 C16.38987061 19.51293701 15.77974121 18.90087402 15.15112305 18.27026367 C11.3998325 14.48287893 7.76326949 10.63386422 4.33203125 6.55078125 C2.99748721 4.94252698 2.99748721 4.94252698 1.32421875 3.41796875 C0 2 0 2 0 0 Z " fill="#5181C6" transform="translate(372,423)"/>
<path d="M0 0 C4.29 0 8.58 0 13 0 C13 16.83 13 33.66 13 51 C8.71 51 4.42 51 0 51 C0 34.17 0 17.34 0 0 Z M2 1 C2 16.84 2 32.68 2 49 C4.97 49 7.94 49 11 49 C11 33.16 11 17.32 11 1 C8.03 1 5.06 1 2 1 Z " fill="#384E73" transform="translate(935,470)"/>
<path d="M0 0 C2.5 1.625 2.5 1.625 4 4 C4.5625 7 4.5625 7 4 10 C1.40841039 12.89648251 -0.2226093 13.87307907 -4.0625 14.5 C-7 14 -7 14 -9.375 12.4375 C-11.5996142 9.1005787 -11.50030235 6.93094707 -11 3 C-8.83051992 -1.20336765 -4.17489866 -0.74761767 0 0 Z " fill="#1D3562" transform="translate(945,447)"/>
<path d="M0 0 C4.26979885 0.4700696 6.02312741 2.86320539 8.75 6 C9.54921875 6.9075 10.3484375 7.815 11.171875 8.75 C13 11 13 11 13 12 C5.41 12 -2.18 12 -10 12 C-8.02 9.69 -6.04 7.38 -4 5 C-2.65807132 3.34024611 -1.32090525 1.67653359 0 0 Z " fill="#F7F9FC" transform="translate(416,407)"/>
<path d="M0 0 C6.27 0 12.54 0 19 0 C17.50260417 1.98567708 16.00520833 3.97135417 14.5078125 5.95703125 C13.29185219 7.60456297 12.13583859 9.29624211 11 11 C7.584241 9.55661511 5.63973737 7.75105832 3.25 4.9375 C2.63640625 4.22464844 2.0228125 3.51179688 1.390625 2.77734375 C0 1 0 1 0 0 Z " fill="#F1F5FB" transform="translate(425,406)"/>
<path d="M0 0 C6.27 0 12.54 0 19 0 C12.25 7.875 12.25 7.875 8 11 C6.66072279 9.54712339 5.32873153 8.08752741 4 6.625 C3.2575 5.81289063 2.515 5.00078125 1.75 4.1640625 C0 2 0 2 0 0 Z " fill="#F3F7FC" transform="translate(392,406)"/>
<path d="M0 0 C1.44098611 0.76429661 2.87766054 1.53672555 4.3125 2.3125 C5.11300781 2.74175781 5.91351562 3.17101562 6.73828125 3.61328125 C8.83787272 4.90059554 10.35447721 6.18406708 12 8 C11.34 8 10.68 8 10 8 C10.33 8.99 10.66 9.98 11 11 C11.66 11.33 12.32 11.66 13 12 C14.2890625 13.9609375 14.2890625 13.9609375 15.625 16.375 C16.07101562 17.16648437 16.51703125 17.95796875 16.9765625 18.7734375 C18 21 18 21 18 24 C17.01 24 16.02 24 15 24 C13.3515625 21.8046875 13.3515625 21.8046875 11.625 18.875 C6.84200346 11.012811 6.84200346 11.012811 0 5 C-0.1875 2.375 -0.1875 2.375 0 0 Z " fill="#E7EDF7" transform="translate(569,427)"/>
<path d="M0 0 C0.33 0 0.66 0 1 0 C0.53803271 4.69666748 -0.03340445 9.23188927 -1.03125 13.84375 C-2.37314824 21.10453059 -2.21830406 28.33144323 -2.125 35.6875 C-2.11494059 37.0826758 -2.10582002 38.4778587 -2.09765625 39.87304688 C-2.07429406 43.2488837 -2.04153668 46.62434618 -2 50 C-2.66 49.67 -3.32 49.34 -4 49 C-7.9565843 34.43593422 -6.01959254 13.68089213 0 0 Z " fill="#3862A0" transform="translate(444,495)"/>
<path d="M0 0 C3.88453902 2.58969268 4.86458135 4.87643296 7 9 C7 9.66 7 10.32 7 11 C1.72 11 -3.56 11 -9 11 C-2.97321429 2.83035714 -2.97321429 2.83035714 0 0 Z " fill="#F7F9FC" transform="translate(449,408)"/>
<path d="M0 0 C3.64821796 3.54398316 6.69079098 7.02894918 10 11 C4.72 11 -0.56 11 -6 11 C-4.31482096 6.7870524 -2.56523798 3.67684111 0 0 Z " fill="#F6F8FC" transform="translate(385,408)"/>
<path d="M0 0 C2.97 0 5.94 0 9 0 C9.33 2.31 9.66 4.62 10 7 C9.34 7 8.68 7 8 7 C8 5.02 8 3.04 8 1 C6.35 1.33 4.7 1.66 3 2 C1.84251537 6.66701097 1.78014417 11.24027099 1.68359375 16.01953125 C1.66281265 16.87810226 1.64203156 17.73667328 1.62062073 18.6212616 C1.55547477 21.35159654 1.49640346 24.08202395 1.4375 26.8125 C1.3942815 28.66862918 1.35066616 30.52474916 1.30664062 32.38085938 C1.19982939 36.92047925 1.09846435 41.46019172 1 46 C3.64 46 6.28 46 9 46 C9 46.33 9 46.66 9 47 C6.03 47 3.06 47 0 47 C0 31.49 0 15.98 0 0 Z " fill="#90AAD3" transform="translate(860,566)"/>
<path d="M0 0 C0.33 0.66 0.66 1.32 1 2 C1.99 2.33 2.98 2.66 4 3 C-0.93654267 10.68490153 -0.93654267 10.68490153 -5.375 12 C-6.24125 12 -7.1075 12 -8 12 C-7.49259538 7.60249328 -4.91706686 5.13051078 -2 2 C-1.34 2 -0.68 2 0 2 C0 1.34 0 0.68 0 0 Z " fill="#72A3EA" transform="translate(445,405)"/>
<path d="M0 0 C0.33 0 0.66 0 1 0 C1.06058594 0.74765625 1.12117188 1.4953125 1.18359375 2.265625 C1.26738281 3.25046875 1.35117187 4.2353125 1.4375 5.25 C1.51871094 6.22453125 1.59992188 7.1990625 1.68359375 8.203125 C1.91358858 10.88029276 1.91358858 10.88029276 2.53125 12.9375 C3.20230359 15.89013579 3.09272013 18.72798697 3.0625 21.75 C3.05347656 22.92046875 3.04445313 24.0909375 3.03515625 25.296875 C3.02355469 26.18890625 3.01195312 27.0809375 3 28 C2.34 27.67 1.68 27.34 1 27 C0.0415227 23.54456645 -0.11853811 20.27001672 -0.09765625 16.69921875 C-0.09443359 15.72275391 -0.09121094 14.74628906 -0.08789062 13.74023438 C-0.07951172 12.73283203 -0.07113281 11.72542969 -0.0625 10.6875 C-0.05798828 9.66076172 -0.05347656 8.63402344 -0.04882812 7.57617188 C-0.03708184 5.05072118 -0.02065565 2.52539095 0 0 Z " fill="#4A71A8" transform="translate(439,517)"/>
<path d="M0 0 C0.66 0 1.32 0 2 0 C2.84114171 1.43294498 3.67265687 2.87154405 4.5 4.3125 C5.19609375 5.51326172 5.19609375 5.51326172 5.90625 6.73828125 C7 9 7 9 7 12 C6.01 12 5.02 12 4 12 C2.578125 10.390625 2.578125 10.390625 1.25 8.25 C0.80140625 7.55390625 0.3528125 6.8578125 -0.109375 6.140625 C-1.16007332 3.61526236 -0.93134261 2.52143975 0 0 Z " fill="#D8E4F3" transform="translate(580,439)"/>
<path d="M0 0 C2.375 0.1875 2.375 0.1875 5 1 C5.72904086 2.64034193 6.38655243 4.31301918 7 6 C9.52056045 8.77152212 9.52056045 8.77152212 12 11 C11.67 11.66 11.34 12.32 11 13 C9.16052663 11.21427748 7.32842259 9.42197551 5.5 7.625 C4.71302734 6.86316406 4.71302734 6.86316406 3.91015625 6.0859375 C2.56846819 4.76167396 1.28004185 3.38394135 0 2 C0 1.34 0 0.68 0 0 Z " fill="#3C6DA7" transform="translate(403,455)"/>
<path d="M0 0 C3.42931954 3.7559214 4.56429083 8.23466745 6 13 C2.32966073 9.72291137 0.30718811 6.28477792 -2 2 C-1.34 2 -0.68 2 0 2 C0 1.34 0 0.68 0 0 Z " fill="#EEC475" transform="translate(352,574)"/>
<path d="M0 0 C0.33 0 0.66 0 1 0 C1.05391993 1.79133978 1.09275571 3.58313899 1.125 5.375 C1.14820313 6.37273438 1.17140625 7.37046875 1.1953125 8.3984375 C1 11 1 11 -1 13 C-2.51403812 8.15507803 -1.36602172 4.7408989 0 0 Z " fill="#28518D" transform="translate(356,533)"/>
<path d="M0 0 C3.99500618 1.3697164 6.80009492 3.25722422 10 6 C9.34 6 8.68 6 8 6 C7.67 6.66 7.34 7.32 7 8 C5.83035398 6.8572081 4.66435444 5.71068285 3.5 4.5625 C2.8503125 3.92441406 2.200625 3.28632813 1.53125 2.62890625 C0 1 0 1 0 0 Z " fill="#A1BFEB" transform="translate(571,429)"/>
<path d="M0 0 C0.66 0 1.32 0 2 0 C2.66 2.31 3.32 4.62 4 7 C3.34 6.67 2.68 6.34 2 6 C2 5.34 2 4.68 2 4 C1.34 4 0.68 4 0 4 C-0.33 4.99 -0.66 5.98 -1 7 C-1.625 5.1875 -1.625 5.1875 -2 3 C-1.34 2.01 -0.68 1.02 0 0 Z " fill="#3B6DB3" transform="translate(409,440)"/>
<path d="M0 0 C0.99 0.33 1.98 0.66 3 1 C1.88792295 3.22415411 0.50045485 5.0193996 -1 7 C-1.66 7.99 -2.32 8.98 -3 10 C-2.25 3.375 -2.25 3.375 0 0 Z " fill="#3E629F" transform="translate(449,483)"/>
<path d="M0 0 C4.42857143 5.14285714 4.42857143 5.14285714 5 9 C3.02 7.35 1.04 5.7 -1 4 C-0.67 2.68 -0.34 1.36 0 0 Z " fill="#5877AC" transform="translate(581,446)"/>
<path d="M0 0 C0.99 0.66 1.98 1.32 3 2 C1.74458443 4.51083114 0.49936512 4.87125446 -2 6 C-2.33 4.68 -2.66 3.36 -3 2 C-2.01 1.34 -1.02 0.68 0 0 Z " fill="#4C7DC6" transform="translate(403,425)"/>
<path d="M0 0 C0.66 0.33 1.32 0.66 2 1 C0.02 3.31 -1.96 5.62 -4 8 C-4 4.09161134 -2.49432124 2.88405893 0 0 Z " fill="#35527E" transform="translate(765,475)"/>
</svg>
