<?xml version="1.0" encoding="UTF-8"?>
<svg version="1.1" xmlns="http://www.w3.org/2000/svg" width="1536" height="1024">
<path d="M0 0 C506.88 0 1013.76 0 1536 0 C1536 337.92 1536 675.84 1536 1024 C1029.12 1024 522.24 1024 0 1024 C0 686.08 0 348.16 0 0 Z " fill="#FBFBFC" transform="translate(0,0)"/>
<path d="M0 0 C10.14058668 7.58620521 17.39533095 18.67265271 19.54956055 31.2902832 C20.26074183 36.96165786 20.31928992 42.59237852 20.26171875 48.30078125 C20.25720703 49.16638672 20.25269531 50.03199219 20.24804688 50.92382812 C20.23641788 53.02867664 20.21848948 55.13348883 20.19921875 57.23828125 C22.17921875 57.23828125 24.15921875 57.23828125 26.19921875 57.23828125 C26.33448014 59.48662621 26.43132679 61.73730639 26.51171875 63.98828125 C26.59873047 65.86773437 26.59873047 65.86773437 26.6875 67.78515625 C26.19921875 71.23828125 26.19921875 71.23828125 23.74609375 73.4140625 C22.905625 74.01605469 22.06515625 74.61804688 21.19921875 75.23828125 C20.03809411 78.22938113 19.89252044 81.05202657 20.19921875 84.23828125 C21.96425189 87.15971542 23.1576951 88.71751942 26.19921875 90.23828125 C28.27486551 90.43586356 28.27486551 90.43586356 30.57421875 90.42578125 C31.34507812 90.43996094 32.1159375 90.45414062 32.91015625 90.46875 C35.48669963 90.20933693 37.02347548 89.63168279 39.19921875 88.23828125 C41.86460906 84.24019579 42.04071579 80.94076472 41.19921875 76.23828125 C38.92794541 73.21418761 38.92794541 73.21418761 36.19921875 71.23828125 C35.86921875 70.90828125 35.53921875 70.57828125 35.19921875 70.23828125 C35.19921875 65.94828125 35.19921875 61.65828125 35.19921875 57.23828125 C46.08921875 57.23828125 56.97921875 57.23828125 68.19921875 57.23828125 C69.21005488 68.00203529 70.21898737 78.76596351 71.22480583 89.53018761 C71.692201 94.53146196 72.16034655 99.53266342 72.63037109 104.53369141 C76.4132021 144.79307421 76.4132021 144.79307421 77.80297852 164.07592773 C78.19165636 169.36957033 78.71130079 174.64679073 79.26171875 179.92578125 C79.85144728 185.59093435 80.35869017 191.23835658 80.69921875 196.92578125 C81.02726104 202.30918953 81.54956595 207.63660419 82.19921875 212.98828125 C82.28671387 213.70935059 82.37420898 214.43041992 82.46435547 215.17333984 C82.54959473 215.87410645 82.63483398 216.57487305 82.72265625 217.296875 C83.58314705 224.41355711 84.25228026 231.38855136 84.22265625 238.5625 C84.21927246 239.62944092 84.21588867 240.69638184 84.21240234 241.7956543 C84.20805176 242.60172119 84.20370117 243.40778809 84.19921875 244.23828125 C70.70503151 244.74414706 57.2107887 245.24850327 43.71647835 245.75107479 C37.44653843 245.98463197 31.17661678 246.21865664 24.90673828 246.45385742 C17.65272295 246.72589731 10.39865403 246.99646538 3.14453125 247.265625 C1.96077911 247.30957838 0.77702698 247.35353176 -0.44259644 247.39881706 C-15.32889788 247.94967781 -30.21498572 248.44829727 -45.10582352 248.85746384 C-55.34241079 249.14050339 -65.5595496 249.56950506 -75.78219604 250.16876221 C-90.13304368 251.00390173 -104.42152837 251.53206848 -118.80078125 251.23828125 C-118.97508834 238.90685351 -118.4482599 226.59798506 -117.99609375 214.27734375 C-117.91108359 211.92313057 -117.82619638 209.56891294 -117.74142456 207.21469116 C-117.56307093 202.27734636 -117.38296593 197.34006927 -117.20166016 192.40283203 C-116.97400544 186.19878973 -116.75106882 179.99458869 -116.52942944 173.79032898 C-115.67000198 149.79366028 -114.78705729 125.80231396 -113.45327759 101.8265686 C-112.68099455 87.85753045 -112.28519362 73.88369191 -111.97436523 59.89746094 C-111.80078125 57.23828125 -111.80078125 57.23828125 -110.80078125 54.23828125 C-97.60078125 54.23828125 -84.40078125 54.23828125 -70.80078125 54.23828125 C-70.80078125 62.48828125 -70.80078125 70.73828125 -70.80078125 79.23828125 C-74.10078125 80.55828125 -77.40078125 81.87828125 -80.80078125 83.23828125 C-90.96149431 89.81286029 -96.61374985 98.59440703 -100.40234375 110.05859375 C-103.26604012 125.72469744 -98.8583888 139.55896261 -93.80957031 154.27001953 C-92.44828036 158.27548013 -91.21723449 162.31579828 -89.98828125 166.36328125 C-88.65060684 170.63850645 -87.23887695 174.83739226 -85.609375 179.0078125 C-83.43720098 184.99965484 -81.67180538 191.1466084 -79.80078125 197.23828125 C-79.39728648 198.54692159 -78.99364621 199.85551707 -78.58984375 201.1640625 C-77.65784543 204.1880996 -76.72810912 207.21280933 -75.80078125 210.23828125 C-71.20602009 211.29540001 -68.3682038 211.11776179 -63.94140625 209.54296875 C-62.83539063 209.15947266 -61.729375 208.77597656 -60.58984375 208.38085938 C-58.83800781 207.7534082 -58.83800781 207.7534082 -57.05078125 207.11328125 C-54.59886248 206.26343892 -52.1457337 205.41707961 -49.69140625 204.57421875 C-48.50224609 204.16526367 -47.31308594 203.75630859 -46.08789062 203.33496094 C-42.0271072 201.98016005 -37.94181848 200.81732572 -33.80078125 199.73828125 C-21.6122635 196.53224119 -9.72479697 192.29924363 2.19921875 188.23828125 C3.13391903 183.95971811 3.20195418 181.10468955 1.87109375 176.9375 C1.41283203 175.47086914 1.41283203 175.47086914 0.9453125 173.97460938 C0.61660156 172.96849609 0.28789063 171.96238281 -0.05078125 170.92578125 C-0.36402344 169.93126953 -0.67726563 168.93675781 -1 167.91210938 C-3.29330017 160.66585178 -5.69627053 153.45551375 -8.16015625 146.265625 C-10.44064857 139.57683408 -12.6414119 132.88618311 -14.5703125 126.0859375 C-15.01842285 124.50727905 -15.01842285 124.50727905 -15.47558594 122.89672852 C-16.05184127 120.8463943 -16.6194206 118.79359442 -17.17675781 116.73803711 C-20.88470845 103.52374477 -26.88484329 92.3061543 -38.80078125 84.80078125 C-46.24736916 80.7149409 -53.48681143 79.0858301 -61.80078125 77.23828125 C-61.80078125 69.97828125 -61.80078125 62.71828125 -61.80078125 55.23828125 C-45.66703654 55.18436732 -29.55529488 55.38830345 -13.42578125 55.73828125 C-11.11719188 55.78666778 -8.80859813 55.83484587 -6.5 55.8828125 C-0.93354123 55.9989111 4.6328589 56.11753718 10.19921875 56.23828125 C10.094038 52.38350954 9.96690459 48.52975623 9.8359375 44.67578125 C9.80657104 43.58974609 9.77720459 42.50371094 9.74694824 41.38476562 C9.45778073 33.33091504 8.49313376 27.19698363 4.19921875 20.23828125 C3.75449219 19.48804688 3.30976562 18.7378125 2.8515625 17.96484375 C-0.69947391 12.64323487 -5.29385 9.38223836 -10.80078125 6.23828125 C-11.43242188 5.86703125 -12.0640625 5.49578125 -12.71484375 5.11328125 C-15.35183897 4.00712595 -17.70418258 3.81660973 -20.55078125 3.61328125 C-21.535625 3.53851563 -22.52046875 3.46375 -23.53515625 3.38671875 C-24.2828125 3.33773438 -25.03046875 3.28875 -25.80078125 3.23828125 C-25.80078125 2.57828125 -25.80078125 1.91828125 -25.80078125 1.23828125 C-26.88359375 0.80515625 -26.88359375 0.80515625 -27.98828125 0.36328125 C-31.89453125 -1.19921875 -31.89453125 -1.19921875 -35.80078125 -2.76171875 C-35.80078125 -3.42171875 -35.80078125 -4.08171875 -35.80078125 -4.76171875 C-22.58739459 -8.22752509 -11.82684397 -7.43920032 0 0 Z " fill="#335685" transform="translate(539.80078125,375.76171875)"/>
<path d="M0 0 C11.80353522 6.79757162 20.25015989 18.26094686 23.98046875 31.27734375 C25.85651788 41.07197774 24.91371897 51.5942221 24.625 61.51171875 C10.24878628 61.6440152 -4.01568026 61.25284493 -18.375 60.51171875 C-18.375 67.77171875 -18.375 75.03171875 -18.375 82.51171875 C-15.405 82.84171875 -12.435 83.17171875 -9.375 83.51171875 C3.26459133 87.01949524 14.04933608 94.22256071 20.88012695 105.6027832 C24.57201541 112.76866555 26.84500811 120.15546326 29.0625 127.88671875 C29.45230885 129.21854862 29.84310718 130.55008926 30.23486328 131.88134766 C31.01160655 134.52504887 31.78378005 137.17000388 32.55126953 139.81640625 C34.01278267 144.84629777 35.50184813 149.86764307 37 154.88671875 C37.33922485 156.04179932 37.33922485 156.04179932 37.68530273 157.22021484 C38.92480038 161.39218254 40.32040086 165.46044655 41.87548828 169.52490234 C43.13572517 172.86555635 44.26964651 176.24217164 45.375 179.63671875 C45.72498047 180.65185547 45.72498047 180.65185547 46.08203125 181.6875 C47.46755032 185.97680155 48.54392598 189.33035536 46.625 193.51171875 C43.47093619 195.37042849 40.10147451 196.40511437 36.625 197.51171875 C34.7953773 198.15439129 32.96595169 198.79762517 31.13671875 199.44140625 C29.19678622 200.09423947 27.25531784 200.74252294 25.3125 201.38671875 C24.2714209 201.73331543 23.2303418 202.07991211 22.15771484 202.43701172 C14.54855312 204.9425942 6.89453467 207.21829287 -0.82763672 209.34741211 C-7.49530258 211.20153267 -14.03255208 213.35194029 -20.51708984 215.77197266 C-24.81000638 217.29598331 -28.06527529 218.2745028 -32.375 216.51171875 C-33.76006775 214.06220079 -34.56380219 212.15425707 -35.375 209.51171875 C-35.61863281 208.79306641 -35.86226563 208.07441406 -36.11328125 207.33398438 C-36.89941232 204.98566977 -37.64198759 202.62712349 -38.375 200.26171875 C-38.76909058 199.00427856 -38.76909058 199.00427856 -39.17114258 197.72143555 C-40.78836229 192.52312168 -42.31391672 187.31345946 -43.63671875 182.03125 C-44.46972048 179.18846631 -45.51978501 176.44908547 -46.57446289 173.68237305 C-48.23473115 169.18055995 -49.61140042 164.58424635 -51.02392578 160 C-52.23082737 156.0960657 -53.45729822 152.2197643 -54.875 148.38671875 C-59.40498681 135.85600116 -61.19691196 121.45864429 -55.62890625 108.92578125 C-55.21511719 108.12914062 -54.80132812 107.3325 -54.375 106.51171875 C-53.95089844 105.65320313 -53.52679688 104.7946875 -53.08984375 103.91015625 C-48.14922244 94.79959551 -40.9576182 88.40973293 -31.375 84.51171875 C-30.055 84.51171875 -28.735 84.51171875 -27.375 84.51171875 C-27.375 76.26171875 -27.375 68.01171875 -27.375 59.51171875 C-40.575 59.51171875 -53.775 59.51171875 -67.375 59.51171875 C-67.705 60.50171875 -68.035 61.49171875 -68.375 62.51171875 C-68.375 61.19171875 -68.375 59.87171875 -68.375 58.51171875 C-57.98 58.01671875 -57.98 58.01671875 -47.375 57.51171875 C-49.63125 49.34296875 -49.63125 49.34296875 -52.0625 46.07421875 C-55.33754309 39.68008701 -53.40490147 31.889711 -51.4140625 25.3125 C-47.15604486 13.83506148 -40.42954171 5.02865826 -29.375 -0.48828125 C-20.18283098 -4.14717534 -9.10548585 -3.86170159 0 0 Z " fill="#F6F8F9" transform="translate(496.375,370.48828125)"/>
<path d="M0 0 C9.57 0 19.14 0 29 0 C29.1945963 17.31907109 28.83341917 34.51337849 28.0625 51.8125 C28.01893372 52.79905579 27.97536743 53.78561157 27.93048096 54.80206299 C27.80170538 57.68719919 27.66942933 60.57214598 27.53515625 63.45703125 C27.49655991 64.29707199 27.45796356 65.13711273 27.41819763 66.00260925 C27.17837062 70.98656811 26.86474468 75.96049813 26.51147461 80.93774414 C25.88932521 90.13135257 25.58496304 99.33030887 25.28125 108.5390625 C25.21806665 110.39546556 25.15462529 112.25185986 25.09094238 114.10824585 C24.92490282 118.9628436 24.76149816 123.81752583 24.59893799 128.67224121 C24.33945965 136.41625307 24.0770663 144.16016406 23.81248474 151.90400314 C23.72204245 154.56711486 23.63344167 157.23028289 23.54504395 159.89346313 C23.13935226 171.93478231 22.600232 183.96686314 22 196 C16.77320442 196.04756693 12.23182607 195.82929468 7.09375 194.6875 C5.85625 194.41679688 4.61875 194.14609375 3.34375 193.8671875 C2.0753125 193.58101562 0.806875 193.29484375 -0.5 193 C-1.81233116 192.71017192 -3.12483022 192.42110302 -4.4375 192.1328125 C-7.62672738 191.42930646 -10.81404991 190.7181758 -14 190 C-13.50092064 175.45785991 -12.5677299 160.95181294 -11.5625 146.4375 C-11.50105804 145.53768402 -11.43961609 144.63786804 -11.37631226 143.71078491 C-10.7193693 134.12769083 -9.9831478 124.56245518 -9.03125 115.00390625 C-7.56703416 100.22217746 -6.66773375 85.39587412 -5.67456055 70.57666016 C-5.41982788 66.79050336 -5.1612303 63.00462467 -4.90234375 59.21875 C-4.82628403 58.06362915 -4.7502243 56.9085083 -4.67185974 55.71838379 C-4.59830765 54.64536011 -4.52475555 53.57233643 -4.44897461 52.46679688 C-4.38616806 51.52864136 -4.32336151 50.59048584 -4.25865173 49.62390137 C-4.0027282 47.02767635 -3.52060909 44.55430136 -3 42 C-2.84306303 40.52829017 -2.71368021 39.05339779 -2.61108398 37.5769043 C-2.55109726 36.73641037 -2.49111053 35.89591644 -2.42930603 35.029953 C-2.36884598 34.1370607 -2.30838593 33.2441684 -2.24609375 32.32421875 C-2.18092056 31.3990596 -2.11574738 30.47390045 -2.04859924 29.52070618 C-1.84188694 26.57650557 -1.63963368 23.63201815 -1.4375 20.6875 C-1.29782039 18.68682839 -1.15784975 16.68617707 -1.01757812 14.68554688 C-0.67446647 9.79062258 -0.33738983 4.89533543 0 0 Z " fill="#32476A" transform="translate(391,429)"/>
<path d="M0 0 C11.80353522 6.79757162 20.25015989 18.26094686 23.98046875 31.27734375 C25.85651788 41.07197774 24.91371897 51.5942221 24.625 61.51171875 C19.48339506 61.5595579 14.34478983 61.5727518 9.203125 61.5234375 C5.90255468 61.49382846 2.65124271 61.54851591 -0.640625 61.78125 C-4.33156831 61.88910224 -6.92893122 61.85133065 -10.375 60.51171875 C-15.35084209 54.80080908 -17.70735993 48.03906941 -18.0625 40.44921875 C-17.20587341 28.27865602 -12.51833541 19.13441573 -5.375 9.51171875 C-10.5948959 6.34430619 -16.48257103 6.94080159 -22.375 7.51171875 C-27.86718357 9.12963907 -31.61303424 12.22725774 -35.375 16.51171875 C-36.426875 17.68734375 -36.426875 17.68734375 -37.5 18.88671875 C-42.12563014 25.36260095 -43.42319981 31.90951326 -43.69140625 39.6875 C-43.73330078 40.84443359 -43.77519531 42.00136719 -43.81835938 43.19335938 C-43.85767578 44.39154297 -43.89699219 45.58972656 -43.9375 46.82421875 C-43.98068359 48.04173828 -44.02386719 49.25925781 -44.06835938 50.51367188 C-44.17421429 53.51289453 -44.27508997 56.51229218 -44.375 59.51171875 C-51.965 59.51171875 -59.555 59.51171875 -67.375 59.51171875 C-67.705 60.50171875 -68.035 61.49171875 -68.375 62.51171875 C-68.375 61.19171875 -68.375 59.87171875 -68.375 58.51171875 C-57.98 58.01671875 -57.98 58.01671875 -47.375 57.51171875 C-49.63125 49.34296875 -49.63125 49.34296875 -52.0625 46.07421875 C-55.33754309 39.68008701 -53.40490147 31.889711 -51.4140625 25.3125 C-47.15604486 13.83506148 -40.42954171 5.02865826 -29.375 -0.48828125 C-20.18283098 -4.14717534 -9.10548585 -3.86170159 0 0 Z " fill="#658DC2" transform="translate(496.375,370.48828125)"/>
<path d="M0 0 C4.29 0 8.58 0 13 0 C13 24.42 13 48.84 13 74 C9.37 74 5.74 74 2 74 C2 72.35 2 70.7 2 69 C1.46375 69.433125 0.9275 69.86625 0.375 70.3125 C-7.38233292 75.82428918 -14.8622089 76.39991343 -24 75 C-29.19856922 73.00708639 -32.1176388 69.33262755 -35 64.6875 C-38.48968135 56.81487416 -38.68414186 47.0334315 -35.9609375 38.89453125 C-32.74190913 32.95101798 -28.10392333 28.87680561 -22 26 C-18.87370263 25.20138198 -15.90947255 24.8419513 -12.6875 24.8125 C-11.64142578 24.79123047 -11.64142578 24.79123047 -10.57421875 24.76953125 C-6.98626965 25.09075886 -3.49474441 26.1263139 0 27 C0 18.09 0 9.18 0 0 Z " fill="#32415C" transform="translate(874,419)"/>
<path d="M0 0 C6.3936022 5.35418861 9.28328393 11.50786111 10.34765625 19.6640625 C10.73674292 26.74743523 9.17684533 32.23918192 5 38 C-1.22180666 44.28688832 -7.7240003 46.06153515 -16.4375 46.3125 C-24.905501 46.15712383 -30.91123727 44.2271437 -37 38 C-41.75578141 30.37251671 -42.97769841 22.93414065 -42 14 C-39.32717995 6.10139725 -33.83506139 1.30103683 -26.875 -2.875 C-18.27346034 -6.10299353 -7.70910491 -4.80972275 0 0 Z " fill="#32415D" transform="translate(938,448)"/>
<path d="M0 0 C27 0 27 0 37 4 C43.3046837 10.41529219 44.35459655 13.79549011 44.28515625 22.79296875 C43.92186737 26.87872447 42.77036492 28.99877133 40 32 C39.4225 32.721875 38.845 33.44375 38.25 34.1875 C32.12176613 39.12413284 25.51748133 39.41088939 18 39.1875 C15.03 39.125625 12.06 39.06375 9 39 C9 46.92 9 54.84 9 63 C6.03 63 3.06 63 0 63 C0 42.21 0 21.42 0 0 Z " fill="#749FD1" transform="translate(675,521)"/>
<path d="M0 0 C4.29 0 8.58 0 13 0 C15.65073558 5.56654471 17.25739154 11.25399676 18.83984375 17.20703125 C20.00924531 21.03022624 21.43603102 24.65035156 22.94555664 28.34790039 C24.70830673 32.78150868 26.23277931 37.29014049 27.75 41.8125 C28.06582031 42.72708984 28.38164063 43.64167969 28.70703125 44.58398438 C29.00480469 45.47021484 29.30257812 46.35644531 29.609375 47.26953125 C29.87717773 48.05948486 30.14498047 48.84943848 30.42089844 49.66333008 C31.0467543 52.18865321 31.10218532 54.40833927 31 57 C31.66 57 32.32 57 33 57 C33.17656128 55.24224243 33.17656128 55.24224243 33.35668945 53.44897461 C33.87008345 49.36865468 34.92922873 45.70600021 36.29296875 41.81640625 C36.51980347 41.16248398 36.74663818 40.50856171 36.98034668 39.83482361 C37.70856819 37.74134202 38.44780587 35.65195209 39.1875 33.5625 C39.6898933 32.12523902 40.19160015 30.68773791 40.69262695 29.25 C41.90412891 25.77929056 43.12436329 22.31174385 44.34863281 18.84552002 C45.25694278 16.27200348 46.1596467 13.69652886 47.0625 11.12109375 C48.36556375 7.41065602 49.67803155 3.70374284 51 0 C55.29 0 59.58 0 64 0 C63.147585 5.11448997 61.85122609 9.08997695 59.8125 13.75 C56.58194246 21.34181022 53.88769126 29.02910346 51.359375 36.87890625 C50.03147758 40.97011088 48.53987445 44.98452284 47 49 C46.31893199 50.79163686 45.63794757 52.58330549 44.95703125 54.375 C44.24240216 56.25008183 43.52755542 58.12508071 42.8125 60 C42.26045898 61.44826172 42.26045898 61.44826172 41.69726562 62.92578125 C40.79836844 65.28392712 39.89921108 67.64197381 39 70 C34.38 70 29.76 70 25 70 C22.48056978 64.5112413 20.21962921 59.01900936 18.19140625 53.33203125 C16.69571196 49.14899115 15.16161793 44.98064885 13.625 40.8125 C13.3244873 39.99595947 13.02397461 39.17941895 12.71435547 38.33813477 C11.02026711 33.74164116 9.30665484 29.15320323 7.57226562 24.57177734 C0 4.54615199 0 4.54615199 0 0 Z " fill="#32415C" transform="translate(663,423)"/>
<path d="M0 0 C5.10854454 3.87242991 8.02999209 7.85623023 10.4375 13.875 C10.4375 17.835 10.4375 21.795 10.4375 25.875 C-0.7825 25.875 -12.0025 25.875 -23.5625 25.875 C-22.00607808 32.47083381 -22.00607808 32.47083381 -17.796875 37 C-10.19945986 39.97521152 -1.10450439 38.29817302 6.4375 35.875 C7.9158226 38.83164519 7.49782783 41.61729737 7.4375 44.875 C1.99337407 47.59345758 -2.31659508 48.39404063 -8.375 48.3125 C-9.16745117 48.30420166 -9.95990234 48.29590332 -10.77636719 48.28735352 C-18.7873592 48.05680366 -25.32992919 46.62456645 -31 40.625 C-36.0301286 33.91341198 -37.47916746 27.1766504 -36.5625 18.875 C-35.10681704 10.96710067 -31.05585791 5.4515517 -24.8203125 0.48828125 C-17.77716582 -3.81922262 -7.13704631 -4.18471975 0 0 Z " fill="#354561" transform="translate(761.5625,446.125)"/>
<path d="M0 0 C3.78392989 1.91239653 5.5401124 4.70102595 7.5625 8.375 C8.08596262 11.42676678 8.03069289 14.40335844 7.953125 17.4921875 C7.94746521 18.34934357 7.94180542 19.20649963 7.93597412 20.08963013 C7.91369639 22.8103368 7.86351774 25.52969568 7.8125 28.25 C7.7924238 30.10154339 7.774175 31.95310756 7.7578125 33.8046875 C7.71386001 38.3286393 7.64489359 42.85159164 7.5625 47.375 C3.6025 47.375 -0.3575 47.375 -4.4375 47.375 C-4.4468457 46.33045654 -4.45619141 45.28591309 -4.46582031 44.2097168 C-4.50568874 40.334771 -4.57143741 36.46062186 -4.64501953 32.58618164 C-4.67324768 30.9092024 -4.6944531 29.23208965 -4.70849609 27.55493164 C-4.72990125 25.14399782 -4.77653426 22.73467216 -4.828125 20.32421875 C-4.82935364 19.57412033 -4.83058228 18.82402191 -4.83184814 18.05119324 C-4.94593203 13.79247424 -4.94593203 13.79247424 -7.32543945 10.40527344 C-9.82769792 9.18465955 -11.59482708 8.94178378 -14.375 8.9375 C-15.20902344 8.91816406 -16.04304687 8.89882813 -16.90234375 8.87890625 C-20.42814687 9.5688554 -21.93504428 10.79648725 -24.4375 13.375 C-24.95464967 16.17882813 -25.15978209 18.39907947 -25.14453125 21.203125 C-25.15965256 21.95213074 -25.17477386 22.70113647 -25.19035339 23.47283936 C-25.23322559 25.85719923 -25.242067 28.24029314 -25.25 30.625 C-25.27314499 32.24482531 -25.29851034 33.86462052 -25.32617188 35.484375 C-25.38901837 39.44802852 -25.42135743 43.41089224 -25.4375 47.375 C-29.7275 47.375 -34.0175 47.375 -38.4375 47.375 C-38.4375 31.535 -38.4375 15.695 -38.4375 -0.625 C-34.8075 -0.625 -31.1775 -0.625 -27.4375 -0.625 C-27.4375 1.355 -27.4375 3.335 -27.4375 5.375 C-26.82261719 4.95347656 -26.20773437 4.53195312 -25.57421875 4.09765625 C-24.76597656 3.54980469 -23.95773437 3.00195312 -23.125 2.4375 C-22.32449219 1.89222656 -21.52398438 1.34695313 -20.69921875 0.78515625 C-14.65264708 -2.98481331 -6.42300415 -2.90966918 0 0 Z " fill="#34445F" transform="translate(819.4375,445.625)"/>
<path d="M0 0 C3.19473771 2.90713359 5.06451883 6.12903766 7 10 C7 13.63 7 17.26 7 21 C-4.55 21 -16.1 21 -28 21 C-25.02413448 29.38906269 -25.02413448 29.38906269 -21.671875 32.04296875 C-13.61027981 34.93052843 -4.06109974 33.22375165 4 31 C4.3125 33.8125 4.3125 33.8125 4 37 C-1.58012983 41.7595225 -9.67874372 41.41169099 -16.671875 41.33984375 C-22.58701437 40.73583304 -27.42140619 38.56034904 -31.65625 34.35546875 C-36.20460857 28.4981349 -37.55243 21.79617925 -37.375 14.48828125 C-36.39413184 7.97981235 -31.81836223 3.1576666 -26.8125 -0.8125 C-18.5163846 -6.24788595 -8.06349096 -5.10426806 0 0 Z " fill="#7EA4D4" transform="translate(935,544)"/>
<path d="M0 0 C3.47616492 2.33268962 5.44602173 5.25045556 7.5 8.875 C7.83663684 11.62564877 7.97224142 13.94848366 7.890625 16.6796875 C7.88496521 17.4036673 7.87930542 18.12764709 7.87347412 18.87356567 C7.85123667 21.16640788 7.80106987 23.45763716 7.75 25.75 C7.72991841 27.31247729 7.71167055 28.87497929 7.6953125 30.4375 C7.65141416 34.2506133 7.58247971 38.06253402 7.5 41.875 C4.86 41.875 2.22 41.875 -0.5 41.875 C-0.5 40.225 -0.5 38.575 -0.5 36.875 C-1.01949219 37.22433594 -1.53898438 37.57367187 -2.07421875 37.93359375 C-9.16070039 42.55749027 -9.16070039 42.55749027 -13.5 42.875 C-14.16773438 42.936875 -14.83546875 42.99875 -15.5234375 43.0625 C-21.29154991 43.37748225 -25.76259763 42.27184247 -30.5 38.875 C-33.46477294 34.4278406 -33.26344528 30.08933123 -32.5 24.875 C-29.67972866 21.14004606 -26.5068532 18.34842679 -21.8671875 17.25390625 C-17.76456533 16.79224227 -13.74875359 16.76706882 -9.625 16.8125 C-8.84125 16.81701172 -8.0575 16.82152344 -7.25 16.82617188 C-5.33329986 16.83785907 -3.41663952 16.85579092 -1.5 16.875 C-1.88498345 12.1471714 -1.88498345 12.1471714 -3.875 8 C-8.6644087 4.68425551 -14.94854708 5.56738083 -20.5 5.875 C-22.98156332 6.35063297 -25.11842281 7.00897193 -27.5 7.875 C-27.83 5.565 -28.16 3.255 -28.5 0.875 C-8.7326028 -5.01316087 -8.7326028 -5.01316087 0 0 Z " fill="#7EA5D5" transform="translate(757.5,542.125)"/>
<path d="M0 0 C5.46791854 2.43493247 8.0737068 5.53789943 10.36791992 11.04896545 C11.38901903 14.20078072 11.33397569 17.17061932 11.29296875 20.46484375 C11.28872391 21.14301651 11.28447906 21.82118927 11.28010559 22.51991272 C11.26347941 24.65953402 11.22586174 26.79816947 11.1875 28.9375 C11.17243222 30.39907482 11.1587475 31.86066458 11.14648438 33.32226562 C11.11362977 36.88182397 11.06196241 40.44081556 11 44 C8.03 44 5.06 44 2 44 C1.9906543 43.08186523 1.98130859 42.16373047 1.97167969 41.21777344 C1.92760069 37.80294722 1.86596268 34.38936892 1.79248047 30.97509766 C1.76429912 29.49897804 1.74307034 28.02270831 1.72900391 26.54638672 C1.70753302 24.42076943 1.66086957 22.29695121 1.609375 20.171875 C1.58842773 18.8940918 1.56748047 17.61630859 1.54589844 16.29980469 C0.91300739 12.47415379 0.06196468 11.29960364 -3 9 C-6.72203899 7.75932034 -10.13373308 7.45288676 -14 8 C-18.25666699 10.24162425 -18.25666699 10.24162425 -21 14 C-21.15495763 16.24974161 -21.25010928 18.50371536 -21.31640625 20.7578125 C-21.33718735 21.42086395 -21.35796844 22.08391541 -21.37937927 22.76705933 C-21.44479231 24.88626694 -21.50372105 27.005599 -21.5625 29.125 C-21.60569309 30.56121081 -21.64930764 31.99740902 -21.69335938 33.43359375 C-21.80046499 36.95559594 -21.90175575 40.47773825 -22 44 C-24.97 44 -27.94 44 -31 44 C-31 29.81 -31 15.62 -31 1 C-28.36 1 -25.72 1 -23 1 C-23 2.65 -23 4.3 -23 6 C-22.42894531 5.566875 -21.85789062 5.13375 -21.26953125 4.6875 C-14.33552329 -0.07480753 -8.35030284 -1.58698357 0 0 Z " fill="#78A0D1" transform="translate(877,540)"/>
<path d="M0 0 C3.6748932 1.2249644 4.06537039 2.23531254 6 5.5 C6.495 6.3146875 6.99 7.129375 7.5 7.96875 C11.69173546 16.43954874 12.39775811 23.6455418 12.1875 33.0625 C12.125625 37.001875 12.06375 40.94125 12 45 C4.08 45 -3.84 45 -12 45 C-12.24860393 13.67590486 -12.24860393 13.67590486 -2 1 C-1.34 0.67 -0.68 0.34 0 0 Z " fill="#F8F9FB" transform="translate(500,386)"/>
<path d="M0 0 C10.14058668 7.58620521 17.39533095 18.67265271 19.54956055 31.2902832 C20.2607315 36.96157553 20.31882366 42.59281699 20.26171875 48.30078125 C20.24109375 51.25015625 20.22046875 54.19953125 20.19921875 57.23828125 C12.60921875 57.23828125 5.01921875 57.23828125 -2.80078125 57.23828125 C-2.80078125 56.90828125 -2.80078125 56.57828125 -2.80078125 56.23828125 C1.48921875 56.23828125 5.77921875 56.23828125 10.19921875 56.23828125 C10.53920475 37.47715677 10.53920475 37.47715677 4.19921875 20.23828125 C3.53212891 19.11292969 3.53212891 19.11292969 2.8515625 17.96484375 C-0.69947391 12.64323487 -5.29385 9.38223836 -10.80078125 6.23828125 C-11.74824219 5.68140625 -11.74824219 5.68140625 -12.71484375 5.11328125 C-15.35183897 4.00712595 -17.70418258 3.81660973 -20.55078125 3.61328125 C-21.535625 3.53851563 -22.52046875 3.46375 -23.53515625 3.38671875 C-24.2828125 3.33773438 -25.03046875 3.28875 -25.80078125 3.23828125 C-25.80078125 2.57828125 -25.80078125 1.91828125 -25.80078125 1.23828125 C-26.52265625 0.94953125 -27.24453125 0.66078125 -27.98828125 0.36328125 C-30.59244792 -0.67838542 -33.19661458 -1.72005208 -35.80078125 -2.76171875 C-35.80078125 -3.42171875 -35.80078125 -4.08171875 -35.80078125 -4.76171875 C-22.58739459 -8.22752509 -11.82684397 -7.43920032 0 0 Z " fill="#6087BE" transform="translate(539.80078125,375.76171875)"/>
<path d="M0 0 C3.63 0 7.26 0 11 0 C11.66 1.65 12.32 3.3 13 5 C14.423125 3.7625 14.423125 3.7625 15.875 2.5 C20.50404457 -0.87435487 24.42703157 -0.38171017 30 0 C30 3.3 30 6.6 30 10 C28.453125 10.103125 26.90625 10.20625 25.3125 10.3125 C21.17901753 10.72233537 18.31300085 11.32822512 15 14 C13.52793987 16.94412027 13.76192808 19.96285915 13.68359375 23.1953125 C13.66281265 23.90275604 13.64203156 24.61019958 13.62062073 25.33908081 C13.55518922 27.60095425 13.49627026 29.86294462 13.4375 32.125 C13.39430867 33.65756422 13.35069418 35.19011657 13.30664062 36.72265625 C13.19951445 40.48165073 13.0982291 44.24076292 13 48 C8.71 48 4.42 48 0 48 C0 32.16 0 16.32 0 0 Z " fill="#374762" transform="translate(957,445)"/>
<path d="M0 0 C-0.33 1.98 -0.66 3.96 -1 6 C-1.85207031 5.83886719 -2.70414063 5.67773438 -3.58203125 5.51171875 C-6.99764499 5.00035258 -10.23592439 4.83254399 -13.6875 4.8125 C-15.36392578 4.79123047 -15.36392578 4.79123047 -17.07421875 4.76953125 C-20.19207979 4.77586326 -20.19207979 4.77586326 -23 7 C-22.88658466 9.40877257 -22.88658466 9.40877257 -22 12 C-19.0908743 14.45457481 -16.33707798 15.18794646 -12.6875 15.875 C-7.79137654 16.84931219 -3.88115657 18.86342982 0 22 C2.4755236 25.7132854 2.76615155 28.69651046 2 33 C-0.92595873 38.00244557 -3.92752204 39.98268057 -9.4765625 41.53125 C-17.53698396 43.02854191 -24.46782088 42.12445949 -32 39 C-32 36.69 -32 34.38 -32 32 C-31.00613281 32.32484375 -30.01226563 32.6496875 -28.98828125 32.984375 C-25.02657507 34.11372564 -21.3139247 34.26645633 -17.1875 34.25 C-15.88167969 34.25515625 -14.57585938 34.2603125 -13.23046875 34.265625 C-9.91218023 34.34336839 -9.91218023 34.34336839 -8 32 C-7.83312552 29.41645782 -7.83312552 29.41645782 -8 27 C-11.28837821 25.50528263 -14.44913762 24.15886018 -17.92578125 23.15625 C-23.84584223 21.44584633 -28.37228965 19.98948352 -32.06640625 14.859375 C-33.68685373 11.63204028 -33.70214611 9.51073055 -33 6 C-30.05832258 1.06557337 -27.10521053 -0.98656032 -21.59765625 -2.53125 C-13.85696405 -3.92806664 -6.95567266 -3.79400327 0 0 Z " fill="#7EA4D5" transform="translate(1016,543)"/>
<path d="M0 0 C0 4.29 0 8.58 0 13 C4.29 13 8.58 13 13 13 C13 14.98 13 16.96 13 19 C8.71 19 4.42 19 0 19 C0.11356669 23.43806659 0.24032829 27.87506727 0.375 32.3125 C0.4059375 33.57513672 0.436875 34.83777344 0.46875 36.13867188 C0.50742187 37.34716797 0.54609375 38.55566406 0.5859375 39.80078125 C0.63306885 41.47394409 0.63306885 41.47394409 0.68115234 43.1809082 C0.805249 46.20368786 0.805249 46.20368786 3 49 C5.42521494 49.58189266 5.42521494 49.58189266 8.125 49.6875 C9.49011719 49.78611328 9.49011719 49.78611328 10.8828125 49.88671875 C11.93082031 49.94279297 11.93082031 49.94279297 13 50 C13 51.98 13 53.96 13 56 C7.65915311 57.50173473 2.24598832 58.02534249 -2.875 55.6875 C-6.35682057 52.92252484 -8.17151999 51.44439591 -9 47 C-9.08120233 44.9023604 -9.10755808 42.80231238 -9.09765625 40.703125 C-9.09443359 39.49785156 -9.09121094 38.29257812 -9.08789062 37.05078125 C-9.07951172 35.79652344 -9.07113281 34.54226563 -9.0625 33.25 C-9.05798828 31.98027344 -9.05347656 30.71054687 -9.04882812 29.40234375 C-9.03704556 26.26818164 -9.02059416 23.13411459 -9 20 C-11.64 20 -14.28 20 -17 20 C-17 17.69 -17 15.38 -17 13 C-14.36 13 -11.72 13 -9 13 C-9 9.04 -9 5.08 -9 1 C-5 0 -5 0 0 0 Z " fill="#7BA3D2" transform="translate(823,528)"/>
<path d="M0 0 C3.38165334 2.25443556 5.55347586 4.00597639 6.8125 7.875 C8.27952501 20.49440901 8.27952501 20.49440901 5.0625 25.5625 C0.12387054 30.63831361 0.12387054 30.63831361 -3.58984375 31.30859375 C-7.72216525 31.31496096 -10.45344157 31.28107487 -14.125 29.25 C-18.51879754 24.19047556 -19.70685648 19.99386256 -19.46875 13.40625 C-18.8522732 7.85795882 -17.61236122 4.17032838 -13.4375 0.375 C-8.51447153 -1.89716699 -5.0787838 -1.79251193 0 0 Z " fill="#F5F6F8" transform="translate(928.1875,454.125)"/>
<path d="M0 0 C0.75925781 -0.01417969 1.51851562 -0.02835937 2.30078125 -0.04296875 C4.6875 0.1875 4.6875 0.1875 9.6875 2.1875 C9.6875 10.7675 9.6875 19.3475 9.6875 28.1875 C0.57871339 33.39252092 0.57871339 33.39252092 -6.3125 32.1875 C-10.4728898 30.33843787 -12.4574372 28.49991825 -14.1875 24.375 C-15.82921194 19.09806875 -15.83537625 14.87232349 -14.1875 9.5625 C-11.01983623 3.86070522 -6.70365493 0.05633323 0 0 Z " fill="#F6F7F9" transform="translate(864.3125,452.8125)"/>
<path d="M0 0 C0.80475391 5.4266514 -2.05669527 9.27152545 -4.625 13.8125 C-8.36286626 20.62458532 -11.44429763 27.3494982 -14.00878906 34.67700195 C-15.77369788 39.63905205 -17.96350184 43.71317907 -21 48 C-24.81764222 47.88431387 -26.58653137 46.64857088 -29.125 44 C-29.70636719 43.37996094 -30.28773438 42.75992188 -30.88671875 42.12109375 C-34.93789999 38.05493587 -39.51708234 34.57498497 -44 31 C-43.42655063 28.13275314 -43.1385485 27.1385485 -41 25 C-35.35020778 24.86220019 -32.0818578 27.97968264 -27.953125 31.40625 C-26.08704229 33.04772239 -26.08704229 33.04772239 -24 34 C-23.72905518 33.122229 -23.45811035 32.24445801 -23.17895508 31.34008789 C-21.30571986 26.03304066 -18.4568167 21.32145587 -15.6875 16.4375 C-15.11837891 15.40947266 -14.54925781 14.38144531 -13.96289062 13.32226562 C-6.44267458 0 -6.44267458 0 0 0 Z " fill="#2D94DA" transform="translate(509,501)"/>
<path d="M0 0 C17.77903044 -0.56144307 17.77903044 -0.56144307 24 4.6875 C26.11116625 9.56957196 26.58128444 13.37852235 24.8125 18.3125 C22.29815599 22.04066525 20.24216128 23.58594624 16 25 C13.25917841 25.07056698 10.55153023 25.09336154 7.8125 25.0625 C5.234375 25.041875 2.65625 25.02125 0 25 C0 16.75 0 8.5 0 0 Z " fill="#F8F9FC" transform="translate(684,528)"/>
<path d="M0 0 C1 1 1 1 1.0625 4.5625 C1.041875 5.696875 1.02125 6.83125 1 8 C0.40832031 8.03738281 -0.18335938 8.07476563 -0.79296875 8.11328125 C-5.56772222 8.51052828 -9.11924266 8.94243361 -13 12 C-15.38948197 15.58422296 -15.30233168 17.37232596 -15.4140625 21.63671875 C-15.47207031 23.58481445 -15.47207031 23.58481445 -15.53125 25.57226562 C-15.56270517 26.94400573 -15.59395251 28.31575061 -15.625 29.6875 C-15.66319197 31.07098785 -15.70224442 32.45445223 -15.7421875 33.83789062 C-15.83660517 37.2251245 -15.92218118 40.61235069 -16 44 C-18.97 44 -21.94 44 -25 44 C-25 29.81 -25 15.62 -25 1 C-22.36 1 -19.72 1 -17 1 C-16.34 2.65 -15.68 4.3 -15 6 C-14.071875 5.195625 -13.14375 4.39125 -12.1875 3.5625 C-8.30367193 0.19651567 -5.09442234 -0.22149662 0 0 Z " fill="#7DA4D3" transform="translate(803,540)"/>
<path d="M0 0 C2.64 0 5.28 0 8 0 C8.33 1.98 8.66 3.96 9 6 C9.78375 5.195625 10.5675 4.39125 11.375 3.5625 C14.97710487 0.04615953 14.97710487 0.04615953 18.1640625 -0.09765625 C19.38222656 -0.08025391 19.38222656 -0.08025391 20.625 -0.0625 C21.85089844 -0.04896484 21.85089844 -0.04896484 23.1015625 -0.03515625 C24.04128906 -0.01775391 24.04128906 -0.01775391 25 0 C25 1.98 25 3.96 25 6 C24.40832031 6.09796875 23.81664062 6.1959375 23.20703125 6.296875 C18.15165852 7.25351976 14.75233265 8.24766735 11 12 C9.57732138 14.84535725 9.78028131 17.36218552 9.68359375 20.5390625 C9.64169922 21.84101562 9.59980469 23.14296875 9.55664062 24.484375 C9.51682701 25.86458045 9.47711478 27.24478883 9.4375 28.625 C9.39430593 30.01303415 9.35069135 31.40105528 9.30664062 32.7890625 C9.20028 36.19260256 9.09825286 39.59621778 9 43 C6.03 43 3.06 43 0 43 C0 28.81 0 14.62 0 0 Z " fill="#7BA3D5" transform="translate(953,541)"/>
<path d="M0 0 C0.91657981 5.38490641 1.11138159 10.54230189 1 16 C-6.78297806 16.47169564 -13.93725845 14.70622828 -21.5 13 C-22.81233116 12.71017192 -24.12483022 12.42110302 -25.4375 12.1328125 C-28.62672738 11.42930646 -31.81404991 10.7181758 -35 10 C-35 7.03 -35 4.06 -35 1 C-34.67 2.32 -34.34 3.64 -34 5 C-32.824375 4.566875 -31.64875 4.13375 -30.4375 3.6875 C-29.69628906 3.41679688 -28.95507812 3.14609375 -28.19140625 2.8671875 C-25.79522783 1.9688325 -25.79522783 1.9688325 -22.875 0.3125 C-16.13950626 -2.66546135 -7.00206697 -1.63821944 0 0 Z " fill="#547FB5" transform="translate(412,609)"/>
<path d="M0 0 C0.06058594 0.71027344 0.12117188 1.42054688 0.18359375 2.15234375 C0.26738281 3.07144531 0.35117187 3.99054688 0.4375 4.9375 C0.51871094 5.85402344 0.59992188 6.77054687 0.68359375 7.71484375 C0.76044976 9.96159732 0.76044976 9.96159732 2 11 C3.99958364 11.04080783 6.00045254 11.04254356 8 11 C8.33 8.69 8.66 6.38 9 4 C12.37177797 5.39521847 14.25017709 6.76282761 16 10 C16.36734573 14.11427217 16.62708538 17.65643679 14 21 C9.95137286 23.7649161 6.16066105 24.72401563 1.32421875 24.53515625 C-3.26299732 23.47894011 -6.33930539 20.80598047 -9 17 C-10.03603835 13.74306175 -9.98879756 11.26533149 -9 8 C-7.15355169 5.01898706 -3.98496808 0 0 0 Z " fill="#375A86" transform="translate(469,457)"/>
<path d="M0 0 C0.70189453 0.00451172 1.40378906 0.00902344 2.12695312 0.01367188 C3.85550538 0.02543073 5.58401365 0.04336546 7.3125 0.0625 C7.92422472 7.28085174 7.92422472 7.28085174 5.0625 10.9375 C0.47188333 14.4847947 -2.72425862 15.53305802 -8.48828125 15.37109375 C-11.96317401 14.88349779 -13.56209319 13.82552885 -15.6875 11.0625 C-15.75 7.5 -15.75 7.5 -14.6875 4.0625 C-10.41527378 -0.20972622 -5.71289064 -0.06934414 0 0 Z " fill="#F4F7FB" transform="translate(748.6875,563.9375)"/>
<path d="M0 0 C3.85544798 1.99657127 5.59805092 3.39707638 8 7 C8 8.65 8 10.3 8 12 C-0.91 12 -9.82 12 -19 12 C-16.73684211 4.07894737 -16.73684211 4.07894737 -12 1 C-8.29240268 -0.85379866 -4.04626515 -0.45923868 0 0 Z " fill="#F5F7FB" transform="translate(926,547)"/>
<path d="M0 0 C3.0603333 1.7655769 5.50587755 3.50587755 8 6 C8 7.98 8 9.96 8 12 C0.74 12 -6.52 12 -14 12 C-12.93821438 5.62928628 -12.54909088 4.74725415 -7.8984375 1.140625 C-5.01814188 -0.58992299 -3.27129501 -0.69602021 0 0 Z " fill="#F3F4F6" transform="translate(752,452)"/>
<path d="M0 0 C-0.66 0 -1.32 0 -2 0 C-1.67 1.32 -1.34 2.64 -1 4 C-3.31 3.34 -5.62 2.68 -8 2 C-8 1.34 -8 0.68 -8 0 C-4.94736336 -0.98120464 -3.05263664 -0.98120464 0 0 Z " fill="#7296C9" transform="translate(512,371)"/>
<path d="M0 0 C0.33 0 0.66 0 1 0 C1 2.64 1 5.28 1 8 C0.34 8 -0.32 8 -1 8 C-1.33 6.02 -1.66 4.04 -2 2 C-1.34 2 -0.68 2 0 2 C0 1.34 0 0.68 0 0 Z " fill="#5688C4" transform="translate(487,423)"/>
</svg>
