<?xml version="1.0" encoding="UTF-8"?>
<svg version="1.1" xmlns="http://www.w3.org/2000/svg" width="1536" height="1024">
<path d="M0 0 C506.88 0 1013.76 0 1536 0 C1536 337.92 1536 675.84 1536 1024 C1029.12 1024 522.24 1024 0 1024 C0 686.08 0 348.16 0 0 Z " fill="#FAFBFC" transform="translate(0,0)"/>
<path d="M0 0 C6.88239468 8.15020422 10.74390157 16.24931678 10.625 27 C10.63273437 27.71091797 10.64046875 28.42183594 10.6484375 29.15429688 C10.63429517 32.91262031 10.50900293 34.6114956 8.375 37.8125 C8.31102998 39.77895972 8.31102998 39.77895972 8.6875 41.8125 C8.83638672 42.8334375 8.83638672 42.8334375 8.98828125 43.875 C9.37403245 46.01696315 9.37403245 46.01696315 10.375 48.8125 C11.06923074 56.80638791 9.6888992 63.84903372 7.5 71.5 C6.96075284 73.46218884 6.42168686 75.42442749 5.8828125 77.38671875 C5.62282471 78.3094458 5.36283691 79.23217285 5.0949707 80.18286133 C4.4418388 82.56837632 3.86082852 84.95852005 3.30078125 87.3671875 C2.30424607 91.0758121 1.40411366 92.51771693 -1.625 94.8125 C-5.09825181 95.9702506 -7.98567448 95.88116652 -11.625 95.8125 C-11.48108171 103.54483738 -11.00614995 110.82808212 -5.625 116.8125 C0.60658903 120.93209429 7.50547489 123.25633425 14.51953125 125.72460938 C15.38707031 126.05138672 16.25460937 126.37816406 17.1484375 126.71484375 C18.33058838 127.14011353 18.33058838 127.14011353 19.53662109 127.57397461 C21.375 128.8125 21.375 128.8125 22.18383789 131.22949219 C22.44716087 134.78754732 21.53246795 137.78577659 20.4375 141.125 C20.21441162 141.81851563 19.99132324 142.51203125 19.76147461 143.2265625 C16.07287513 154.17767029 10.95774215 165.02035847 3.375 173.8125 C2.79363281 174.54726563 2.21226562 175.28203125 1.61328125 176.0390625 C-5.45586243 184.61380473 -14.39070318 189.74405114 -24.625 193.8125 C-9.78553106 191.33925518 1.44019432 183.54985257 10.5 171.6875 C16.19928148 163.47451104 21.46639159 154.40503179 24.375 144.8125 C27.6970709 146.21467278 29.33162308 147.77560018 31.5 150.625 C38.8155749 159.1624151 48.69671081 160.91995019 59.375 162.8125 C57.99947961 166.5281208 56.30353341 169.76521247 54.21484375 173.12890625 C53.59061523 174.13469727 52.96638672 175.14048828 52.32324219 176.17675781 C51.3279248 177.7598877 51.3279248 177.7598877 50.3125 179.375 C49.2920459 180.99873535 49.2920459 180.99873535 48.25097656 182.65527344 C34.43659077 204.46503911 19.501651 222.79894272 -5.25 232.1875 C-20.36393983 234.98637775 -33.34509468 229.99088641 -45.71875 221.66796875 C-51.29461015 217.71610542 -56.28344752 213.14396764 -61.11132812 208.31933594 C-62.16885702 207.26658298 -63.24187652 206.22926485 -64.32617188 205.20410156 C-68.86993362 200.84319241 -72.46084922 196.13422772 -76 190.9375 C-77.04884534 189.4188329 -78.09829162 187.90058059 -79.1484375 186.3828125 C-79.60138184 185.72039551 -80.05432617 185.05797852 -80.52099609 184.37548828 C-81.53546796 182.8454971 -81.53546796 182.8454971 -82.625 181.8125 C-74.97194695 197.08163483 -66.4586493 210.41309854 -54.625 222.8125 C-53.738125 223.781875 -52.85125 224.75125 -51.9375 225.75 C-49.35408535 228.05412658 -46.78075645 229.41809599 -43.625 230.8125 C-43.625 231.1425 -43.625 231.4725 -43.625 231.8125 C-55.505 231.8125 -67.385 231.8125 -79.625 231.8125 C-80.511875 228.079375 -81.39875 224.34625 -82.3125 220.5 C-83.9837914 213.48503412 -85.67944814 206.4848111 -87.58251953 199.52880859 C-100.67601446 151.56159835 -100.67601446 151.56159835 -93.5625 137.5 C-92.1484375 135.546875 -92.1484375 135.546875 -90.625 133.8125 C-90.16351563 133.21953125 -89.70203125 132.6265625 -89.2265625 132.015625 C-84.77259905 126.90600196 -78.92468174 123.9394739 -73.0703125 120.71875 C-64.20515039 115.81376235 -56.22520755 110.76576792 -52.22705078 101.03588867 C-50.91634859 96.19543254 -51.19802809 91.16525412 -51.25 86.1875 C-51.23839844 85.06859375 -51.22679687 83.9496875 -51.21484375 82.796875 C-51.21871094 81.71664062 -51.22257812 80.63640625 -51.2265625 79.5234375 C-51.22994629 78.54681152 -51.23333008 77.57018555 -51.23681641 76.56396484 C-52.01699339 71.03403114 -54.90955969 68.58539587 -59.1328125 65.265625 C-63.16020679 61.34365988 -65.40168359 55.29360879 -65.7578125 49.7421875 C-65.73611111 44.03472222 -65.73611111 44.03472222 -64.625 41.8125 C-64.57563058 40.03062981 -64.58855184 38.24684816 -64.6328125 36.46484375 C-64.64957031 35.38396484 -64.66632813 34.30308594 -64.68359375 33.18945312 C-64.72734006 30.92365182 -64.77922189 28.65799074 -64.83984375 26.39257812 C-64.97752928 15.80956768 -62.8577919 6.85056225 -55.625 -1.1875 C-39.02144132 -14.51604481 -16.22976985 -13.52480821 0 0 Z " fill="#21365A" transform="translate(492.625,382.1875)"/>
<path d="M0 0 C3.3220709 1.40217278 4.95662308 2.96310018 7.125 5.8125 C14.4405749 14.3499151 24.32171081 16.10745019 35 18 C33.62447961 21.7156208 31.92853341 24.95271247 29.83984375 28.31640625 C29.21561523 29.32219727 28.59138672 30.32798828 27.94824219 31.36425781 C26.9529248 32.9473877 26.9529248 32.9473877 25.9375 34.5625 C25.25719727 35.64499023 24.57689453 36.72748047 23.87597656 37.84277344 C10.06159077 59.65253911 -4.873349 77.98644272 -29.625 87.375 C-41.10743575 89.50137699 -52.88947904 87.45339444 -62.875 81.25 C-63.90625 80.5075 -64.9375 79.765 -66 79 C-65.67 75.04 -65.34 71.08 -65 67 C-64.34 67 -63.68 67 -63 67 C-62.89171875 66.26910156 -62.7834375 65.53820312 -62.671875 64.78515625 C-61.32268189 59.19228015 -57.53955976 54.66438893 -53.6875 50.5 C-50.61755543 48.78654257 -48.16863824 48.77046037 -44.71875 48.51171875 C-30.83495908 45.89853396 -19.70858405 35.28152661 -11.953125 24.10546875 C-7.17436678 16.50724319 -2.61384354 8.62040319 0 0 Z " fill="#5480BC" transform="translate(517,527)"/>
<path d="M0 0 C0.99 0.66 1.98 1.32 3 2 C3 2.66 3 3.32 3 4 C2.34 4 1.68 4 1 4 C1.33 5.65 1.66 7.3 2 9 C2.99 8.67 3.98 8.34 5 8 C5.061875 9.010625 5.12375 10.02125 5.1875 11.0625 C5.80861883 15.67383674 8.14523684 18.41324628 11 22 C11.721875 21.649375 12.44375 21.29875 13.1875 20.9375 C16.32982572 19.89005809 17.87318269 20.0445836 21 21 C22 22 22 22 22.0625 24.5625 C22.041875 25.366875 22.02125 26.17125 22 27 C23.98 27.66 25.96 28.32 28 29 C28 30.65 28 32.3 28 34 C28.639375 34.144375 29.27875 34.28875 29.9375 34.4375 C32 35 32 35 33 36 C33.04063832 37.66617115 33.042721 39.33388095 33 41 C34.32 41.66 35.64 42.32 37 43 C36.90332031 44.18464844 36.80664062 45.36929688 36.70703125 46.58984375 C36.71223918 51.32177343 38.65858593 54.07836723 41.6875 57.5625 C42.60437858 58.68993186 43.52104737 59.81753437 44.4375 60.9453125 C45.283125 61.95335937 46.12875 62.96140625 47 64 C52 70.01293103 52 70.01293103 52 74.3125 C51 77 51 77 48 79 C43.49368027 79.03211154 40.88972746 78.28085241 37.7265625 75.1640625 C36.67547674 73.99970183 35.64179998 72.8194182 34.625 71.625 C34.09261719 71.03460937 33.56023438 70.44421875 33.01171875 69.8359375 C30.73937375 67.26870803 29.09385402 65.28156205 28 62 C26.93072266 62.97453125 26.93072266 62.97453125 25.83984375 63.96875 C24.88207031 64.8040625 23.92429687 65.639375 22.9375 66.5 C21.99777344 67.3353125 21.05804687 68.170625 20.08984375 69.03125 C16.34328887 71.41843541 14.36990174 71.48609577 10 71 C7.375 70.3359375 7.375 70.3359375 5 69.375 C4.21625 69.07335937 3.4325 68.77171875 2.625 68.4609375 C-1.0969176 66.38951312 -4.42582346 64.46596744 -7 61 C-7.74959933 57.60653359 -7.44563102 54.49545543 -7.0625 51.0625 C-6.99998047 50.19431641 -6.93746094 49.32613281 -6.87304688 48.43164062 C-6.46035705 43.42257051 -5.79860343 38.70645008 -4 34 C-2.515 33.505 -2.515 33.505 -1 33 C-4.65728249 28.51687953 -7.14595538 27.56143403 -12.7734375 26.6015625 C-16.37122908 25.62952758 -18.3621537 23.57020922 -21 21 C-20.15975729 15.57984283 -16.06765511 13.26113729 -12 10 C-11.27296875 9.41089844 -10.5459375 8.82179688 -9.796875 8.21484375 C-4.4162234 4 -4.4162234 4 -1 4 C-0.67 2.68 -0.34 1.36 0 0 Z " fill="#213457" transform="translate(531,468)"/>
<path d="M0 0 C3.16783628 1.71591132 4.92717811 3.18764216 6.9375 6.203125 C7.83327969 10.66616896 7.91182275 14.62701467 5.4765625 18.56640625 C2.83205579 21.61818931 0.30499633 23.95812745 -3.0625 26.203125 C-1.48741141 29.86691803 0.77943573 32.50163805 3.4375 35.453125 C4.2315625 36.34515625 5.025625 37.2371875 5.84375 38.15625 C7.68784671 40.436144 7.68784671 40.436144 9.9375 40.203125 C11.4225 34.263125 11.4225 34.263125 12.9375 28.203125 C14.9175 28.203125 16.8975 28.203125 18.9375 28.203125 C19.43794552 33.9582485 18.11792818 37.68164822 15.6171875 42.87109375 C14.70775189 45.1632971 14.70775189 45.1632971 15.625 47.23828125 C17.0448936 49.36389577 18.50699112 51.42420037 20.0625 53.453125 C20.60132813 54.15953125 21.14015625 54.8659375 21.6953125 55.59375 C22.10523438 56.12484375 22.51515625 56.6559375 22.9375 57.203125 C15.55288462 57.69543269 15.55288462 57.69543269 12.4375 55.203125 C11.695 54.213125 11.695 54.213125 10.9375 53.203125 C8.45895319 54.17872321 6.00416581 55.17288256 3.578125 56.2734375 C-3.66183422 59.46753716 -9.19759609 60.42701124 -16.8125 58.015625 C-21.36554897 55.47642461 -24.18856762 52.51402357 -27.0625 48.203125 C-28.05702424 43.23050381 -28.14591479 38.90994319 -25.37890625 34.55078125 C-22.48863928 31.27868084 -19.69964784 28.62789023 -16.0625 26.203125 C-17.13639924 23.97271888 -18.17717539 22.05316487 -19.6875 20.078125 C-21.72887941 15.80978624 -21.74404706 11.85142913 -21.0625 7.203125 C-16.85644357 -0.40013085 -8.01520579 -3.09678406 0 0 Z " fill="#5883BE" transform="translate(660.0625,518.796875)"/>
<path d="M0 0 C4.46928638 3.46882227 7.13374634 6.96373901 8.9375 12.375 C9.70937014 19.90073387 8.17748507 25.72465396 4.25 32.125 C-1.19253688 37.42044129 -5.95881408 38.65559016 -13.5625 38.875 C-19.52689639 38.68546605 -24.42612308 38.35217641 -29.0625 34.375 C-34.89737732 27.87181074 -36.4777543 23.45430532 -36.41015625 14.71484375 C-35.77823202 8.64411099 -32.88246119 5.24414933 -28.75 1 C-20.60747453 -3.92338749 -8.20571205 -5.17257756 0 0 Z " fill="#24375B" transform="translate(968.0625,445.625)"/>
<path d="M0 0 C3.63 0 7.26 0 11 0 C11 8.25 11 16.5 11 25 C19.91 25 28.82 25 38 25 C38 17.08 38 9.16 38 1 C41.3 1 44.6 1 48 1 C48 19.81 48 38.62 48 58 C44.7 58 41.4 58 38 58 C38 49.75 38 41.5 38 33 C29.09 33 20.18 33 11 33 C11 41.25 11 49.5 11 58 C7.37 58 3.74 58 0 58 C0 38.86 0 19.72 0 0 Z " fill="#1F3356" transform="translate(875,425)"/>
<path d="M0 0 C12.87 0 25.74 0 39 0 C39 2.64 39 5.28 39 8 C29.76 8 20.52 8 11 8 C11 13.28 11 18.56 11 24 C18.92 24 26.84 24 35 24 C35 26.64 35 29.28 35 32 C27.08 32 19.16 32 11 32 C11 37.61 11 43.22 11 49 C20.24 49 29.48 49 39 49 C39 51.97 39 54.94 39 58 C26.13 58 13.26 58 0 58 C0 38.86 0 19.72 0 0 Z " fill="#24385B" transform="translate(638,426)"/>
<path d="M0 0 C5.06224757 2.74112969 8.45315881 7.05034594 10.6640625 12.28125 C11.60827813 19.35188795 10.91287221 25.44603407 6.6640625 31.28125 C1.56854932 36.246109 -3.25270856 37.58002059 -10.2734375 37.65625 C-16.82365483 37.5468518 -20.10863429 36.59946316 -24.72265625 31.85546875 C-29.33014066 26.74630982 -30.8350631 22.30905815 -30.64453125 15.55078125 C-29.78406671 9.22255468 -25.74541885 5.38179794 -21.01953125 1.4453125 C-15.57180291 -2.3213303 -6.1089439 -1.87967505 0 0 Z " fill="#5783BE" transform="translate(785.3359375,539.71875)"/>
<path d="M0 0 C1.19367187 -0.01675781 2.38734375 -0.03351563 3.6171875 -0.05078125 C8.29942384 0.43412741 11.55212243 1.83195068 14.98828125 5.06640625 C15.46652344 5.66324219 15.94476562 6.26007813 16.4375 6.875 C17.17419922 7.77412109 17.17419922 7.77412109 17.92578125 8.69140625 C21.69537272 13.78710807 20.125 14.81386432 20.125 23.3125 C10.225 23.3125 0.325 23.3125 -9.875 23.3125 C-7.33281328 29.07803645 -7.33281328 29.07803645 -2.875 32.3125 C3.65316712 33.16880401 9.95751126 32.55522318 16.125 30.3125 C17.38164978 33.21850261 18.125 35.10854584 18.125 38.3125 C10.41039231 42.25187414 1.61764457 42.48833751 -6.875 41.3125 C-12.19715513 39.46758745 -15.8163624 36.01809632 -18.875 31.3125 C-21.49614278 25.7175516 -21.64772269 20.39177752 -20.875 14.3125 C-18.54504183 8.35281362 -14.50822298 4.59459244 -9.15234375 1.23046875 C-6.03905359 -0.02445953 -3.34852024 0.01080168 0 0 Z " fill="#25395D" transform="translate(745.875,442.6875)"/>
<path d="M0 0 C3.3 0 6.6 0 10 0 C10.33 1.65 10.66 3.3 11 5 C11.78375 4.360625 12.5675 3.72125 13.375 3.0625 C18.94040374 -1.31031723 25.14681156 -0.70089427 32 0 C35.34974509 1.49542192 37.1052568 3.64414077 39.12841797 6.70996094 C40.37493869 9.98513303 40.22306277 12.89409138 40.1953125 16.390625 C40.1924826 17.09523865 40.18965271 17.79985229 40.18673706 18.52581787 C40.17557801 20.7673876 40.15048193 23.00855186 40.125 25.25 C40.11496464 26.77343171 40.10583976 28.29686971 40.09765625 29.8203125 C40.07565291 33.54700586 40.04115272 37.27346333 40 41 C36.37 41 32.74 41 29 41 C28.98541748 40.10168457 28.97083496 39.20336914 28.95581055 38.27783203 C28.89480303 34.9489341 28.82066372 31.62087117 28.73754883 28.29248047 C28.70426822 26.85118658 28.67624596 25.40976137 28.65356445 23.96826172 C28.6200738 21.89754203 28.567767 19.82802907 28.51171875 17.7578125 C28.48553467 16.5114502 28.45935059 15.26508789 28.43237305 13.98095703 C28.28968994 12.99724121 28.14700684 12.01352539 28 11 C24.93952368 8.95968245 24.06504006 8.68406476 20.5625 8.625 C19.41974609 8.58246094 19.41974609 8.58246094 18.25390625 8.5390625 C15.06756028 9.19068958 14.01590056 10.47279588 12 13 C11.36004039 16.0849946 11.36004039 16.0849946 11.390625 19.515625 C11.35839844 20.76601563 11.32617188 22.01640625 11.29296875 23.3046875 C11.27169922 25.25761719 11.27169922 25.25761719 11.25 27.25 C11.22035156 28.56742187 11.19070313 29.88484375 11.16015625 31.2421875 C11.08944612 34.49485343 11.03675214 37.74680193 11 41 C7.37 41 3.74 41 0 41 C0 27.47 0 13.94 0 0 Z " fill="#2A3E61" transform="translate(774,443)"/>
<path d="M0 0 C2.40672041 1.44403225 4.6309833 2.92550574 6.8125 4.6875 C7.699375 3.8625 8.58625 3.0375 9.5 2.1875 C14.0025551 -1.01289049 18.30405193 -1.07173029 23.703125 -0.87890625 C28.30262942 -0.04105683 30.97927728 2.04208677 33.8125 5.6875 C35.27348845 8.6094769 34.92384901 11.18643475 34.91015625 14.4453125 C34.9087413 15.10836395 34.90732635 15.77141541 34.90586853 16.45455933 C34.90026754 18.57391863 34.887715 20.69317259 34.875 22.8125 C34.86998512 24.24869639 34.86542219 25.68489444 34.86132812 27.12109375 C34.85029782 30.64326345 34.83303259 34.16537145 34.8125 37.6875 C32.5025 37.6875 30.1925 37.6875 27.8125 37.6875 C27.80839111 36.86024414 27.80428223 36.03298828 27.80004883 35.18066406 C27.76715385 31.43221594 27.69651085 27.6854019 27.625 23.9375 C27.61919922 22.63554688 27.61339844 21.33359375 27.60742188 19.9921875 C27.57841797 18.74179687 27.54941406 17.49140625 27.51953125 16.203125 C27.5038208 15.05102539 27.48811035 13.89892578 27.47192383 12.71191406 C27.05492097 9.51466553 27.05492097 9.51466553 24.48706055 7.30761719 C20.97875484 5.1824582 18.8547804 5.18221495 14.8125 5.6875 C11.2738006 7.33889305 10.00179847 8.40355229 7.8125 11.6875 C7.44405492 14.4961043 7.44405492 14.4961043 7.3984375 17.66796875 C7.35976563 18.83134766 7.32109375 19.99472656 7.28125 21.19335938 C7.23484375 23.01577148 7.23484375 23.01577148 7.1875 24.875 C7.14882813 26.10154297 7.11015625 27.32808594 7.0703125 28.59179688 C6.97593897 31.62354656 6.89035451 34.65528841 6.8125 37.6875 C4.5025 37.6875 2.1925 37.6875 -0.1875 37.6875 C-0.20208252 36.82471436 -0.21666504 35.96192871 -0.23168945 35.07299805 C-0.29277754 31.86900353 -0.36693549 28.66565375 -0.44995117 25.4621582 C-0.48318549 24.07620623 -0.51122226 22.69011939 -0.53393555 21.30395508 C-0.56750617 19.31043157 -0.62138 17.31728259 -0.67578125 15.32421875 C-0.70196533 14.12498779 -0.72814941 12.92575684 -0.75512695 11.69018555 C-0.94139526 8.70526652 -0.94139526 8.70526652 -2.59130859 6.80200195 C-5.27573394 4.92766703 -7.71344789 5.16440385 -10.89453125 5.2578125 C-14.75539301 5.981313 -16.50834229 7.8743844 -19.1875 10.6875 C-20.47355661 13.25961322 -20.39793941 15.25656966 -20.50390625 18.1328125 C-20.54580078 19.20917969 -20.58769531 20.28554688 -20.63085938 21.39453125 C-20.68983398 23.08642578 -20.68983398 23.08642578 -20.75 24.8125 C-20.79318359 25.94816406 -20.83636719 27.08382812 -20.88085938 28.25390625 C-20.9871604 31.06497768 -21.08919405 33.87613945 -21.1875 36.6875 C-23.1675 36.6875 -25.1475 36.6875 -27.1875 36.6875 C-27.1875 24.8075 -27.1875 12.9275 -27.1875 0.6875 C-25.2075 0.6875 -23.2275 0.6875 -21.1875 0.6875 C-21.1875 2.3375 -21.1875 3.9875 -21.1875 5.6875 C-20.5275 5.6875 -19.8675 5.6875 -19.1875 5.6875 C-19.001875 5.089375 -18.81625 4.49125 -18.625 3.875 C-14.59785473 -2.25326454 -6.21984844 -2.56111406 0 0 Z " fill="#5984BF" transform="translate(833.1875,539.3125)"/>
<path d="M0 0 C2.45280016 1.07830649 3.92540861 2.25297568 6 4 C9.1244375 4.32704593 9.1244375 4.32704593 11.28125 2.02734375 C14.61418725 -0.45799308 16.39010765 -0.50951914 20.5 -0.4375 C22.15515625 -0.43556641 22.15515625 -0.43556641 23.84375 -0.43359375 C28.11080253 0.15259787 30.64025962 1.59938362 33.62426758 4.6730957 C35.51600482 7.87276697 35.34000864 10.25265358 35.29296875 13.953125 C35.28872391 14.61334656 35.28447906 15.27356812 35.28010559 15.95379639 C35.26337435 18.05295391 35.22573551 20.15113496 35.1875 22.25 C35.17244584 23.67706942 35.15875871 25.10415396 35.14648438 26.53125 C35.11349001 30.02114817 35.06174743 33.5104787 35 37 C33.02 37 31.04 37 29 37 C28.99589111 36.23856689 28.99178223 35.47713379 28.98754883 34.69262695 C28.9545886 31.23180334 28.88393946 27.77273429 28.8125 24.3125 C28.80669922 23.11431641 28.80089844 21.91613281 28.79492188 20.68164062 C28.8874835 13.63614615 28.8874835 13.63614615 25.6640625 7.703125 C22.10662162 5.42886661 20.15539135 5.34388558 16 6 C11.75971381 8.2587937 11.75971381 8.2587937 9 12 C8.84621148 13.95774069 8.75028537 15.92017352 8.68359375 17.8828125 C8.62075195 19.63271484 8.62075195 19.63271484 8.55664062 21.41796875 C8.51732422 22.64128906 8.47800781 23.86460937 8.4375 25.125 C8.37272461 26.97158203 8.37272461 26.97158203 8.30664062 28.85546875 C8.20031296 31.90352853 8.09828219 34.9516719 8 38 C5.69 38 3.38 38 1 38 C0.9906543 37.17274414 0.98130859 36.34548828 0.97167969 35.49316406 C0.91799681 31.74483585 0.8343429 27.99775838 0.75 24.25 C0.73582031 22.94804688 0.72164062 21.64609375 0.70703125 20.3046875 C0.67480469 19.05429687 0.64257812 17.80390625 0.609375 16.515625 C0.58842773 15.36352539 0.56748047 14.21142578 0.54589844 13.02441406 C-0.10527196 9.41676697 -1.14082348 8.22164839 -4 6 C-7.53027339 5.18638231 -10.97325745 5.64874597 -14.375 6.8125 C-16.29911164 8.07545078 -16.29911164 8.07545078 -18 11 C-18.36844508 13.8086043 -18.36844508 13.8086043 -18.4140625 16.98046875 C-18.45273437 18.14384766 -18.49140625 19.30722656 -18.53125 20.50585938 C-18.5621875 21.72080078 -18.593125 22.93574219 -18.625 24.1875 C-18.66367187 25.41404297 -18.70234375 26.64058594 -18.7421875 27.90429688 C-18.83656103 30.93604656 -18.92214549 33.96778841 -19 37 C-21.31 37 -23.62 37 -26 37 C-26 25.12 -26 13.24 -26 1 C-24.02 1 -22.04 1 -20 1 C-19.67 2.32 -19.34 3.64 -19 5 C-18.278125 4.175 -17.55625 3.35 -16.8125 2.5 C-12.01897835 -1.51557541 -5.88218794 -0.84565806 0 0 Z " fill="#5581BE" transform="translate(906,539)"/>
<path d="M0 0 C5.1072516 2.69332087 7.87634869 6.96498358 9.66015625 12.31640625 C9.66015625 14.95640625 9.66015625 17.59640625 9.66015625 20.31640625 C-0.56984375 20.31640625 -10.79984375 20.31640625 -21.33984375 20.31640625 C-18.46027044 27.34012429 -18.46027044 27.34012429 -13.33984375 31.31640625 C-6.81167663 32.17271026 -0.50733249 31.55912943 5.66015625 29.31640625 C6.66015625 30.31640625 6.66015625 30.31640625 6.72265625 32.87890625 C6.70203125 33.68328125 6.68140625 34.48765625 6.66015625 35.31640625 C-2.81144106 38.19385353 -11.14758292 40.09638188 -20.33984375 35.31640625 C-24.54451936 31.61271327 -27.9894289 27.20529145 -28.67578125 21.546875 C-28.76193917 14.83517305 -28.49753282 10.67763689 -24.33984375 5.31640625 C-17.48619998 -1.37988346 -9.33800289 -2.72813106 0 0 Z " fill="#5C85BF" transform="translate(1142.33984375,539.68359375)"/>
<path d="M0 0 C-0.33 1.98 -0.66 3.96 -1 6 C-2.41681634 5.68817931 -3.83344651 5.37551263 -5.25 5.0625 C-6.03890625 4.88847656 -6.8278125 4.71445312 -7.640625 4.53515625 C-9.11091917 4.20166237 -10.57615233 3.84377408 -12.03125 3.44921875 C-18.46126095 1.98205355 -25.3285939 2.51877105 -31 6 C-35.90724463 10.46288783 -39.57414191 15.04007286 -40.30078125 21.796875 C-40.33350966 30.04443498 -38.98979739 36.75290709 -35 44 C-33.31980946 45.17657468 -33.31980946 45.17657468 -31 46 C-29.824375 46.53625 -28.64875 47.0725 -27.4375 47.625 C-18.48830142 50.87322763 -9.77657144 48.85196132 -1 46 C-0.505 48.97 -0.505 48.97 0 52 C-9.37689418 56.83968732 -18.98614546 57.41866787 -29.25 55.0625 C-36.83397702 52.44258067 -43.40551867 46.10102427 -47 39 C-49.22218956 31.3127745 -49.60249625 19.13927767 -46.1796875 11.8046875 C-41.18340144 4.16136246 -35.4197944 -1.60574428 -26.3046875 -3.65234375 C-16.99691364 -5.05639777 -8.60036997 -3.76266186 0 0 Z " fill="#5681BC" transform="translate(749,522)"/>
<path d="M0 0 C1.02963867 -0.02416992 1.02963867 -0.02416992 2.08007812 -0.04882812 C7.14622976 -0.05362108 10.65057061 1.0647925 15.1875 3.3125 C14.1975 5.6225 13.2075 7.9325 12.1875 10.3125 C11.40375 9.9825 10.62 9.6525 9.8125 9.3125 C5.19388131 8.03839829 0.94500644 8.14326064 -3.8125 8.3125 C-4.1425 9.9625 -4.4725 11.6125 -4.8125 13.3125 C-1.01411622 15.36568042 2.70619861 16.83522404 6.8125 18.1875 C11.22472196 19.78430414 14.07568435 20.88774341 16.1875 25.3125 C16.98621262 29.53794743 16.72667602 32.37931074 14.5625 36.125 C9.56929488 40.72400472 4.82856241 41.7998488 -1.8125 41.6875 C-2.49828125 41.69910156 -3.1840625 41.71070313 -3.890625 41.72265625 C-8.58418062 41.69578475 -11.83856487 40.79620946 -15.8125 38.3125 C-16.8125 36.3125 -16.8125 36.3125 -16.8125 34.3125 C-16.1525 33.3225 -15.4925 32.3325 -14.8125 31.3125 C-13.99458984 31.5290625 -13.99458984 31.5290625 -13.16015625 31.75 C-7.6928806 33.09579093 -2.45043309 33.8536409 3.1875 33.3125 C4.48383621 32.24604885 4.48383621 32.24604885 4.25 29.75 C4.229375 28.945625 4.20875 28.14125 4.1875 27.3125 C3.630625 27.14234375 3.07375 26.9721875 2.5 26.796875 C-10.86444805 22.55275974 -10.86444805 22.55275974 -15.3125 17.4375 C-17.0095328 13.902015 -17.53557776 12.16891471 -16.8125 8.3125 C-11.96696551 1.31339462 -8.26374833 -0.03815212 0 0 Z " fill="#263A5D" transform="translate(1069.8125,442.6875)"/>
<path d="M0 0 C3.96 0 7.92 0 12 0 C15.3 9.24 18.6 18.48 22 28 C24.16961259 21.77868038 24.16961259 21.77868038 26.3371582 15.55664062 C28.1582065 10.34425436 30.04018791 5.16184354 32 0 C35.63 0 39.26 0 43 0 C40.53726463 7.77222587 37.53382827 15.27308307 34.4375 22.8125 C33.94314453 24.02615234 33.44878906 25.23980469 32.93945312 26.49023438 C31.06726816 31.06809395 29.2128428 35.5743144 27 40 C23.37 40 19.74 40 16 40 C15.69707031 39.26136719 15.39414062 38.52273438 15.08203125 37.76171875 C12.97224669 32.65279429 10.82912872 27.57567228 8.5 22.5625 C5.14814651 15.26479368 1.95024117 7.8009647 0 0 Z " fill="#25395B" transform="translate(680,444)"/>
<path d="M0 0 C0.845625 0.495 1.69125 0.99 2.5625 1.5 C1.9025 3.48 1.2425 5.46 0.5625 7.5 C-0.22125 7.335 -1.005 7.17 -1.8125 7 C-9.79815307 5.78977185 -9.79815307 5.78977185 -17.4375 7.5 C-17.1075 9.15 -16.7775 10.8 -16.4375 12.5 C-15.73625 12.64695312 -15.035 12.79390625 -14.3125 12.9453125 C-7.05729104 14.66053853 -1.73790611 17.19959389 3.5625 22.5 C4.22231659 27.59001366 4.45594763 31.30873649 1.3125 35.5 C-3.58124793 39.0590894 -7.13400149 39.88618946 -13.1875 39.875 C-14.25677734 39.87693359 -14.25677734 39.87693359 -15.34765625 39.87890625 C-21.09686914 39.76329137 -24.70442673 38.65538218 -29.4375 35.5 C-28.4475 32.53 -28.4475 32.53 -27.4375 29.5 C-26.47650391 29.7165625 -26.47650391 29.7165625 -25.49609375 29.9375 C-19.08203927 31.31398859 -12.85751838 32.55440588 -6.4375 30.5 C-6.31901589 28.07474917 -6.31901589 28.07474917 -7.4375 25.5 C-10.09903893 24.22185984 -12.45658854 23.29531927 -15.25 22.4375 C-24.15251703 19.61243459 -24.15251703 19.61243459 -27.4375 15.5 C-29.01205739 12.35088521 -28.78549118 9.97991184 -28.4375 6.5 C-22.91140985 -3.24802302 -9.63732073 -4.18410427 0 0 Z " fill="#24385A" transform="translate(1011.4375,444.5)"/>
<path d="M0 0 C0 3.96 0 7.92 0 12 C3.96 12 7.92 12 12 12 C12 14.31 12 16.62 12 19 C8.04 19 4.08 19 0 19 C0.11370953 22.43821706 0.24046338 25.87508925 0.375 29.3125 C0.4059375 30.28896484 0.436875 31.26542969 0.46875 32.27148438 C0.50742188 33.20927734 0.54609375 34.14707031 0.5859375 35.11328125 C0.63306885 36.40939331 0.63306885 36.40939331 0.68115234 37.73168945 C0.87188037 40.27742445 0.87188037 40.27742445 3 43 C5.19454681 43.57993699 5.19454681 43.57993699 7.625 43.6875 C8.44226562 43.75324219 9.25953125 43.81898438 10.1015625 43.88671875 C10.72804688 43.92410156 11.35453125 43.96148437 12 44 C12.04241723 46.33294775 12.04092937 48.66702567 12 51 C10.14709648 52.85290352 7.23375369 52.21658627 4.75 52.25 C3.61046875 52.27578125 2.4709375 52.3015625 1.296875 52.328125 C-2.38272032 51.96190935 -4.11683715 51.2866464 -7 49 C-9.72949602 45.23355001 -10.36405972 42.66388168 -10.29296875 38.04296875 C-10.28330078 36.93115234 -10.27363281 35.81933594 -10.26367188 34.67382812 C-10.23853516 33.52333984 -10.21339844 32.37285156 -10.1875 31.1875 C-10.17396484 30.01767578 -10.16042969 28.84785156 -10.14648438 27.64257812 C-10.11120278 24.761248 -10.0619028 21.88086096 -10 19 C-12.31 19 -14.62 19 -17 19 C-17 16.69 -17 14.38 -17 12 C-14.69 12 -12.38 12 -10 12 C-10 8.37 -10 4.74 -10 1 C-5 0 -5 0 0 0 Z " fill="#213659" transform="translate(1036,432)"/>
<path d="M0 0 C0 3.96 0 7.92 0 12 C3.96 12 7.92 12 12 12 C12 14.64 12 17.28 12 20 C8.37 20 4.74 20 1 20 C1.33 27.59 1.66 35.18 2 43 C5.3 43.33 8.6 43.66 12 44 C12.04241723 46.33294775 12.04092937 48.66702567 12 51 C10.14709648 52.85290352 7.23375369 52.21658627 4.75 52.25 C3.61046875 52.27578125 2.4709375 52.3015625 1.296875 52.328125 C-2.32719032 51.96743603 -4.11995112 51.185569 -7 49 C-9.29174077 45.56238884 -9.29524047 44.07928385 -9.4140625 40.01953125 C-9.45273437 38.85615234 -9.49140625 37.69277344 -9.53125 36.49414062 C-9.5621875 35.27919922 -9.593125 34.06425781 -9.625 32.8125 C-9.66367187 31.58595703 -9.70234375 30.35941406 -9.7421875 29.09570312 C-9.83656103 26.06395344 -9.92214549 23.03221159 -10 20 C-12.31 19.67 -14.62 19.34 -17 19 C-17 16.69 -17 14.38 -17 12 C-14.36 12 -11.72 12 -9 12 C-9 8.37 -9 4.74 -9 1 C-5.94152152 0.45627049 -3.11227195 0 0 0 Z " fill="#23375A" transform="translate(836,432)"/>
<path d="M0 0 C3.45383685 2.35488876 4.9543281 4.07646328 6.75 7.875 C7.55908847 12.95244298 7.34603416 16.70421861 5 21.3125 C0.3776259 26.5768705 0.3776259 26.5768705 -3.6171875 27.30859375 C-9.31568474 27.31746991 -12.83051568 26.85253588 -17.25 22.875 C-19.47239862 19.46476763 -19.57853013 16.45714387 -19.625 12.4375 C-19.65335938 11.32503906 -19.68171875 10.21257813 -19.7109375 9.06640625 C-19.07345945 4.65268109 -17.02310378 2.20482784 -13.5 -0.4375 C-8.71688673 -1.89900683 -4.62931203 -1.60245416 0 0 Z " fill="#F7F8FB" transform="translate(782.25,545.125)"/>
<path d="M0 0 C4.63389453 2.1571578 6.76786688 4.46611635 9 9 C9.34057617 12.22973633 9.34057617 12.22973633 9.29296875 15.83203125 C9.2784668 17.77045898 9.2784668 17.77045898 9.26367188 19.74804688 C9.23860985 21.1028707 9.21321506 22.45768841 9.1875 23.8125 C9.17244013 25.18683445 9.15875401 26.56118468 9.14648438 27.93554688 C9.11116628 31.29076632 9.06183851 34.64518166 9 38 C6.69 38 4.38 38 2 38 C1.98541748 37.20303711 1.97083496 36.40607422 1.95581055 35.58496094 C1.88132525 31.97281876 1.78466488 28.36160026 1.6875 24.75 C1.66494141 23.49574219 1.64238281 22.24148438 1.61914062 20.94921875 C1.58369141 19.74394531 1.54824219 18.53867187 1.51171875 17.296875 C1.48553467 16.18666992 1.45935059 15.07646484 1.43237305 13.93261719 C0.95563456 10.69908656 0.28494718 9.30348015 -2 7 C-5.61930698 5.79356434 -8.19231005 5.67731441 -12 6 C-15.70390021 8.02666238 -17.65363011 9.48044516 -20 13 C-20.36749389 15.61289494 -20.36749389 15.61289494 -20.4140625 18.54296875 C-20.45273437 19.61611328 -20.49140625 20.68925781 -20.53125 21.79492188 C-20.5621875 22.91447266 -20.593125 24.03402344 -20.625 25.1875 C-20.66367187 26.31865234 -20.70234375 27.44980469 -20.7421875 28.61523438 C-20.83652533 31.4099925 -20.92211652 34.20474278 -21 37 C-22.98 37 -24.96 37 -27 37 C-27 25.12 -27 13.24 -27 1 C-25.02 1 -23.04 1 -21 1 C-21 2.65 -21 4.3 -21 6 C-20.34 6 -19.68 6 -19 6 C-18.62875 5.071875 -18.62875 5.071875 -18.25 4.125 C-14.63715142 -2.01684258 -6.16123257 -0.62072119 0 0 Z " fill="#5E87C1" transform="translate(1028,539)"/>
<path d="M0 0 C2.31 0 4.62 0 7 0 C7.0093457 0.86278564 7.01869141 1.72557129 7.02832031 2.61450195 C7.07235722 5.8186184 7.13397894 9.02177728 7.20751953 12.2253418 C7.23572797 13.61128396 7.25694333 14.99738696 7.27099609 16.38354492 C7.29242421 18.37707404 7.34117014 20.37025046 7.390625 22.36328125 C7.41157227 23.56251221 7.43251953 24.76174316 7.45410156 25.99731445 C7.72704742 29.05872149 7.72704742 29.05872149 9.79589844 30.88745117 C13.16358244 32.58733331 16.35947251 32.63709231 20 32 C24.05049189 29.89974495 26.33935032 28.23583279 28 24 C28.36324391 21.39249078 28.36324391 21.39249078 28.4140625 18.578125 C28.45273437 17.55332031 28.49140625 16.52851562 28.53125 15.47265625 C28.57765625 13.87744141 28.57765625 13.87744141 28.625 12.25 C28.66367187 11.17105469 28.70234375 10.09210937 28.7421875 8.98046875 C28.83634631 6.32048225 28.92197387 3.6605006 29 1 C30.98 1 32.96 1 35 1 C35 12.88 35 24.76 35 37 C33.02 37 31.04 37 29 37 C29 35.35 29 33.7 29 32 C28.34 32 27.68 32 27 32 C26.7525 32.61875 26.505 33.2375 26.25 33.875 C24.71469601 36.48501678 23.80846454 36.92200351 21 38 C15.53795783 38.60689357 9.17651696 39.29367169 4.3125 36.3125 C1.03835375 33.03835375 0.09742065 30.38578251 -0.22705078 25.77026367 C-0.21657715 24.58150635 -0.20610352 23.39274902 -0.1953125 22.16796875 C-0.18886719 20.87568359 -0.18242188 19.58339844 -0.17578125 18.25195312 C-0.15907327 16.8971327 -0.14214342 15.54231499 -0.125 14.1875 C-0.11496003 12.81315749 -0.10583596 11.43880797 -0.09765625 10.06445312 C-0.07411242 6.70945683 -0.04122567 3.35481801 0 0 Z " fill="#5884C0" transform="translate(953,539)"/>
<path d="M0 0 C1.06734375 -0.01160156 1.06734375 -0.01160156 2.15625 -0.0234375 C5.92429832 -0.00937762 8.80489203 0.15321039 12 2.25 C11.67 3.9 11.34 5.55 11 7.25 C10.05125 7.085 9.1025 6.92 8.125 6.75 C3.47304346 6.09358895 -1.32096137 5.74531393 -6 6.25 C-6.66 6.91 -7.32 7.57 -8 8.25 C-8.08718206 10.80045284 -8.08718206 10.80045284 -7 13.25 C-4.68304009 14.6249241 -4.68304009 14.6249241 -1.8125 15.375 C-0.81734375 15.69726562 0.1778125 16.01953125 1.203125 16.3515625 C2.12609375 16.64804687 3.0490625 16.94453125 4 17.25 C11.56711409 20.55201342 11.56711409 20.55201342 14 24.25 C14.29410093 27.43805408 13.9802371 30.20286296 13 33.25 C9.44666457 36.99035308 6.52331827 38.16445729 1.3828125 38.453125 C-0.03638568 38.47434666 -1.45568002 38.48977067 -2.875 38.5 C-3.58269531 38.520625 -4.29039063 38.54125 -5.01953125 38.5625 C-9.55727472 38.5963007 -12.35112424 37.96877017 -16 35.25 C-15.67 33.93 -15.34 32.61 -15 31.25 C-14.071875 31.415 -13.14375 31.58 -12.1875 31.75 C-2.6707113 33.17896102 -2.6707113 33.17896102 6 30.25 C5.86211774 27.80595572 5.86211774 27.80595572 5 25.25 C2.95262715 23.88048677 2.95262715 23.88048677 0.375 23.125 C-0.52734375 22.80144531 -1.4296875 22.47789062 -2.359375 22.14453125 C-3.23078125 21.84933594 -4.1021875 21.55414062 -5 21.25 C-9.88291485 19.51528025 -13.29994816 17.89408917 -16 13.25 C-16.64493618 9.38038295 -16.36435685 7.82256076 -14.25 4.5 C-9.86519475 0.11519475 -6.03467338 -0.06559428 0 0 Z " fill="#5883BE" transform="translate(1174,538.75)"/>
<path d="M0 0 C3.29279709 0.31865778 4.86535088 1.54515351 7 4 C5.64033762 6.94811409 4.04666778 9.3002153 2 11.8125 C-3.70896041 19.42908864 -3.86223208 27.74126978 -3 37 C-1.67899152 41.82292718 0.2330713 45.84960696 3 50 C2.9375 52 2.9375 52 2 54 C-0.5625 55.75 -0.5625 55.75 -3 57 C-10.870238 45.99694881 -14.18218075 35.64574348 -13 22 C-11.0171544 13.11302937 -6.37160611 6.37160611 0 0 Z " fill="#5B85C0" transform="translate(377,447)"/>
<path d="M0 0 C7.19432574 3.19403255 11.07704694 9.95961787 14 17 C17.66877921 26.7222649 16.68624682 37.40304708 13 47 C10.90908457 50.54526327 8.58440775 53.79958273 6 57 C3.53199953 55.84826645 1.95216435 54.95216435 0 53 C0.5232415 49.14109395 2.43376528 45.71573926 4.0625 42.21875 C6.90604983 35.4890154 7.16403402 27.43663253 5.31640625 20.39453125 C3.36288326 15.68500072 0.70558494 12.16649371 -2.92578125 8.60546875 C-4 7 -4 7 -3.765625 4.91015625 C-2.88315578 2.70848558 -1.77664422 1.54490802 0 0 Z " fill="#5C88C2" transform="translate(576,443)"/>
<path d="M0 0 C0 3.96 0 7.92 0 12 C3.96 12 7.92 12 12 12 C12 13.65 12 15.3 12 17 C8.04 17 4.08 17 0 17 C0.11365321 20.77149214 0.24041037 24.54174717 0.375 28.3125 C0.4059375 29.38435547 0.436875 30.45621094 0.46875 31.56054688 C0.50742188 32.58857422 0.54609375 33.61660156 0.5859375 34.67578125 C0.6173584 35.62364502 0.6487793 36.57150879 0.68115234 37.5480957 C0.8489051 40.2530269 0.8489051 40.2530269 3 43 C5.19454681 43.57993699 5.19454681 43.57993699 7.625 43.6875 C8.44226562 43.75324219 9.25953125 43.81898438 10.1015625 43.88671875 C10.72804688 43.92410156 11.35453125 43.96148438 12 44 C12 45.65 12 47.3 12 49 C0.42016647 49.76294657 0.42016647 49.76294657 -2.94140625 47.95703125 C-6.61124873 44.22146025 -7.12311643 41.37705365 -7.09765625 36.3359375 C-7.09443359 35.21445312 -7.09121094 34.09296875 -7.08789062 32.9375 C-7.07951172 31.761875 -7.07113281 30.58625 -7.0625 29.375 C-7.05798828 28.19164062 -7.05347656 27.00828125 -7.04882812 25.7890625 C-7.03701467 22.85932493 -7.02054258 19.92968728 -7 17 C-9.31 17 -11.62 17 -14 17 C-14 15.02 -14 13.04 -14 11 C-11.69 11 -9.38 11 -7 11 C-7 7.7 -7 4.4 -7 1 C-3 0 -3 0 0 0 Z " fill="#5883BF" transform="translate(1077,528)"/>
<path d="M0 0 C3.76110572 0.02155361 5.955079 0.3286021 8.875 2.75 C12.82150304 7.0000802 12.64587031 10.03001424 12.6015625 15.671875 C12.21471266 19.28944377 11.01225742 20.98378629 8.3125 23.375 C4.28637033 26.05908645 1.04433082 26.18110406 -3.6875 25.375 C-7.26089883 23.45143127 -9.38357513 21.2867746 -10.6875 17.375 C-11.73406026 7.71674392 -11.73406026 7.71674392 -8.25 3.25 C-7.404375 2.63125 -6.55875 2.0125 -5.6875 1.375 C-4.05531064 -0.25718936 -2.24806873 0.08736889 0 0 Z " fill="#F6F6F9" transform="translate(953.6875,450.625)"/>
<path d="M0 0 C0.99 0.66 1.98 1.32 3 2 C3 2.66 3 3.32 3 4 C2.34 4 1.68 4 1 4 C1.33 5.65 1.66 7.3 2 9 C2.99 8.67 3.98 8.34 5 8 C5.144375 9.11375 5.28875 10.2275 5.4375 11.375 C5.78372035 14.82142047 5.78372035 14.82142047 7 17 C6.01 17 5.02 17 4 17 C4 17.66 4 18.32 4 19 C2.27906524 20.32103086 0.46701945 21.4347959 -1.37109375 22.5859375 C-3.33574032 24.29145802 -3.61784075 25.47021342 -4 28 C-11.16020286 27.14638151 -15.89228414 26.24576223 -21 21 C-20.15975729 15.57984283 -16.06765511 13.26113729 -12 10 C-11.27296875 9.41089844 -10.5459375 8.82179688 -9.796875 8.21484375 C-4.4162234 4 -4.4162234 4 -1 4 C-0.67 2.68 -0.34 1.36 0 0 Z " fill="#5A83BE" transform="translate(531,468)"/>
<path d="M0 0 C3.14756649 1.38082898 5.13883972 2.94799155 7.453125 5.4765625 C8.071875 6.146875 8.690625 6.8171875 9.328125 7.5078125 C9.96234375 8.20648437 10.5965625 8.90515625 11.25 9.625 C11.8996875 10.33140625 12.549375 11.0378125 13.21875 11.765625 C14.81775785 13.50572178 16.41122239 15.25056662 18 17 C13.57059968 21.55913171 10.43172535 23.08418465 4.0625 23.4375 C0.39902525 23.3773534 -1.71108501 22.9598543 -4.5625 20.625 C-7.86076084 17.07302679 -8.39990774 14.98985116 -8.35546875 10.1015625 C-7.72310439 6.36296879 -5.67682885 4.61457701 -3 2 C-2.01 1.34 -1.02 0.68 0 0 Z " fill="#F5F7FA" transform="translate(648,549)"/>
<path d="M0 0 C4.11619657 1.52451725 6.59958646 4.44603084 9 8 C11.36741514 13.29850054 12.08039884 18.09884933 10.01953125 23.6328125 C6.76130038 30.67059118 6.76130038 30.67059118 3.96875 31.87890625 C2 32 2 32 -0.25 30.5625 C-0.8275 30.046875 -1.405 29.53125 -2 29 C-1.38722388 26.03824877 -0.74627478 24.61941217 1 22 C1.67645749 18.2616823 1.96720764 14.49002258 -0.15625 11.21875 C-0.85234375 10.46078125 -0.85234375 10.46078125 -1.5625 9.6875 C-4 7 -4 7 -4 4.8125 C-2.90492256 2.82767214 -1.70630634 1.48374464 0 0 Z " fill="#608AC2" transform="translate(563,456)"/>
<path d="M0 0 C3.5 1.5 3.5 1.5 6 3 C3.91530056 7.42998631 1.14549539 9.55209157 -2.7265625 12.30859375 C-6.71086381 15.27285915 -10.33365749 18.65615984 -14 22 C-16 21 -16 21 -17 18 C-17.36617651 12.41580827 -17.2546741 8.77352202 -14 4 C-9.5347617 0.05397546 -5.76210742 -0.99464949 0 0 Z " fill="#648BC0" transform="translate(524,463)"/>
<path d="M0 0 C2.43003677 0.9406594 3.72074209 1.49384505 5 3.8125 C5 6 5 6 3.0625 8.125 C0.08561649 12.27459519 0.28047581 16.03691836 1 21 C2.4421908 23.85248773 2.4421908 23.85248773 4 26 C2.86695008 29.39914975 1.87481525 30.05254451 -1 32 C-4.13807951 30.91790362 -4.96907788 30.05268214 -6.6875 27.125 C-8.92700536 21.79284439 -9.85094596 16.76752264 -9 11 C-7.02094193 6.42441773 -4.35072971 2.5782102 0 0 Z " fill="#5681BA" transform="translate(391,460)"/>
<path d="M0 0 C1.98 0 3.96 0 6 0 C6 1.65 6 3.3 6 5 C6.66 5 7.32 5 8 5 C8 4.34 8 3.68 8 3 C8.99 3.33 9.98 3.66 11 4 C9.87548273 6.9719385 8.77706209 9.33440687 7 12 C6.63250611 14.61289494 6.63250611 14.61289494 6.5859375 17.54296875 C6.54726563 18.61611328 6.50859375 19.68925781 6.46875 20.79492188 C6.4378125 21.91447266 6.406875 23.03402344 6.375 24.1875 C6.33632813 25.31865234 6.29765625 26.44980469 6.2578125 27.61523438 C6.16347467 30.4099925 6.07788348 33.20474278 6 36 C4.02 36 2.04 36 0 36 C0 24.12 0 12.24 0 0 Z " fill="#4D7BBC" transform="translate(1001,540)"/>
<path d="M0 0 C1.98 0 3.96 0 6 0 C6 11.88 6 23.76 6 36 C4.02 36 2.04 36 0 36 C0 24.12 0 12.24 0 0 Z " fill="#517FC1" transform="translate(1098,540)"/>
<path d="M0 0 C1.98 0 3.96 0 6 0 C6 11.88 6 23.76 6 36 C4.02 36 2.04 36 0 36 C0 24.12 0 12.24 0 0 Z " fill="#4D7DBD" transform="translate(1049,540)"/>
<path d="M0 0 C2.80331644 1.34373846 3.87696295 2.55850739 6 5 C6.33 6.98 6.66 8.96 7 11 C-0.92 11 -8.84 11 -17 11 C-15.91910497 5.59552487 -14.98080159 4.49533798 -11 1 C-7.5053413 -0.74732935 -3.81294193 -0.56298471 0 0 Z " fill="#EFF2F7" transform="translate(1138,544)"/>
<path d="M0 0 C2.4375 1.625 2.4375 1.625 4 4 C4.5625 6.9375 4.5625 6.9375 4 10 C1.625 12.75 1.625 12.75 -1 15 C-1.66 15.66 -2.32 16.32 -3 17 C-6.30605753 17 -7.37202341 15.65277815 -9.8125 13.375 C-11.9327156 10.65929175 -11.99992404 10.00448146 -12.0625 6.3125 C-11 3 -11 3 -9.375 1.0625 C-6.02317947 -0.43699866 -3.63019782 -0.45377473 0 0 Z " fill="#F4F6FA" transform="translate(657,524)"/>
<path d="M0 0 C3.0173817 1.31190509 4.51255819 2.25723153 6.3125 5 C7 7 7 7 7 10 C0.07 10 -6.86 10 -14 10 C-13 4 -13 4 -10.9375 1.625 C-7.12748437 -0.48266822 -4.26207502 -0.71609762 0 0 Z " fill="#EAECF1" transform="translate(750,450)"/>
<path d="M0 0 C0.66 0.28875 1.32 0.5775 2 0.875 C1.67 2.855 1.34 4.835 1 6.875 C-6.34467941 5.25668081 -13.67349113 3.57357238 -21 1.875 C-21 0.885 -21 -0.105 -21 -1.125 C-22.65 -1.125 -24.3 -1.125 -26 -1.125 C-18.15531773 -5.74383162 -7.99491792 -2.99809422 0 0 Z " fill="#5D87C1" transform="translate(747,521.125)"/>
<path d="M0 0 C0.99 0.33 1.98 0.66 3 1 C2.01 1.33 1.02 1.66 0 2 C0 2.66 0 3.32 0 4 C-1.72093476 5.32103086 -3.53298055 6.4347959 -5.37109375 7.5859375 C-7.43173395 9.10170826 -7.43173395 9.10170826 -8 13 C-11.63 12.34 -15.26 11.68 -19 11 C-19 10.01 -19 9.02 -19 8 C-18.34 7.67 -17.68 7.34 -17 7 C-18.32 6.67 -19.64 6.34 -21 6 C-15.25 2 -15.25 2 -13 2 C-12.34 3.32 -11.68 4.64 -11 6 C-9.53919067 5.38080922 -8.08142545 4.75443308 -6.625 4.125 C-5.81289063 3.77695312 -5.00078125 3.42890625 -4.1640625 3.0703125 C-1.86197701 2.07553933 -1.86197701 2.07553933 0 0 Z " fill="#7CA0CE" transform="translate(535,483)"/>
<path d="M0 0 C0.99 0.495 0.99 0.495 2 1 C2.8515625 3.72265625 2.8515625 3.72265625 3.625 7.0625 C3.88539063 8.16722656 4.14578125 9.27195312 4.4140625 10.41015625 C4.60742188 11.26480469 4.80078125 12.11945312 5 13 C5.83772949 13.02505615 6.67545898 13.0501123 7.53857422 13.07592773 C10.64352256 13.17100357 13.74830181 13.27024025 16.85302734 13.37231445 C18.85894807 13.43698251 20.86502228 13.49683106 22.87109375 13.55664062 C24.12792969 13.59853516 25.38476562 13.64042969 26.6796875 13.68359375 C27.84226074 13.72025146 29.00483398 13.75690918 30.20263672 13.79467773 C33 14 33 14 35 15 C35.33 14.34 35.66 13.68 36 13 C36.99 13.99 37.98 14.98 39 16 C27.12 16 15.24 16 3 16 C2.01 10.72 1.02 5.44 0 0 Z " fill="#6283B2" transform="translate(410,598)"/>
<path d="M0 0 C0.48059701 6.24776119 0.48059701 6.24776119 -1.4375 9.25 C-5.0283058 11.70225762 -8.83975735 12.82659823 -13 14 C-13.33 12.68 -13.66 11.36 -14 10 C-13.51789062 9.68546875 -13.03578125 9.3709375 -12.5390625 9.046875 C-8.93990714 6.60826361 -6.85305505 4.9911955 -5 1 C-3.24759171 0.36276062 -1.86049542 0 0 0 Z " fill="#547DB7" transform="translate(536,476)"/>
<path d="M0 0 C1 1 1 1 1.25 3.375 C1 6 1 6 -0.1875 7.875 C-2 9 -2 9 -4.5625 8.8125 C-7 8 -7 8 -9 6 C-8.75 2.9375 -8.75 2.9375 -8 0 C-5.11795733 -1.44102133 -3.08226581 -0.65580124 0 0 Z " fill="#6389C0" transform="translate(1105,522)"/>
<path d="M0 0 C3.29714793 0.32971479 4.6226839 0.6226839 7 3 C6.67028521 6.29714793 6.3773161 7.6226839 4 10 C0.70285207 9.67028521 -0.6226839 9.3773161 -3 7 C-2.67028521 3.70285207 -2.3773161 2.3773161 0 0 Z " fill="#5F88C0" transform="translate(1050,521)"/>
<path d="M0 0 C0 0.99 0 1.98 0 3 C-0.99 3.66 -1.98 4.32 -3 5 C-4.00932746 7.95034182 -4.24408113 9.3979332 -3.0625 12.3125 C-2.711875 12.869375 -2.36125 13.42625 -2 14 C-1.34 14 -0.68 14 0 14 C0.33 14.99 0.66 15.98 1 17 C-0.98 18.32 -2.96 19.64 -5 21 C-7.4929371 17.26059435 -7.54294737 13.33522596 -7 9 C-5.41427168 4.79781995 -3.82796555 2.37597862 0 0 Z " fill="#769ACB" transform="translate(514,464)"/>
<path d="M0 0 C7.425 0.99 7.425 0.99 15 2 C15 2.33 15 2.66 15 3 C13.35 3 11.7 3 10 3 C9.67 4.32 9.34 5.64 9 7 C3.60155422 6.65171318 3.60155422 6.65171318 1 6 C-0.5625 4.0625 -0.5625 4.0625 -1 2 C-0.67 1.34 -0.34 0.68 0 0 Z " fill="#5E8AC5" transform="translate(1159,570)"/>
<path d="M0 0 C1.125 6.75 1.125 6.75 0 9 C-1.98 9 -3.96 9 -6 9 C-6 8.01 -6 7.02 -6 6 C-5.34 5.67 -4.68 5.34 -4 5 C-5.32 4.67 -6.64 4.34 -8 4 C-2.25 0 -2.25 0 0 0 Z " fill="#93B1D7" transform="translate(522,485)"/>
<path d="M0 0 C0.66 0 1.32 0 2 0 C2 2.25 2 2.25 1 5 C-0.87275075 5.93637537 -2.75330905 6.86070881 -4.671875 7.69921875 C-8.38641074 9.77462211 -11.03195944 12.79667617 -13.921875 15.87890625 C-15.83648667 17.83310576 -17.76842111 19.4268374 -20 21 C-19.49042885 16.90490097 -17.47594342 15.2691416 -14.4375 12.625 C-13.5403125 11.84253906 -12.643125 11.06007813 -11.71875 10.25390625 C-8.72684603 7.77354908 -5.67003884 5.43296506 -2.49609375 3.19140625 C-0.85101934 2.05294241 -0.85101934 2.05294241 0 0 Z " fill="#CEDCED" transform="translate(529,467)"/>
<path d="M0 0 C0 1.65 0 3.3 0 5 C-3.96 5 -7.92 5 -12 5 C-9.02548236 -0.94903528 -6.19095418 -0.11681046 0 0 Z " fill="#658DC1" transform="translate(1089,540)"/>
<path d="M0 0 C1.32 1.32 2.64 2.64 4 4 C3.01 4.66 2.02 5.32 1 6 C2.32 6 3.64 6 5 6 C4.67 6.99 4.34 7.98 4 9 C1.15673536 9.23053497 -0.46145349 9.35903101 -2.875 7.75 C-4 6 -4 6 -3.875 3.9375 C-3 2 -3 2 0 0 Z " fill="#628BC4" transform="translate(514,483)"/>
<path d="M0 0 C1.15064549 1.72596823 2.29830974 3.45394961 3.4375 5.1875 C3.953125 5.785625 4.46875 6.38375 5 7 C5.99 7 6.98 7 8 7 C6.35 8.65 4.7 10.3 3 12 C1 11 1 11 0 8 C-0.12781786 5.32605036 -0.04391871 2.67904143 0 0 Z " fill="#9FB9DD" transform="translate(507,473)"/>
<path d="M0 0 C0.66 0.33 1.32 0.66 2 1 C-1.01148016 4.47478479 -3.50735835 5.97043629 -8 7 C-10.1875 6.54296875 -10.1875 6.54296875 -12 6 C-10.04669132 4.96958487 -8.08718472 3.9509107 -6.125 2.9375 C-5.03445313 2.36902344 -3.94390625 1.80054688 -2.8203125 1.21484375 C-1.42425781 0.61349609 -1.42425781 0.61349609 0 0 Z " fill="#CFD5E3" transform="translate(479,570)"/>
<path d="M0 0 C2.82928932 2.55071314 4.67893264 5.46621272 6.6875 8.6875 C7.31011719 9.68136719 7.93273437 10.67523437 8.57421875 11.69921875 C9.04472656 12.45847656 9.51523437 13.21773437 10 14 C9.01 14.66 8.02 15.32 7 16 C5.82845707 13.71070947 4.66261926 11.41881638 3.5 9.125 C3.16613281 8.47402344 2.83226562 7.82304688 2.48828125 7.15234375 C0 2.2265625 0 2.2265625 0 0 Z " fill="#D0D7E3" transform="translate(408,560)"/>
<path d="M0 0 C0.66 0.33 1.32 0.66 2 1 C0.60415208 4.37329915 -0.92365611 6.04232662 -4 8 C-4.99 8.33 -5.98 8.66 -7 9 C-5.64978174 4.58110387 -3.73884332 2.65654657 0 0 Z " fill="#E6E9F0" transform="translate(486,565)"/>
<path d="M0 0 C0.66 0.99 1.32 1.98 2 3 C1.34 4.32 0.68 5.64 0 7 C-0.66 6.67 -1.32 6.34 -2 6 C-2 4.35 -2 2.7 -2 1 C-1.34 0.67 -0.68 0.34 0 0 Z " fill="#C1D3EA" transform="translate(534,471)"/>
<path d="M0 0 C-1.28519565 2.86697492 -2.57129254 4.97607712 -5 7 C-5.66 7 -6.32 7 -7 7 C-3.86206897 0 -3.86206897 0 0 0 Z " fill="#33486B" transform="translate(942,446)"/>
</svg>
