<?xml version="1.0" encoding="UTF-8"?>
<svg version="1.1" xmlns="http://www.w3.org/2000/svg" width="1536" height="1024">
<path d="M0 0 C506.88 0 1013.76 0 1536 0 C1536 337.92 1536 675.84 1536 1024 C1029.12 1024 522.24 1024 0 1024 C0 686.08 0 348.16 0 0 Z " fill="#FBFAFB" transform="translate(0,0)"/>
<path d="M0 0 C0.63099609 0.19907959 1.26199219 0.39815918 1.91210938 0.60327148 C4.00472485 1.28900007 6.0622408 2.04186376 8.125 2.8125 C9.64513893 3.36389733 11.16597907 3.91336519 12.6875 4.4609375 C13.42742187 4.72745117 14.16734375 4.99396484 14.9296875 5.26855469 C19.8969369 7.02349327 24.95338621 8.49324006 30 10 C33.01889173 10.90492578 36.03704967 11.81218112 39.05419922 12.72290039 C41.1668803 13.36057823 43.28047588 13.99523488 45.39501953 14.62670898 C46.84690674 15.06478882 46.84690674 15.06478882 48.328125 15.51171875 C49.2037207 15.77428467 50.07931641 16.03685059 50.98144531 16.30737305 C53 17 53 17 54 18 C54.08651611 19.41570123 54.10704904 20.835595 54.09765625 22.25390625 C54.09443359 23.10791016 54.09121094 23.96191406 54.08789062 24.84179688 C54.07951172 25.73962891 54.07113281 26.63746094 54.0625 27.5625 C54.05798828 28.46419922 54.05347656 29.36589844 54.04882812 30.29492188 C54.03700225 32.53001314 54.0205222 34.76497437 54 37 C62.655811 39.37539928 71.32689071 41.68717085 80 44 C80 62.15 80 80.3 80 99 C73.565 99.99 73.565 99.99 67 101 C60.5120281 103.71589521 52.33637941 107.32724118 49 114 C48.34 114 47.68 114 47 114 C45.89572571 112.18242421 44.86742136 110.31848467 43.875 108.4375 C37.66853357 97.61433826 28.95584055 91.88563174 16.93041992 88.40014648 C11.32833985 87.02035103 5.9435808 86.64900712 0.1875 86.6875 C-1.12516846 86.69487183 -1.12516846 86.69487183 -2.46435547 86.70239258 C-17.13952862 86.9669201 -29.04603973 91.50426163 -39.79296875 101.57421875 C-42.94168889 105.03502442 -45.09001617 108.74777285 -47 113 C-50.68389049 113 -51.0119183 112.30983364 -53.5625 109.8125 C-59.7295705 104.21329971 -65.79925664 101.36679056 -74 100 C-74 84.16 -74 68.32 -74 52 C-59 45 -59 45 -53 44 C-53 36.74 -53 29.48 -53 22 C-42.58977153 16.42011754 -32.12796029 10.942795 -21.54141235 5.70394897 C-19.77318986 4.82403982 -18.01382451 3.92640415 -16.25463867 3.02856445 C-6.07078922 -1.9645133 -6.07078922 -1.9645133 0 0 Z " fill="#598BD1" transform="translate(469,366)"/>
<path d="M0 0 C0.66 0 1.32 0 2 0 C3.42966222 6.90398138 4.85319554 13.80920591 6.27246094 20.71533203 C6.75607294 23.06490738 7.24109086 25.4141938 7.72753906 27.76318359 C8.42622164 31.13824822 9.11985313 34.51431723 9.8125 37.890625 C10.03123779 38.94179504 10.24997559 39.99296509 10.4753418 41.07598877 C10.67554932 42.05670349 10.87575684 43.03741821 11.08203125 44.04785156 C11.25968018 44.90944885 11.4373291 45.77104614 11.62036133 46.65875244 C12 49 12 49 12 53 C12.66 53 13.32 53 14 53 C14.12246094 51.73542969 14.24492187 50.47085938 14.37109375 49.16796875 C15.06822612 42.88640036 16.36150025 36.73987938 17.62695312 30.55273438 C19.53240108 22.17400761 19.53240108 22.17400761 17.5 14.125 C17.005 13.42375 16.51 12.7225 16 12 C21.04 7.2 21.04 7.2 25 6.375 C29.14979442 7.23954051 30.94903394 9.09431804 34 12 C32.125 15.875 32.125 15.875 31 17 C30.48961223 23.56212842 32.05876543 29.62740608 33.5 36 C36.36082474 48.64948454 36.36082474 48.64948454 36 55 C36.66 55 37.32 55 38 55 C37.93232422 53.36224609 37.93232422 53.36224609 37.86328125 51.69140625 C37.86921801 46.27826637 39.02037828 41.20265906 40.1875 35.9375 C40.40946045 34.90560547 40.6314209 33.87371094 40.86010742 32.81054688 C41.56572862 29.53864711 42.28267784 26.26935221 43 23 C43.48252299 20.7722982 43.96430173 18.54443506 44.4453125 16.31640625 C45.62160161 10.87570735 46.80718297 5.43709784 48 0 C50.60793781 0.96866262 52.94416555 1.96506137 55.30737305 3.44384766 C58.12909231 5.07460643 60.79851565 6.0780012 63.89453125 7.0859375 C65.01537109 7.45976563 66.13621094 7.83359375 67.29101562 8.21875 C69.62578076 8.98535064 71.96171083 9.74841304 74.29882812 10.5078125 C82.15995707 13.13870035 89.97266436 15.87979679 95.375 22.5 C96.06722656 23.31984375 96.06722656 23.31984375 96.7734375 24.15625 C101.77695928 31.67746746 101.09166731 41.30339855 101.3125 50 C101.36857422 51.8871875 101.36857422 51.8871875 101.42578125 53.8125 C101 57 101 57 99.29248047 58.58959961 C96.84451449 60.09565919 94.6456698 60.93099312 91.89453125 61.75390625 C90.41823242 62.19959961 90.41823242 62.19959961 88.91210938 62.65429688 C87.88923828 62.95400391 86.86636719 63.25371094 85.8125 63.5625 C84.80896484 63.86607422 83.80542969 64.16964844 82.77148438 64.48242188 C42.31631614 76.56369853 -11.53746912 77.23268283 -50.49609375 58.8203125 C-50.99238281 58.54960938 -51.48867188 58.27890625 -52 58 C-52.47643476 45.7450391 -52.95888671 30.08067446 -44.5703125 20.33984375 C-39.08323931 14.99716722 -32.09710865 13.16986624 -24.89453125 11.11328125 C-11.52416569 7.37220575 -11.52416569 7.37220575 0 0 Z " fill="#23395F" transform="translate(444,554)"/>
<path d="M0 0 C4.80824615 2.79656566 9.11547666 5.74396941 10.84790039 11.28857422 C11.2611399 13.43280301 11.42363385 15.45120831 11.49609375 17.6328125 C11.52896484 18.42300781 11.56183594 19.21320313 11.59570312 20.02734375 C11.6571855 21.68344348 11.7144389 23.33970532 11.76757812 24.99609375 C11.80173828 25.78371094 11.83589844 26.57132812 11.87109375 27.3828125 C11.8961499 28.10098145 11.92120605 28.81915039 11.94702148 29.55908203 C12.11061325 31.62301076 12.11061325 31.62301076 14.25 33.375 C14.51747955 37.91323638 13.74213371 41.5711816 11.375 45.4375 C9.25 47.375 9.25 47.375 6.25 47.375 C6.1675 48.055625 6.085 48.73625 6 49.4375 C5.25 52.375 5.25 52.375 3.1875 55.6875 C1.29103503 58.94262644 0.30478439 61.66795852 0.58984375 65.46875 C1.75676393 68.83831832 3.95037168 70.11315793 6.94921875 71.8828125 C12.15142989 74.23458132 17.5718117 75.91159553 22.99072266 77.69287109 C29.84959048 80.02898369 35.5122392 82.7072068 39.30175781 89.16821289 C40.38586907 91.69119994 40.56387073 93.62079994 40.6640625 96.359375 C40.70273437 97.29394531 40.74140625 98.22851562 40.78125 99.19140625 C40.8121875 100.15949219 40.843125 101.12757813 40.875 102.125 C40.91367187 103.10855469 40.95234375 104.09210938 40.9921875 105.10546875 C41.08628426 107.52846037 41.17192328 109.95144796 41.25 112.375 C39.56551982 113.17307198 37.87723873 113.96312301 36.1875 114.75 C35.24777344 115.19085937 34.30804687 115.63171875 33.33984375 116.0859375 C26.96306287 118.74628856 20.47947965 119.97989941 13.6875 121 C12.81577148 121.13188721 11.94404297 121.26377441 11.04589844 121.3996582 C3.72907606 122.43887269 -3.35743158 122.7054625 -10.75 122.375 C-10.89695312 121.28703125 -11.04390625 120.1990625 -11.1953125 119.078125 C-12.91233032 107.43243838 -15.20098245 96.57082857 -24.72998047 88.76489258 C-28.21161875 86.36932009 -31.97688538 84.97630555 -35.9375 83.5625 C-36.73091797 83.26408203 -37.52433594 82.96566406 -38.34179688 82.65820312 C-41.78632021 81.37699084 -45.16992616 80.21904987 -48.75 79.375 C-48.75 78.715 -48.75 78.055 -48.75 77.375 C-47.595 76.9625 -46.44 76.55 -45.25 76.125 C-39.77248671 74.07214866 -34.61978342 71.62152228 -29.75 68.375 C-28.87881119 62.16777969 -30.25063834 58.69307716 -33.55859375 53.453125 C-34.7313489 51.40753241 -35.29900141 49.67664797 -35.75 47.375 C-36.513125 47.33375 -37.27625 47.2925 -38.0625 47.25 C-40.75 46.375 -40.75 46.375 -42.5625 43.75 C-43.87357538 40.02378577 -44.12708999 37.29673588 -43.75 33.375 C-43.09 32.715 -42.43 32.055 -41.75 31.375 C-41.48906558 27.69955235 -41.3836446 24.06181815 -41.359375 20.37890625 C-41.18724567 14.61257364 -40.08156218 10.15554474 -36.75 5.375 C-34.27734375 3.09765625 -34.27734375 3.09765625 -31.6875 1.4375 C-30.83027344 0.87160156 -29.97304688 0.30570312 -29.08984375 -0.27734375 C-20.87544463 -5.00850852 -8.3121208 -3.96456073 0 0 Z " fill="#5286CE" transform="translate(564.75,476.625)"/>
<path d="M0 0 C5.90221373 3.52548337 9.68126411 7.417135 12.3125 13.8125 C12.74580582 16.89343442 12.82236098 19.95429134 12.875 23.0625 C12.61531697 28.9610821 12.61531697 28.9610821 15.3125 33.8125 C15.57621349 38.28683883 14.88333011 41.93722717 12.4375 45.6875 C11.25640706 46.86859294 10.06712744 48.04216872 8.84765625 49.18359375 C5.05815133 53.20451882 2.07608874 58.45247878 1.5 64 C2.50732074 68.72665887 3.93574533 69.91349963 7.8671875 72.4921875 C11.87341196 74.65529272 16.01752832 76.31630085 20.3125 77.8125 C19.3125 79.8125 19.3125 79.8125 16.3203125 80.8203125 C15.70269043 80.99796143 15.08506836 81.17561035 14.44873047 81.35864258 C5.02358924 84.07131675 -3.66360224 88.1538499 -9.625 96.3125 C-13.90795187 104.13083396 -15.33489978 114.12880659 -16.6875 122.8125 C-34.86609999 123.63741126 -51.86040401 120.62714307 -68.6875 113.8125 C-68.63535974 110.26965903 -68.5402229 106.72920685 -68.4375 103.1875 C-68.42332031 102.18847656 -68.40914063 101.18945312 -68.39453125 100.16015625 C-68.19783546 94.2199435 -67.72868691 90.46989626 -63.6875 85.8125 C-62.83865234 84.72582031 -62.83865234 84.72582031 -61.97265625 83.6171875 C-58.66903193 81.00817137 -55.12688979 80.11049616 -51.125 78.9375 C-44.513565 76.88673081 -38.61839741 74.50239196 -32.65625 70.9140625 C-30.6875 69.8125 -30.6875 69.8125 -28.6875 69.8125 C-28.03058892 63.50615366 -28.76303031 59.70791957 -32.49609375 54.5390625 C-33.6875 52.8125 -33.6875 52.8125 -34.6875 49.8125 C-35.63882813 49.34070313 -35.63882813 49.34070313 -36.609375 48.859375 C-40.22488383 47.03802845 -41.37702496 43.49821106 -42.6875 39.8125 C-42.9375 36.3125 -42.9375 36.3125 -42.6875 33.8125 C-40.7075 33.3175 -40.7075 33.3175 -38.6875 32.8125 C-38.92339844 32.06226563 -38.92339844 32.06226563 -39.1640625 31.296875 C-40.64526929 24.26666965 -41.33505881 14.46251029 -37.625 8.125 C-29.01306228 -2.89536098 -12.51893667 -5.98649904 0 0 Z " fill="#5488D0" transform="translate(400.6875,476.1875)"/>
<path d="M0 0 C5.6293223 4.04658531 10.66670355 8.46372702 12.6796875 15.3125 C13.1047526 18.87889985 13.14484583 22.4145204 13.125 26 C13.12886719 26.69867188 13.13273437 27.39734375 13.13671875 28.1171875 C13.12963657 31.87074298 12.89787023 35.35151145 12 39 C13.32 39.66 14.64 40.32 16 41 C16.53456823 47.56924952 16.68294834 52.36010533 12.484375 57.66015625 C11 59 11 59 9.02734375 59.8046875 C6.02300598 61.57603116 5.26016986 63.94014778 3.8125 67.0625 C1.04484305 72.95515695 1.04484305 72.95515695 0 74 C0 75.03125 0 76.0625 0 77.125 C-0.48599556 80.93457814 -2.17308657 82.39847574 -5.125 84.75 C-10.94991716 88.83846709 -16.2201273 91.72642381 -23.52734375 91.48828125 C-30.17725528 90.17510757 -36.62263642 86.13208144 -41 81 C-41.12375 79.96875 -41.2475 78.9375 -41.375 77.875 C-42.13046527 73.1911153 -44.02962102 70.33523375 -46.625 66.4296875 C-48.05082692 63.91018653 -48.59441631 61.84922539 -49 59 C-49.763125 58.9175 -50.52625 58.835 -51.3125 58.75 C-54.64465346 57.82009671 -55.31134332 56.97525224 -57 54 C-59.08496434 49.30883025 -59.22367923 45.98884609 -58 41 C-57.49138428 40.54069092 -56.98276855 40.08138184 -56.45874023 39.6081543 C-54.41741628 37.3577441 -54.710289 35.94980936 -54.84765625 32.95703125 C-54.87537109 31.96509766 -54.90308594 30.97316406 -54.93164062 29.95117188 C-55.01807431 27.87805338 -55.10913196 25.8051219 -55.20507812 23.73242188 C-55.41583354 15.76997957 -54.07996117 10.80027467 -49.0625 4.609375 C-35.64197219 -7.48943416 -15.6454499 -8.81911539 0 0 Z " fill="#22395F" transform="translate(490,466)"/>
<path d="M0 0 C6.46102643 2.31621702 11.00028396 6.87346131 14 13 C14.31689168 15.70928111 14.47726069 18.11224438 14.4375 20.8125 C14.42992676 21.52446533 14.42235352 22.23643066 14.41455078 22.9699707 C14.21161308 29.43657304 13.06358664 33.90441767 8.50390625 38.51171875 C2.86211901 43.42190266 -0.72864667 44.42938546 -8.0390625 44.33203125 C-12.54021971 43.82728407 -14.8180308 42.1819692 -18 39 C-18.33 46.26 -18.66 53.52 -19 61 C-22.3 61 -25.6 61 -29 61 C-29 41.2 -29 21.4 -29 1 C-26.03 1 -23.06 1 -20 1 C-19.34 2.65 -18.68 4.3 -18 6 C-17.05125 5.195625 -16.1025 4.39125 -15.125 3.5625 C-10.28870994 -0.53783288 -6.23086616 -0.52803951 0 0 Z " fill="#2A4167" transform="translate(772,441)"/>
<path d="M0 0 C4.60126177 3.52437072 8.43063666 7.49652179 9.9375 13.25 C10.54854212 20.58250542 9.06296047 26.65306689 5.3125 33 C0.32524723 37.72476578 -4.59078469 40.54466196 -11.5625 40.75 C-20.04035016 40.28821766 -25.77219115 38.28018453 -31.65234375 32.06640625 C-36.44775455 25.88949206 -35.70240906 18.71293946 -35.0625 11.25 C-33.48600358 5.83079355 -29.61140538 2.39924219 -25.0625 -0.75 C-16.48806968 -5.17952936 -8.41927417 -4.81101381 0 0 Z " fill="#283F63" transform="translate(694.0625,444.75)"/>
<path d="M0 0 C5.71547632 3.23876991 8.71719103 6.28126009 10.9375 12.625 C11.20861115 14.03424113 11.43549966 15.45248412 11.625 16.875 C11.73199219 17.67292969 11.83898437 18.47085937 11.94921875 19.29296875 C12.37091906 25.3373398 11.02837706 29.05546081 7.4140625 33.89453125 C3.54347658 38.17921915 -0.86590053 41.58021297 -6.79296875 42.078125 C-14.93530365 42.21593603 -21.809413 41.20705207 -28.0546875 35.5078125 C-32.48190508 30.03273277 -34.09750296 23.18615268 -33.75 16.2578125 C-32.79247526 10.17354072 -30.26212386 6.27579258 -25.4375 2.5 C-17.54696961 -3.11592422 -8.85776687 -4.11773617 0 0 Z " fill="#2A4064" transform="translate(825.375,443.125)"/>
<path d="M0 0 C12.87 0 25.74 0 39 0 C39 2.97 39 5.94 39 9 C29.76 9 20.52 9 11 9 C11 14.61 11 20.22 11 26 C19.25 26 27.5 26 36 26 C36 28.64 36 31.28 36 34 C27.75 34 19.5 34 11 34 C11 39.94 11 45.88 11 52 C20.24 52 29.48 52 39 52 C39 54.64 39 57.28 39 60 C26.13 60 13.26 60 0 60 C0 40.2 0 20.4 0 0 Z " fill="#294066" transform="translate(1021,424)"/>
<path d="M0 0 C5.00330085 2.84163131 8.92457418 6.96122253 10.75 12.4375 C10.75 16.0675 10.75 19.6975 10.75 23.4375 C0.85 23.4375 -9.05 23.4375 -19.25 23.4375 C-17.06940167 30.28575895 -17.06940167 30.28575895 -13.25 32.4375 C-10.02119237 32.7188129 -10.02119237 32.7188129 -6.4375 32.625 C-4.63345703 32.61533203 -4.63345703 32.61533203 -2.79296875 32.60546875 C0.47115056 32.45071998 3.54407346 32.05119191 6.75 31.4375 C8.2106285 34.08488916 8.75 35.33198334 8.75 38.4375 C0.93022976 42.96367192 -7.05745606 43.99717202 -15.87109375 41.77734375 C-22.42686345 39.22357849 -26.45514908 34.9456177 -29.625 28.75 C-30.88027965 22.09701785 -31.72649088 15.14928537 -28.25 9.0625 C-21.54820881 -0.10937994 -10.87891837 -4.90494586 0 0 Z " fill="#2A4166" transform="translate(1138.25,442.5625)"/>
<path d="M0 0 C3.2902912 2.86439056 4.6779283 5.27918732 6.5390625 9.33984375 C6.5390625 13.29984375 6.5390625 17.25984375 6.5390625 21.33984375 C-3.3609375 21.33984375 -13.2609375 21.33984375 -23.4609375 21.33984375 C-20.50613837 28.93950911 -20.50613837 28.93950911 -17.1484375 30.83984375 C-9.70768355 32.22417007 -3.55768991 30.49581916 3.5390625 28.33984375 C4.0340625 32.29984375 4.0340625 32.29984375 4.5390625 36.33984375 C-2.65615414 40.93678771 -10.42457193 41.61329629 -18.8125 39.84375 C-24.40353444 37.93330001 -28.89603016 35.22381195 -31.75390625 29.95703125 C-34.52679342 23.31345858 -35.40404451 17.33709613 -33.4609375 10.33984375 C-30.52087872 3.94031581 -26.8826473 0.14204439 -20.4609375 -2.66015625 C-14.03745379 -4.91705593 -5.65334742 -3.76443276 0 0 Z " fill="#2A4165" transform="translate(984.4609375,444.66015625)"/>
<path d="M0 0 C0.74709229 -0.00056396 1.49418457 -0.00112793 2.26391602 -0.00170898 C8.38542146 0.11954175 13.34406012 1.42953166 18.75 4.375 C19.41 4.705 20.07 5.035 20.75 5.375 C19.76 8.345 18.77 11.315 17.75 14.375 C12.75 12.375 12.75 12.375 10.5078125 11.328125 C4.11247776 9.11783934 -3.68202121 9.20364125 -9.8125 12 C-15.81191741 17.8455862 -18.40084793 21.900438 -18.6875 30.5 C-18.74070258 36.56728046 -17.88947833 40.85473083 -14.00390625 45.6328125 C-9.40210636 50.2038654 -5.93357928 51.60033868 0.625 51.875 C5.71848736 51.72142752 9.52047845 50.61694543 14.0078125 48.25 C15.75 47.375 15.75 47.375 17.75 47.375 C19.3125 50.1875 19.3125 50.1875 20.75 53.375 C19.57031573 56.9140528 18.91393858 57.28278455 15.75 59.0625 C7.70495892 62.87695913 -1.75398808 62.6266363 -10.3203125 60.67578125 C-19.05390469 57.51085564 -24.91822788 51.94596499 -29.15234375 43.71484375 C-32.00473102 35.03587182 -31.23702984 24.91378531 -28.25 16.375 C-24.50742727 9.59307681 -18.66085715 4.21495755 -11.515625 1.234375 C-7.64749111 0.21644503 -3.97359317 -0.00755183 0 0 Z " fill="#263C61" transform="translate(634.25,423.625)"/>
<path d="M0 0 C3.58183278 2.43083616 6.48796842 4.86541511 8 9 C8.22705078 12.39160156 8.22705078 12.39160156 8.1953125 16.390625 C8.1924826 17.09523865 8.18965271 17.79985229 8.18673706 18.52581787 C8.17557801 20.7673876 8.15048193 23.00855186 8.125 25.25 C8.11496464 26.77343171 8.10583976 28.29686971 8.09765625 29.8203125 C8.07565291 33.54700586 8.04115272 37.27346333 8 41 C5.03 41 2.06 41 -1 41 C-1 39.35 -1 37.7 -1 36 C-1.66 36 -2.32 36 -3 36 C-3 36.66 -3 37.32 -3 38 C-8.86426696 42.17014539 -13.85015432 43.0784081 -21 42 C-24.87062746 40.06468627 -28.0831623 37.94016639 -30 34 C-30.84184386 29.10795181 -30.55353771 25.93409488 -28 21.625 C-20.22596092 14.82271581 -11.7188402 15.65832202 -2 16 C-3.09786425 10.59212615 -3.09786425 10.59212615 -7 7 C-12.95259637 6.29048 -18.10764086 6.21236712 -23 10 C-23.66 10 -24.32 10 -25 10 C-25.66 7.69 -26.32 5.38 -27 3 C-18.96774594 -2.35483604 -8.94505629 -4.1743596 0 0 Z " fill="#293F63" transform="translate(904,443)"/>
<path d="M0 0 C3.0496575 1.63187601 5.5137972 3.60640647 8 6 C8.44988281 5.566875 8.89976562 5.13375 9.36328125 4.6875 C14.28453136 0.42701894 17.92785372 -0.85543155 24.4453125 -0.44921875 C28.19841963 0.21073128 30.2732355 1.34140461 33 4 C35.59797466 9.05305879 36.36474929 12.69847386 36.29296875 18.46484375 C36.28872391 19.14301651 36.28447906 19.82118927 36.28010559 20.51991272 C36.26347941 22.65953402 36.22586174 24.79816947 36.1875 26.9375 C36.17243222 28.39907482 36.1587475 29.86066458 36.14648438 31.32226562 C36.11362977 34.88182397 36.06196241 38.44081556 36 42 C33.69 42 31.38 42 29 42 C28.9906543 41.08186523 28.98130859 40.16373047 28.97167969 39.21777344 C28.92760069 35.80294722 28.86596268 32.38936892 28.79248047 28.97509766 C28.76429912 27.49897804 28.74307034 26.02270831 28.72900391 24.54638672 C28.70753302 22.42076943 28.66086957 20.29695121 28.609375 18.171875 C28.58842773 16.8940918 28.56748047 15.61630859 28.54589844 14.29980469 C27.9118873 10.46738314 27.12341125 9.24880074 24 7 C18.85921033 6.25119691 18.85921033 6.25119691 14.18359375 8.05859375 C12.00570536 9.82714408 10.26278524 11.47442952 9 14 C8.84558791 16.10374996 8.75007361 18.21195119 8.68359375 20.3203125 C8.62075195 22.20556641 8.62075195 22.20556641 8.55664062 24.12890625 C8.51732422 25.44761719 8.47800781 26.76632812 8.4375 28.125 C8.39430488 29.46485751 8.35069027 30.80470156 8.30664062 32.14453125 C8.20029019 35.42957815 8.09826192 38.71470281 8 42 C5.69 42 3.38 42 1 42 C0.9906543 41.08186523 0.98130859 40.16373047 0.97167969 39.21777344 C0.92760069 35.80294722 0.86596268 32.38936892 0.79248047 28.97509766 C0.76429912 27.49897804 0.74307034 26.02270831 0.72900391 24.54638672 C0.70753302 22.42076943 0.66086957 20.29695121 0.609375 18.171875 C0.58842773 16.8940918 0.56748047 15.61630859 0.54589844 14.29980469 C-0.08650299 10.4771134 -0.89978025 9.25863201 -4 7 C-8.40217088 6.34782654 -10.46657001 6.70365001 -14.375 8.875 C-17.03793194 10.73102809 -17.03793194 10.73102809 -18 13 C-18.15469367 15.17674783 -18.25002106 17.3578348 -18.31640625 19.5390625 C-18.35830078 20.84101562 -18.40019531 22.14296875 -18.44335938 23.484375 C-18.48317299 24.86458045 -18.52288522 26.24478883 -18.5625 27.625 C-18.60569407 29.01303415 -18.64930865 30.40105528 -18.69335938 31.7890625 C-18.79972 35.19260256 -18.90174714 38.59621778 -19 42 C-21.64 42 -24.28 42 -27 42 C-27 28.47 -27 14.94 -27 1 C-24.69 1 -22.38 1 -20 1 C-19.67 2.65 -19.34 4.3 -19 6 C-18.05125 5.195625 -17.1025 4.39125 -16.125 3.5625 C-11.14100335 -0.66306238 -6.43798699 -0.95921685 0 0 Z " fill="#5E8FD1" transform="translate(771,526)"/>
<path d="M0 0 C3.72141428 1.90967312 5.46426497 4.78264843 7.5 8.375 C7.95410156 11.99365234 7.95410156 11.99365234 7.890625 15.9609375 C7.88496521 16.66272125 7.87930542 17.364505 7.87347412 18.08755493 C7.85124483 20.30909087 7.80108056 22.52895923 7.75 24.75 C7.72991731 26.26429947 7.71166964 27.77862446 7.6953125 29.29296875 C7.65142633 32.98751268 7.58249577 36.68109333 7.5 40.375 C5.19 40.375 2.88 40.375 0.5 40.375 C0.17 39.055 -0.16 37.735 -0.5 36.375 C-1.4075 37.014375 -2.315 37.65375 -3.25 38.3125 C-8.15090433 41.42268929 -11.67932461 41.76962206 -17.5 41.375 C-22.14005011 39.82831663 -24.98450117 38.59955833 -27.5 34.375 C-28.42376329 29.20962359 -28.44185777 24.78778666 -25.5 20.375 C-17.05424781 14.74449854 -9.26817686 15.03158753 0.5 15.375 C-0.54446783 10.48483688 -0.54446783 10.48483688 -3.31640625 6.45703125 C-7.23522569 4.51514756 -11.23228811 4.95238567 -15.5 5.375 C-18.33378132 6.2724827 -18.33378132 6.2724827 -20.5 7.375 C-21.49 7.375 -22.48 7.375 -23.5 7.375 C-23.83 5.725 -24.16 4.075 -24.5 2.375 C-16.83070935 -2.34456348 -8.49231004 -3.77083916 0 0 Z " fill="#6394D3" transform="translate(724.5,527.625)"/>
<path d="M0 0 C4.36775158 3.14884416 7.96773395 6.77820184 9.6875 11.9375 C9.6875 15.2375 9.6875 18.5375 9.6875 21.9375 C-0.5425 21.9375 -10.7725 21.9375 -21.3125 21.9375 C-18.67844764 29.65136078 -18.67844764 29.65136078 -13.3125 33.9375 C-6.4847778 34.76753682 0.23760625 34.33746046 6.6875 31.9375 C7.6875 32.9375 7.6875 32.9375 7.75 35.5 C7.729375 36.304375 7.70875 37.10875 7.6875 37.9375 C-0.08044303 41.37332096 -7.02034931 43.60409133 -15.4375 40.75 C-20.64883995 38.54874639 -24.13694695 35.81838489 -27.1875 30.9375 C-29.48862441 24.69159089 -29.50262945 16.34845595 -27.3125 10.0625 C-20.87975444 0.01133506 -11.51430265 -3.69326689 0 0 Z " fill="#5E8FD0" transform="translate(679.3125,527.0625)"/>
<path d="M0 0 C5.06201089 2.72569817 7.49450208 5.28734803 9.25 10.75 C9.47705078 14.16333008 9.47705078 14.16333008 9.4453125 18.01953125 C9.4424826 18.70053391 9.43965271 19.38153656 9.43673706 20.08317566 C9.42560525 22.24313455 9.40051457 24.40266794 9.375 26.5625 C9.36496111 28.03319711 9.35583685 29.50390076 9.34765625 30.97460938 C9.32568913 34.56654286 9.2912082 38.15822985 9.25 41.75 C5.62 41.75 1.99 41.75 -1.75 41.75 C-1.76458252 40.85692139 -1.77916504 39.96384277 -1.79418945 39.04370117 C-1.85527077 35.72782722 -1.92942478 32.41278101 -2.01245117 29.09741211 C-2.04569001 27.66295372 -2.07372535 26.22836487 -2.09643555 24.79370117 C-2.13000271 22.73039193 -2.18231413 20.66827697 -2.23828125 18.60546875 C-2.26446533 17.36434326 -2.29064941 16.12321777 -2.31762695 14.84448242 C-2.49576385 11.77971883 -2.49576385 11.77971883 -4.14941406 9.84863281 C-7.32447599 7.6692889 -11.08392677 8.1400927 -14.75 8.75 C-17.78215675 10.94831364 -18.56654398 12.19963194 -19.75 15.75 C-19.89986411 17.7406444 -19.99828038 19.73535391 -20.06640625 21.73046875 C-20.10830078 22.89384766 -20.15019531 24.05722656 -20.19335938 25.25585938 C-20.23267578 26.47080078 -20.27199219 27.68574219 -20.3125 28.9375 C-20.35568359 30.16404297 -20.39886719 31.39058594 -20.44335938 32.65429688 C-20.5495309 35.68608381 -20.65157952 38.71795315 -20.75 41.75 C-24.05 41.75 -27.35 41.75 -30.75 41.75 C-30.75 27.89 -30.75 14.03 -30.75 -0.25 C-27.78 -0.25 -24.81 -0.25 -21.75 -0.25 C-21.75 1.73 -21.75 3.71 -21.75 5.75 C-21.09 5.75 -20.43 5.75 -19.75 5.75 C-19.54375 5.151875 -19.3375 4.55375 -19.125 3.9375 C-14.85947334 -2.84856514 -6.6914363 -2.23047877 0 0 Z " fill="#273E64" transform="translate(1187.75,442.25)"/>
<path d="M0 0 C3.63 0 7.26 0 11 0 C12.43255576 3.76884086 13.85644232 7.54083159 15.27246094 11.31591797 C15.75512783 12.59903445 16.24013237 13.88127415 16.72753906 15.16259766 C17.42870823 17.00710185 18.12071828 18.85507955 18.8125 20.703125 C19.23144531 21.81333008 19.65039062 22.92353516 20.08203125 24.06738281 C21 27 21 27 21 31 C21.66 31 22.32 31 23 31 C23.11730469 29.98550781 23.23460937 28.97101563 23.35546875 27.92578125 C23.98387773 24.09819926 24.97168089 20.81974992 26.3125 17.1875 C26.7559375 15.98222656 27.199375 14.77695312 27.65625 13.53515625 C29.38068981 8.99847594 31.16235381 4.49202403 33 0 C36.63 0 40.26 0 44 0 C42.61187737 4.31701647 41.0246751 8.4963678 39.28515625 12.68359375 C39.02874863 13.30218765 38.772341 13.92078156 38.50816345 14.55812073 C37.69488021 16.51872502 36.87869284 18.47810546 36.0625 20.4375 C35.51869885 21.74797163 34.97507753 23.0585179 34.43164062 24.36914062 C31.9862178 30.260068 29.51996013 36.14056917 27 42 C23.37 42 19.74 42 16 42 C13.5390625 35.84765625 11.078125 29.6953125 8.6171875 23.54296875 C8.35143921 22.87875916 8.08569092 22.21454956 7.81188965 21.5302124 C7.28287577 20.2073533 6.75430813 18.88431566 6.22619629 17.56109619 C5.0666822 14.65717144 3.90041714 11.75649943 2.71679688 8.86230469 C2.35134766 7.96672852 1.98589844 7.07115234 1.609375 6.1484375 C1.29452148 5.38450684 0.97966797 4.62057617 0.65527344 3.83349609 C0 2 0 2 0 0 Z " fill="#283F63" transform="translate(1063,442)"/>
<path d="M0 0 C0 3.96 0 7.92 0 12 C3.96 12 7.92 12 12 12 C12 14.64 12 17.28 12 20 C8.04 20 4.08 20 0 20 C0.14010035 23.97944615 0.28679559 27.95845381 0.4375 31.9375 C0.47681641 33.07380859 0.51613281 34.21011719 0.55664062 35.38085938 C0.59853516 36.46044922 0.64042969 37.54003906 0.68359375 38.65234375 C0.72025146 39.65257568 0.75690918 40.65280762 0.79467773 41.68334961 C0.74671841 43.96069188 0.74671841 43.96069188 2 45 C3.51469448 45.23192865 5.03754562 45.41215238 6.5625 45.5625 C7.38878906 45.64628906 8.21507812 45.73007812 9.06640625 45.81640625 C10.02353516 45.90728516 10.02353516 45.90728516 11 46 C11 48.64 11 51.28 11 54 C8.60225255 54.13572155 6.21224755 54.23436868 3.8125 54.3125 C2.80219727 54.3753418 2.80219727 54.3753418 1.77148438 54.43945312 C-2.26303321 54.53785599 -3.79311935 54.17373555 -6.92578125 51.54296875 C-7.61027344 50.70378906 -8.29476562 49.86460937 -9 49 C-9.33 48.67 -9.66 48.34 -10 48 C-10.08767112 45.92737924 -10.10695873 43.85179706 -10.09765625 41.77734375 C-10.09443359 40.51728516 -10.09121094 39.25722656 -10.08789062 37.95898438 C-10.07953403 36.61848891 -10.07106907 35.27799412 -10.0625 33.9375 C-10.0574866 32.59310058 -10.05292342 31.2486994 -10.04882812 29.90429688 C-10.03699488 26.60282059 -10.02050971 23.30143197 -10 20 C-12.64 20 -15.28 20 -18 20 C-18 17.36 -18 14.72 -18 12 C-15.36 12 -12.72 12 -10 12 C-10 8.37 -10 4.74 -10 1 C-5 0 -5 0 0 0 Z " fill="#2A4165" transform="translate(935,430)"/>
<path d="M0 0 C15.84 0 31.68 0 48 0 C48 2.31 48 4.62 48 7 C41.4 7 34.8 7 28 7 C28 24.16 28 41.32 28 59 C25.36 59 22.72 59 20 59 C20 41.84 20 24.68 20 7 C13.4 7 6.8 7 0 7 C0 4.69 0 2.38 0 0 Z " fill="#5E91D1" transform="translate(607,509)"/>
<path d="M0 0 C0 4.29 0 8.58 0 13 C3.63 13 7.26 13 11 13 C11 15.31 11 17.62 11 20 C7.37 20 3.74 20 0 20 C0.14033182 23.79194483 0.28700628 27.58345678 0.4375 31.375 C0.47681641 32.45523438 0.51613281 33.53546875 0.55664062 34.6484375 C0.59853516 35.6796875 0.64042969 36.7109375 0.68359375 37.7734375 C0.72025146 38.72653809 0.75690918 39.67963867 0.79467773 40.66162109 C0.85763465 43.02132349 0.85763465 43.02132349 2 45 C4.35599235 45.46751788 4.35599235 45.46751788 7.0625 45.625 C7.98160156 45.69976562 8.90070313 45.77453125 9.84765625 45.8515625 C10.55792969 45.90054688 11.26820312 45.94953125 12 46 C12 48.64 12 51.28 12 54 C9.60293877 54.10854617 7.21084162 54.18753157 4.8125 54.25 C4.13896484 54.28351563 3.46542969 54.31703125 2.77148438 54.3515625 C-0.83057254 54.42184654 -2.80148945 54.12674344 -5.86328125 52.171875 C-8.45166965 49.54089886 -9.92569922 47.92252808 -10.22705078 44.1809082 C-10.21657715 43.06546631 -10.20610352 41.95002441 -10.1953125 40.80078125 C-10.18564453 38.98803711 -10.18564453 38.98803711 -10.17578125 37.13867188 C-10.15902344 35.87603516 -10.14226562 34.61339844 -10.125 33.3125 C-10.11597656 32.03826172 -10.10695313 30.76402344 -10.09765625 29.45117188 C-10.07405641 26.30059373 -10.04113194 23.15039017 -10 20 C-12.31 20 -14.62 20 -17 20 C-17 17.69 -17 15.38 -17 13 C-14.69 13 -12.38 13 -10 13 C-10 9.04 -10 5.08 -10 1 C-5 0 -5 0 0 0 Z " fill="#263D62" transform="translate(1219,430)"/>
<path d="M0 0 C0.9075 0.495 1.815 0.99 2.75 1.5 C2.42 3.15 2.09 4.8 1.75 6.5 C0.780625 6.335 -0.18875 6.17 -1.1875 6 C-9.60793418 4.72179314 -9.60793418 4.72179314 -17.25 7.5 C-17.36924953 10.41790231 -17.36924953 10.41790231 -16.25 13.5 C-13.5678576 14.85025662 -11.33998472 15.73500445 -8.5 16.5625 C-2.87861547 18.26610305 0.94747789 19.71737045 4.75 24.5 C5.46645484 29.51518385 4.77513723 32.4664837 1.75 36.5 C1.3375 37.056875 0.925 37.61375 0.5 38.1875 C-4.22438928 41.73079196 -10.53878232 42.1916337 -16.25 41.5 C-19.371445 40.78004586 -22.41332596 40.0083409 -25.25 38.5 C-26.25 35.5 -26.25 35.5 -25.25 32.5 C-22.48723823 33.02268466 -19.9239124 33.60869587 -17.25 34.5 C-15.77413385 34.61687338 -14.29293388 34.67501742 -12.8125 34.6875 C-12.05066406 34.70167969 -11.28882813 34.71585938 -10.50390625 34.73046875 C-8.01652685 34.47612666 -6.40191894 33.74017196 -4.25 32.5 C-4.25 30.52 -4.25 28.54 -4.25 26.5 C-5.19875 26.0875 -6.1475 25.675 -7.125 25.25 C-8.07632813 24.83621094 -8.07632813 24.83621094 -9.046875 24.4140625 C-10.60493038 23.76763527 -12.18020697 23.16200554 -13.765625 22.5859375 C-23.07411866 19.15795929 -23.07411866 19.15795929 -26.25 14.5 C-27.19821629 10.29709538 -26.77739594 7.41280066 -24.625 3.6875 C-17.86773804 -2.53629391 -8.49423811 -3.63297353 0 0 Z " fill="#6291D1" transform="translate(842.25,527.5)"/>
<path d="M0 0 C0 2.97 0 5.94 0 9 C-1.381875 9.061875 -2.76375 9.12375 -4.1875 9.1875 C-7.961317 9.59162529 -8.91077435 9.92750416 -12 12.4375 C-14.92456792 16.18460265 -15.15637752 18.17339567 -15.31640625 22.8828125 C-15.35830078 24.04941406 -15.40019531 25.21601563 -15.44335938 26.41796875 C-15.50233398 28.25294922 -15.50233398 28.25294922 -15.5625 30.125 C-15.60568359 31.35605469 -15.64886719 32.58710938 -15.69335938 33.85546875 C-15.79968704 36.90352853 -15.90171781 39.9516719 -16 43 C-19.3 43 -22.6 43 -26 43 C-26 29.14 -26 15.28 -26 1 C-22.7 1 -19.4 1 -16 1 C-15.67 2.65 -15.34 4.3 -15 6 C-14.2575 5.195625 -13.515 4.39125 -12.75 3.5625 C-8.53402213 -0.36602483 -5.63503605 -0.128069 0 0 Z " fill="#263D61" transform="translate(871,441)"/>
<path d="M0 0 C3.14139226 1.74986299 4.6272965 3.69554842 6 7 C6.87565059 11.82251683 7.23125929 16.60964314 4.93359375 21.0703125 C2.58958161 23.96709168 0.52610156 25.83523505 -3.20703125 26.23828125 C-10.22118281 26.43808467 -10.22118281 26.43808467 -14 24.3125 C-17.80298632 19.91529707 -18.4474241 15.9051506 -18.32421875 10.21875 C-17.81797212 6.75431525 -16.23761884 4.62121065 -14 2 C-9.50783752 -0.99477498 -5.2530151 -0.93536594 0 0 Z " fill="#F5F5F8" transform="translate(687,450)"/>
<path d="M0 0 C1.22589844 0.01353516 1.22589844 0.01353516 2.4765625 0.02734375 C3.41628906 0.04474609 3.41628906 0.04474609 4.375 0.0625 C4.375 2.7025 4.375 5.3425 4.375 8.0625 C3.69953125 8.14886719 3.0240625 8.23523438 2.328125 8.32421875 C1.43609375 8.46472656 0.5440625 8.60523438 -0.375 8.75 C-1.25671875 8.87761719 -2.1384375 9.00523437 -3.046875 9.13671875 C-6.52453863 10.38551615 -7.60003638 11.99660815 -9.625 15.0625 C-10.25958244 18.14236897 -10.25958244 18.14236897 -10.234375 21.45703125 C-10.26660156 22.65908203 -10.29882812 23.86113281 -10.33203125 25.09960938 C-10.35330078 26.96842773 -10.35330078 26.96842773 -10.375 28.875 C-10.40464844 30.14021484 -10.43429687 31.40542969 -10.46484375 32.70898438 C-10.53543777 35.82688676 -10.5881891 38.94404575 -10.625 42.0625 C-13.925 42.0625 -17.225 42.0625 -20.625 42.0625 C-20.625 28.5325 -20.625 15.0025 -20.625 1.0625 C-17.985 1.0625 -15.345 1.0625 -12.625 1.0625 C-11.965 2.7125 -11.305 4.3625 -10.625 6.0625 C-9.696875 4.8559375 -9.696875 4.8559375 -8.75 3.625 C-5.82349057 0.09597392 -4.40502309 -0.0629289 0 0 Z " fill="#223A61" transform="translate(732.625,441.9375)"/>
<path d="M0 0 C3.2138627 1.60693135 5.16978419 2.94336169 7.375 5.75 C8.78248157 10.81693366 8.34484091 14.89287919 6.8125 19.8125 C4.75772626 23.42606761 3.89317236 24.59183128 0 26 C-3.43649704 26.50386859 -6.57390398 26.61883508 -10 26 C-12.82424288 23.80977082 -14.41508603 22.16982793 -16 19 C-16.68940632 13.24912955 -17.17066758 7.61405665 -13.625 2.75 C-9.63917584 -1.1130381 -5.22877834 -1.07801112 0 0 Z " fill="#F6F6F9" transform="translate(819,450)"/>
<path d="M0 0 C2.70552388 2.19823815 4.44778333 3.89556667 6 7 C6.5350086 12.36762727 6.66175234 16.69931437 4.1875 21.5625 C1.86702234 24.1481751 0.19150537 25.80814744 -3.3046875 26.37109375 C-10.28881062 26.55153462 -10.28881062 26.55153462 -14.0625 23.625 C-17.89538507 18.43205894 -17.87823462 13.31684352 -17 7 C-12.93280719 -0.40854814 -7.97815949 -2.05310149 0 0 Z " fill="#F3F4F7" transform="translate(770,450)"/>
<path d="M0 0 C1.11084961 0.02707031 1.11084961 0.02707031 2.24414062 0.0546875 C4.0591571 0.10152663 5.87350166 0.17326211 7.6875 0.25 C7.9765625 6.8984375 7.9765625 6.8984375 5.375 10.0625 C0.88002783 13.72119828 -1.48615404 14.71005136 -7.1484375 14.5625 C-9.3125 14.25 -9.3125 14.25 -11.875 12.625 C-13.76584615 9.50099332 -13.98564636 7.84011393 -13.3125 4.25 C-9.15479071 -0.23001233 -5.72424416 -0.26600598 0 0 Z " fill="#F5F7FB" transform="translate(717.3125,548.75)"/>
<path d="M0 0 C3.65471763 1.62431895 6.03920508 3.49120909 8 7 C8 8.65 8 10.3 8 12 C0.08 12 -7.84 12 -16 12 C-15.00590786 7.02953931 -14.28717788 5.57722299 -11 2 C-7.29017554 -0.4732163 -4.30111858 -0.54710902 0 0 Z " fill="#EFF2F8" transform="translate(674,532)"/>
<path d="M0 0 C1.74216797 0.05414063 1.74216797 0.05414063 3.51953125 0.109375 C4.39996094 0.15578125 5.28039062 0.2021875 6.1875 0.25 C6.421875 5.8984375 6.421875 5.8984375 4.3125 9.0625 C2.00922876 11.43351451 1.13812598 12.18095115 -2.125 12.41796875 C-3.011875 12.42441406 -3.89875 12.43085938 -4.8125 12.4375 C-6.1428125 12.45876953 -6.1428125 12.45876953 -7.5 12.48046875 C-9.8125 12.25 -9.8125 12.25 -11.8125 10.25 C-12.25 7.375 -12.25 7.375 -11.8125 4.25 C-8.01267154 0.30891397 -5.3784778 -0.21731223 0 0 Z " fill="#F3F4F7" transform="translate(895.8125,464.75)"/>
<path d="M0 0 C3.4203866 1.17013226 3.91540482 1.87310723 6 5 C6 6.65 6 8.3 6 10 C-0.93 10 -7.86 10 -15 10 C-12.03945481 1.11836442 -8.91961303 -0.84948696 0 0 Z " fill="#F4F5F8" transform="translate(1133,449)"/>
<path d="M0 0 C3.19624133 0.61342005 5.64612874 2.08362874 7.93359375 4.37109375 C7.93359375 6.35109375 7.93359375 8.33109375 7.93359375 10.37109375 C1.33359375 10.37109375 -5.26640625 10.37109375 -12.06640625 10.37109375 C-10.59794389 3.02878193 -7.53940376 -0.47032197 0 0 Z " fill="#F3F4F7" transform="translate(973.06640625,448.62890625)"/>
<path d="M0 0 C0.66 0 1.32 0 2 0 C2 10.23 2 20.46 2 31 C-1.3 31 -4.6 31 -8 31 C-8 21.76 -8 12.52 -8 3 C-7.67 3 -7.34 3 -7 3 C-7 11.58 -7 20.16 -7 29 C-4.69 29 -2.38 29 0 29 C0 19.43 0 9.86 0 0 Z " fill="#2F4667" transform="translate(1195,453)"/>
<path d="M0 0 C4.29 0.66 8.58 1.32 13 2 C13 4.31 13 6.62 13 9 C8.17639811 9.19294408 4.50353262 8.75747614 0 7 C0 4.69 0 2.38 0 0 Z " fill="#EDF2F9" transform="translate(525,431)"/>
<path d="M0 0 C0 3.63 0 7.26 0 11 C-4.455 11.495 -4.455 11.495 -9 12 C-9 8.7 -9 5.4 -9 2 C-3.375 0 -3.375 0 0 0 Z " fill="#EBEFF7" transform="translate(454,434)"/>
<path d="M0 0 C1.6045556 0.14148989 3.20863767 0.28835686 4.8125 0.4375 C5.70582031 0.51871094 6.59914063 0.59992188 7.51953125 0.68359375 C10 1 10 1 13 2 C13 3.98 13 5.96 13 8 C11.39592672 8.02708567 9.7917215 8.04643483 8.1875 8.0625 C6.84751953 8.07990234 6.84751953 8.07990234 5.48046875 8.09765625 C3 8 3 8 0 7 C0 4.69 0 2.38 0 0 Z " fill="#EEF2F9" transform="translate(525,447)"/>
<path d="M0 0 C5.94 1.485 5.94 1.485 12 3 C12 5.31 12 7.62 12 10 C3.42857143 9 3.42857143 9 0 8 C0 5.36 0 2.72 0 0 Z " fill="#F2F5FA" transform="translate(526,415)"/>
<path d="M0 0 C4.95 0.99 4.95 0.99 10 2 C10 4.97 10 7.94 10 11 C6.7 10.34 3.4 9.68 0 9 C0 6.03 0 3.06 0 0 Z " fill="#E7EEF7" transform="translate(495,424)"/>
<path d="M0 0 C4.95 0.99 4.95 0.99 10 2 C10 4.97 10 7.94 10 11 C6.7 10.34 3.4 9.68 0 9 C0 6.03 0 3.06 0 0 Z " fill="#E9EFF7" transform="translate(495,407)"/>
<path d="M0 0 C2.97 0.33 5.94 0.66 9 1 C9 3.97 9 6.94 9 10 C6.03 10 3.06 10 0 10 C0 6.7 0 3.4 0 0 Z " fill="#E7EFF8" transform="translate(476,438)"/>
<path d="M0 0 C0 3.3 0 6.6 0 10 C-2.90600261 11.25664978 -4.79604584 12 -8 12 C-8 8.7 -8 5.4 -8 2 C-4 0 -4 0 0 0 Z " fill="#F4F6F9" transform="translate(453,411)"/>
<path d="M0 0 C0 3.3 0 6.6 0 10 C-2.64 10.66 -5.28 11.32 -8 12 C-8 8.7 -8 5.4 -8 2 C-5.09399739 0.74335022 -3.20395416 0 0 0 Z " fill="#F3F6FA" transform="translate(437,416)"/>
<path d="M0 0 C0 3.3 0 6.6 0 10 C-2.64 10.33 -5.28 10.66 -8 11 C-8 7.7 -8 4.4 -8 1 C-5.23735711 0.40267181 -2.83967231 0 0 0 Z " fill="#F2F6FA" transform="translate(437,439)"/>
<path d="M0 0 C0 2.64 0 5.28 0 8 C-2.64738916 9.4606285 -3.89448334 10 -7 10 C-7 10.66 -7 11.32 -7 12 C-7.66 12 -8.32 12 -9 12 C-9.28780289 8.94928934 -9.43668263 6.04060497 -9 3 C-5.82566993 0.09019744 -4.3475117 0 0 0 Z " fill="#EFF3F9" transform="translate(450,388)"/>
<path d="M0 0 C2.64 0.33 5.28 0.66 8 1 C8 4.3 8 7.6 8 11 C2.25 10.125 2.25 10.125 0 9 C0 6.03 0 3.06 0 0 Z " fill="#E8EEF7" transform="translate(477,402)"/>
<path d="M0 0 C2.97 0.33 5.94 0.66 9 1 C9 3.97 9 6.94 9 10 C6.03 9.67 3.06 9.34 0 9 C0 6.03 0 3.06 0 0 Z " fill="#EFF4FA" transform="translate(496,442)"/>
<path d="M0 0 C0 2.97 0 5.94 0 9 C-5.75 12 -5.75 12 -8 12 C-8 8.7 -8 5.4 -8 2 C-2.25 0 -2.25 0 0 0 Z " fill="#E8EFF7" transform="translate(412,424)"/>
<path d="M0 0 C0 2.64 0 5.28 0 8 C-4.455 9.485 -4.455 9.485 -9 11 C-9 8.36 -9 5.72 -9 3 C-2.25 0 -2.25 0 0 0 Z " fill="#EDF2F9" transform="translate(433,395)"/>
<path d="M0 0 C0 2.97 0 5.94 0 9 C-2.64 9.33 -5.28 9.66 -8 10 C-8 7.03 -8 4.06 -8 1 C-4 0 -4 0 0 0 Z " fill="#ECF2F9" transform="translate(412,445)"/>
<path d="M0 0 C2.64 0.33 5.28 0.66 8 1 C8 3.97 8 6.94 8 10 C5.36 9.67 2.72 9.34 0 9 C0 6.03 0 3.06 0 0 Z " fill="#EDF2F8" transform="translate(476,420)"/>
<path d="M0 0 C0 3 0 3 -1.53125 4.60546875 C-2.1809375 5.12753906 -2.830625 5.64960937 -3.5 6.1875 C-4.1496875 6.71730469 -4.799375 7.24710938 -5.46875 7.79296875 C-5.9740625 8.19128906 -6.479375 8.58960938 -7 9 C-5.64978174 4.58110387 -3.73884332 2.65654657 0 0 Z " fill="#3B5070" transform="translate(403,572)"/>
<path d="M0 0 C-1.75 2.0625 -1.75 2.0625 -4 4 C-6.25 3.75 -6.25 3.75 -8 3 C-7.67 2.67 -7.34 2.34 -7 2 C-7.66 1.34 -8.32 0.68 -9 0 C-2.25 -1.125 -2.25 -1.125 0 0 Z " fill="#B7BECC" transform="translate(475,557)"/>
<path d="M0 0 C0 0.66 0 1.32 0 2 C-1.75 3.5078125 -1.75 3.5078125 -4 5.125 C-4.7425 5.66382813 -5.485 6.20265625 -6.25 6.7578125 C-6.8275 7.16773438 -7.405 7.57765625 -8 8 C-7.40137646 4.79837298 -7.08735442 4.08063485 -4.5625 1.75 C-2 0 -2 0 0 0 Z " fill="#2E486D" transform="translate(1121,443)"/>
</svg>
