<?xml version="1.0" encoding="UTF-8"?>
<svg version="1.1" xmlns="http://www.w3.org/2000/svg" width="1536" height="1024">
<path d="M0 0 C506.88 0 1013.76 0 1536 0 C1536 337.92 1536 675.84 1536 1024 C1029.12 1024 522.24 1024 0 1024 C0 686.08 0 348.16 0 0 Z " fill="#FAFAFB" transform="translate(0,0)"/>
<path d="M0 0 C1.69189453 0.57814453 1.69189453 0.57814453 3.41796875 1.16796875 C19.21351166 6.86850636 31.22784938 16.22784938 43 28 C44.96240151 37.85332128 41.47414411 53.05171177 37 62 C36.34 62 35.68 62 35 62 C34.83177734 62.804375 34.83177734 62.804375 34.66015625 63.625 C29.43890002 84.37352148 13.2225309 102.21466233 -0.8125 117.58984375 C-2.93266617 119.92581254 -4.9969731 122.30326875 -7.0625 124.6875 C-10.11552766 128.13194146 -13.33182046 131.14390769 -16.85546875 134.09765625 C-20.32010862 137.17102531 -23.44392767 140.57977402 -26.60546875 143.9609375 C-29.30828274 146.26251809 -30.45453421 147.03142215 -34 147 C-36.55793681 145.85153858 -38.7585905 144.7047191 -41.125 143.25 C-42.05505859 142.70859375 -42.05505859 142.70859375 -43.00390625 142.15625 C-49.67634128 138.19583695 -49.67634128 138.19583695 -51 136 C-50.63958941 130.57305615 -49.17532164 126.9588694 -46.39453125 122.32421875 C-46.03284348 121.71415482 -45.6711557 121.10409088 -45.29850769 120.47554016 C-44.14727927 118.53951326 -42.9803244 116.61355138 -41.8125 114.6875 C-41.04776415 113.40753613 -40.28408334 112.12694129 -39.52148438 110.84570312 C-36.75512769 106.20775493 -33.97284666 101.5801729 -31.14160156 96.98144531 C-30.60116211 96.0994043 -30.06072266 95.21736328 -29.50390625 94.30859375 C-29.03670166 93.55505615 -28.56949707 92.80151855 -28.08813477 92.02514648 C-26.6802935 89.4049887 -26.15577154 86.95965917 -26 84 C-30.64498507 85.36420552 -32.19309738 87.20770282 -34.63671875 91.3203125 C-35.29212646 92.40642822 -35.94753418 93.49254395 -36.62280273 94.61157227 C-37.31120375 95.78261575 -37.99943313 96.95376015 -38.6875 98.125 C-39.39705725 99.30938924 -40.10808283 100.49290003 -40.82055664 101.67553711 C-42.23311668 104.02266695 -43.63953227 106.37329152 -45.04101562 108.72705078 C-47.62153243 113.03841772 -50.26703402 117.30646056 -52.9375 121.5625 C-53.34379639 122.21557129 -53.75009277 122.86864258 -54.16870117 123.54150391 C-56.87632403 127.87632403 -56.87632403 127.87632403 -58 129 C-65.29855378 129.95442626 -70.8539876 125.86265936 -76.62109375 121.87890625 C-78.85527914 120.13357622 -79.93484015 119.12219948 -81.28515625 116.58984375 C-81.48216105 113.40240704 -80.9112372 111.07227403 -80 108 C-79.70488525 106.98365479 -79.70488525 106.98365479 -79.40380859 105.94677734 C-77.57565591 99.84453891 -75.32735693 93.9266057 -73 88 C-72.63052246 87.04834961 -72.26104492 86.09669922 -71.88037109 85.11621094 C-59.4904978 53.47599948 -43.8765183 22.65255569 -16 2 C-15.36449219 1.50242187 -14.72898437 1.00484375 -14.07421875 0.4921875 C-9.02651817 -3.01219313 -5.38882531 -1.89505724 0 0 Z " fill="#2E4C7A" transform="translate(542,367)"/>
<path d="M0 0 C4.196124 0.68663847 6.74847815 2.29640332 10.30078125 4.5703125 C15.023314 7.5696795 19.88104883 10.33459006 24.72387695 13.13427734 C25.43374756 13.54887207 26.14361816 13.9634668 26.875 14.390625 C27.51308594 14.7609082 28.15117187 15.13119141 28.80859375 15.51269531 C30.4375 16.5625 30.4375 16.5625 32.4375 18.5625 C34.57021435 34.65888096 26.56182388 47.79116427 19.4375 61.5625 C18.7775 61.5625 18.1175 61.5625 17.4375 61.5625 C17.7675 55.9525 18.0975 50.3425 18.4375 44.5625 C17.77105469 45.54347656 17.10460937 46.52445313 16.41796875 47.53515625 C10.43169542 56.31421875 4.2958478 64.95684625 -2.03222656 73.4921875 C-3.72411661 75.7811517 -5.40557285 78.07756256 -7.0859375 80.375 C-18.22754422 95.591498 -18.22754422 95.591498 -23.75 102.33984375 C-25.10530917 104.00185004 -26.43450761 105.6852098 -27.75 107.37890625 C-28.8328125 108.76916016 -28.8328125 108.76916016 -29.9375 110.1875 C-30.58460938 111.02539062 -31.23171875 111.86328125 -31.8984375 112.7265625 C-32.44757813 113.33242188 -32.99671875 113.93828125 -33.5625 114.5625 C-34.2225 114.5625 -34.8825 114.5625 -35.5625 114.5625 C-33.1238283 106.43666184 -29.66324473 98.81110789 -26.1819458 91.09378052 C-24.38122304 87.10067234 -22.59502702 83.10107931 -20.80859375 79.1015625 C-20.44963013 78.29850174 -20.0906665 77.49544098 -19.7208252 76.66804504 C-16.30667757 69.01664452 -12.98010875 61.32936486 -9.6875 53.625 C-9.19451416 52.47217529 -8.70152832 51.31935059 -8.19360352 50.1315918 C-6.2723761 45.62481923 -4.36862781 41.11683763 -2.5625 36.5625 C-3.2225 36.5625 -3.8825 36.5625 -4.5625 36.5625 C-4.84754395 37.1493457 -5.13258789 37.73619141 -5.42626953 38.34082031 C-11.86117912 50.92304577 -20.85784098 62.48527147 -29.5625 73.5625 C-30.02172852 74.15240723 -30.48095703 74.74231445 -30.95410156 75.35009766 C-32.10877226 76.79406953 -33.33024029 78.18414765 -34.5625 79.5625 C-35.2225 79.5625 -35.8825 79.5625 -36.5625 79.5625 C-35.94758423 73.95139357 -34.54115599 68.9452979 -32.71875 63.61328125 C-32.43371109 62.76633698 -32.14867218 61.9193927 -31.85499573 61.04678345 C-30.9328101 58.31982081 -29.99931005 55.5969711 -29.0625 52.875 C-28.74570282 51.95131622 -28.42890564 51.02763245 -28.10250854 50.07595825 C-20.90666131 29.15991658 -20.90666131 29.15991658 -16.625 19.5 C-16.30917969 18.77272705 -15.99335938 18.0454541 -15.66796875 17.29614258 C-13.16400638 11.94870847 -9.61880897 7.81788439 -5.5625 3.5625 C-5.04953369 3.00296631 -4.53656738 2.44343262 -4.00805664 1.86694336 C-2.5625 0.5625 -2.5625 0.5625 0 0 Z " fill="#FABE4E" transform="translate(465.5625,497.4375)"/>
<path d="M0 0 C1.953125 0.23828125 1.953125 0.23828125 4 1 C7.77803098 7.88141356 7.73076242 15.29377808 7 23 C5.98046875 25.421875 5.98046875 25.421875 5 27 C5.56847656 27.08636719 6.13695312 27.17273438 6.72265625 27.26171875 C13.76545791 28.54329702 18.16395954 31.08054659 23.125 36.1875 C29.13846668 45.20770002 30.99962103 52.018449 30 63 C29 66 29 66 27 67 C24.5585844 67.09279918 22.14599941 67.12583928 19.70458984 67.11352539 C18.57761436 67.11374443 18.57761436 67.11374443 17.4278717 67.1139679 C14.9388645 67.11326996 12.44993167 67.10548314 9.9609375 67.09765625 C8.23743735 67.09579165 6.51393666 67.09436794 4.79043579 67.09336853 C0.24974103 67.08954669 -4.29092185 67.07971922 -8.831604 67.06866455 C-13.46325245 67.05844329 -18.09490603 67.05386937 -22.7265625 67.04882812 C-31.81772236 67.03809667 -40.90885853 67.02102422 -50 67 C-49.505 66.01 -49.505 66.01 -49 65 C-48.34 65 -47.68 65 -47 65 C-46.690625 63.824375 -46.690625 63.824375 -46.375 62.625 C-43.17382368 54.18553515 -38.95855618 47.54540219 -31 43 C-30.05125 42.731875 -29.1025 42.46375 -28.125 42.1875 C-27.42375 41.795625 -26.7225 41.40375 -26 41 C-25.52042268 39.11809585 -25.52042268 39.11809585 -25.2421875 36.90234375 C-24.14611674 31.50058622 -21.61736194 28.40859641 -18 24.375 C-12.38810807 17.82439445 -7.50032559 11.059501 -2.828125 3.81640625 C-1 1 -1 1 0 0 Z " fill="#88AFDF" transform="translate(500,555)"/>
<path d="M0 0 C0.495 0.99 0.495 0.99 1 2 C0.40185547 3.73876953 0.40185547 3.73876953 -0.6328125 5.8828125 C-1.02049805 6.70442871 -1.40818359 7.52604492 -1.80761719 8.37255859 C-2.24235352 9.28086426 -2.67708984 10.18916992 -3.125 11.125 C-7.624608 20.76445711 -11.76054912 30.51694796 -15.75 40.375 C-16.01750061 41.03324768 -16.28500122 41.69149536 -16.56060791 42.36968994 C-20.05960062 50.98761419 -23.41146744 59.65305109 -26.65087891 68.37182617 C-29.86788107 77.02326829 -33.12365512 85.61929906 -37 94 C-45.45755886 94.53984418 -52.61838935 92.17292074 -59.203125 86.7734375 C-64.53410645 81.51199059 -66.31113425 76.53049536 -66.5625 69.0625 C-66.07221892 57.91757406 -62.27860324 51.34474898 -54.578125 43.3515625 C-51.24592851 40.3121954 -48.25190401 38.43861414 -44 37 C-42.72382813 36.55914063 -42.72382813 36.55914063 -41.421875 36.109375 C-37.38772246 34.81184056 -34.27982328 34 -30 34 C-30.05800781 33.03320312 -30.11601562 32.06640625 -30.17578125 31.0703125 C-30.50195587 21.65784482 -29.82241805 14.50130214 -23.390625 7.1640625 C-16.45291224 0.64006656 -9.25942394 -0.51230419 0 0 Z " fill="#78A7DD" transform="translate(433,514)"/>
<path d="M0 0 C5.00330085 2.84163131 8.92457418 6.96122253 10.75 12.4375 C11.80686844 28.43279737 11.80686844 28.43279737 7.75 34.4375 C2.65911819 39.98017002 -2.06856667 43.41984622 -9.6875 43.75 C-15.19023786 43.63097239 -18.74214146 41.44273902 -23.25 38.4375 C-23.25 46.0275 -23.25 53.6175 -23.25 61.4375 C-26.55 61.4375 -29.85 61.4375 -33.25 61.4375 C-33.25 41.3075 -33.25 21.1775 -33.25 0.4375 C-29.95 0.4375 -26.65 0.4375 -23.25 0.4375 C-22.92 1.4275 -22.59 2.4175 -22.25 3.4375 C-21.486875 2.798125 -20.72375 2.15875 -19.9375 1.5 C-14.24279987 -2.87035126 -6.46898122 -2.91665049 0 0 Z " fill="#223350" transform="translate(937.25,440.5625)"/>
<path d="M0 0 C2.31 0 4.62 0 7 0 C7.33 8.91 7.66 17.82 8 27 C10.64 25.35 13.28 23.7 16 22 C21.50842999 20.74135336 26.54966814 21.32033606 31.4375 24.1875 C36.05871059 27.54236658 39.50914171 31.40928142 41 37 C41.85827669 44.28234765 40.76635615 50.65723791 37 57 C33.57758704 60.75779419 30.16900664 63.82839247 24.98828125 64.23828125 C17.76108899 64.38420755 12.841061 64.45033219 7 60 C7 61.32 7 62.64 7 64 C4.69 64 2.38 64 0 64 C0 42.88 0 21.76 0 0 Z " fill="#6A9CD7" transform="translate(839,517)"/>
<path d="M0 0 C0.96550781 0.01353516 1.93101562 0.02707031 2.92578125 0.04101562 C5.28445425 0.07604542 7.64191771 0.12515916 10 0.1875 C9.44272563 4.40420938 8.45998994 7.79376343 6.625 11.625 C5.22373299 14.59074978 3.86305647 17.52363411 2.625 20.5625 C-5.4595915 38.59735796 -14.24374781 45.49642455 -32.25 52.5 C-32.92353516 52.7669165 -33.59707031 53.03383301 -34.29101562 53.30883789 C-38.33935656 54.82996896 -41.68237486 55.47578864 -46 55.1875 C-47.24542383 51.6520483 -47.00757195 50.20736184 -45.64819336 46.64160156 C-44.97683164 45.27973577 -44.28967321 43.92558324 -43.58984375 42.578125 C-43.22532608 41.85187927 -42.86080841 41.12563354 -42.48524475 40.37738037 C-41.71069114 38.84102563 -40.92938224 37.30806061 -40.1418457 35.77832031 C-38.95235692 33.46637657 -37.78405906 31.14471622 -36.61914062 28.8203125 C-24.54234442 4.90602721 -24.54234442 4.90602721 -13.38037109 0.81152344 C-8.96267632 -0.34659224 -4.53483721 -0.12197148 0 0 Z " fill="#3F6EB8" transform="translate(460,432.8125)"/>
<path d="M0 0 C1.76953125 0.04296875 1.76953125 0.04296875 4 1 C5.42664167 3.44862514 6.57752677 5.72739895 7.6875 8.3125 C7.99494141 8.98990234 8.30238281 9.66730469 8.61914062 10.36523438 C11.84857336 17.59435841 13.1164903 24.07777317 12 32 C10.52355235 35.42243695 8.49252935 38.27517698 6.27197266 41.2578125 C4.17373617 44.13171185 2.20452572 47.09287146 0.21044922 50.03955078 C-4.78625017 57.40978936 -9.85987926 64.72906557 -15 72 C-16.65 71.67 -18.3 71.34 -20 71 C-27.91967425 37.09284149 -27.91967425 37.09284149 -23.25 27.4375 C-18.85709328 20.81685141 -13.27789341 14.91864329 -8 9 C-7.15566406 8.04351562 -6.31132813 7.08703125 -5.44140625 6.1015625 C-3.63538129 4.06052894 -1.82256134 2.02625937 0 0 Z " fill="#6394D1" transform="translate(554,480)"/>
<path d="M0 0 C5.13246215 2.79133907 8.52066131 5.83486618 10.30078125 11.53125 C11.47227957 17.474461 12.26839322 23.8308778 9.609375 29.44140625 C6.24682112 34.07791739 2.28994152 38.13251949 -3.21875 39.96875 C-5.65237472 40.14116708 -8.09195596 40.23540768 -10.53125 40.28125 C-11.82675781 40.31863281 -13.12226562 40.35601563 -14.45703125 40.39453125 C-20.25436061 39.7383434 -24.59697564 36.46474576 -28.21875 31.96875 C-31.8329214 25.15921676 -31.9199888 18.72993991 -30.53125 11.28125 C-28.29516259 5.6377913 -24.7423905 1.49358677 -19.30078125 -1.33984375 C-13.01690817 -3.42660836 -5.99153392 -2.65199043 0 0 Z " fill="#6998D3" transform="translate(1068.21875,541.03125)"/>
<path d="M0 0 C5.44980472 3.08573418 8.77529196 8.13042453 10.7109375 13.96875 C11.64138742 20.74610125 10.32584914 26.18441959 6.8984375 32.09375 C3.97607666 35.93456711 1.31375332 38.43447806 -3.2890625 39.96875 C-18.59540513 41.2397393 -18.59540513 41.2397393 -24.7734375 36.5390625 C-27.2986753 33.92270787 -28.7373988 31.25827704 -30.2890625 27.96875 C-30.6190625 27.30875 -30.9490625 26.64875 -31.2890625 25.96875 C-31.97188859 18.53570031 -32.442663 11.74666998 -27.7890625 5.5859375 C-20.15830626 -2.64097157 -10.46642406 -4.61377061 0 0 Z " fill="#699AD6" transform="translate(918.2890625,541.03125)"/>
<path d="M0 0 C-0.55728913 3.34373475 -1.35173889 6.03312999 -3 9 C-8.59672802 8.10961145 -8.59672802 8.10961145 -10.92578125 7.4765625 C-16.3866116 6.22190845 -21.98291141 6.41053492 -27 9 C-27.061875 10.258125 -27.12375 11.51625 -27.1875 12.8125 C-27.22230469 13.52019531 -27.25710938 14.22789062 -27.29296875 14.95703125 C-27.14709097 17.04581342 -27.14709097 17.04581342 -25.87109375 18.6484375 C-23.33933097 20.47722648 -20.89352983 21.03110753 -17.875 21.8125 C-10.27421366 24.02656834 -3.39273473 27.13797651 1 34 C2.75004911 39.1776601 3.29651112 45.28658745 0.90625 50.2890625 C-2.77729803 55.52048444 -7.06331534 59.0415588 -13.390625 60.58203125 C-22.12149141 61.98053829 -31.8361394 61.62794309 -39.28515625 56.39453125 C-39.85105469 55.93433594 -40.41695312 55.47414063 -41 55 C-40.45276317 51.62537285 -39.9451 49.91765 -38 47 C-34.73890349 47.47723364 -31.71717144 48.08741974 -28.5625 49.0625 C-23.46364384 50.40430425 -19.66864903 50.52531543 -14.625 48.9375 C-11.68412057 47.15880865 -11.68412057 47.15880865 -10.875 43.5625 C-10.65997262 40.05383784 -10.65997262 40.05383784 -12.515625 37.96484375 C-15.69515506 35.45021542 -19.07934698 34.26753917 -22.875 33 C-29.03770284 30.91908735 -34.8246493 28.9004676 -38.875 23.5 C-40.71583912 17.77294497 -41.29318136 11.60523288 -39.2265625 5.84375 C-30.97200747 -7.5040411 -12.37865485 -6.18932743 0 0 Z " fill="#273956" transform="translate(692,423)"/>
<path d="M0 0 C4.15351519 2.66699396 7.65128327 6.7830353 9.85546875 11.19140625 C11.08604948 27.69329215 11.08604948 27.69329215 5.85546875 34.19140625 C1.81645978 38.47880347 -1.55425192 39.99894944 -7.3515625 40.4296875 C-19.56280391 40.6810565 -19.56280391 40.6810565 -25.14453125 36.19140625 C-30.04442128 31.15908676 -31.4397341 25.73037376 -31.58203125 18.81640625 C-31.46009934 11.67932523 -29.57212565 7.61043166 -24.58203125 2.6328125 C-17.86034899 -3.29907209 -8.11318894 -3.4627425 0 0 Z " fill="#6797D2" transform="translate(734.14453125,540.80859375)"/>
<path d="M0 0 C3.78797408 3.78797408 4.6352396 6.96738846 4.97705078 12.27685547 C4.96657715 13.54416504 4.95610352 14.81147461 4.9453125 16.1171875 C4.9424826 16.79677521 4.93965271 17.47636292 4.93673706 18.17654419 C4.92562964 20.32621608 4.90054391 22.47545614 4.875 24.625 C4.86495795 26.09113977 4.85583425 27.55728614 4.84765625 29.0234375 C4.82572159 32.59909631 4.79125814 36.17450594 4.75 39.75 C1.45 39.75 -1.85 39.75 -5.25 39.75 C-5.58 38.43 -5.91 37.11 -6.25 35.75 C-7.21099609 36.29140625 -7.21099609 36.29140625 -8.19140625 36.84375 C-13.36468897 39.61928171 -17.23912839 41.65730138 -23.25 40.75 C-27.8636433 39.18605312 -31.1574252 37.55624591 -34.25 33.75 C-35.45643566 30.13069302 -35.57268559 27.55768995 -35.25 23.75 C-32.49653703 18.24307406 -29.29135347 16.10329726 -23.546875 14.1796875 C-20.20521312 13.55454667 -16.88516224 13.64590538 -13.5 13.6875 C-12.80261719 13.69201172 -12.10523438 13.69652344 -11.38671875 13.70117188 C-9.67444197 13.7128998 -7.96220967 13.73083347 -6.25 13.75 C-7.51974972 9.33477891 -7.51974972 9.33477891 -10.25 5.75 C-13.20644134 5.42910108 -13.20644134 5.42910108 -16.5625 5.5 C-17.69300781 5.49484375 -18.82351563 5.4896875 -19.98828125 5.484375 C-23.16326025 5.74293616 -25.38902849 6.39734555 -28.25 7.75 C-30.3125 5.4375 -30.3125 5.4375 -32.25 2.75 C-31.25 -0.25 -31.25 -0.25 -28.0625 -1.875 C-18.68161136 -5.50938079 -8.42280632 -5.83117361 0 0 Z " fill="#2A3B56" transform="translate(769.25,443.25)"/>
<path d="M0 0 C3.63 0 7.26 0 11 0 C11.01458252 0.85754883 11.02916504 1.71509766 11.04418945 2.59863281 C11.10535478 5.78960413 11.17952762 8.97993587 11.26245117 12.17041016 C11.29564193 13.54952667 11.32369217 14.92877711 11.34643555 16.30810547 C11.38008642 18.29422306 11.43394729 20.27996559 11.48828125 22.265625 C11.51446533 23.45961914 11.54064941 24.65361328 11.56762695 25.88378906 C12.03272247 29.23583827 12.53853522 30.69875305 15 33 C19.44854577 33.42367103 23.25039199 33.74009816 27 31 C29.32452624 27.51321064 29.29773734 25.93032429 29.4140625 21.80078125 C29.45273437 20.59228516 29.49140625 19.38378906 29.53125 18.13867188 C29.5621875 16.87603516 29.593125 15.61339844 29.625 14.3125 C29.66367187 13.03826172 29.70234375 11.76402344 29.7421875 10.45117188 C29.83657686 7.30092708 29.9221583 4.15069009 30 1 C33.63 1 37.26 1 41 1 C41 14.86 41 28.72 41 43 C37.7 43 34.4 43 31 43 C31 41.02 31 39.04 31 37 C30.34 37 29.68 37 29 37 C28.67 37.99 28.34 38.98 28 40 C22.99690437 43.95030269 17.65476235 43.62774065 11.5546875 43.42578125 C6.66431689 42.84001158 5.06619153 41.76703531 2 38 C-0.49336211 34.25995683 -0.25481228 31.37438391 -0.1953125 27.05078125 C-0.1924826 26.27816452 -0.18965271 25.50554779 -0.18673706 24.70951843 C-0.17554878 22.24368757 -0.15044703 19.77822094 -0.125 17.3125 C-0.11496843 15.63997921 -0.10584289 13.96745272 -0.09765625 12.29492188 C-0.07561392 8.19647441 -0.04109363 4.09829894 0 0 Z " fill="#263753" transform="translate(852,440)"/>
<path d="M0 0 C3.41306905 2.15338272 6.21507038 5.07706527 7.50952148 8.92871094 C8.09181824 12.04263254 8.05248432 15.02385564 8.0390625 18.19140625 C8.03764755 18.85162781 8.0362326 19.51184937 8.03477478 20.19207764 C8.0291987 22.29085919 8.01665072 24.3895322 8.00390625 26.48828125 C7.99888815 27.91536304 7.99432579 29.3424465 7.99023438 30.76953125 C7.97923713 34.25914957 7.96198905 37.74870481 7.94140625 41.23828125 C5.63140625 41.23828125 3.32140625 41.23828125 0.94140625 41.23828125 C0.44640625 38.76328125 0.44640625 38.76328125 -0.05859375 36.23828125 C-1.23421875 37.19734375 -1.23421875 37.19734375 -2.43359375 38.17578125 C-6.46347202 41.34211417 -8.75671749 41.44902926 -13.87109375 41.55078125 C-15.09441406 41.58816406 -16.31773437 41.62554688 -17.578125 41.6640625 C-21.63237365 41.1680882 -23.19902514 40.08727844 -26.05859375 37.23828125 C-28.06835277 33.21876321 -27.80066883 28.58647324 -27.05859375 24.23828125 C-24.51243563 20.39260029 -21.07205622 18.68420474 -16.93359375 16.86328125 C-11.30422254 15.95531815 -5.74708915 16.08430694 -0.05859375 16.23828125 C-0.26989915 11.27887539 -0.26989915 11.27887539 -2.93359375 7.30078125 C-9.52365454 5.06016058 -16.67380749 5.4772926 -23.05859375 8.23828125 C-23.38859375 6.25828125 -23.71859375 4.27828125 -24.05859375 2.23828125 C-16.59870316 -0.79625051 -7.86366086 -2.90970373 0 0 Z " fill="#6D9CD5" transform="translate(992.05859375,539.76171875)"/>
<path d="M0 0 C4.69028987 4.81055371 5.12439259 8.52381513 5.09765625 15.07421875 C5.0962413 15.7580513 5.09482635 16.44188385 5.09336853 17.1464386 C5.08777876 19.32683722 5.07522822 21.50713251 5.0625 23.6875 C5.05748367 25.16731622 5.052921 26.64713406 5.04882812 28.12695312 C5.03781271 31.75133557 5.02055512 35.3756577 5 39 C2.69 39 0.38 39 -2 39 C-2.33 37.68 -2.66 36.36 -3 35 C-3.86625 35.66 -4.7325 36.32 -5.625 37 C-11.15114098 40.17073663 -17.85299163 39.98817156 -24 39 C-27.33812824 36.75168592 -29.77553093 34.89603794 -31 31 C-31.65653361 26.65046485 -31.32445493 23.81803208 -28.8125 20.25 C-23.7804018 14.94364052 -16.14564598 14.25056102 -9.15625 13.828125 C-7.10340818 13.81513233 -5.05023424 13.8957508 -3 14 C-3.2113054 9.04059414 -3.2113054 9.04059414 -5.875 5.0625 C-12.46506079 2.82187933 -19.61521374 3.23901135 -26 6 C-26.33 4.35 -26.66 2.7 -27 1 C-18.26896633 -3.67008778 -8.91826129 -5.00292707 0 0 Z " fill="#71A0D8" transform="translate(823,542)"/>
<path d="M0 0 C4.78761667 2.39380834 7.30465287 5.52586409 9.5625 10.3125 C10.29422887 16.47992903 10.09444157 21.72692905 7.375 27.375 C2.81301721 32.4171915 -2.01734652 34.69126696 -8.73046875 35.16015625 C-14.22117245 34.77268835 -18.38357124 32.01077078 -21.9375 27.9375 C-25.67737214 22.61101543 -25.65210043 17.32175135 -25 11 C-19.72114616 0.24677921 -11.11554818 -1.47153318 0 0 Z " fill="#F0F3F8" transform="translate(549,393)"/>
<path d="M0 0 C3.96 0 7.92 0 12 0 C12 3.96 12 7.92 12 12 C15.96 12 19.92 12 24 12 C24 14.97 24 17.94 24 21 C20.04 21 16.08 21 12 21 C12.14035305 24.62528953 12.28702517 28.25012883 12.4375 31.875 C12.47681641 32.90753906 12.51613281 33.94007813 12.55664062 35.00390625 C12.59853516 35.99003906 12.64042969 36.97617187 12.68359375 37.9921875 C12.72025146 38.90339355 12.75690918 39.81459961 12.79467773 40.75341797 C12.86577065 43.03483481 12.86577065 43.03483481 14 45 C16.35599235 45.46751788 16.35599235 45.46751788 19.0625 45.625 C19.98160156 45.69976562 20.90070312 45.77453125 21.84765625 45.8515625 C22.55792969 45.90054688 23.26820313 45.94953125 24 46 C24.09765625 52.15234375 24.09765625 52.15234375 24 54 C21.81196376 56.18803624 16.7560674 55.36746476 13.73364258 55.39160156 C9.96499324 55.31757372 7.15461982 55.18035443 4.1875 52.75 C0.72133847 48.39253979 -0.25245134 45.74023115 -0.1953125 40.140625 C-0.18564453 38.46806641 -0.18564453 38.46806641 -0.17578125 36.76171875 C-0.15902344 35.60285156 -0.14226563 34.44398438 -0.125 33.25 C-0.11597656 32.07566406 -0.10695313 30.90132813 -0.09765625 29.69140625 C-0.07410063 26.79406464 -0.04120652 23.89713559 0 21 C-2.64 21 -5.28 21 -8 21 C-8 18.03 -8 15.06 -8 12 C-5.36 12 -2.72 12 0 12 C0 8.04 0 4.08 0 0 Z " fill="#2D3E59" transform="translate(705,428)"/>
<path d="M0 0 C3.96 0 7.92 0 12 0 C12 3.96 12 7.92 12 12 C15.96 12 19.92 12 24 12 C24 14.97 24 17.94 24 21 C19.71 21 15.42 21 11 21 C11.11370953 24.43821706 11.24046338 27.87508925 11.375 31.3125 C11.4059375 32.28896484 11.436875 33.26542969 11.46875 34.27148438 C11.50742187 35.20927734 11.54609375 36.14707031 11.5859375 37.11328125 C11.63306885 38.40939331 11.63306885 38.40939331 11.68115234 39.73168945 C11.87188037 42.27742445 11.87188037 42.27742445 14 45 C16.42521494 45.58189266 16.42521494 45.58189266 19.125 45.6875 C20.49011719 45.78611328 20.49011719 45.78611328 21.8828125 45.88671875 C22.93082031 45.94279297 22.93082031 45.94279297 24 46 C24 48.97 24 51.94 24 55 C21.45651575 55.13593443 18.92038504 55.23448907 16.375 55.3125 C15.66214844 55.35439453 14.94929687 55.39628906 14.21484375 55.43945312 C10.25689093 55.53023186 7.75786875 55.23536711 4.6015625 52.73046875 C0.60157812 48.53228694 -0.25432512 45.92386179 -0.1953125 40.140625 C-0.18564453 38.46806641 -0.18564453 38.46806641 -0.17578125 36.76171875 C-0.15902344 35.60285156 -0.14226563 34.44398438 -0.125 33.25 C-0.11597656 32.07566406 -0.10695313 30.90132813 -0.09765625 29.69140625 C-0.07410063 26.79406464 -0.04120652 23.89713559 0 21 C-2.64 21 -5.28 21 -8 21 C-8 18.03 -8 15.06 -8 12 C-5.36 12 -2.72 12 0 12 C0 8.04 0 4.08 0 0 Z " fill="#2C3D59" transform="translate(821,428)"/>
<path d="M0 0 C-0.33 1.98 -0.66 3.96 -1 6 C-1.9796875 5.67773438 -2.959375 5.35546875 -3.96875 5.0234375 C-8.1698342 3.82946739 -12.15181184 3.63277851 -16.5 3.625 C-17.22058594 3.60050781 -17.94117188 3.57601562 -18.68359375 3.55078125 C-24.2447125 3.52061243 -27.40950754 4.85793622 -32 8 C-37.72092552 13.72092552 -39.07180119 18.97205588 -39.3125 26.875 C-39.13371347 35.29900069 -37.20306222 41.26694582 -31.59765625 47.58984375 C-27.10227593 51.55764888 -22.81104468 51.30540766 -17.0625 51.25 C-16.26392578 51.25773438 -15.46535156 51.26546875 -14.64257812 51.2734375 C-10.25507358 51.2588973 -7.0379561 50.87396858 -3 49 C-2.01 49 -1.02 49 0 49 C0 50.98 0 52.96 0 55 C-11.15368481 59.42983226 -21.0845645 61.05120301 -32.45703125 56.390625 C-39.42291488 52.58132458 -44.36421949 46.46059907 -47 39 C-49.15397443 30.48597944 -49.55629879 19.87331458 -45.32421875 11.98828125 C-40.73569462 5.09872733 -34.98749869 -1.40605837 -26.7109375 -3.609375 C-17.27029398 -4.96969827 -8.30864061 -5.04372763 0 0 Z " fill="#6798D3" transform="translate(697,523)"/>
<path d="M0 0 C4.19584886 1.73306801 6.48204718 4.25933758 9 8 C9.8988117 13.65061766 10.4457147 20.66566262 7.25 25.6875 C2.28846431 30.78685613 2.28846431 30.78685613 -1.62109375 31.43359375 C-9.14745753 31.44403253 -9.14745753 31.44403253 -13 29.4375 C-17.64462786 23.77685979 -18.56275576 18.7856644 -18.35546875 11.58984375 C-17.72856362 7.02239211 -15.52041949 4.35508603 -12.16796875 1.3671875 C-8.36786649 -1.02927338 -4.34059647 -0.51522527 0 0 Z " fill="#F6F8FB" transform="translate(728,545)"/>
<path d="M0 0 C4.19621566 1.73321951 6.46701205 4.27102392 9 8 C9.89424485 13.62599711 9.61286752 19.16139745 7.8125 24.5625 C5.03853189 28.29300884 3.21370485 30.6732785 -1.59375 31.3828125 C-5.92953235 31.55764243 -9.08588487 31.45705756 -13 29.5 C-17.50549303 23.86813371 -18.67495083 18.0869837 -18 11 C-14.91023914 1.24286044 -9.76982174 -1.32198908 0 0 Z " fill="#F7F9FB" transform="translate(912,545)"/>
<path d="M0 0 C5.90275277 4.70034017 8.26429878 11.63653154 9.27392578 18.95922852 C9.43016679 23.6313386 9.39205415 28.28659523 9.27392578 32.95922852 C8.26330078 32.19610352 7.25267578 31.43297852 6.21142578 30.64672852 C5.48439453 30.10532227 4.75736328 29.56391602 4.00830078 29.00610352 C1.92437714 27.44613781 -0.1450575 25.87148891 -2.21044922 24.28735352 C-9.42795251 18.80623778 -16.26233729 14.33724428 -24.72607422 10.95922852 C-26.79262925 10.03070129 -28.85522495 9.09330697 -30.91357422 8.14672852 C-31.83525391 7.7277832 -32.75693359 7.30883789 -33.70654297 6.87719727 C-34.37298828 6.57426758 -35.03943359 6.27133789 -35.72607422 5.95922852 C-34.72607422 3.95922852 -34.72607422 3.95922852 -31.47216797 2.67016602 C-8.08014025 -4.87208457 -8.08014025 -4.87208457 0 0 Z " fill="#6092CF" transform="translate(576.72607421875,355.040771484375)"/>
<path d="M0 0 C4.18380474 3.44548625 5.75302206 6.50586449 6.36328125 11.828125 C6.56253608 17.65895056 5.53500933 21.95572945 2.125 26.75 C-1.55488383 30.21342008 -5.56933557 30.31686034 -10.43359375 30.171875 C-14.49126006 29.47071026 -16.12239574 27.77786468 -18.875 24.75 C-22.28604579 19.45577268 -21.67456978 12.76385816 -20.875 6.75 C-16.75228757 -1.36537085 -8.19466607 -3.56289829 0 0 Z " fill="#F7F8FB" transform="translate(1065.875,546.25)"/>
<path d="M0 0 C4.829797 1.69937302 6.79137735 3.43087233 9 8 C9.73503579 13.6617622 10.44889392 20.63867076 7.3125 25.6875 C3.5970616 29.4029384 0.89972373 31.15950752 -4.375 31.5625 C-9.0366567 31.42997799 -11.39319954 29.66485044 -14.6875 26.5078125 C-17.64066901 23.11518381 -17.29111852 19.46926844 -17.375 15.1875 C-17.41238281 14.47529297 -17.44976563 13.76308594 -17.48828125 13.02929688 C-17.55495615 9.02509876 -17.21088713 7.26061135 -14.6640625 4.11328125 C-9.47306317 -0.00450561 -6.4701325 -0.70784356 0 0 Z " fill="#F6F8FB" transform="translate(863,545)"/>
<path d="M0 0 C3.63 0 7.26 0 11 0 C11.33 1.65 11.66 3.3 12 5 C12.804375 4.175 13.60875 3.35 14.4375 2.5 C18.4505861 -0.91641622 21.91196091 -0.38545751 27 0 C27 2.97 27 5.94 27 9 C24.9271875 9.12375 24.9271875 9.12375 22.8125 9.25 C18.46900453 9.72197037 16.10745866 10.79543326 13 14 C11.65893595 16.6821281 11.78549581 18.88398032 11.68359375 21.8828125 C11.64169922 23.04941406 11.59980469 24.21601563 11.55664062 25.41796875 C11.49766602 27.25294922 11.49766602 27.25294922 11.4375 29.125 C11.39431641 30.35605469 11.35113281 31.58710938 11.30664062 32.85546875 C11.20031296 35.90352853 11.09828219 38.9516719 11 42 C7.37 42 3.74 42 0 42 C0 28.14 0 14.28 0 0 Z " fill="#253652" transform="translate(784,440)"/>
<path d="M0 0 C-0.33 1.65 -0.66 3.3 -1 5 C-1.68707031 4.83886719 -2.37414063 4.67773438 -3.08203125 4.51171875 C-6.32806089 3.94246857 -9.39278724 3.831284 -12.6875 3.8125 C-13.82574219 3.79832031 -14.96398438 3.78414062 -16.13671875 3.76953125 C-19.13135255 3.69928929 -19.13135255 3.69928929 -21 6 C-21.06546898 8.51047485 -21.06546898 8.51047485 -20 11 C-15.39403491 14.23004838 -10.21874267 15.84182184 -4.9609375 17.71875 C-0.65631498 19.58143626 -0.65631498 19.58143626 1 22 C1.88782185 26.71905306 1.67004412 30.80881046 -0.6875 35 C-5.2612138 38.95564437 -9.50103542 39.29456506 -15.4375 39.3125 C-16.71496094 39.32925781 -17.99242187 39.34601562 -19.30859375 39.36328125 C-23.20648831 38.97967893 -25.64521609 37.96516708 -29 36 C-28.67 34.35 -28.34 32.7 -28 31 C-27.071875 31.33 -26.14375 31.66 -25.1875 32 C-20.24473489 33.41510658 -15.09682962 33.55188601 -10 33 C-9.01 32.34 -8.02 31.68 -7 31 C-6.7497843 27.91634129 -6.7497843 27.91634129 -7 25 C-7.94875 24.5875 -8.8975 24.175 -9.875 23.75 C-10.82632812 23.33427734 -10.82632812 23.33427734 -11.796875 22.91015625 C-13.35160008 22.26786734 -14.92758489 21.67592143 -16.515625 21.12109375 C-22.30878728 19.04839048 -25.82839731 17.39172458 -29 12 C-29.61232322 8.57098997 -29.79372143 6.36557584 -28.0078125 3.29296875 C-20.72953538 -5.99700608 -9.86039868 -4.09023945 0 0 Z " fill="#6C9DD8" transform="translate(1145,542)"/>
<path d="M0 0 C0 3.96 0 7.92 0 12 C3.96 12 7.92 12 12 12 C12 13.98 12 15.96 12 18 C8.04 18 4.08 18 0 18 C0.11358571 22.27142048 0.24034641 26.54173682 0.375 30.8125 C0.4059375 32.02744141 0.436875 33.24238281 0.46875 34.49414062 C0.50742187 35.65751953 0.54609375 36.82089844 0.5859375 38.01953125 C0.6173584 39.09307861 0.6487793 40.16662598 0.68115234 41.27270508 C0.81592307 44.2160765 0.81592307 44.2160765 3 47 C5.19454681 47.57993699 5.19454681 47.57993699 7.625 47.6875 C8.44226562 47.75324219 9.25953125 47.81898438 10.1015625 47.88671875 C10.72804688 47.92410156 11.35453125 47.96148438 12 48 C12 49.65 12 51.3 12 53 C9.93867858 53.10864945 7.87568679 53.18588321 5.8125 53.25 C4.66394531 53.29640625 3.51539063 53.3428125 2.33203125 53.390625 C-1.63979862 52.9249943 -3.18771485 51.77629613 -6 49 C-7.46098845 46.0780231 -7.11134901 43.50106525 -7.09765625 40.2421875 C-7.0962413 39.57913605 -7.09482635 38.91608459 -7.09336853 38.23294067 C-7.08776754 36.11358137 -7.075215 33.99432741 -7.0625 31.875 C-7.05748512 30.43880361 -7.05292219 29.00260556 -7.04882812 27.56640625 C-7.03779782 24.04423655 -7.02053259 20.52212855 -7 17 C-9.64 17 -12.28 17 -15 17 C-15 15.68 -15 14.36 -15 13 C-12.36 13 -9.72 13 -7 13 C-7 9.04 -7 5.08 -7 1 C-3 0 -3 0 0 0 Z " fill="#6A9CD6" transform="translate(1020,528)"/>
<path d="M0 0 C3.88337994 0.06252311 6.1888853 0.71364782 9.25 3.25 C12.1252847 6.72017119 12.73098106 9.68743552 12.53515625 14.19140625 C11.91417182 18.67440347 10.48964852 22.0854817 7.1875 25.1875 C2.23775846 26.97783205 -3.13122187 27.40190241 -8.0234375 25.25 C-10.71342932 22.13399138 -10.36875988 18.79333491 -10.3125 14.875 C-10.33634766 14.11960937 -10.36019531 13.36421875 -10.38476562 12.5859375 C-10.37345322 8.27214151 -10.13636993 6.71510882 -7.27734375 3.2734375 C-6.44332031 2.60570312 -5.60929688 1.93796875 -4.75 1.25 C-3.75 0.25 -3.75 0.25 0 0 Z " fill="#F3F4F7" transform="translate(924.75,447.75)"/>
<path d="M0 0 C5.07030893 0.10660308 7.9965799 1.02175452 11.5625 4.65625 C13.71579757 7.83236391 14.21325159 10.71176331 13.8125 14.5 C12.30464371 18.70612545 10.66662986 21.2116104 6.8125 23.5 C3.09762845 24.73829052 -0.32728512 25.0503822 -4.1875 24.5 C-7.62573122 22.4071636 -9.99919353 20.389003 -11.1875 16.5 C-11.78384961 10.33772067 -11.20381683 7.46133256 -7.1875 2.5 C-4.65027946 -0.03722054 -3.52838191 0.11680161 0 0 Z " fill="#DBE9F8" transform="translate(540.1875,397.5)"/>
<path d="M0 0 C2.31 0 4.62 0 7 0 C7.01030746 0.69491043 7.02061493 1.38982086 7.03123474 2.10578918 C7.12919919 8.65362067 7.23171217 15.20136328 7.33933926 21.74904346 C7.39451122 25.11529613 7.44792197 28.48155757 7.49731445 31.84790039 C7.55496637 35.71769614 7.61867568 39.58735144 7.68359375 43.45703125 C7.70030624 44.66647903 7.71701874 45.87592682 7.73423767 47.12202454 C7.75418289 48.24296005 7.77412811 49.36389557 7.79467773 50.51879883 C7.81022202 51.50697098 7.8257663 52.49514313 7.84178162 53.51325989 C7.90213783 56.13199956 7.90213783 56.13199956 9 59 C10.65 59 12.3 59 14 59 C14 60.65 14 62.3 14 64 C12.60696395 64.13657216 11.20993879 64.23271149 9.8125 64.3125 C9.03519531 64.37050781 8.25789062 64.42851563 7.45703125 64.48828125 C4.66169694 63.93276966 3.02644615 62.98978715 1.06001282 60.92146301 C-1.44059482 56.38866397 -0.5907458 50.62715154 -0.48828125 45.60546875 C-0.48120651 44.30297684 -0.47413177 43.00048492 -0.46684265 41.65852356 C-0.44781513 38.20736116 -0.39875439 34.75726261 -0.34332275 31.30651855 C-0.29203649 27.78066396 -0.26930883 24.25463627 -0.24414062 20.72851562 C-0.19062898 13.81857531 -0.10536972 6.90933883 0 0 Z " fill="#6E9DD7" transform="translate(774,517)"/>
<path d="M0 0 C0 2.31 0 4.62 0 7 C-0.59167969 7.02578125 -1.18335938 7.0515625 -1.79296875 7.078125 C-7.04981899 7.45545193 -10.17748357 8.05802993 -14 12 C-15.36839363 14.73678725 -15.21634818 17.04264424 -15.31640625 20.1015625 C-15.35830078 21.31328125 -15.40019531 22.525 -15.44335938 23.7734375 C-15.48267578 25.04445313 -15.52199219 26.31546875 -15.5625 27.625 C-15.62727539 29.543125 -15.62727539 29.543125 -15.69335938 31.5 C-15.79969886 34.66655348 -15.90172833 37.83318753 -16 41 C-18.31 41 -20.62 41 -23 41 C-23 27.8 -23 14.6 -23 1 C-21.02 1 -19.04 1 -17 1 C-17 2.98 -17 4.96 -17 7 C-16.34 7 -15.68 7 -15 7 C-14.6596875 6.1028125 -14.6596875 6.1028125 -14.3125 5.1875 C-10.8701556 -0.54974067 -6.01776256 -0.30598793 0 0 Z " fill="#6F9DD7" transform="translate(962,539)"/>
<path d="M0 0 C1.98 0 3.96 0 6 0 C6 20.79 6 41.58 6 63 C4.02 63 2.04 63 0 63 C0 42.21 0 21.42 0 0 Z " fill="#6194D1" transform="translate(755,517)"/>
<path d="M0 0 C1.98 0 3.96 0 6 0 C6 1.98 6 3.96 6 6 C6.40089844 5.566875 6.80179688 5.13375 7.21484375 4.6875 C10.69600045 1.27738731 12.94615608 -0.42238618 17.9375 -0.375 C19.29409299 -0.27987996 20.65015829 -0.16528674 22 0 C22 1.98 22 3.96 22 6 C21.32453125 6.08636719 20.6490625 6.17273438 19.953125 6.26171875 C19.06109375 6.40222656 18.1690625 6.54273438 17.25 6.6875 C16.36828125 6.81511719 15.4865625 6.94273437 14.578125 7.07421875 C11.09420578 8.32526247 10.02278334 9.92267509 8 13 C7.36450435 16.17793092 7.36450435 16.17793092 7.390625 19.61328125 C7.35839844 20.86044922 7.32617188 22.10761719 7.29296875 23.39257812 C7.27169922 25.33293945 7.27169922 25.33293945 7.25 27.3125 C7.22035156 28.62541016 7.19070313 29.93832031 7.16015625 31.29101562 C7.08954411 34.52740535 7.03680123 37.76307811 7 41 C4.69 41 2.38 41 0 41 C0 27.47 0 13.94 0 0 Z " fill="#6797D1" transform="translate(1089,540)"/>
<path d="M0 0 C1.46373047 0.01353516 1.46373047 0.01353516 2.95703125 0.02734375 C4.06111328 0.04474609 4.06111328 0.04474609 5.1875 0.0625 C5.79922472 7.28085174 5.79922472 7.28085174 2.9375 10.9375 C-1.69857546 14.51992195 -4.92859025 15.52819499 -10.75 15.375 C-12.8125 15.0625 -12.8125 15.0625 -14.875 13.4375 C-16.10294233 10.32671276 -16.36507826 8.37796958 -15.8125 5.0625 C-11.18398208 0.16949534 -6.44604118 -0.07766315 0 0 Z " fill="#F1F4F9" transform="translate(987.8125,560.9375)"/>
<path d="M0 0 C1.76923828 0.01353516 1.76923828 0.01353516 3.57421875 0.02734375 C4.47785156 0.03894531 5.38148438 0.05054688 6.3125 0.0625 C6.9245761 7.28499793 6.9245761 7.28499793 4 11 C0.56742079 13.63430498 -1.96682905 14.22808658 -6.1875 14.3125 C-7.34765625 14.35117187 -7.34765625 14.35117187 -8.53125 14.390625 C-10.6875 14.0625 -10.6875 14.0625 -12.44140625 12.765625 C-14.53329643 9.90648983 -14.11271013 7.46418101 -13.6875 4.0625 C-9.72354164 -0.03814658 -5.44343967 -0.05389544 0 0 Z " fill="#F6F8FB" transform="translate(813.6875,561.9375)"/>
<path d="M0 0 C-0.33 4.29 -0.66 8.58 -1 13 C-5.98887561 14.13383537 -10.94096092 15.2216863 -16 16 C-16.62627475 8.014997 -16.62627475 8.014997 -14.1875 4.0625 C-9.29646728 -0.54904513 -6.43785845 -0.18660459 0 0 Z " fill="#A4C6ED" transform="translate(397,531)"/>
<path d="M0 0 C1.26328125 0.03609375 2.5265625 0.0721875 3.828125 0.109375 C5.27445313 0.17898438 5.27445313 0.17898438 6.75 0.25 C7.046875 5.890625 7.046875 5.890625 4.375 9.125 C0.76068417 11.81412015 -2.70234582 11.73380321 -7.078125 11.62109375 C-9.25 11.25 -9.25 11.25 -11.25 9.25 C-11.625 6.875 -11.625 6.875 -11.25 4.25 C-7.99786151 -0.1994432 -5.32051738 -0.1970562 0 0 Z " fill="#EFF0F3" transform="translate(756.25,463.75)"/>
<path d="M0 0 C0.33 0 0.66 0 1 0 C1.33 1.98 1.66 3.96 2 6 C3.65 5.67 5.3 5.34 7 5 C6.21232408 6.93912584 5.4197133 8.87624766 4.625 10.8125 C4.18414062 11.89144531 3.74328125 12.97039063 3.2890625 14.08203125 C2 17 2 17 0 20 C-0.66 20 -1.32 20 -2 20 C-1.86177801 16.85378318 -1.71314916 13.70814434 -1.5625 10.5625 C-1.52318359 9.66466797 -1.48386719 8.76683594 -1.44335938 7.84179688 C-1.40146484 6.98779297 -1.35957031 6.13378906 -1.31640625 5.25390625 C-1.27974854 4.46314697 -1.24309082 3.6723877 -1.20532227 2.85766602 C-1 1 -1 1 0 0 Z " fill="#FDD56C" transform="translate(485,539)"/>
<path d="M0 0 C0.36630156 3.93774177 0.30233203 5.56539771 -2 8.875 C-2.66 9.57625 -3.32 10.2775 -4 11 C-4.99 10.67 -5.98 10.34 -7 10 C-6.39169139 3.55192878 -6.39169139 3.55192878 -4.625 1.0625 C-3 0 -3 0 0 0 Z " fill="#FCE677" transform="translate(424,589)"/>
<path d="M0 0 C0.99 0.33 1.98 0.66 3 1 C3.125 3.875 3.125 3.875 3 7 C2.34 7.66 1.68 8.32 1 9 C-1.125 8.625 -1.125 8.625 -3 8 C-3.36923077 3.44615385 -3.36923077 3.44615385 -1.5 1.1875 C-1.005 0.795625 -0.51 0.40375 0 0 Z " fill="#C1D9F4" transform="translate(446,610)"/>
<path d="M0 0 C0.33 0 0.66 0 1 0 C1.33 1.98 1.66 3.96 2 6 C3.65 5.67 5.3 5.34 7 5 C5.71480435 7.86697492 4.42870746 9.97607712 2 12 C1.34 12 0.68 12 0 12 C-0.19401633 10.18818595 -0.38004375 8.37551468 -0.5625 6.5625 C-0.66691406 5.55316406 -0.77132813 4.54382813 -0.87890625 3.50390625 C-0.91886719 2.67761719 -0.95882813 1.85132813 -1 1 C-0.67 0.67 -0.34 0.34 0 0 Z " fill="#FBC76D" transform="translate(485,539)"/>
<path d="M0 0 C0.33 0 0.66 0 1 0 C1 2.31 1 4.62 1 7 C0.34 6.34 -0.32 5.68 -1 5 C-1.99 6.32 -2.98 7.64 -4 9 C-4.66 8.67 -5.32 8.34 -6 8 C-5.02471263 6.66382648 -4.04466681 5.3311249 -3.0625 4 C-2.24458984 2.88625 -2.24458984 2.88625 -1.41015625 1.75 C-0.94480469 1.1725 -0.47945313 0.595 0 0 Z " fill="#FAF0DA" transform="translate(484,541)"/>
<path d="M0 0 C0.66 0.33 1.32 0.66 2 1 C-0.64 3.97 -3.28 6.94 -6 10 C-6.33 9.34 -6.66 8.68 -7 8 C-6.21366078 6.85050412 -5.42073742 5.70551011 -4.625 4.5625 C-4.18414063 3.92441406 -3.74328125 3.28632813 -3.2890625 2.62890625 C-2 1 -2 1 0 0 Z " fill="#334662" transform="translate(659,423)"/>
<path d="M0 0 C1.32 0.66 2.64 1.32 4 2 C3.1875 3.9375 3.1875 3.9375 2 6 C1.01 6.33 0.02 6.66 -1 7 C-0.67 4.69 -0.34 2.38 0 0 Z " fill="#FBDF78" transform="translate(430,570)"/>
<path d="M0 0 C0.66 0 1.32 0 2 0 C1.64950425 3.24208567 1.43778819 4.61527704 -1.0625 6.8125 C-1.701875 7.204375 -2.34125 7.59625 -3 8 C-3.66 7.67 -4.32 7.34 -5 7 C-4.21654285 5.82780457 -3.42297164 4.66236332 -2.625 3.5 C-2.18414062 2.8503125 -1.74328125 2.200625 -1.2890625 1.53125 C-0.65097656 0.77328125 -0.65097656 0.77328125 0 0 Z " fill="#FAEFD0" transform="translate(461,534)"/>
<path d="M0 0 C0.33 0.99 0.66 1.98 1 3 C2.65 3.33 4.3 3.66 6 4 C6 4.33 6 4.66 6 5 C2.625 4.6875 2.625 4.6875 -1 4 C-1.66 3.01 -2.32 2.02 -3 1 C-2.01 0.67 -1.02 0.34 0 0 Z " fill="#517BB9" transform="translate(546,359)"/>
</svg>
